<svg width="1050" height="1050" viewBox="0 0 1050 1050" fill="none" xmlns="http://www.w3.org/2000/svg">
<path d="M660.01 248.48C624.01 234.98 586.44 223.68 547.99 223.85C496.18 224.08 446.93 244.99 399.8 266.5C313.03 306.11 244.61 368.17 173.48 431.2C115.91 482.23 106.45 588.02 108.19 659.9C108.4 668.57 108.62 677.29 109.01 686C110.22 712.8 113.09 739.52 122.49 764.5C137.55 804.56 172.49 838.38 198.87 871.35C227.43 907.04 255.42 936.82 293.87 962.31C337.4 991.16 399.65 1040.71 453.35 1045.26C520.95 1050.98 572.71 1053.73 637.68 1033.48C706.88 1011.91 782.73 980.43 832.53 925.25C858.64 896.32 875.69 855.03 895.13 821.39C933.05 755.77 948.77 685 939.01 609.56C928.8 530.6 897.78 470.08 865.06 399.5C823.04 308.86 749.21 281.93 660 248.49L660.01 248.48Z" fill="#EBF2D4"/>
<path d="M588.29 211.29C544.32 211.29 508.55 175.52 508.55 131.56V83.32C508.55 73.36 516.62 65.29 526.59 65.29C536.56 65.29 544.63 73.36 544.63 83.32V131.56C544.63 155.64 564.22 175.23 588.3 175.23C598.26 175.23 606.34 183.3 606.34 193.26C606.34 203.22 598.27 211.29 588.3 211.29H588.29Z" fill="#A8C653"/>
<path d="M606.49 246.02H588.29C578.33 246.02 570.25 237.95 570.25 227.99C570.25 218.03 578.32 209.96 588.29 209.96H606.49C620.53 209.96 631.95 198.54 631.95 184.49V152.8C631.95 142.84 640.02 134.77 649.99 134.77C659.96 134.77 668.03 142.84 668.03 152.8V184.49C668.03 218.42 640.43 246.03 606.49 246.03V246.02Z" fill="#A8C653"/>
<path d="M588.29 352.38C578.33 352.38 570.25 344.31 570.25 334.35V18.03C570.25 8.07 578.32 0 588.29 0C598.26 0 606.33 8.07 606.33 18.03V334.34C606.33 344.3 598.26 352.37 588.29 352.37V352.38Z" fill="#A8C653"/>
<path d="M588.29 194.46C553.6 194.46 525.39 166.24 525.39 131.56V89.3299C525.39 88.6699 525.93 88.1299 526.59 88.1299C527.25 88.1299 527.79 88.6699 527.79 89.3299V131.56C527.79 164.92 554.93 192.06 588.29 192.06C588.95 192.06 589.49 192.6 589.49 193.26C589.49 193.92 588.95 194.46 588.29 194.46Z" fill="white"/>
<path d="M526.59 95.9801C530.086 95.9801 532.92 93.146 532.92 89.6501C532.92 86.1541 530.086 83.3201 526.59 83.3201C523.094 83.3201 520.26 86.1541 520.26 89.6501C520.26 93.146 523.094 95.9801 526.59 95.9801Z" fill="white"/>
<path d="M606.49 229.18H588.29C587.63 229.18 587.09 228.64 587.09 227.98C587.09 227.32 587.63 226.78 588.29 226.78H606.49C629.81 226.78 648.79 207.8 648.79 184.48V158.8C648.79 158.14 649.33 157.6 649.99 157.6C650.65 157.6 651.19 158.14 651.19 158.8V184.48C651.19 209.13 631.14 229.18 606.49 229.18Z" fill="white"/>
<path d="M649.99 165.45C653.486 165.45 656.32 162.616 656.32 159.12C656.32 155.624 653.486 152.79 649.99 152.79C646.494 152.79 643.66 155.624 643.66 159.12C643.66 162.616 646.494 165.45 649.99 165.45Z" fill="white"/>
<path d="M588.29 335.55C587.63 335.55 587.09 335.01 587.09 334.35V24.0501C587.09 23.3901 587.63 22.8501 588.29 22.8501C588.95 22.8501 589.49 23.3901 589.49 24.0501V334.35C589.49 335.01 588.95 335.55 588.29 335.55Z" fill="white"/>
<path d="M588.29 30.69C591.786 30.69 594.62 27.856 594.62 24.36C594.62 20.8641 591.786 18.03 588.29 18.03C584.794 18.03 581.96 20.8641 581.96 24.36C581.96 27.856 584.794 30.69 588.29 30.69Z" fill="white"/>
<path d="M742.49 381.67C737.87 366.1 728.6 342.59 723 327.54C712.99 300.59 699.38 257.99 673.88 247.97C649.1 238.23 630.65 271.48 620.72 293.68C609.08 319.69 598.96 346.77 590.48 374.64C586.81 386.69 744.92 389.85 742.5 381.68L742.49 381.67Z" fill="#006D68"/>
<path d="M692.19 387.53C651.48 387.53 599.85 384.25 590.86 377.78C588.98 376.42 589.07 375 589.29 374.27C597.75 346.47 607.94 319.18 619.58 293.17C636.73 254.87 655.16 239.26 674.33 246.81C698.27 256.22 711.77 293.19 721.62 320.19C722.5 322.58 723.34 324.9 724.16 327.11C725.42 330.51 726.88 334.35 728.42 338.43C733.62 352.15 740.08 369.23 743.67 381.32C743.79 381.72 743.94 382.76 742.71 383.63C739.04 386.24 717.76 387.53 692.18 387.53H692.19ZM665.07 247.47C650.25 247.47 635.75 263.12 621.84 294.18C610.24 320.1 600.08 347.29 591.65 374.99C591.6 375.14 591.91 375.59 592.92 376.15C610.17 385.75 734.08 387.09 741.19 381.68C737.61 369.7 731.23 352.85 726.1 339.29C724.55 335.21 723.1 331.36 721.83 327.96C721.01 325.75 720.16 323.43 719.29 321.03C709.59 294.47 696.31 258.11 673.42 249.11C670.63 248.01 667.84 247.46 665.07 247.46V247.47Z" fill="#006D68"/>
<path d="M664.66 497.09C663.7 497.09 662.91 496.31 662.91 495.34V276.19C662.91 275.22 663.69 274.44 664.66 274.44C665.63 274.44 666.41 275.22 666.41 276.19V495.34C666.41 496.31 665.63 497.09 664.66 497.09Z" fill="white"/>
<path d="M673.21 276.62C673.21 271.9 669.38 268.08 664.67 268.08C659.96 268.08 656.13 271.91 656.13 276.62C656.13 281.33 659.96 285.16 664.67 285.16C669.38 285.16 673.21 281.33 673.21 276.62Z" fill="white"/>
<path d="M644.71 486.31C643.75 486.31 642.96 485.53 642.96 484.56V306.92C642.96 305.95 643.74 305.17 644.71 305.17C645.68 305.17 646.46 305.95 646.46 306.92V484.56C646.46 485.53 645.68 486.31 644.71 486.31Z" fill="white"/>
<path d="M653.25 307.34C653.25 302.62 649.42 298.8 644.71 298.8C640 298.8 636.17 302.63 636.17 307.34C636.17 312.05 640 315.88 644.71 315.88C649.42 315.88 653.25 312.05 653.25 307.34Z" fill="white"/>
<path d="M684.95 503.75C683.99 503.75 683.2 502.97 683.2 502V306.91C683.2 305.94 683.98 305.16 684.95 305.16C685.92 305.16 686.7 305.94 686.7 306.91V502C686.7 502.97 685.92 503.75 684.95 503.75Z" fill="white"/>
<path d="M693.5 307.34C693.5 302.62 689.67 298.8 684.96 298.8C680.25 298.8 676.42 302.63 676.42 307.34C676.42 312.05 680.25 315.88 684.96 315.88C689.67 315.88 693.5 312.05 693.5 307.34Z" fill="white"/>
<path d="M619.93 408.21C616.95 412.06 430.73 423.44 380.79 407.44C367.69 403.24 343.43 394.06 343.68 379.93C343.95 364.58 354.94 345.15 360.93 331.05C369.3 311.34 378.98 292.02 390.49 273.63C407.52 246.43 435.76 205.9 475.38 205.9C514.85 205.9 543.03 246.17 560.04 273.27C571.42 291.4 631.01 393.88 619.92 408.21H619.93Z" fill="#A9C753"/>
<path d="M459.29 281.36C448.6 281.36 439.46 273.72 437.56 263.19C437.39 262.27 438 261.4 438.92 261.23C439.84 261.06 440.71 261.67 440.88 262.59C442.49 271.51 450.23 277.99 459.29 277.99C468.35 277.99 476.09 271.52 477.7 262.59C477.86 261.67 478.74 261.06 479.66 261.23C480.58 261.4 481.19 262.27 481.02 263.19C479.12 273.72 469.98 281.36 459.29 281.36Z" fill="white"/>
<path d="M435.48 263.44C435.28 261.35 436.81 259.49 438.9 259.28C440.99 259.08 442.85 260.61 443.06 262.7C443.26 264.79 441.73 266.65 439.64 266.86C437.55 267.06 435.69 265.53 435.48 263.44Z" fill="white"/>
<path d="M483.1 263.44C483.3 261.35 481.77 259.49 479.68 259.28C477.59 259.08 475.73 260.61 475.52 262.7C475.32 264.79 476.85 266.65 478.94 266.86C481.03 267.06 482.89 265.53 483.1 263.44Z" fill="white"/>
<path d="M459.29 319.1C443.11 319.1 429.45 306.98 427.52 290.92C427.41 290 428.07 289.16 428.99 289.04C429.91 288.93 430.75 289.59 430.87 290.51C432.6 304.88 444.81 315.72 459.29 315.72C473.77 315.72 485.98 304.88 487.71 290.51C487.82 289.59 488.65 288.93 489.59 289.04C490.51 289.15 491.17 289.99 491.06 290.92C489.13 306.99 475.47 319.1 459.29 319.1Z" fill="white"/>
<path d="M425.45 291.17C425.3 289.07 426.88 287.25 428.98 287.11C431.08 286.96 432.9 288.54 433.04 290.64C433.19 292.74 431.61 294.56 429.51 294.7C427.41 294.85 425.59 293.27 425.45 291.17Z" fill="white"/>
<path d="M493.13 291.17C493.28 289.07 491.7 287.25 489.6 287.11C487.5 286.96 485.68 288.54 485.54 290.64C485.39 292.74 486.97 294.56 489.07 294.7C491.17 294.85 492.99 293.27 493.13 291.17Z" fill="white"/>
<path d="M459.28 404.59C458.35 404.59 457.59 403.83 457.59 402.9V240.25C457.59 239.32 458.35 238.56 459.28 238.56C460.21 238.56 460.97 239.32 460.97 240.25V402.9C460.97 403.83 460.21 404.59 459.28 404.59Z" fill="white"/>
<path d="M455.47 240.44C455.47 238.34 457.17 236.63 459.28 236.63C461.39 236.63 463.09 238.33 463.09 240.44C463.09 242.55 461.39 244.25 459.28 244.25C457.17 244.25 455.47 242.55 455.47 240.44Z" fill="white"/>
<path d="M608.94 406.5C610.71 387.91 593.59 365.89 588.18 350.84C581.34 331.81 549.41 291.81 542.85 288.5C531.5 282.77 518.73 285.74 509.68 293.92C492.3 309.63 482.04 331.98 474.2 353.63C468.01 370.73 452.75 401.57 463.8 418.68C473.81 436.21 505.45 439.35 522.98 440.53C544.42 441.97 594.54 437.6 606.22 415.7C607.78 412.77 608.64 409.69 608.94 406.51V406.5Z" fill="#E6EDCF"/>
<path d="M567.63 440.11C566.84 440.11 566.17 439.5 566.11 438.7C564.66 418.33 569.74 397.52 580.43 380.11C583.38 375.3 589.48 370.14 596.91 371.43C598.47 371.7 599.83 372.19 601.06 372.91C601.78 373.34 602.02 374.27 601.6 374.99C601.17 375.72 600.23 375.95 599.52 375.53C598.61 374.99 597.58 374.63 596.39 374.42C590.48 373.39 585.48 377.69 583.02 381.69C572.66 398.56 567.73 418.73 569.14 438.48C569.2 439.32 568.57 440.05 567.73 440.11C567.69 440.11 567.66 440.11 567.62 440.11H567.63Z" fill="#A8C653"/>
<path d="M540.6 469.21C539.76 469.21 539.09 468.53 539.08 467.7C538.89 433.46 549.68 382.43 570.04 355.29C572.29 352.29 574.87 349.32 578.43 347.94C581.59 346.72 585.09 346.86 588.85 348.35C589.63 348.66 590.01 349.54 589.7 350.32C589.39 351.1 588.51 351.48 587.73 351.18C584.66 349.97 581.98 349.83 579.52 350.78C576.53 351.93 574.31 354.65 572.47 357.11C553.23 382.76 541.93 433.47 542.12 467.68C542.12 468.52 541.45 469.2 540.61 469.21H540.6Z" fill="#A8C653"/>
<path d="M514.56 447.98C514.56 447.98 514.5 447.98 514.48 447.98C513.64 447.93 513 447.22 513.05 446.38C515.26 406.04 529.18 368.09 553.29 336.63C559.34 328.74 569.49 321.83 578.59 324.21C579.4 324.42 579.89 325.25 579.68 326.07C579.47 326.88 578.62 327.37 577.82 327.16C570.07 325.13 561.15 331.39 555.71 338.49C531.97 369.46 518.27 406.83 516.09 446.56C516.05 447.37 515.38 448 514.57 448L514.56 447.98Z" fill="#A8C653"/>
<g style="mix-blend-mode:multiply">
<path d="M410.05 319.88C431.61 339.95 445.51 368.56 455.49 395.6C456.73 398.97 400.05 407.2 324.67 407.2C300.91 407.2 307.83 377.78 317.48 361.53C337.54 327.76 369.32 281.98 410.04 319.89L410.05 319.88Z" fill="#006D68"/>
<path d="M324.67 408.12C317.68 408.12 312.75 405.68 310.01 400.86C304.56 391.29 309.25 373.59 316.69 361.05C332.02 335.24 350.86 308.41 374.49 305.01C386.53 303.28 398.71 308.05 410.69 319.2C428.73 336 443.67 360.88 456.37 395.28C456.52 395.67 456.45 396.11 456.19 396.48C453.34 400.57 397.19 408.12 324.68 408.12H324.67ZM379.29 306.52C377.77 306.52 376.26 306.63 374.75 306.84C351.9 310.12 333.38 336.56 318.29 361.99C311.12 374.07 306.52 390.98 311.63 399.94C314.02 404.14 318.41 406.26 324.68 406.26C395.96 406.26 450.11 398.79 454.5 395.56C441.94 361.63 427.19 337.09 409.43 320.55C399.41 311.22 389.29 306.51 379.3 306.51L379.29 306.52Z" fill="#006D68"/>
</g>
<path d="M335.33 383.97C334.45 383.97 333.69 383.3 333.6 382.4C332.05 366.79 328.8 359.38 327 356.35C326.68 355.81 326.39 355.29 326.12 354.77C325.36 353.37 324.7 352.15 323.54 351.17C322.81 350.55 322.72 349.45 323.34 348.71C323.97 347.97 325.07 347.89 325.8 348.51C327.45 349.91 328.33 351.53 329.18 353.1C329.44 353.58 329.7 354.06 330 354.56C331.95 357.84 335.46 365.77 337.07 382.05C337.17 383.01 336.47 383.86 335.51 383.96C335.45 383.96 335.39 383.96 335.33 383.96V383.97Z" fill="#A8C653"/>
<path d="M366.08 381.87C365.24 381.87 364.5 381.26 364.36 380.4C360.02 353.07 349.7 331.32 339.81 328.7C338.88 328.45 338.32 327.5 338.57 326.57C338.81 325.64 339.76 325.08 340.7 325.33C352.04 328.34 363.18 350.76 367.79 379.85C367.94 380.8 367.29 381.69 366.34 381.84C366.25 381.85 366.15 381.86 366.06 381.86L366.08 381.87Z" fill="#A8C653"/>
<path d="M371.83 305.81C370.87 305.81 370.09 305.03 370.09 304.07V171.23C370.09 170.27 370.87 169.49 371.83 169.49C372.79 169.49 373.57 170.27 373.57 171.23V304.07C373.57 305.03 372.79 305.81 371.83 305.81Z" fill="#006D68"/>
<path d="M378.38 171.55C378.38 167.93 375.45 165 371.83 165C368.21 165 365.28 167.93 365.28 171.55C365.28 175.17 368.21 178.1 371.83 178.1C375.45 178.1 378.38 175.17 378.38 171.55Z" fill="#006D68"/>
<path d="M353.62 201.95H350.13V316.99H353.62V201.95Z" fill="#006D68"/>
<path d="M358.43 202.28C358.43 198.66 355.5 195.73 351.88 195.73C348.26 195.73 345.33 198.66 345.33 202.28C345.33 205.9 348.26 208.83 351.88 208.83C355.5 208.83 358.43 205.9 358.43 202.28Z" fill="#006D68"/>
<path d="M392.12 307.33C391.16 307.33 390.38 306.55 390.38 305.59V201.95C390.38 200.99 391.16 200.21 392.12 200.21C393.08 200.21 393.86 200.99 393.86 201.95V305.59C393.86 306.55 393.08 307.33 392.12 307.33Z" fill="#006D68"/>
<path d="M398.67 202.28C398.67 198.66 395.74 195.73 392.12 195.73C388.5 195.73 385.57 198.66 385.57 202.28C385.57 205.9 388.5 208.83 392.12 208.83C395.74 208.83 398.67 205.9 398.67 202.28Z" fill="#006D68"/>
<path d="M743.79 411.68H305.44V1043.99H743.79V411.68Z" fill="white"/>
<path d="M743.79 1045.77H305.44C304.45 1045.77 303.66 1044.97 303.66 1043.98V411.68C303.66 410.69 304.46 409.89 305.44 409.89H743.79C744.78 409.89 745.57 410.69 745.57 411.68V1043.99C745.57 1044.98 744.77 1045.78 743.79 1045.78V1045.77ZM307.23 1042.2H742.01V413.47H307.23V1042.2Z" fill="#A8C653"/>
<path d="M439.45 738.36C438.29 738.36 437.34 737.42 437.34 736.25V632.67C437.34 614.27 441.69 601.07 450.62 592.32C466.7 576.57 495.77 577.18 529.47 577.89C536.85 578.04 544.48 578.2 552.28 578.2L589.29 578.18C595.88 578.17 602.47 578.15 609.06 578.2C626.46 578.3 634.31 573.23 635.3 561.17V415.07C635.3 413.91 636.24 412.96 637.4 412.96C638.56 412.96 639.51 413.9 639.51 415.07V561.34C637.96 580.44 621.39 582.48 609.03 582.41C602.46 582.36 595.88 582.38 589.31 582.39L552.29 582.41C544.44 582.41 536.79 582.25 529.39 582.09C496.65 581.41 468.39 580.81 453.58 595.32C445.5 603.24 441.57 615.45 441.57 632.66V736.24C441.57 737.4 440.63 738.35 439.46 738.35L439.45 738.36Z" fill="#A8C653"/>
<path d="M444.2 736.01C444.2 738.63 442.07 740.76 439.45 740.76C436.83 740.76 434.7 738.63 434.7 736.01C434.7 733.39 436.83 731.26 439.45 731.26C442.07 731.26 444.2 733.39 444.2 736.01Z" fill="#A8C653"/>
<path d="M642.15 415.32C642.15 412.7 640.02 410.57 637.4 410.57C634.78 410.57 632.65 412.7 632.65 415.32C632.65 417.94 634.78 420.07 637.4 420.07C640.02 420.07 642.15 417.94 642.15 415.32Z" fill="#A8C653"/>
<path d="M745.84 380.12H304.3V411.68H745.84V380.12Z" fill="#A9C753"/>
<path d="M451.95 738.36C450.79 738.36 449.84 737.42 449.84 736.25V632.67C449.84 614.27 454.19 601.07 463.12 592.32C479.2 576.57 508.29 577.18 541.97 577.89C549.35 578.04 556.98 578.2 564.78 578.2H612.5C613.66 578.2 614.61 579.14 614.61 580.31C614.61 581.48 613.67 582.42 612.5 582.42H564.78C556.93 582.42 549.28 582.26 541.89 582.1C509.15 581.41 480.89 580.82 466.07 595.33C457.99 603.25 454.06 615.46 454.06 632.67V736.25C454.06 737.41 453.12 738.36 451.95 738.36Z" fill="#A8C653"/>
<path d="M456.7 736.01C456.7 738.63 454.57 740.76 451.95 740.76C449.33 740.76 447.2 738.63 447.2 736.01C447.2 733.39 449.33 731.26 451.95 731.26C454.57 731.26 456.7 733.39 456.7 736.01Z" fill="#A8C653"/>
<path d="M612.26 585.07C614.88 585.07 617.01 582.94 617.01 580.32C617.01 577.7 614.88 575.57 612.26 575.57C609.64 575.57 607.51 577.7 607.51 580.32C607.51 582.94 609.64 585.07 612.26 585.07Z" fill="#A8C653"/>
<path d="M426.95 738.36C425.79 738.36 424.84 737.42 424.84 736.25V632.67C424.84 614.27 429.19 601.07 438.12 592.32C454.2 576.57 483.28 577.18 516.97 577.89C524.35 578.04 531.98 578.2 539.78 578.2H612.5C613.66 578.2 614.61 579.14 614.61 580.31C614.61 581.48 613.67 582.42 612.5 582.42H539.78C531.93 582.42 524.28 582.26 516.89 582.1C484.15 581.41 455.89 580.82 441.07 595.33C432.99 603.25 429.06 615.46 429.06 632.67V736.25C429.06 737.41 428.12 738.36 426.95 738.36Z" fill="#A8C653"/>
<path d="M431.7 736.01C431.7 738.63 429.57 740.76 426.95 740.76C424.33 740.76 422.2 738.63 422.2 736.01C422.2 733.39 424.33 731.26 426.95 731.26C429.57 731.26 431.7 733.39 431.7 736.01Z" fill="#A8C653"/>
<path d="M612.26 585.07C614.88 585.07 617.01 582.94 617.01 580.32C617.01 577.7 614.88 575.57 612.26 575.57C609.64 575.57 607.51 577.7 607.51 580.32C607.51 582.94 609.64 585.07 612.26 585.07Z" fill="#A8C653"/>
<path d="M439.45 934.4C438.29 934.4 437.34 933.46 437.34 932.29V828.71C437.34 810.31 441.69 797.11 450.62 788.36C466.7 772.61 495.77 773.22 529.47 773.93C536.85 774.08 544.48 774.24 552.28 774.24L589.29 774.22C595.89 774.2 602.48 774.19 609.06 774.24C626.47 774.33 634.31 769.27 635.3 757.21V588.33C635.3 587.17 636.24 586.22 637.4 586.22C638.56 586.22 639.51 587.16 639.51 588.33V757.38C637.96 776.48 621.39 778.54 609.03 778.45C602.46 778.4 595.88 778.42 589.31 778.43L552.29 778.45C544.44 778.45 536.79 778.29 529.39 778.13C496.65 777.45 468.39 776.85 453.58 791.36C445.5 799.28 441.57 811.49 441.57 828.7V932.28C441.57 933.44 440.63 934.39 439.46 934.39L439.45 934.4Z" fill="#A8C653"/>
<path d="M444.2 932.05C444.2 934.67 442.07 936.8 439.45 936.8C436.83 936.8 434.7 934.67 434.7 932.05C434.7 929.43 436.83 927.3 439.45 927.3C442.07 927.3 444.2 929.43 444.2 932.05Z" fill="#A8C653"/>
<path d="M642.15 588.58C642.15 585.96 640.02 583.83 637.4 583.83C634.78 583.83 632.65 585.96 632.65 588.58C632.65 591.2 634.78 593.33 637.4 593.33C640.02 593.33 642.15 591.2 642.15 588.58Z" fill="#A8C653"/>
<path d="M451.95 934.4C450.79 934.4 449.84 933.46 449.84 932.29V828.71C449.84 810.31 454.19 797.11 463.12 788.36C479.2 772.61 508.27 773.22 541.97 773.93C549.35 774.08 556.98 774.24 564.78 774.24H612.5C613.66 774.24 614.61 775.18 614.61 776.35C614.61 777.52 613.67 778.46 612.5 778.46H564.78C556.93 778.46 549.28 778.3 541.88 778.14C509.16 777.45 480.88 776.86 466.07 791.37C457.99 799.29 454.06 811.5 454.06 828.71V932.29C454.06 933.45 453.12 934.4 451.95 934.4Z" fill="#A8C653"/>
<path d="M456.7 932.05C456.7 934.67 454.57 936.8 451.95 936.8C449.33 936.8 447.2 934.67 447.2 932.05C447.2 929.43 449.33 927.3 451.95 927.3C454.57 927.3 456.7 929.43 456.7 932.05Z" fill="#A8C653"/>
<path d="M612.26 781.11C614.88 781.11 617.01 778.98 617.01 776.36C617.01 773.74 614.88 771.61 612.26 771.61C609.64 771.61 607.51 773.74 607.51 776.36C607.51 778.98 609.64 781.11 612.26 781.11Z" fill="#A8C653"/>
<path d="M426.95 934.4C425.79 934.4 424.84 933.46 424.84 932.29V828.71C424.84 810.31 429.19 797.11 438.12 788.36C454.19 772.61 483.28 773.22 516.97 773.93C524.35 774.08 531.98 774.24 539.78 774.24H612.5C613.66 774.24 614.61 775.18 614.61 776.35C614.61 777.52 613.67 778.46 612.5 778.46H539.78C531.93 778.46 524.28 778.3 516.88 778.14C484.16 777.45 455.88 776.86 441.07 791.37C432.99 799.29 429.06 811.5 429.06 828.71V932.29C429.06 933.45 428.12 934.4 426.95 934.4Z" fill="#A8C653"/>
<path d="M431.7 932.05C431.7 934.67 429.57 936.8 426.95 936.8C424.33 936.8 422.2 934.67 422.2 932.05C422.2 929.43 424.33 927.3 426.95 927.3C429.57 927.3 431.7 929.43 431.7 932.05Z" fill="#A8C653"/>
<path d="M612.26 781.11C614.88 781.11 617.01 778.98 617.01 776.36C617.01 773.74 614.88 771.61 612.26 771.61C609.64 771.61 607.51 773.74 607.51 776.36C607.51 778.98 609.64 781.11 612.26 781.11Z" fill="#A8C653"/>
<path d="M609.75 974.51C609.51 974.51 609.26 974.51 609.02 974.51C602.45 974.46 595.87 974.48 589.3 974.49L556.79 974.51C555.63 974.51 554.68 973.57 554.68 972.4C554.68 971.23 555.62 970.29 556.79 970.29L589.28 970.27C595.87 970.25 602.46 970.24 609.05 970.29C626.46 970.42 634.3 965.32 635.29 953.26V784.39C635.29 783.23 636.23 782.28 637.39 782.28C638.55 782.28 639.5 783.22 639.5 784.39V953.44C637.98 972.16 622.01 974.52 609.75 974.52V974.51Z" fill="#A8C653"/>
<path d="M557.03 977.15C554.41 977.15 552.28 975.02 552.28 972.4C552.28 969.78 554.41 967.65 557.03 967.65C559.65 967.65 561.78 969.78 561.78 972.4C561.78 975.02 559.65 977.15 557.03 977.15Z" fill="#A8C653"/>
<path d="M642.15 784.62C642.15 782 640.02 779.87 637.4 779.87C634.78 779.87 632.65 782 632.65 784.62C632.65 787.24 634.78 789.37 637.4 789.37C640.02 789.37 642.15 787.24 642.15 784.62Z" fill="#A8C653"/>
<path d="M612.5 974.5H569.29C568.13 974.5 567.18 973.56 567.18 972.39C567.18 971.22 568.12 970.28 569.29 970.28H612.5C613.66 970.28 614.61 971.22 614.61 972.39C614.61 973.56 613.67 974.5 612.5 974.5Z" fill="#A8C653"/>
<path d="M569.53 977.15C566.91 977.15 564.78 975.02 564.78 972.4C564.78 969.78 566.91 967.65 569.53 967.65C572.15 967.65 574.28 969.78 574.28 972.4C574.28 975.02 572.15 977.15 569.53 977.15Z" fill="#A8C653"/>
<path d="M612.26 977.15C614.88 977.15 617.01 975.02 617.01 972.4C617.01 969.78 614.88 967.65 612.26 967.65C609.64 967.65 607.51 969.78 607.51 972.4C607.51 975.02 609.64 977.15 612.26 977.15Z" fill="#A8C653"/>
<path d="M612.5 974.5H544.29C543.13 974.5 542.18 973.56 542.18 972.39C542.18 971.22 543.12 970.28 544.29 970.28H612.5C613.66 970.28 614.61 971.22 614.61 972.39C614.61 973.56 613.67 974.5 612.5 974.5Z" fill="#A8C653"/>
<path d="M544.53 977.15C541.91 977.15 539.78 975.02 539.78 972.4C539.78 969.78 541.91 967.65 544.53 967.65C547.15 967.65 549.28 969.78 549.28 972.4C549.28 975.02 547.15 977.15 544.53 977.15Z" fill="#A8C653"/>
<path d="M612.26 977.15C614.88 977.15 617.01 975.02 617.01 972.4C617.01 969.78 614.88 967.65 612.26 967.65C609.64 967.65 607.51 969.78 607.51 972.4C607.51 975.02 609.64 977.15 612.26 977.15Z" fill="#A8C653"/>
<path d="M711.27 482.56H337.96C333.183 482.56 329.31 486.433 329.31 491.21V593.74C329.31 598.517 333.183 602.39 337.96 602.39H711.27C716.047 602.39 719.92 598.517 719.92 593.74V491.21C719.92 486.433 716.047 482.56 711.27 482.56Z" fill="#C3C3C3"/>
<path d="M453.72 556.88H367.29C359.34 556.88 352.89 550.43 352.89 542.48C352.89 534.53 359.34 528.08 367.29 528.08H453.72C461.67 528.08 468.12 534.53 468.12 542.48C468.12 550.43 461.67 556.88 453.72 556.88Z" fill="#3C3C3C"/>
<path d="M525.75 559.29H501.74C492.64 559.29 485.23 551.88 485.23 542.78C485.23 533.68 492.64 526.27 501.74 526.27H525.75C534.85 526.27 542.26 533.68 542.26 542.78C542.26 551.88 534.85 559.29 525.75 559.29ZM501.74 530.48C494.96 530.48 489.44 536 489.44 542.78C489.44 549.56 494.95 555.08 501.74 555.08H525.75C532.53 555.08 538.05 549.56 538.05 542.78C538.05 536 532.53 530.48 525.75 530.48H501.74Z" fill="#006D68"/>
<path d="M514.16 547.26C513 547.26 512.05 546.32 512.05 545.15V447.94C512.05 435.07 515.42 425.52 522.35 418.72C537.29 404.07 565.88 404.65 602.1 405.38C610.14 405.54 618.45 405.71 626.99 405.71H712.1C713.26 405.71 714.21 406.65 714.21 407.82C714.21 408.99 713.27 409.93 712.1 409.93H626.99C618.41 409.93 610.07 409.76 602.01 409.6C568.19 408.91 538.98 408.33 525.3 421.73C519.22 427.69 516.26 436.26 516.26 447.94V545.15C516.26 546.31 515.32 547.26 514.15 547.26H514.16Z" fill="#006D68"/>
<path d="M518.92 544.91C518.92 547.53 516.79 549.66 514.17 549.66C511.55 549.66 509.42 547.53 509.42 544.91C509.42 542.29 511.55 540.16 514.17 540.16C516.79 540.16 518.92 542.29 518.92 544.91Z" fill="#006D68"/>
<path d="M526.67 547.26C525.51 547.26 524.56 546.32 524.56 545.15V447.94C524.56 435.3 527.82 426 534.54 419.5C548.64 405.85 575.4 406.72 609.27 407.83C619 408.15 629.05 408.48 639.51 408.48H712.12C713.28 408.48 714.23 409.42 714.23 410.59C714.23 411.76 713.29 412.7 712.12 412.7H639.51C628.99 412.7 618.9 412.37 609.14 412.05C576.26 410.98 550.3 410.13 537.48 422.54C531.63 428.2 528.79 436.51 528.79 447.95V545.16C528.79 546.32 527.85 547.27 526.68 547.27L526.67 547.26Z" fill="#006D68"/>
<path d="M531.42 544.91C531.42 547.53 529.29 549.66 526.67 549.66C524.05 549.66 521.92 547.53 521.92 544.91C521.92 542.29 524.05 540.16 526.67 540.16C529.29 540.16 531.42 542.29 531.42 544.91Z" fill="#006D68"/>
<path d="M501.66 547.26C500.5 547.26 499.55 546.32 499.55 545.15V447.94C499.55 435.07 502.92 425.52 509.85 418.72C524.79 404.07 553.37 404.65 589.6 405.38C597.64 405.54 605.95 405.71 614.49 405.71H712.11C713.27 405.71 714.22 406.65 714.22 407.82C714.22 408.99 713.28 409.93 712.11 409.93H614.49C605.91 409.93 597.57 409.76 589.51 409.6C555.7 408.91 526.48 408.33 512.8 421.73C506.72 427.69 503.76 436.26 503.76 447.94V545.15C503.76 546.31 502.82 547.26 501.65 547.26H501.66Z" fill="#006D68"/>
<path d="M506.42 544.91C506.42 547.53 504.29 549.66 501.67 549.66C499.05 549.66 496.92 547.53 496.92 544.91C496.92 542.29 499.05 540.16 501.67 540.16C504.29 540.16 506.42 542.29 506.42 544.91Z" fill="#006D68"/>
<path d="M667.74 545.81H597.97C596.13 545.81 594.63 544.32 594.63 542.47C594.63 540.62 596.12 539.13 597.97 539.13H667.74C669.58 539.13 671.08 540.62 671.08 542.47C671.08 544.32 669.59 545.81 667.74 545.81Z" fill="#A8C653"/>
<path d="M683.37 524.13H582.34V560.82H683.37V524.13Z" fill="white"/>
<path d="M667.74 545.81H597.97C596.13 545.81 594.63 544.32 594.63 542.47C594.63 540.62 596.12 539.13 597.97 539.13H667.74C669.58 539.13 671.08 540.62 671.08 542.47C671.08 544.32 669.59 545.81 667.74 545.81Z" fill="#A8C653"/>
<path d="M683.37 524.13H582.34V560.82H683.37V524.13Z" fill="white"/>
<path d="M667.74 545.81H597.97C596.13 545.81 594.63 544.32 594.63 542.47C594.63 540.62 596.12 539.13 597.97 539.13H667.74C669.58 539.13 671.08 540.62 671.08 542.47C671.08 544.32 669.59 545.81 667.74 545.81Z" fill="#A8C653"/>
<path d="M371.99 546.6C370.89 546.6 369.85 546.17 369.09 545.4C368.89 545.2 368.72 545 368.56 544.77C368.43 544.54 368.29 544.3 368.19 544.07C368.09 543.8 368.02 543.54 367.96 543.27C367.89 543 367.86 542.74 367.86 542.47C367.86 541.4 368.33 540.34 369.09 539.57C370.62 538.04 373.39 538.04 374.93 539.57C375.7 540.34 376.13 541.4 376.13 542.47C376.13 542.74 376.1 543 376.03 543.27C375.99 543.54 375.9 543.8 375.8 544.07C375.7 544.3 375.57 544.54 375.43 544.77C375.26 545 375.1 545.2 374.93 545.4C374.16 546.17 373.1 546.6 372 546.6H371.99Z" fill="#A8C653"/>
<path d="M420.79 542.47C420.79 540.2 422.66 538.37 424.93 538.37C427.23 538.37 429.06 540.2 429.06 542.47C429.06 544.77 427.23 546.61 424.93 546.61C422.66 546.61 420.79 544.78 420.79 542.47ZM394.34 542.47C394.34 540.2 396.18 538.37 398.48 538.37C400.75 538.37 402.58 540.2 402.58 542.47C402.58 544.77 400.75 546.61 398.48 546.61C396.18 546.61 394.34 544.78 394.34 542.47Z" fill="#A8C653"/>
<path d="M451.41 546.6C450.31 546.6 449.28 546.17 448.48 545.4C448.31 545.2 448.15 545 447.98 544.77C447.85 544.54 447.71 544.3 447.62 544.07C447.52 543.8 447.42 543.54 447.39 543.3C447.32 543.03 447.29 542.73 447.29 542.47C447.29 541.4 447.72 540.34 448.49 539.57C448.69 539.37 448.89 539.2 449.13 539.04C449.36 538.91 449.6 538.77 449.83 538.67C450.09 538.57 450.36 538.47 450.63 538.44C451.16 538.34 451.7 538.34 452.23 538.44C452.5 538.47 452.76 538.57 453 538.67C453.27 538.77 453.5 538.9 453.74 539.04C453.94 539.21 454.17 539.37 454.34 539.57C455.11 540.34 455.57 541.4 455.57 542.47C455.57 542.74 455.54 543.04 455.47 543.3C455.44 543.53 455.34 543.8 455.24 544.07C455.14 544.3 455.01 544.54 454.88 544.77C454.71 545 454.54 545.2 454.35 545.4C454.18 545.57 453.95 545.77 453.75 545.9C453.52 546.07 453.28 546.17 453.01 546.27C452.78 546.4 452.51 546.47 452.24 546.54C451.97 546.57 451.71 546.61 451.44 546.61L451.41 546.6Z" fill="#A8C653"/>
<path d="M711.27 678.6H337.96C333.183 678.6 329.31 682.473 329.31 687.25V789.78C329.31 794.557 333.183 798.43 337.96 798.43H711.27C716.047 798.43 719.92 794.557 719.92 789.78V687.25C719.92 682.473 716.047 678.6 711.27 678.6Z" fill="#C3C3C3"/>
<path d="M453.72 752.92H367.29C359.34 752.92 352.89 746.47 352.89 738.52C352.89 730.57 359.34 724.12 367.29 724.12H453.72C461.67 724.12 468.12 730.57 468.12 738.52C468.12 746.47 461.67 752.92 453.72 752.92Z" fill="#3C3C3C"/>
<path d="M683.37 720.17H582.34V756.86H683.37V720.17Z" fill="white"/>
<path d="M667.74 741.85H597.97C596.13 741.85 594.63 740.36 594.63 738.51C594.63 736.66 596.12 735.17 597.97 735.17H667.74C669.58 735.17 671.08 736.66 671.08 738.51C671.08 740.36 669.59 741.85 667.74 741.85Z" fill="#A8C653"/>
<path d="M525.75 755.03H501.74C492.64 755.03 485.23 747.62 485.23 738.52C485.23 729.42 492.64 722.01 501.74 722.01H525.75C534.85 722.01 542.26 729.42 542.26 738.52C542.26 747.62 534.85 755.03 525.75 755.03ZM501.74 726.22C494.96 726.22 489.44 731.74 489.44 738.52C489.44 745.3 494.95 750.82 501.74 750.82H525.75C532.53 750.82 538.05 745.3 538.05 738.52C538.05 731.74 532.54 726.22 525.75 726.22H501.74Z" fill="#006D68"/>
<path d="M371.99 742.66C370.89 742.66 369.85 742.19 369.09 741.43C368.32 740.66 367.86 739.6 367.86 738.53C367.86 738.26 367.89 738 367.96 737.73C368.03 737.46 368.09 737.2 368.19 736.96C368.29 736.69 368.42 736.46 368.56 736.23C368.73 736 368.89 735.8 369.09 735.6C370.59 734.07 373.39 734.07 374.93 735.6C375.1 735.8 375.26 736 375.43 736.23C375.56 736.46 375.7 736.7 375.8 736.96C375.9 737.19 376 737.46 376.03 737.73C376.1 738 376.13 738.26 376.13 738.53C376.13 739.6 375.7 740.67 374.93 741.43C374.16 742.2 373.1 742.66 372 742.66H371.99Z" fill="#A8C653"/>
<path d="M420.79 738.52C420.79 736.25 422.66 734.38 424.93 734.38C427.23 734.38 429.06 736.25 429.06 738.52C429.06 740.79 427.23 742.62 424.93 742.62C422.66 742.62 420.79 740.79 420.79 738.52ZM394.34 738.52C394.34 736.25 396.18 734.38 398.48 734.38C400.75 734.38 402.58 736.25 402.58 738.52C402.58 740.79 400.75 742.62 398.48 742.62C396.18 742.62 394.34 740.79 394.34 738.52Z" fill="#A8C653"/>
<path d="M451.41 742.66C451.14 742.66 450.88 742.63 450.61 742.56C450.34 742.53 450.08 742.43 449.81 742.33C449.58 742.23 449.34 742.1 449.11 741.96C448.88 741.79 448.67 741.63 448.47 741.43C448.3 741.26 448.14 741.03 447.97 740.83C447.84 740.6 447.7 740.36 447.61 740.1C447.51 739.87 447.41 739.6 447.38 739.33C447.31 739.06 447.28 738.8 447.28 738.53C447.28 738.26 447.32 738 447.38 737.73C447.41 737.46 447.51 737.2 447.61 736.93C447.71 736.7 447.84 736.46 447.97 736.23C448.14 736 448.31 735.8 448.47 735.6C449.44 734.67 450.87 734.2 452.21 734.5C452.48 734.53 452.74 734.6 452.98 734.73C453.25 734.83 453.48 734.93 453.72 735.1C453.92 735.23 454.15 735.43 454.32 735.6C454.52 735.8 454.69 736 454.85 736.23C454.98 736.46 455.12 736.7 455.21 736.93C455.31 737.2 455.41 737.46 455.44 737.73C455.51 738 455.54 738.26 455.54 738.53C455.54 738.8 455.51 739.06 455.44 739.33C455.41 739.6 455.31 739.86 455.21 740.1C455.11 740.37 454.98 740.6 454.85 740.83C454.68 741.03 454.51 741.26 454.32 741.43C454.15 741.63 453.92 741.8 453.72 741.96C453.49 742.09 453.25 742.23 452.98 742.33C452.75 742.43 452.48 742.53 452.21 742.56C451.94 742.63 451.68 742.66 451.41 742.66Z" fill="#A8C653"/>
<path d="M514.16 741.5C513 741.5 512.05 740.56 512.05 739.39V632.67C512.05 614.27 516.4 601.07 525.33 592.32C541.41 576.58 570.48 577.18 604.18 577.89C611.56 578.04 619.19 578.2 626.99 578.2L664 578.18C670.59 578.16 677.18 578.15 683.77 578.2C701.16 578.31 709.03 573.23 710.01 561.17V412.58C710.01 411.42 710.95 410.47 712.11 410.47C713.27 410.47 714.22 411.41 714.22 412.58V561.34C712.67 580.44 696.05 582.48 683.74 582.41C677.17 582.36 670.59 582.38 664.02 582.39L627 582.41C619.15 582.41 611.5 582.25 604.1 582.09C571.36 581.4 543.1 580.81 528.29 595.32C520.21 603.24 516.28 615.45 516.28 632.66V739.38C516.28 740.54 515.34 741.49 514.17 741.49L514.16 741.5Z" fill="#006D68"/>
<path d="M518.92 739.16C518.92 741.78 516.79 743.91 514.17 743.91C511.55 743.91 509.42 741.78 509.42 739.16C509.42 736.54 511.55 734.41 514.17 734.41C516.79 734.41 518.92 736.54 518.92 739.16Z" fill="#006D68"/>
<path d="M720.03 412.98C720.03 408.61 716.48 405.06 712.11 405.06C707.74 405.06 704.19 408.61 704.19 412.98C704.19 417.35 707.74 420.9 712.11 420.9C716.48 420.9 720.03 417.35 720.03 412.98Z" fill="#006D68"/>
<path d="M526.67 741.5C525.51 741.5 524.56 740.56 524.56 739.39V632.67C524.56 614.27 528.91 601.07 537.84 592.32C553.92 576.58 583 577.18 616.69 577.89C624.07 578.04 631.7 578.2 639.5 578.2H684.21C685.37 578.2 686.32 579.14 686.32 580.31C686.32 581.48 685.38 582.42 684.21 582.42H639.5C631.65 582.42 624 582.26 616.6 582.1C583.87 581.41 555.6 580.82 540.79 595.33C532.71 603.25 528.78 615.46 528.78 632.67V739.39C528.78 740.55 527.84 741.5 526.67 741.5Z" fill="#006D68"/>
<path d="M531.42 739.16C531.42 741.78 529.29 743.91 526.67 743.91C524.05 743.91 521.92 741.78 521.92 739.16C521.92 736.54 524.05 734.41 526.67 734.41C529.29 734.41 531.42 736.54 531.42 739.16Z" fill="#006D68"/>
<path d="M683.81 588.24C688.18 588.24 691.73 584.69 691.73 580.32C691.73 575.95 688.18 572.4 683.81 572.4C679.44 572.4 675.89 575.95 675.89 580.32C675.89 584.69 679.44 588.24 683.81 588.24Z" fill="#006D68"/>
<path d="M501.66 741.5C500.5 741.5 499.55 740.56 499.55 739.39V632.67C499.55 614.27 503.9 601.07 512.83 592.32C528.91 576.58 558 577.18 591.68 577.89C599.06 578.04 606.69 578.2 614.49 578.2H684.2C685.36 578.2 686.31 579.14 686.31 580.31C686.31 581.48 685.37 582.42 684.2 582.42H614.49C606.64 582.42 598.99 582.26 591.59 582.1C558.86 581.41 530.59 580.82 515.78 595.33C507.7 603.25 503.77 615.46 503.77 632.67V739.39C503.77 740.55 502.83 741.5 501.66 741.5Z" fill="#006D68"/>
<path d="M506.42 739.16C506.42 741.78 504.29 743.91 501.67 743.91C499.05 743.91 496.92 741.78 496.92 739.16C496.92 736.54 499.05 734.41 501.67 734.41C504.29 734.41 506.42 736.54 506.42 739.16Z" fill="#006D68"/>
<path d="M683.81 588.24C688.18 588.24 691.73 584.69 691.73 580.32C691.73 575.95 688.18 572.4 683.81 572.4C679.44 572.4 675.89 575.95 675.89 580.32C675.89 584.69 679.44 588.24 683.81 588.24Z" fill="#006D68"/>
<path d="M711.27 874.64H337.96C333.183 874.64 329.31 878.513 329.31 883.29V985.82C329.31 990.597 333.183 994.47 337.96 994.47H711.27C716.047 994.47 719.92 990.597 719.92 985.82V883.29C719.92 878.513 716.047 874.64 711.27 874.64Z" fill="#C3C3C3"/>
<path d="M453.72 948.96H367.29C359.34 948.96 352.89 942.51 352.89 934.56C352.89 926.61 359.34 920.16 367.29 920.16H453.72C461.67 920.16 468.12 926.61 468.12 934.56C468.12 942.51 461.67 948.96 453.72 948.96Z" fill="#3C3C3C"/>
<path d="M683.37 916.21H582.34V952.9H683.37V916.21Z" fill="white"/>
<path d="M667.74 937.89H597.97C596.13 937.89 594.63 936.4 594.63 934.55C594.63 932.7 596.12 931.21 597.97 931.21H667.74C669.58 931.21 671.08 932.7 671.08 934.55C671.08 936.4 669.59 937.89 667.74 937.89Z" fill="#A8C653"/>
<path d="M525.75 951.07H501.74C492.64 951.07 485.23 943.66 485.23 934.56C485.23 925.46 492.64 918.05 501.74 918.05H525.75C534.85 918.05 542.26 925.46 542.26 934.56C542.26 943.66 534.85 951.07 525.75 951.07ZM501.74 922.26C494.96 922.26 489.44 927.78 489.44 934.56C489.44 941.34 494.95 946.86 501.74 946.86H525.75C532.53 946.86 538.05 941.34 538.05 934.56C538.05 927.78 532.54 922.26 525.75 922.26H501.74Z" fill="#006D68"/>
<path d="M371.99 938.68C370.89 938.68 369.85 938.25 369.09 937.48C368.89 937.28 368.72 937.08 368.56 936.85C368.43 936.62 368.29 936.38 368.19 936.15C368.09 935.88 368.02 935.65 367.96 935.38C367.89 935.11 367.86 934.81 367.86 934.55C367.86 933.48 368.33 932.42 369.09 931.65C370.62 930.12 373.39 930.12 374.93 931.65C375.7 932.42 376.13 933.48 376.13 934.55C376.13 934.82 376.1 935.12 376.03 935.38C375.99 935.65 375.9 935.88 375.8 936.15C375.7 936.38 375.57 936.62 375.43 936.85C375.26 937.08 375.1 937.28 374.93 937.48C374.16 938.25 373.1 938.68 372 938.68H371.99Z" fill="#A8C653"/>
<path d="M420.79 934.54C420.79 932.27 422.66 930.44 424.93 930.44C427.23 930.44 429.06 932.27 429.06 934.54C429.06 936.84 427.23 938.68 424.93 938.68C422.66 938.68 420.79 936.85 420.79 934.54ZM394.34 934.54C394.34 932.27 396.18 930.44 398.48 930.44C400.75 930.44 402.58 932.27 402.58 934.54C402.58 936.84 400.75 938.68 398.48 938.68C396.18 938.68 394.34 936.85 394.34 934.54Z" fill="#A8C653"/>
<path d="M451.41 938.68C450.31 938.68 449.28 938.25 448.48 937.48C447.71 936.71 447.28 935.65 447.28 934.55C447.28 934.28 447.32 934.02 447.38 933.75C447.41 933.48 447.51 933.25 447.61 932.98C447.71 932.75 447.84 932.48 447.97 932.28C448.14 932.05 448.31 931.85 448.47 931.65C449.44 930.68 450.87 930.25 452.21 930.52C452.48 930.59 452.74 930.65 452.98 930.75C453.25 930.85 453.48 930.98 453.72 931.15C453.92 931.28 454.15 931.45 454.32 931.65C454.52 931.85 454.69 932.05 454.85 932.28C454.98 932.48 455.12 932.75 455.21 932.98C455.31 933.25 455.41 933.48 455.44 933.75C455.51 934.02 455.54 934.28 455.54 934.55C455.54 935.65 455.07 936.72 454.31 937.48C454.14 937.68 453.91 937.85 453.71 937.98C453.48 938.15 453.24 938.28 452.97 938.38C452.74 938.48 452.47 938.55 452.2 938.61C451.93 938.64 451.67 938.68 451.4 938.68H451.41Z" fill="#A8C653"/>
<path d="M514.16 937.53C513 937.53 512.05 936.59 512.05 935.42V828.71C512.05 810.31 516.4 797.11 525.33 788.36C541.4 772.61 570.49 773.22 604.18 773.93C611.56 774.08 619.19 774.24 626.99 774.24L664 774.22C670.59 774.2 677.18 774.19 683.77 774.24C701.16 774.33 709.03 769.27 710.01 757.21V618.25C710.01 617.09 710.95 616.14 712.11 616.14C713.27 616.14 714.22 617.08 714.22 618.25V757.38C712.67 776.48 696.05 778.54 683.74 778.45C677.17 778.4 670.59 778.42 664.02 778.43L627 778.45C619.15 778.45 611.5 778.29 604.1 778.13C571.36 777.45 543.1 776.85 528.29 791.36C520.21 799.28 516.28 811.49 516.28 828.7V935.41C516.28 936.57 515.34 937.52 514.17 937.52L514.16 937.53Z" fill="#006D68"/>
<path d="M514.16 939.94C516.783 939.94 518.91 937.813 518.91 935.19C518.91 932.567 516.783 930.44 514.16 930.44C511.537 930.44 509.41 932.567 509.41 935.19C509.41 937.813 511.537 939.94 514.16 939.94Z" fill="#006D68"/>
<path d="M720.03 618.66C720.03 614.29 716.48 610.74 712.11 610.74C707.74 610.74 704.19 614.29 704.19 618.66C704.19 623.03 707.74 626.58 712.11 626.58C716.48 626.58 720.03 623.03 720.03 618.66Z" fill="#006D68"/>
<path d="M526.67 937.53C525.51 937.53 524.56 936.59 524.56 935.42V828.71C524.56 810.31 528.91 797.11 537.84 788.36C553.92 772.61 583 773.22 616.69 773.93C624.07 774.08 631.7 774.24 639.5 774.24H684.21C685.37 774.24 686.32 775.18 686.32 776.35C686.32 777.52 685.38 778.46 684.21 778.46H639.5C631.65 778.46 624 778.3 616.6 778.14C583.87 777.46 555.6 776.86 540.79 791.37C532.71 799.29 528.78 811.5 528.78 828.71V935.42C528.78 936.58 527.84 937.53 526.67 937.53Z" fill="#006D68"/>
<path d="M531.42 935.19C531.42 937.81 529.29 939.94 526.67 939.94C524.05 939.94 521.92 937.81 521.92 935.19C521.92 932.57 524.05 930.44 526.67 930.44C529.29 930.44 531.42 932.57 531.42 935.19Z" fill="#006D68"/>
<path d="M683.81 784.28C688.18 784.28 691.73 780.73 691.73 776.36C691.73 771.99 688.18 768.44 683.81 768.44C679.44 768.44 675.89 771.99 675.89 776.36C675.89 780.73 679.44 784.28 683.81 784.28Z" fill="#006D68"/>
<path d="M501.66 937.53C500.5 937.53 499.55 936.59 499.55 935.42V828.71C499.55 810.31 503.9 797.11 512.83 788.36C528.91 772.61 558 773.22 591.68 773.93C599.06 774.08 606.69 774.24 614.49 774.24H684.2C685.36 774.24 686.31 775.18 686.31 776.35C686.31 777.52 685.37 778.46 684.2 778.46H614.49C606.64 778.46 598.99 778.3 591.59 778.14C558.86 777.46 530.59 776.86 515.78 791.37C507.7 799.29 503.77 811.5 503.77 828.71V935.42C503.77 936.58 502.83 937.53 501.66 937.53Z" fill="#006D68"/>
<path d="M501.66 939.94C504.283 939.94 506.41 937.813 506.41 935.19C506.41 932.567 504.283 930.44 501.66 930.44C499.037 930.44 496.91 932.567 496.91 935.19C496.91 937.813 499.037 939.94 501.66 939.94Z" fill="#006D68"/>
<path d="M683.81 784.28C688.18 784.28 691.73 780.73 691.73 776.36C691.73 771.99 688.18 768.44 683.81 768.44C679.44 768.44 675.89 771.99 675.89 776.36C675.89 780.73 679.44 784.28 683.81 784.28Z" fill="#006D68"/>
</svg>
