<svg width="834" height="834" viewBox="0 0 834 834" fill="none" xmlns="http://www.w3.org/2000/svg">
<path d="M552.01 28.6299C516.01 15.1299 478.44 3.82994 439.99 3.99994C388.18 4.22994 338.93 25.1399 291.8 46.6499C205.03 86.2599 136.61 148.32 65.4801 211.35C7.91006 262.37 -1.54994 368.17 0.190057 440.05C0.400057 448.72 0.620057 457.44 1.01006 466.15C2.22006 492.95 5.09006 519.67 14.4901 544.65C29.5501 584.71 64.4901 618.53 90.8701 651.5C119.43 687.19 147.42 716.97 185.87 742.46C229.4 771.31 291.65 820.86 345.35 825.41C412.95 831.13 464.71 833.88 529.68 813.63C598.88 792.06 674.73 760.58 724.53 705.4C750.64 676.47 767.69 635.18 787.13 601.54C825.05 535.92 840.77 465.15 831.01 389.71C820.8 310.75 789.78 250.23 757.06 179.65C715.04 89.0099 641.21 62.0799 552 28.6399L552.01 28.6299Z" fill="#EBF2D4"/>
<path d="M814.18 732.78H128.36C127.62 732.78 127.02 732.18 127.02 731.44V624.26C127.02 623.52 127.62 622.92 128.36 622.92H814.18C814.92 622.92 815.52 623.52 815.52 624.26V731.44C815.52 732.18 814.92 732.78 814.18 732.78ZM129.7 730.11H812.84V625.61H129.7V730.11Z" fill="#BFBFBF"/>
<path d="M146.45 731.63C146.39 731.63 146.34 731.63 146.28 731.62C145.55 731.53 145.03 730.86 145.12 730.12C146.22 721.42 142.15 713.46 138.21 705.76C137.65 704.67 137.1 703.59 136.56 702.5C135.61 700.59 134.59 698.74 133.58 696.92C129.11 688.83 124.89 681.19 127.81 670.85C130.22 662.3 137.1 655.02 148.27 649.18C156.51 644.88 163.62 635.66 160.57 627.06C160.32 626.36 160.69 625.6 161.39 625.35C162.09 625.1 162.85 625.47 163.1 626.17C166.65 636.2 158.75 646.74 149.51 651.56C139.02 657.04 132.59 663.77 130.39 671.58C127.77 680.86 131.74 688.04 135.93 695.63C136.96 697.49 138 699.37 138.96 701.31C139.49 702.38 140.04 703.46 140.6 704.54C144.72 712.6 148.98 720.94 147.78 730.46C147.69 731.14 147.12 731.63 146.45 731.63Z" fill="#BFBFBF"/>
<path d="M169.22 731.84C169.14 731.84 169.05 731.84 168.96 731.81C168.23 731.67 167.76 730.97 167.9 730.24C168.95 724.81 165.82 719.89 162.51 714.67C160.81 712 159.06 709.24 157.85 706.34C156.4 702.86 155.66 698.88 155.64 694.52C155.62 687.75 157.34 681.33 160.62 675.97C164.12 670.26 169.29 665.88 174.28 661.65L175.42 660.69C180.57 656.32 185.83 651.54 188.66 645.43C191.19 639.97 191.67 632.23 187.04 627.25C186.54 626.71 186.57 625.86 187.11 625.36C187.65 624.86 188.5 624.89 189 625.43C194.48 631.31 194 640.28 191.09 646.56C188.04 653.16 182.53 658.17 177.15 662.73L176.01 663.7C171.17 667.79 166.17 672.02 162.9 677.37C159.88 682.31 158.29 688.23 158.31 694.51C158.32 698.52 159 702.15 160.31 705.31C161.43 708 163.12 710.66 164.76 713.23C168.21 718.65 171.77 724.26 170.52 730.74C170.4 731.38 169.84 731.83 169.21 731.83L169.22 731.84Z" fill="#BFBFBF"/>
<path d="M203.35 725.01C202.84 725.01 202.32 724.98 201.81 724.93C193.77 724.06 188.36 716.62 186.73 710.07C183.77 698.14 186.09 678 200.49 672.63C210.3 668.97 216.17 671.85 219.36 674.91C226.47 681.71 227.06 695.43 224.01 704.89C222.76 708.77 220.62 714.44 216.55 718.79C212.85 722.75 208.01 725 203.34 725L203.35 725.01ZM189.34 709.43C190.75 715.1 195.34 721.53 202.1 722.27C206.39 722.74 211.07 720.76 214.6 716.98C217.42 713.96 219.6 709.86 221.47 704.08C224.31 695.27 223.61 682.68 217.52 676.85C213.67 673.17 208.26 672.6 201.44 675.14C189.13 679.73 186.5 698 189.34 709.42V709.43Z" fill="#BFBFBF"/>
<path d="M249.36 677.82C246.45 677.82 243.69 677.41 241.08 676.6C227.03 672.2 220.03 657.34 214.57 643.76L207.84 627C207.56 626.31 207.9 625.53 208.58 625.26C209.27 624.99 210.05 625.32 210.32 626L217.05 642.76C222.28 655.77 228.94 669.99 241.87 674.04C249.28 676.36 258.21 675.01 268.41 670.02C278.26 665.2 285.92 659.05 291.18 651.73C297.22 643.33 299.85 633.33 298.41 624.29C298.29 623.56 298.79 622.87 299.52 622.76C300.26 622.64 300.94 623.14 301.05 623.87C302.6 633.6 299.79 644.33 293.35 653.3C287.83 660.98 279.83 667.42 269.58 672.43C262.24 676.02 255.46 677.82 249.34 677.82H249.36Z" fill="#BFBFBF"/>
<path d="M254.43 650.57C248.92 650.57 243.62 647.37 240.33 643.58C235.99 638.58 233.77 632.09 231.82 626.36C231.58 625.66 231.96 624.9 232.66 624.66C233.36 624.42 234.12 624.8 234.36 625.5C236.23 630.99 238.36 637.22 242.36 641.83C245.88 645.89 251.99 649.18 257.69 647.4C261.14 646.32 263.91 643.54 265.93 641.24C269.39 637.3 273.22 631.39 271.78 625.65C271.6 624.93 272.04 624.2 272.75 624.03C273.47 623.85 274.2 624.29 274.37 625C275.73 630.44 273.5 636.67 267.93 643.01C265.68 645.58 262.56 648.69 258.48 649.96C257.13 650.38 255.77 650.57 254.42 650.57H254.43Z" fill="#BFBFBF"/>
<path d="M234.03 733.45C234.03 733.45 233.95 733.45 233.9 733.45C233.16 733.38 232.62 732.73 232.69 731.99C233.6 722.39 242.15 715.67 249.85 712.57C254.51 710.7 259.44 709.61 264.22 708.56C267.75 707.78 271.4 706.98 274.86 705.87C290.01 701.01 303.81 689.26 312.72 673.63C320.44 660.08 324.86 643.57 325.87 624.56C325.91 623.82 326.53 623.24 327.28 623.29C328.02 623.33 328.59 623.96 328.55 624.7C327.52 644.13 322.98 661.04 315.05 674.95C305.82 691.16 291.47 703.35 275.68 708.41C272.1 709.56 268.39 710.37 264.8 711.16C260.13 712.19 255.31 713.24 250.86 715.03C243.89 717.83 236.17 723.82 235.37 732.22C235.3 732.91 234.72 733.43 234.04 733.43L234.03 733.45Z" fill="#BFBFBF"/>
<path d="M338.2 732.64C338.12 732.64 338.04 732.64 337.96 732.62C337.23 732.49 336.75 731.79 336.88 731.06C338.05 724.59 336.03 717.54 331.62 712.67C327.21 707.79 320.4 705.09 313.84 705.59C305.26 706.26 297.83 712.05 292.99 716.34C291.42 717.73 289.88 719.17 288.34 720.62C283.86 724.82 279.23 729.16 273.75 732.27C273.1 732.63 272.29 732.41 271.92 731.77C271.55 731.13 271.78 730.31 272.42 729.94C277.62 726.98 282.13 722.75 286.5 718.66C288.06 717.2 289.61 715.74 291.2 714.33C296.33 709.78 304.24 703.64 313.62 702.91C320.98 702.34 328.64 705.38 333.59 710.86C338.55 716.34 340.81 724.26 339.5 731.53C339.38 732.18 338.82 732.63 338.18 732.63L338.2 732.64Z" fill="#BFBFBF"/>
<path d="M363.52 732.43C363.38 732.43 363.23 732.41 363.08 732.36C362.38 732.12 362.01 731.36 362.25 730.66C364.46 724.26 363.74 716.42 360.1 707.36C358.8 704.12 357.24 700.9 355.72 697.79C353.66 693.55 351.53 689.16 349.98 684.58C343.72 666.02 347.25 646.03 352.01 627.19C352.19 626.47 352.92 626.04 353.64 626.22C354.36 626.4 354.79 627.13 354.61 627.85C349.95 646.29 346.48 665.82 352.52 683.73C354.01 688.15 356.11 692.46 358.13 696.63C359.66 699.78 361.25 703.04 362.58 706.37C366.47 716.04 367.21 724.51 364.78 731.54C364.59 732.09 364.07 732.44 363.51 732.44L363.52 732.43Z" fill="#BFBFBF"/>
<path d="M399.01 695.21C396.61 695.21 394.23 694.51 391.9 693.11C381.96 687.16 375.69 669.88 374.54 661.95C373.43 654.25 373.46 646.39 373.5 638.78C373.52 634.6 373.54 630.28 373.37 626.06C373.34 625.32 373.91 624.7 374.65 624.67C375.38 624.62 376.01 625.21 376.04 625.95C376.22 630.23 376.2 634.58 376.18 638.79C376.15 646.3 376.11 654.07 377.2 661.57C378.28 669.06 384.12 685.32 393.29 690.81C396.36 692.65 399.51 693 402.65 691.86C419.74 685.66 420.4 655.53 420.83 635.6C420.91 631.94 420.98 628.63 421.15 625.9C421.2 625.16 421.85 624.61 422.57 624.64C423.31 624.68 423.87 625.32 423.83 626.06C423.67 628.76 423.59 632.03 423.52 635.65C423.07 656.32 422.39 687.55 403.58 694.37C402.06 694.92 400.55 695.2 399.04 695.2L399.01 695.21Z" fill="#BFBFBF"/>
<path d="M418.53 731.94C417.93 731.94 417.38 731.53 417.23 730.92C414.78 720.89 415.08 712.3 418.11 705.41C420.43 700.13 424.33 695.83 428.11 691.68C429.09 690.61 430.06 689.53 431 688.45C445.51 671.76 454.06 649.51 454.44 627.4C454.45 626.66 455.08 626.11 455.8 626.08C456.54 626.09 457.13 626.7 457.12 627.44C456.72 650.17 447.94 673.05 433.02 690.2C432.06 691.3 431.08 692.39 430.09 693.48C426.46 697.48 422.71 701.61 420.56 706.49C417.77 712.83 417.53 720.83 419.83 730.28C420.01 731 419.56 731.72 418.85 731.9C418.74 731.93 418.64 731.94 418.53 731.94Z" fill="#BFBFBF"/>
<path d="M454.91 732.45C454.43 732.45 453.97 732.19 453.73 731.74C449.47 723.8 447.39 715.64 447.71 708.17C448.08 699.37 451.95 691.15 458.06 686.19C462.14 682.87 466.84 681.24 471.32 681.63C474.91 681.94 478.54 683.51 482.73 686.57C487.89 690.34 491.32 694.34 493.23 698.78C494.99 702.87 495.4 707.26 495.8 711.49L497.39 728.36C497.46 729.1 496.92 729.75 496.18 729.82C495.46 729.9 494.79 729.35 494.72 728.61L493.13 711.74C492.75 707.71 492.36 703.54 490.77 699.83C489.06 695.84 485.91 692.2 481.15 688.72C477.37 685.96 474.18 684.55 471.1 684.28C467.39 683.96 463.25 685.41 459.76 688.25C454.23 692.74 450.73 700.22 450.39 708.27C450.09 715.27 452.07 722.94 456.1 730.47C456.45 731.12 456.2 731.93 455.55 732.28C455.35 732.39 455.13 732.44 454.92 732.44L454.91 732.45Z" fill="#BFBFBF"/>
<path d="M508.85 731.81C508.75 731.81 508.65 731.8 508.55 731.77C507.83 731.6 507.38 730.88 507.55 730.16C512.33 709.53 503.36 694.6 492.91 679.88C482.5 665.2 476.52 644.51 477.3 625.9C477.33 625.16 477.96 624.59 478.69 624.62C479.43 624.65 480 625.28 479.97 626.01C479.21 644.06 485 664.11 495.09 678.33C505.9 693.57 515.19 709.05 510.15 730.77C510.01 731.39 509.46 731.81 508.85 731.81Z" fill="#BFBFBF"/>
<path d="M544.74 704.5C542.68 704.5 540.73 704.23 539.09 703.96C530.89 702.57 524.09 699.62 518.87 695.19C512.42 689.72 508.48 681.92 505.76 675.73C498.84 659.97 494.82 643.26 493.81 626.08C493.77 625.34 494.33 624.71 495.07 624.66C495.78 624.61 496.44 625.18 496.49 625.92C497.48 642.79 501.43 659.18 508.22 674.65C510.82 680.57 514.58 688.03 520.61 693.14C525.46 697.25 531.83 700 539.55 701.31C542.12 701.75 545.48 702.15 548.68 701.39C552.81 700.4 556.78 697.43 560.49 692.56C567.52 683.32 571.41 671.03 571.44 657.95C571.46 646.69 571.7 637.22 574.51 626.37C574.7 625.66 575.42 625.22 576.14 625.41C576.86 625.6 577.29 626.33 577.1 627.04C574.37 637.59 574.14 646.89 574.12 657.96C574.09 671.62 570.01 684.49 562.63 694.19C558.54 699.57 554.05 702.87 549.31 704C547.78 704.37 546.24 704.5 544.76 704.5H544.74Z" fill="#BFBFBF"/>
<path d="M537.77 668.46C537.68 668.46 537.59 668.46 537.51 668.46C532.42 668.35 527.4 665.01 523.74 659.32C521.41 655.7 519.77 651.55 519 647.32C518.49 644.54 518.33 641.68 518.18 638.91C517.92 634.2 517.68 629.75 515.84 625.74C515.53 625.07 515.83 624.27 516.5 623.96C517.17 623.66 517.97 623.95 518.28 624.62C520.33 629.1 520.6 634.01 520.86 638.76C521.01 641.44 521.16 644.22 521.64 646.83C522.35 650.72 523.86 654.54 526 657.87C527.5 660.2 531.63 665.65 537.58 665.78C541.35 665.87 545.33 663.63 548.31 659.8C555.32 650.78 554.61 637.92 553.29 625.52C553.21 624.78 553.74 624.12 554.48 624.05C555.22 623.98 555.88 624.5 555.95 625.24C557.33 638.18 558.04 651.64 550.42 661.45C547 665.86 542.29 668.46 537.78 668.46H537.77Z" fill="#BFBFBF"/>
<path d="M483.81 731.83C483.71 731.83 483.61 731.82 483.51 731.8C482.79 731.63 482.34 730.92 482.5 730.2C483.24 726.98 482.53 723.37 480.56 720.3C478.59 717.23 475.6 715.08 472.37 714.4C471.85 714.29 471.11 714.18 470.68 714.43C470.3 714.65 470 715.23 469.77 715.77C467.82 720.23 467.46 725.27 468.76 729.96C468.96 730.67 468.54 731.41 467.82 731.61C467.11 731.81 466.37 731.39 466.17 730.67C464.72 725.39 465.12 719.72 467.31 714.7C467.72 713.75 468.29 712.71 469.35 712.1C470.58 711.4 471.97 711.58 472.92 711.78C476.85 712.6 480.46 715.18 482.82 718.86C485.18 722.54 486.01 726.89 485.12 730.81C484.98 731.43 484.43 731.85 483.81 731.85V731.83Z" fill="#BFBFBF"/>
<path d="M561.72 732.18C561.11 732.18 560.55 731.75 560.41 731.13C560.25 730.41 560.71 729.69 561.43 729.53C574.68 726.6 582.98 714.14 586.33 703.46C589.8 692.43 589.84 680.46 589.87 668.89L589.89 661.35C589.87 649.67 589.85 633.66 596.89 624.96C597.35 624.38 598.2 624.3 598.77 624.76C599.34 625.23 599.43 626.07 598.97 626.64C592.52 634.6 592.55 650.06 592.57 661.34L592.55 668.9C592.51 680.67 592.47 692.84 588.88 704.26C585.3 715.66 576.36 728.97 562 732.15C561.9 732.17 561.8 732.18 561.71 732.18H561.72Z" fill="#BFBFBF"/>
<path d="M789.89 733.4C789.19 733.4 788.6 732.85 788.55 732.14C788.07 724.22 790.46 713.91 796.88 708.75C800.92 705.5 806.11 704.66 811.91 706.3C812.62 706.5 813.04 707.24 812.83 707.95C812.63 708.66 811.88 709.07 811.18 708.87C806.18 707.45 801.94 708.11 798.56 710.83C792.89 715.39 790.79 724.73 791.23 731.97C791.27 732.71 790.71 733.34 789.97 733.39C789.94 733.39 789.92 733.39 789.89 733.39V733.4Z" fill="#BFBFBF"/>
<path d="M766.34 732.71C765.6 732.71 765 732.1 765.01 731.36C765.09 716.45 769.62 702.19 777.74 691.2C786.64 679.18 799.7 671.25 813.57 669.45C814.29 669.35 814.98 669.87 815.07 670.61C815.16 671.34 814.65 672.02 813.91 672.11C800.76 673.81 788.35 681.35 779.89 692.79C772.1 703.32 767.76 717.02 767.68 731.37C767.68 732.11 767.08 732.7 766.34 732.7V732.71Z" fill="#BFBFBF"/>
<path d="M750.93 692.7C743.69 692.7 738.18 685.72 737.5 678.94C736.8 671.88 739.97 666.5 743.04 661.3C744.49 658.85 745.98 656.31 747.03 653.64C751.36 642.66 752.43 633.35 750.29 625.18C750.1 624.46 750.53 623.73 751.25 623.55C751.97 623.37 752.7 623.79 752.88 624.51C755.16 633.25 754.06 643.1 749.52 654.63C748.39 657.5 746.84 660.12 745.34 662.66C742.36 667.71 739.55 672.49 740.16 678.68C740.72 684.31 745.5 690.35 751.4 690.02C753.16 689.92 755 689.32 757.37 688.05C766.69 683.09 773.45 674.33 779.99 665.87C781.1 664.44 782.2 663.01 783.31 661.61C790.6 652.39 800.7 641.56 814.24 639.63C814.98 639.53 815.65 640.04 815.76 640.77C815.86 641.5 815.35 642.18 814.62 642.29C802.02 644.08 792.4 654.45 785.42 663.28C784.32 664.68 783.22 666.1 782.12 667.52C775.41 676.21 768.47 685.2 758.64 690.43C756.8 691.41 754.34 692.55 751.56 692.71C751.35 692.72 751.14 692.73 750.93 692.73V692.7Z" fill="#BFBFBF"/>
<path d="M727.19 731.34C726.54 731.34 725.97 730.87 725.87 730.21C725.21 725.98 723.99 721.89 722.82 717.93C720.89 711.42 718.89 704.68 719.28 697.19C719.8 687.16 722.97 676.62 729.25 664.03L730.75 661.07C733.43 655.81 736.21 650.38 737.31 644.62C738.44 638.73 737.67 630.81 732.15 626.26C731.58 625.79 731.5 624.95 731.97 624.37C732.44 623.8 733.28 623.72 733.86 624.19C740.29 629.48 741.22 638.47 739.95 645.12C738.78 651.25 735.91 656.86 733.15 662.29L731.66 665.23C725.55 677.48 722.47 687.68 721.97 697.33C721.6 704.36 723.45 710.58 725.4 717.17C726.6 721.21 727.84 725.4 728.53 729.8C728.64 730.53 728.15 731.22 727.41 731.33C727.34 731.34 727.27 731.35 727.2 731.35L727.19 731.34Z" fill="#BFBFBF"/>
<path d="M689.05 672.31C688.23 672.31 687.43 672.21 686.66 672C684.74 671.47 682.89 670.24 681.33 668.42C676.36 662.65 676.41 654.51 676.89 646.68C677.35 639.08 677.41 631.84 673.16 626.82C672.68 626.26 672.75 625.41 673.32 624.93C673.89 624.45 674.73 624.52 675.21 625.09C680.1 630.86 680.04 639 679.57 646.85C679.13 654.13 679.06 661.67 683.37 666.68C684.22 667.66 685.6 668.94 687.37 669.42C690.23 670.2 693.15 668.73 694.63 667.79C697.42 666.02 699.98 663.27 702.47 659.38C709.05 649.09 711.84 636.25 710.12 624.15C710.02 623.42 710.53 622.74 711.26 622.64C711.99 622.54 712.67 623.05 712.77 623.78C714.58 636.5 711.64 650 704.73 660.83C702.03 665.05 699.2 668.07 696.07 670.05C693.72 671.54 691.3 672.31 689.05 672.31Z" fill="#BFBFBF"/>
<path d="M668.44 726.57C663.67 726.57 659.43 724.93 655.82 721.69C647.39 714.12 644.25 699.32 644.12 688.96C644.08 685.83 644.36 682.7 644.63 679.66C644.82 677.54 645.01 675.42 645.09 673.3C645.71 657.55 639.63 638.86 629.97 626.8C629.51 626.22 629.6 625.38 630.18 624.92C630.76 624.46 631.6 624.55 632.06 625.13C642.09 637.66 648.4 657.06 647.76 673.41C647.68 675.58 647.48 677.74 647.29 679.9C647.03 682.87 646.75 685.93 646.79 688.93C646.91 698.75 649.81 712.71 657.6 719.7C661.14 722.88 665.4 724.26 670.25 723.8C677.63 723.1 685.24 719.03 691.68 712.35C702.5 701.12 710.95 686.65 716.8 669.35C717.23 668.08 717.7 666.73 718.19 665.33C722.39 653.3 728.15 636.84 722.95 625.81C722.63 625.14 722.92 624.34 723.59 624.03C724.26 623.71 725.06 624 725.37 624.67C731.04 636.69 725.07 653.76 720.72 666.22C720.23 667.61 719.77 668.95 719.34 670.21C713.36 687.88 704.7 702.69 693.61 714.21C686.73 721.35 678.53 725.71 670.51 726.47C669.81 726.54 669.11 726.57 668.43 726.57H668.44Z" fill="#BFBFBF"/>
<path d="M602.74 731.55C602.53 731.55 602.32 731.5 602.13 731.4C601.47 731.06 601.21 730.25 601.55 729.6C605.21 722.46 605.76 715.58 606.33 708.29C606.61 704.75 606.9 701.08 607.57 697.31C609.06 688.86 614.72 679.11 622.29 677.69C625.64 677.06 630.61 677.91 635.24 685.55C640.72 694.57 640.58 705.54 640.45 716.15C640.39 720.72 640.34 725.04 640.72 729.14C640.79 729.88 640.25 730.53 639.51 730.6C638.77 730.68 638.12 730.13 638.05 729.39C637.65 725.15 637.71 720.56 637.77 716.12C637.9 705.89 638.03 695.31 632.95 686.94C630.83 683.45 627.34 679.47 622.78 680.33C617.36 681.35 611.72 689.17 610.2 697.78C609.56 701.43 609.27 705.03 609 708.51C608.4 716.07 607.84 723.22 603.93 730.83C603.69 731.29 603.22 731.56 602.74 731.56V731.55Z" fill="#BFBFBF"/>
<path d="M295.83 96.1399H395.72C403.01 96.1399 408.92 102.06 408.92 109.34V298.38H282.62V109.34C282.62 102.05 288.54 96.1399 295.82 96.1399H295.83Z" fill="#A7C553"/>
<g style="mix-blend-mode:multiply">
<path d="M458.21 219.38C454.43 223.16 449.94 226.29 444.89 228.59L392.12 252.58C382.02 257.17 370.11 252.7 365.51 242.6C360.92 232.5 365.38 220.59 375.49 215.99L428.26 192C430.34 191.06 430.97 189.37 431.13 188.13C431.29 186.88 431.13 185.09 429.36 183.64L379.13 142.2C370.57 135.14 369.36 122.47 376.42 113.91C383.51 105.35 396.15 104.14 404.71 111.2L454.94 152.64C467.03 162.62 473.03 177.85 470.97 193.4C469.64 203.44 465.1 212.48 458.21 219.37V219.38Z" fill="#006D68"/>
</g>
<path d="M345.78 119.1C369.562 119.1 388.84 99.8214 388.84 76.04C388.84 52.2586 369.562 32.98 345.78 32.98C321.999 32.98 302.72 52.2586 302.72 76.04C302.72 99.8214 321.999 119.1 345.78 119.1Z" fill="white"/>
<path d="M345.78 120.53C321.25 120.53 301.29 100.57 301.29 76.0401C301.29 51.51 321.25 31.55 345.78 31.55C370.31 31.55 390.27 51.51 390.27 76.0401C390.27 100.57 370.31 120.53 345.78 120.53ZM345.78 34.42C322.83 34.42 304.16 53.09 304.16 76.0401C304.16 98.9901 322.83 117.66 345.78 117.66C368.73 117.66 387.4 98.9901 387.4 76.0401C387.4 53.09 368.73 34.42 345.78 34.42Z" fill="#3C3C3B"/>
<path d="M393.95 66.7C394.1 59.95 392.56 52.73 387.04 48.3C385.59 47.13 383.79 46.17 381.94 46.4C380.97 46.52 380.06 46.96 379.21 47.46C373.66 50.7 369.34 55.42 374.34 61.54C376.52 64.21 379.55 66.07 381.78 68.7C384.25 71.61 385.03 74.82 385.76 78.46C386.08 80.05 385.79 80.7 387.44 81.5C394.12 84.73 393.77 70.82 393.91 67.54C393.92 67.26 393.93 66.98 393.94 66.7H393.95Z" fill="#C5C5C5"/>
<path d="M383.37 58.0699C390.15 53.8199 395.81 48.4499 399.03 42.6299C400.26 40.4199 401.28 37.7699 400.36 35.4099C399.53 33.2799 397.06 31.9299 394.82 32.3899C388.77 33.6299 387.58 37.5399 382.42 32.1399C376.55 25.9999 371.76 22.4699 364.04 19.1199C356.44 15.8199 348 14.9299 339.78 15.0999C327.6 15.3499 315.78 21.1299 307.48 30.0499C296.89 41.4299 291.86 56.4099 294.9 71.5699C295.58 74.9599 296.76 82.4699 301.18 82.8099C305.35 83.1299 306.36 77.5399 306.94 74.4499C308.29 67.2899 313.01 60.6899 320.54 59.4199C329.38 57.9299 333.89 62.9699 341.7 65.7699C353.82 70.1099 370.59 66.0699 383.36 58.0699H383.37Z" fill="#C5C5C5"/>
<path d="M300.3 84.1101C298.73 84.1101 296.1 83.3601 294.58 78.7701C294.35 78.0701 294.73 77.3101 295.43 77.0801C296.13 76.8501 296.89 77.2301 297.12 77.9301C297.66 79.5701 298.7 81.5001 300.39 81.4301C302.45 81.3401 304.88 78.6401 305.59 75.6501C307.44 67.8901 310.63 59.7401 320.31 58.1101C326.85 57.0101 331.18 59.2401 335.76 61.6001C337.75 62.6201 339.8 63.6801 342.14 64.5201C352.95 68.4001 369.23 65.3501 382.64 56.9401C386.73 54.3801 398.64 45.4201 399.7 38.1301C399.96 36.3501 399.52 34.8501 398.37 33.5401C397.88 32.9801 397.94 32.1401 398.49 31.6501C399.05 31.1601 399.89 31.2201 400.38 31.7701C402.06 33.6801 402.73 35.9501 402.35 38.5201C401.14 46.8501 388.74 56.2801 384.06 59.2101C369.76 68.1701 352.95 71.2401 341.23 67.0401C338.72 66.1401 336.59 65.0401 334.52 63.9801C330.16 61.7301 326.4 59.8001 320.74 60.7501C312.62 62.1201 309.91 69.0201 308.18 76.2701C307.17 80.5201 303.79 83.9701 300.49 84.1101C300.42 84.1101 300.35 84.1101 300.28 84.1101H300.3Z" fill="white"/>
<path d="M442.46 196.89H163.79V622.93H442.46V196.89Z" fill="#3C3C3B"/>
<path d="M442.46 623.4H163.79C163.53 623.4 163.32 623.19 163.32 622.93V196.89C163.32 196.63 163.53 196.42 163.79 196.42H442.46C442.72 196.42 442.93 196.63 442.93 196.89V622.93C442.93 623.19 442.72 623.4 442.46 623.4ZM164.26 622.45H441.98V197.36H164.26V622.46V622.45Z" fill="#3C3C3B"/>
<path d="M721.12 196.89H442.45V622.93H721.12V196.89Z" fill="#3C3C3B"/>
<path d="M721.12 623.4H442.45C442.19 623.4 441.98 623.19 441.98 622.93V196.89C441.98 196.63 442.19 196.42 442.45 196.42H721.12C721.38 196.42 721.59 196.63 721.59 196.89V622.93C721.59 623.19 721.38 623.4 721.12 623.4ZM442.93 622.45H720.65V197.36H442.93V622.46V622.45Z" fill="#3C3C3B"/>
<path d="M442.45 622.93C424.55 621.34 405.73 621.35 388.11 618.1C361.28 613.16 335.81 600.15 309.41 592.89C283.43 585.75 262.75 598.17 237.05 600.83C232.63 601.29 186.57 607.14 186.56 600.16C186.56 599.6 186.56 175.74 186.56 174.13C186.57 173.27 213.87 177.47 215.8 177.72C232.48 179.94 248.15 178.98 264.13 174.14C281.8 168.8 300.09 162.81 318.78 165.73C344.29 169.71 364.85 189.54 390.19 192.25C393.11 192.56 442.45 196.15 442.45 196.9V622.94V622.93Z" fill="white"/>
<path d="M442.46 624.26C442.46 624.26 442.38 624.26 442.34 624.26C436.41 623.73 430.25 623.37 424.3 623.03C412.21 622.33 399.72 621.6 387.87 619.42C372.07 616.51 356.56 610.75 341.55 605.19C330.95 601.26 319.98 597.19 309.06 594.19C292.4 589.61 277.95 593.25 262.65 597.09C254.55 599.13 246.17 601.24 237.19 602.16L235.48 602.35C206.11 605.71 190.02 605.73 186.3 602.42C185.41 601.63 185.22 600.75 185.22 600.15V174.12C185.22 173.73 185.41 173.32 185.71 173.06C186.41 172.47 186.86 172.08 213.48 176.02C214.78 176.21 215.68 176.35 215.98 176.38C232.86 178.62 248.48 177.47 263.75 172.85L266.26 172.09C283.28 166.92 300.89 161.58 318.99 164.4C331.55 166.36 343.01 172.13 354.08 177.72C366.13 183.8 377.52 189.54 390.34 190.91C391.07 190.99 394.72 191.27 399.77 191.66C429.124 193.94 443.8 195.683 443.8 196.89V622.93C443.8 623.31 443.64 623.66 443.37 623.92C443.12 624.15 442.8 624.27 442.47 624.27L442.46 624.26ZM293.03 589.35C298.41 589.35 303.94 589.99 309.77 591.6C320.8 594.63 331.82 598.72 342.48 602.67C357.38 608.2 372.79 613.91 388.36 616.78C400.04 618.93 412.46 619.65 424.46 620.35C429.95 620.67 435.61 621 441.12 621.46V197.93C436.09 197.17 411.72 195.27 399.56 194.33C394.47 193.93 390.79 193.65 390.05 193.57C376.74 192.15 364.6 186.03 352.87 180.11C341.98 174.62 330.72 168.94 318.57 167.05C301.07 164.32 283.77 169.58 267.03 174.66L264.51 175.42C248.87 180.15 232.88 181.34 215.61 179.04C215.31 179 214.4 178.86 213.07 178.67C199.21 176.62 190.76 175.5 187.89 175.35V600.15C189.46 601.66 196.84 604.07 235.16 599.69L236.9 599.49C245.68 598.58 253.97 596.5 261.98 594.48C272.37 591.87 282.38 589.35 293.01 589.35H293.03Z" fill="#006D68"/>
<path d="M701.02 590.77V178.13C678.09 180.98 655.68 171.03 632.61 170.09C597.71 168.68 562.66 171.84 528.45 179.42C510.75 183.35 493.13 190.84 475.42 192.87C473.62 193.08 442.45 196.17 442.45 196.88V622.91C442.45 622.03 469.5 618.8 471.94 618.36C490.54 615.01 508.16 605.04 525.97 598.6C558.02 587 591.75 585.31 625.17 589.09C640.97 590.88 657.25 596.27 672.94 594.25C682.3 593.05 691.66 591.92 701.02 590.76V590.77Z" fill="white"/>
<path d="M442.46 624.26C441.72 624.26 441.12 623.66 441.12 622.92V196.89C441.12 195.25 441.12 195.08 472.82 191.8L475.27 191.54C485.86 190.33 496.65 187.07 507.09 183.91C513.98 181.83 521.11 179.67 528.16 178.11C562.54 170.48 597.7 167.33 632.66 168.75C642.34 169.14 652 171.12 661.34 173.04C674.28 175.69 687.65 178.44 700.85 176.8C701.23 176.75 701.61 176.87 701.9 177.13C702.19 177.38 702.35 177.75 702.35 178.13V590.77C702.35 591.45 701.85 592.02 701.18 592.1L691.73 593.27C685.52 594.03 679.31 594.8 673.1 595.59C662.29 596.98 651.18 594.92 640.43 592.92C635.35 591.98 630.09 591 625 590.43C587.82 586.22 555.57 589.31 526.41 599.86C520.41 602.03 514.31 604.66 508.4 607.2C496.7 612.23 484.61 617.44 472.16 619.68C471.5 619.8 469.04 620.12 465.79 620.55C459.09 621.43 445.34 623.24 443.28 623.94C443.05 624.13 442.75 624.25 442.43 624.25L442.46 624.26ZM443.79 197.88V621.09C446.7 620.43 452.78 619.57 465.46 617.9C468.64 617.48 471.05 617.17 471.7 617.05C483.84 614.86 495.8 609.72 507.35 604.74C513.29 602.18 519.44 599.54 525.51 597.34C555.07 586.64 587.72 583.51 625.31 587.76C630.49 588.35 635.8 589.33 640.92 590.28C651.47 592.23 662.37 594.25 672.76 592.92C678.97 592.12 685.19 591.36 691.41 590.59L699.68 589.57V179.63C686.55 180.95 673.47 178.27 660.8 175.67C651.57 173.78 642.02 171.82 632.55 171.43C597.82 170.03 562.9 173.16 528.74 180.73C521.79 182.27 514.71 184.41 507.87 186.48C497.32 189.67 486.4 192.97 475.58 194.2L473.1 194.46C453.2 196.51 446 197.45 443.8 197.87L443.79 197.88Z" fill="#006D68"/>
<path d="M667.65 580.95C669.51 580.9 671.38 580.88 673.27 580.9C673.9 580.9 673.24 548.3 673.18 545C672.82 525.46 671.55 505.94 671.55 486.4V359.19C671.55 295.74 671.55 232.29 671.55 168.85C671.55 168.64 671.46 164.75 671.55 164.74C651.23 167.59 631.38 171.03 610.93 170.1C580.01 168.69 548.95 171.85 518.65 179.43C502.96 183.36 487.35 190.85 471.66 192.88C470.07 193.09 442.45 196.18 442.45 196.89C442.45 197.72 442.45 621.86 442.45 622.91C442.69 621.08 463.27 617.22 466.09 615.96C489.02 605.69 510.04 591.88 533.17 581.94C552.93 573.45 580.61 568.2 602.17 569.24C624.23 570.3 644.9 581.51 667.65 580.94V580.95Z" fill="white"/>
<path d="M442.46 624.25C442.46 624.25 442.4 624.25 442.37 624.25C441.66 624.21 441.12 623.62 441.12 622.91C441.12 621.85 441.12 197.71 441.12 196.88C441.12 195.29 441.12 195.08 469.33 191.8L471.5 191.54C480.85 190.33 490.4 187.08 499.64 183.93C505.75 181.85 512.07 179.69 518.33 178.13C548.82 170.5 580 167.34 611 168.76C628.68 169.57 645.62 167.12 663.54 164.53L671.29 163.42C671.29 163.42 671.34 163.42 671.36 163.41C672.08 163.32 672.77 163.82 672.87 164.55C672.89 164.71 672.89 164.87 672.85 165.02C672.82 165.59 672.85 167.58 672.87 168.43V168.85V486.4C672.87 497.76 673.31 509.31 673.73 520.48C674.03 528.5 674.35 536.8 674.5 544.98V545.76C675.18 580.87 674.8 581.25 674.22 581.84C673.97 582.1 673.64 582.25 673.24 582.24C671.37 582.22 669.52 582.24 667.67 582.29C655.2 582.59 643.27 579.41 631.73 576.32C622.08 573.74 612.1 571.07 602.09 570.59C581.06 569.59 553.58 574.64 533.69 583.19C521.65 588.36 509.97 594.71 498.67 600.84C488.32 606.46 477.62 612.27 466.64 617.19C465.55 617.68 462.66 618.38 458.02 619.48C453.14 620.64 445.05 622.56 443.64 623.54C443.41 623.97 442.96 624.26 442.45 624.26L442.46 624.25ZM443.79 197.85C443.79 219.17 443.79 587.44 443.79 620.54C446.06 619.65 450.16 618.59 457.4 616.87C460.95 616.03 464.62 615.16 465.54 614.74C476.43 609.86 487.09 604.08 497.39 598.48C508.74 592.31 520.48 585.94 532.63 580.72C552.86 572.03 580.82 566.89 602.22 567.91C612.52 568.4 622.64 571.11 632.42 573.73C643.78 576.77 655.51 579.92 667.6 579.61C669.09 579.57 670.58 579.56 672.09 579.56C672.2 577.3 672.3 569.89 671.84 545.82V545.03C671.68 536.88 671.36 528.6 671.06 520.59C670.64 509.39 670.2 497.81 670.2 486.4V168.47C670.18 167.59 670.16 166.87 670.16 166.28L663.9 167.17C646.64 169.66 628.8 172.24 610.86 171.43C580.12 170.03 549.2 173.15 518.96 180.72C512.81 182.26 506.55 184.39 500.49 186.46C491.13 189.65 481.44 192.95 471.82 194.2L469.62 194.46C452.21 196.49 445.8 197.42 443.78 197.84L443.79 197.85Z" fill="#006D68"/>
<path d="M479.92 236.92C476.96 236.92 474 236.68 471.01 236.13C470.28 236 469.8 235.3 469.94 234.57C470.07 233.84 470.77 233.35 471.5 233.5C486.42 236.24 500.73 231.13 515.87 225.71C522.5 223.34 529.35 220.89 536.19 219.2C554.4 214.7 573.52 215.46 592.02 216.19C610.9 216.94 630.41 217.72 648.72 212.82C649.44 212.63 650.17 213.06 650.36 213.77C650.55 214.48 650.13 215.22 649.41 215.41C630.71 220.4 610.98 219.62 591.91 218.86C573.6 218.13 554.67 217.38 536.83 221.79C530.12 223.45 523.34 225.88 516.77 228.23C504.79 232.52 492.47 236.93 479.92 236.93V236.92Z" fill="#C5C5C5"/>
<path d="M468.32 302.88C467.74 302.88 467.21 302.5 467.04 301.92C466.83 301.21 467.24 300.46 467.94 300.25C484.41 295.38 501.44 290.34 518.95 288.93C534.54 287.67 550.32 289.32 565.59 290.92C572.77 291.67 580.19 292.45 587.49 292.91C603.57 293.93 619.64 291.51 638.05 285.31C638.75 285.07 639.51 285.45 639.75 286.15C639.99 286.85 639.61 287.61 638.91 287.85C620.16 294.17 603.78 296.62 587.33 295.59C579.98 295.13 572.53 294.35 565.33 293.59C550.19 292.01 534.53 290.37 519.19 291.61C501.95 293 485.06 298 468.72 302.83C468.59 302.87 468.47 302.89 468.34 302.89L468.32 302.88Z" fill="#C5C5C5"/>
<path d="M472.26 467.57C471.68 467.57 471.15 467.19 470.97 466.6C470.76 465.89 471.17 465.15 471.88 464.94C484.83 461.17 498.23 457.27 511.9 455.55C529.93 453.29 548.66 454.77 566.77 456.2C588.52 457.92 611.01 459.69 631.64 454.76C632.37 454.59 633.08 455.03 633.25 455.75C633.42 456.47 632.98 457.19 632.26 457.36C611.22 462.39 588.51 460.6 566.56 458.86C548.58 457.44 529.99 455.97 512.23 458.2C498.76 459.89 485.47 463.76 472.62 467.51C472.49 467.55 472.37 467.56 472.24 467.56L472.26 467.57Z" fill="#C5C5C5"/>
<path d="M472.26 510.44C471.68 510.44 471.15 510.06 470.97 509.47C470.76 508.76 471.17 508.02 471.88 507.81C526.73 491.83 599.3 488.98 652.46 500.69C653.18 500.85 653.64 501.56 653.48 502.29C653.32 503.01 652.6 503.47 651.88 503.31C599.13 491.68 527.09 494.52 472.62 510.38C472.49 510.42 472.37 510.43 472.24 510.43L472.26 510.44Z" fill="#C5C5C5"/>
<path d="M472.26 550.63C471.68 550.63 471.15 550.25 470.97 549.66C470.76 548.95 471.17 548.21 471.88 548C480.35 545.54 489.26 543.64 497.89 541.8C502.14 540.9 506.39 539.99 510.6 539.02C525.37 535.61 540.06 533.12 554.27 531.62C586.57 528.21 625.11 529.79 652.45 535.64C653.17 535.79 653.63 536.51 653.48 537.23C653.33 537.95 652.62 538.42 651.89 538.26C624.8 532.46 586.59 530.9 554.55 534.28C540.45 535.77 525.86 538.24 511.2 541.62C506.98 542.59 502.72 543.5 498.45 544.41C489.87 546.23 481 548.12 472.63 550.56C472.5 550.6 472.38 550.61 472.25 550.61L472.26 550.63Z" fill="#C5C5C5"/>
<path d="M425.58 234.63C425.53 234.63 425.48 234.63 425.42 234.63C419.7 233.96 413.85 233.5 408.19 233.05C396.94 232.16 385.31 231.23 374 228.68C367.1 227.13 359.15 225.17 352.01 221.63C347.53 219.4 343.34 216.55 339.29 213.79C333.95 210.15 328.42 206.38 322.34 204.19C316.25 202 309.75 201.29 302.45 202.01C301.71 202.08 301.06 201.55 300.99 200.81C300.92 200.07 301.45 199.42 302.19 199.35C309.89 198.59 316.79 199.35 323.25 201.68C329.65 203.99 335.32 207.85 340.8 211.59C344.77 214.3 348.89 217.1 353.2 219.25C360.07 222.66 367.84 224.57 374.59 226.09C385.72 228.6 397.25 229.51 408.41 230.4C414.09 230.85 419.97 231.32 425.74 231.99C426.48 232.08 427 232.74 426.92 233.48C426.84 234.16 426.26 234.66 425.59 234.66L425.58 234.63Z" fill="#C5C5C5"/>
<path d="M228.63 221.48C224.36 221.48 220.1 220.97 215.85 219.79C215.14 219.59 214.72 218.85 214.92 218.14C215.12 217.43 215.86 217 216.57 217.21C233.39 221.88 251.01 215.31 268.06 208.95C272.32 207.36 276.72 205.72 281.05 204.27C281.75 204.04 282.51 204.42 282.75 205.12C282.98 205.82 282.61 206.58 281.9 206.82C277.62 208.25 273.23 209.88 269 211.46C255.74 216.4 242.15 221.48 228.64 221.48H228.63Z" fill="#C5C5C5"/>
<path d="M425.58 282.86C425.53 282.86 425.48 282.86 425.42 282.86C419.69 282.19 413.84 281.73 408.18 281.28C396.94 280.39 385.31 279.46 373.99 276.91C367.09 275.36 359.14 273.4 352 269.86C347.52 267.63 343.33 264.78 339.28 262.02C333.94 258.38 328.41 254.61 322.33 252.42C305.14 246.23 287.58 252.77 268.99 259.71C251.55 266.22 233.5 272.95 215.85 268.04C215.14 267.84 214.72 267.1 214.92 266.39C215.12 265.68 215.86 265.26 216.57 265.46C233.39 270.13 251.02 263.56 268.06 257.2C286.28 250.4 305.12 243.38 323.24 249.9C329.64 252.21 335.31 256.07 340.79 259.81C344.77 262.52 348.88 265.32 353.19 267.47C360.06 270.88 367.83 272.79 374.58 274.31C385.71 276.82 397.24 277.73 408.39 278.62C414.07 279.07 419.95 279.54 425.72 280.21C426.46 280.3 426.98 280.96 426.9 281.7C426.82 282.38 426.24 282.88 425.57 282.88L425.58 282.86Z" fill="#C5C5C5"/>
<path d="M425.58 328.41C425.53 328.41 425.48 328.41 425.42 328.41C419.72 327.75 413.87 327.52 408.21 327.31C402.07 327.08 395.71 326.83 389.47 326.03C377.16 324.45 366.07 319.82 354.55 311.46C353.95 311.03 353.82 310.19 354.25 309.59C354.68 308.99 355.52 308.86 356.12 309.29C367.26 317.37 377.97 321.84 389.81 323.37C395.93 324.16 402.22 324.4 408.31 324.63C414.02 324.85 419.92 325.07 425.72 325.75C426.46 325.84 426.98 326.5 426.9 327.24C426.82 327.92 426.24 328.42 425.57 328.42L425.58 328.41Z" fill="#C5C5C5"/>
<path d="M228.64 315.26C224.37 315.26 220.1 314.75 215.86 313.57C215.15 313.37 214.73 312.63 214.93 311.92C215.13 311.21 215.87 310.79 216.58 310.99C233.4 315.66 251.03 309.09 268.07 302.73C286.29 295.93 305.13 288.9 323.25 295.43C328.17 297.2 332.58 299.89 335.87 302.03C336.49 302.43 336.67 303.26 336.26 303.88C335.86 304.5 335.03 304.68 334.41 304.27C331.24 302.21 327 299.63 322.34 297.95C305.15 291.75 287.59 298.3 269 305.24C255.74 310.18 242.15 315.26 228.63 315.26H228.64Z" fill="#C5C5C5"/>
<path d="M425.58 373.96C425.53 373.96 425.48 373.96 425.42 373.96C419.69 373.29 413.84 372.83 408.18 372.38C396.94 371.49 385.31 370.56 373.99 368.01C367.09 366.46 359.14 364.5 352 360.96C347.52 358.73 343.33 355.88 339.28 353.12C333.94 349.48 328.41 345.71 322.33 343.52C305.14 337.33 287.58 343.87 268.99 350.81C251.55 357.32 233.5 364.05 215.85 359.14C215.14 358.94 214.72 358.2 214.92 357.49C215.12 356.78 215.86 356.36 216.57 356.56C233.39 361.23 251.02 354.66 268.06 348.3C286.28 341.5 305.12 334.48 323.24 341C329.64 343.31 335.31 347.17 340.79 350.91C344.76 353.62 348.88 356.42 353.19 358.57C360.06 361.98 367.83 363.89 374.58 365.41C385.71 367.92 397.24 368.83 408.39 369.72C414.07 370.17 419.95 370.64 425.72 371.31C426.46 371.4 426.98 372.06 426.9 372.8C426.82 373.48 426.24 373.98 425.57 373.98L425.58 373.96Z" fill="#C5C5C5"/>
<path d="M425.58 422.19C425.53 422.19 425.48 422.19 425.42 422.19C419.69 421.52 413.84 421.06 408.18 420.61C396.94 419.72 385.31 418.79 373.99 416.24C370.63 415.48 366.67 414.55 362.82 413.38C362.11 413.17 361.71 412.42 361.93 411.71C362.14 411 362.89 410.6 363.6 410.82C367.37 411.96 371.26 412.88 374.58 413.63C385.71 416.14 397.24 417.05 408.39 417.94C414.07 418.39 419.95 418.86 425.72 419.53C426.46 419.62 426.98 420.28 426.9 421.02C426.82 421.7 426.24 422.2 425.57 422.2L425.58 422.19Z" fill="#C5C5C5"/>
<path d="M346.32 405.74C346.08 405.74 345.83 405.67 345.61 405.53C343.48 404.18 341.38 402.76 339.29 401.33C333.95 397.69 328.42 393.92 322.34 391.73C307.11 386.24 291.1 391.04 277.28 395.97C276.58 396.22 275.82 395.85 275.57 395.16C275.32 394.46 275.68 393.7 276.38 393.45C290.63 388.36 307.18 383.42 323.25 389.21C329.65 391.52 335.32 395.38 340.8 399.12C342.86 400.53 344.93 401.94 347.04 403.27C347.67 403.66 347.85 404.49 347.46 405.12C347.21 405.52 346.77 405.74 346.33 405.74H346.32Z" fill="#C5C5C5"/>
<path d="M228.59 409.04C224.32 409.04 220.08 408.53 215.86 407.36C215.15 407.16 214.73 406.42 214.93 405.71C215.13 405 215.87 404.58 216.58 404.78C232.01 409.07 247.46 404.16 264.62 397.8C265.31 397.54 266.08 397.9 266.34 398.59C266.6 399.28 266.24 400.05 265.55 400.31C253.02 404.95 240.71 409.04 228.6 409.04H228.59Z" fill="#C5C5C5"/>
<path d="M425.58 467.74C425.53 467.74 425.48 467.74 425.42 467.74C419.69 467.07 413.84 466.61 408.18 466.16C396.94 465.27 385.31 464.34 373.99 461.79C373.27 461.63 372.81 460.91 372.98 460.19C373.14 459.47 373.86 459.02 374.58 459.18C385.71 461.69 397.24 462.6 408.39 463.49C414.07 463.94 419.95 464.41 425.72 465.08C426.46 465.17 426.98 465.83 426.9 466.57C426.82 467.25 426.24 467.75 425.57 467.75L425.58 467.74Z" fill="#C5C5C5"/>
<path d="M352.6 454.87C352.4 454.87 352.2 454.82 352 454.73C347.52 452.5 343.33 449.65 339.28 446.89C333.94 443.25 328.41 439.48 322.33 437.29C306.73 431.67 290.63 436.76 276.94 442.48C276.26 442.77 275.47 442.44 275.19 441.76C274.9 441.08 275.23 440.29 275.91 440.01C290.08 434.09 306.78 428.85 323.24 434.78C329.64 437.09 335.31 440.95 340.79 444.69C344.77 447.4 348.88 450.2 353.19 452.35C353.85 452.68 354.12 453.48 353.79 454.15C353.56 454.62 353.08 454.89 352.59 454.89L352.6 454.87Z" fill="#C5C5C5"/>
<path d="M228.59 454.59C224.32 454.59 220.08 454.08 215.86 452.91C215.15 452.71 214.73 451.97 214.93 451.26C215.13 450.55 215.87 450.13 216.58 450.33C232 454.62 247.46 449.71 264.62 443.35C265.31 443.09 266.08 443.45 266.34 444.14C266.6 444.83 266.24 445.6 265.55 445.86C253.02 450.5 240.7 454.58 228.6 454.58L228.59 454.59Z" fill="#C5C5C5"/>
<path d="M425.58 510.62C425.53 510.62 425.48 510.62 425.42 510.62C419.69 509.95 413.84 509.49 408.18 509.04C396.94 508.15 385.31 507.22 373.99 504.67C373.27 504.51 372.81 503.79 372.98 503.07C373.14 502.35 373.86 501.9 374.58 502.06C385.71 504.56 397.24 505.48 408.39 506.37C414.07 506.82 419.95 507.29 425.73 507.96C426.47 508.05 426.99 508.71 426.91 509.45C426.83 510.13 426.25 510.63 425.58 510.63V510.62Z" fill="#C5C5C5"/>
<path d="M352.6 497.75C352.4 497.75 352.2 497.7 352 497.61L349.5 496.37C338.18 490.73 326.48 484.89 313.66 482.37C312.93 482.23 312.46 481.52 312.6 480.8C312.74 480.08 313.45 479.6 314.17 479.74C327.34 482.33 339.21 488.25 350.68 493.97L353.17 495.21C353.83 495.54 354.1 496.34 353.77 497.01C353.54 497.48 353.06 497.75 352.57 497.75H352.6Z" fill="#C5C5C5"/>
<path d="M282.93 482.99C282.3 482.99 281.73 482.54 281.61 481.89C281.47 481.16 281.96 480.46 282.68 480.33C294.79 478.08 304.81 477.89 314.18 479.73C314.91 479.87 315.38 480.58 315.24 481.3C315.1 482.03 314.4 482.5 313.67 482.36C304.63 480.58 294.94 480.78 283.17 482.96C283.09 482.97 283 482.98 282.92 482.98L282.93 482.99Z" fill="#C5C5C5"/>
<path d="M223.47 496.69C220.69 496.69 218.12 496.42 215.86 495.79C215.15 495.59 214.73 494.85 214.93 494.14C215.13 493.43 215.87 493.01 216.58 493.21C227.67 496.29 247.41 490.01 261.83 485.42C265.64 484.21 269.09 483.11 271.96 482.31C272.67 482.11 273.41 482.53 273.61 483.24C273.81 483.95 273.39 484.69 272.68 484.89C269.84 485.68 266.42 486.77 262.65 487.97C250.73 491.77 235.25 496.7 223.49 496.7L223.47 496.69Z" fill="#C5C5C5"/>
<path d="M425.58 558.85C425.53 558.85 425.48 558.85 425.42 558.85C419.69 558.18 413.84 557.72 408.18 557.27C396.94 556.38 385.31 555.45 373.99 552.9C371.62 552.37 369.23 551.8 366.82 551.2C366.1 551.02 365.67 550.29 365.85 549.58C366.03 548.87 366.76 548.43 367.47 548.61C369.86 549.21 372.23 549.77 374.58 550.3C385.71 552.81 397.24 553.72 408.39 554.61C414.07 555.06 419.95 555.53 425.72 556.2C426.46 556.29 426.98 556.95 426.9 557.69C426.82 558.37 426.24 558.87 425.57 558.87L425.58 558.85Z" fill="#C5C5C5"/>
<path d="M213.18 551.5C212.64 551.5 212.13 551.17 211.93 550.64C211.66 549.95 212.01 549.17 212.7 548.91C240.82 538.11 264.14 531.81 286.11 529.08C295.22 527.95 303.66 526.9 312.6 529.08C318.19 530.44 323.5 533.07 328.64 535.61C330.8 536.68 332.95 537.75 335.13 538.72C343.57 542.5 351.46 545.13 359.97 547.02C360.69 547.18 361.15 547.9 360.99 548.62C360.83 549.34 360.11 549.8 359.39 549.64C350.7 547.71 342.64 545.02 334.03 541.17C331.83 540.18 329.64 539.1 327.45 538.02C322.44 535.54 317.26 532.98 311.96 531.69C303.5 529.63 295.28 530.65 286.59 531.73C264.69 534.45 241.56 540.7 213.65 551.42C213.49 551.48 213.33 551.51 213.17 551.51L213.18 551.5Z" fill="#C5C5C5"/>
<g style="mix-blend-mode:multiply">
<path d="M233.35 219.38C237.13 223.16 241.62 226.29 246.67 228.59L299.44 252.58C309.54 257.17 321.45 252.7 326.05 242.6C330.64 232.5 326.18 220.59 316.07 215.99L263.3 192C261.22 191.06 260.59 189.37 260.43 188.13C260.27 186.88 260.43 185.09 262.2 183.64L312.43 142.2C320.99 135.14 322.2 122.47 315.14 113.91C308.05 105.35 295.41 104.14 286.85 111.2L236.62 152.64C224.53 162.62 218.53 177.85 220.59 193.4C221.92 203.44 226.46 212.48 233.35 219.37V219.38Z" fill="#006D68"/>
</g>
<path d="M339.76 266.81C346.61 263.29 351.14 271.74 354.98 275.89C356.54 277.58 359.59 280.64 362.25 279.36C366.54 277.29 358.45 267.05 356.95 264.5C352.45 256.81 347.45 249.3 341.28 242.84C336.52 237.86 330.49 229.88 323.07 230.35C319.22 230.59 315.22 232.21 312.25 234.67C306.66 239.3 309.15 247.96 311.25 253.61C312.84 257.89 314.76 262.04 316.71 266.17C318.69 270.39 322.23 272.81 326.94 272.47C329.19 272.3 331.37 271.57 333.45 270.75C335.57 269.91 337.58 267.95 339.77 266.82L339.76 266.81Z" fill="white"/>
<path d="M360.92 281.38C357.71 281.38 354.8 278.23 353.71 277.06C352.96 276.25 352.19 275.29 351.39 274.28C347.56 269.5 344.54 266.28 340.54 268.34C339.67 268.79 338.81 269.4 337.9 270.04C336.69 270.9 335.43 271.79 334.07 272.33C332.05 273.13 329.64 273.98 327.05 274.17C321.83 274.56 317.5 271.9 315.14 266.89C313.15 262.67 311.24 258.53 309.63 254.2C307.23 247.76 304.79 238.6 311.15 233.34C314.44 230.61 318.75 228.89 322.96 228.63C330.14 228.2 335.89 234.43 340.48 239.45C341.18 240.22 341.86 240.96 342.52 241.65C347.95 247.33 352.86 254.11 358.44 263.63C358.68 264.04 359.1 264.66 359.61 265.41C362.85 270.2 365.95 275.15 365.06 278.44C364.76 279.55 364.05 280.4 363.01 280.9C362.32 281.23 361.62 281.38 360.94 281.38H360.92ZM343.01 264.23C347.74 264.23 351.31 268.69 354.07 272.14C354.82 273.08 355.54 273.98 356.23 274.73C359.21 277.95 360.74 278.18 361.5 277.82C361.66 277.74 361.7 277.68 361.73 277.56C362.28 275.5 358.27 269.58 356.76 267.34C356.2 266.51 355.73 265.82 355.47 265.37C350.03 256.09 345.27 249.5 340.03 244.03C339.36 243.33 338.66 242.57 337.94 241.78C333.84 237.29 328.7 231.73 323.17 232.07C319.72 232.29 316.04 233.76 313.33 236C308.66 239.87 310.81 247.57 312.84 253.02C314.4 257.22 316.29 261.3 318.24 265.45C319.47 268.07 321.95 271.13 326.79 270.76C328.91 270.6 331.02 269.86 332.8 269.16C333.78 268.77 334.82 268.04 335.91 267.26C336.88 266.57 337.88 265.86 338.96 265.31C340.39 264.57 341.74 264.26 343 264.26L343.01 264.23Z" fill="#3C3C3B"/>
<path d="M257.25 305.77H166.91C153.78 305.77 143.14 316.41 143.14 329.53V405.91C143.14 419.04 153.78 429.68 166.91 429.68H192.34L212.09 449.43L231.84 429.68H257.27C270.4 429.68 281.04 419.04 281.04 405.91V329.53C281.04 316.41 270.4 305.77 257.27 305.77H257.25Z" fill="white"/>
<path d="M212.08 451.44C211.57 451.44 211.05 451.24 210.66 450.85L191.5 431.69H166.9C152.69 431.69 141.13 420.13 141.13 405.91V329.53C141.13 315.32 152.69 303.75 166.9 303.75H257.24C271.45 303.75 283.02 315.31 283.02 329.53V405.91C283.02 420.12 271.46 431.69 257.24 431.69H232.65L213.49 450.85C213.1 451.24 212.58 451.44 212.07 451.44H212.08ZM166.9 307.78C154.9 307.78 145.15 317.54 145.15 329.54V405.92C145.15 417.92 154.91 427.68 166.9 427.68H192.33C192.86 427.68 193.37 427.89 193.75 428.27L212.07 446.59L230.39 428.27C230.77 427.89 231.28 427.68 231.81 427.68H257.24C269.24 427.68 279 417.92 279 405.92V329.54C279 317.54 269.24 307.78 257.24 307.78H166.9Z" fill="#006D68"/>
<path d="M252.27 374.66V359.1H241.51C240.8 356.43 239.75 353.9 238.39 351.57L246 343.96L235 332.96L227.39 340.57C225.06 339.21 222.53 338.16 219.86 337.45V326.69H204.3V337.45C201.63 338.16 199.1 339.21 196.77 340.57L189.16 332.96L178.16 343.96L185.77 351.57C184.41 353.9 183.36 356.43 182.65 359.1H171.89V374.66H182.65C183.36 377.33 184.41 379.86 185.77 382.19L178.16 389.8L189.16 400.8L196.77 393.19C199.1 394.55 201.63 395.6 204.3 396.31V407.07H219.86V396.31C222.53 395.6 225.06 394.55 227.39 393.19L235 400.8L246 389.8L238.39 382.19C239.75 379.86 240.8 377.33 241.51 374.66H252.27ZM212.08 380.57C204.52 380.57 198.4 374.44 198.4 366.89C198.4 359.34 204.53 353.21 212.08 353.21C219.63 353.21 225.76 359.34 225.76 366.89C225.76 374.44 219.63 380.57 212.08 380.57Z" fill="#006D68"/>
<path d="M413.03 448.83H349.79C340.6 448.83 333.15 456.28 333.15 465.47V518.94C333.15 528.13 340.6 535.58 349.79 535.58H367.59L381.41 549.4L395.23 535.58H413.03C422.22 535.58 429.67 528.13 429.67 518.94V465.47C429.67 456.28 422.22 448.83 413.03 448.83Z" fill="#A7C553"/>
<path d="M370.68 487.76L355.24 493.68L370.68 499.6V505.66L347.91 496.75V490.55L370.68 481.69V487.75V487.76Z" fill="white"/>
<path d="M372.31 473.02L378.37 471.2L390.5 509.12L384.44 510.94L372.31 473.01V473.02Z" fill="white"/>
<path d="M414.91 490.56V496.76L392.14 505.67V499.61L407.58 493.69L392.14 487.77V481.71L414.91 490.57V490.56Z" fill="white"/>
<path d="M596.02 147.01H505.68C492.55 147.01 481.91 157.65 481.91 170.77V247.15C481.91 260.28 492.55 270.92 505.68 270.92H531.11L550.86 290.67L570.61 270.92H596.04C609.17 270.92 619.81 260.28 619.81 247.15V170.77C619.81 157.65 609.17 147.01 596.04 147.01H596.02Z" fill="white"/>
<path d="M550.85 292.67C550.34 292.67 549.82 292.47 549.43 292.08L530.27 272.92H505.68C491.47 272.92 479.9 261.36 479.9 247.14V170.76C479.9 156.55 491.46 144.99 505.68 144.99H596.02C610.23 144.99 621.79 156.55 621.79 170.76V247.14C621.79 261.35 610.23 272.92 596.02 272.92H571.42L552.26 292.08C551.87 292.47 551.35 292.67 550.84 292.67H550.85ZM505.67 149.02C493.67 149.02 483.91 158.78 483.91 170.77V247.15C483.91 259.15 493.67 268.91 505.67 268.91H531.1C531.63 268.91 532.14 269.12 532.52 269.5L550.84 287.82L569.16 269.5C569.54 269.12 570.05 268.91 570.58 268.91H596.01C608.01 268.91 617.76 259.15 617.76 247.15V170.77C617.76 158.77 608 149.02 596.01 149.02H505.67Z" fill="#006D68"/>
<path d="M537.48 205.03L518.24 212.41L537.48 219.79V227.35L509.11 216.25V208.52L537.48 197.48V205.04V205.03Z" fill="#006D68"/>
<path d="M539.51 186.67L547.07 184.4L562.18 231.66L554.62 233.93L539.51 186.67Z" fill="#006D68"/>
<path d="M592.58 208.52V216.25L564.21 227.35V219.79L583.45 212.41L564.21 205.03V197.47L592.58 208.51V208.52Z" fill="#006D68"/>
<path d="M703.75 4.05005H642.86C632.82 4.05005 624.69 12.19 624.69 22.22V88.83C624.69 98.87 632.83 107 642.86 107H658.21L673.31 122.1L688.41 107H703.76C713.8 107 721.93 98.86 721.93 88.83V22.22C721.93 12.18 713.79 4.05005 703.76 4.05005H703.75Z" fill="#A7C553"/>
<path d="M694.89 61.17C696.75 60.85 698.26 59.35 698.46 57.38C698.7 55.01 696.98 52.9 694.61 52.66C692.24 52.42 690.13 54.14 689.89 56.51C689.75 57.89 690.29 59.17 691.22 60.06C688.51 66.6 682.37 71.24 675.23 71.95V53.66C680.12 53.07 684.49 50.24 687.08 46.11C689.14 46.07 690.93 44.57 691.25 42.46C691.61 40.11 689.99 37.91 687.64 37.55C685.29 37.19 683.09 38.81 682.73 41.16C682.54 42.38 682.9 43.56 683.6 44.46C681.68 47.3 678.64 49.27 675.23 49.81V31.93C676.65 31.22 677.63 29.78 677.63 28.09C677.63 25.71 675.7 23.78 673.32 23.78C670.94 23.78 669.01 25.71 669.01 28.09C669.01 29.78 669.99 31.23 671.41 31.93V49.81C667.99 49.27 664.95 47.3 663.02 44.46C663.73 43.56 664.08 42.38 663.89 41.16C663.53 38.81 661.33 37.19 658.98 37.55C656.63 37.91 655.01 40.11 655.37 42.46C655.69 44.56 657.48 46.06 659.54 46.11C662.13 50.24 666.5 53.07 671.4 53.66V71.95C664.26 71.24 658.11 66.61 655.4 60.06C656.33 59.17 656.87 57.89 656.73 56.51C656.49 54.14 654.37 52.42 652.01 52.66C649.64 52.9 647.92 55.02 648.16 57.38C648.36 59.35 649.87 60.86 651.73 61.17C654.95 69.31 662.57 75.05 671.41 75.78V94.37H675.23V75.78C684.06 75.05 691.67 69.3 694.89 61.17Z" fill="white"/>
<path d="M536.35 442.43H482.66C474.86 442.43 468.54 448.75 468.54 456.55V501.95C468.54 509.75 474.86 516.07 482.66 516.07H497.77L509.5 527.8L521.23 516.07H536.34C544.14 516.07 550.46 509.75 550.46 501.95V456.55C550.46 448.75 544.14 442.43 536.34 442.43H536.35Z" fill="white"/>
<path d="M509.5 529.81C508.99 529.81 508.47 529.61 508.08 529.22L496.93 518.07H482.65C473.75 518.07 466.52 510.83 466.52 501.94V456.55C466.52 447.65 473.76 440.42 482.65 440.42H536.34C545.24 440.42 552.47 447.66 552.47 456.55V501.94C552.47 510.84 545.23 518.07 536.34 518.07H522.06L510.91 529.22C510.52 529.61 510 529.81 509.49 529.81H509.5ZM482.65 444.44C475.97 444.44 470.54 449.87 470.54 456.55V501.94C470.54 508.62 475.97 514.05 482.65 514.05H497.76C498.29 514.05 498.8 514.26 499.18 514.64L509.49 524.95L519.8 514.64C520.18 514.26 520.69 514.05 521.22 514.05H536.33C543.01 514.05 548.44 508.62 548.44 501.94V456.55C548.44 449.87 543.01 444.44 536.33 444.44H482.64H482.65Z" fill="#006D68"/>
<path d="M534.45 467.35H485.08C483.97 467.35 483.07 466.45 483.07 465.34C483.07 464.23 483.97 463.33 485.08 463.33H534.45C535.56 463.33 536.46 464.23 536.46 465.34C536.46 466.45 535.56 467.35 534.45 467.35Z" fill="#006D68"/>
<path d="M534.45 480.09H485.08C483.97 480.09 483.07 479.19 483.07 478.08C483.07 476.97 483.97 476.07 485.08 476.07H534.45C535.56 476.07 536.46 476.97 536.46 478.08C536.46 479.19 535.56 480.09 534.45 480.09Z" fill="#006D68"/>
<path d="M534.45 492.83H485.08C483.97 492.83 483.07 491.93 483.07 490.82C483.07 489.71 483.97 488.81 485.08 488.81H534.45C535.56 488.81 536.46 489.71 536.46 490.82C536.46 491.93 535.56 492.83 534.45 492.83Z" fill="#006D68"/>
<path d="M748.4 420.63H691.17C686.995 420.63 683.61 424.015 683.61 428.19V718.53C683.61 722.705 686.995 726.09 691.17 726.09H748.4C752.575 726.09 755.96 722.705 755.96 718.53V428.19C755.96 424.015 752.575 420.63 748.4 420.63Z" fill="#C5C5C5"/>
<path d="M755.12 698.64H698.84C685.78 698.64 675.19 709.23 675.19 722.29V732.55H755.12V698.64Z" fill="#3C3C3B"/>
<path d="M721.44 416.88C707.59 415.87 692.17 419.08 681.05 422.66C660.59 429.25 651.64 453.51 648.07 473.11C644.2 494.38 646.1 516.16 646.1 537.64V693.94C646.1 711.62 660.57 726.09 678.25 726.09H686.29C703.97 726.09 718.44 711.62 718.44 693.94V542.48C718.44 529.58 718.43 516.67 718.44 503.77C718.44 497.34 717.85 490.11 722.43 484.96C727.35 479.43 736.16 478.75 741.97 474.29C750.75 467.56 755.54 456.59 754.46 445.57C752.48 425.43 738.09 418.1 721.44 416.89V416.88Z" fill="white"/>
<path d="M686.29 727.8H678.25C659.57 727.8 644.38 712.61 644.38 693.93V537.63C644.38 532.33 644.26 527.01 644.15 521.69C643.8 505.61 643.44 488.98 646.38 472.8C649.32 456.62 657.67 428.38 680.52 421.03C687.27 418.86 704.78 413.95 721.57 415.17C742.42 416.69 754.38 427.15 756.17 445.4C757.31 456.97 752.27 468.56 743.02 475.65C740.29 477.74 737.01 479.04 733.84 480.29C729.92 481.84 726.22 483.3 723.72 486.1C720.05 490.22 720.1 496.07 720.15 501.72V503.77C720.15 512.37 720.15 520.97 720.15 529.58V693.94C720.15 712.62 704.96 727.81 686.28 727.81L686.29 727.8ZM716.07 418.4C701.58 418.4 687.42 422.41 681.57 424.29C660.43 431.1 652.56 457.98 649.76 473.41C646.88 489.25 647.24 505.7 647.58 521.61C647.7 526.96 647.81 532.3 647.81 537.63V693.93C647.81 710.71 661.46 724.37 678.25 724.37H686.29C703.07 724.37 716.73 710.71 716.73 693.93V529.57C716.73 520.97 716.73 512.36 716.73 503.76V501.74C716.67 495.73 716.61 488.91 721.15 483.8C724.19 480.38 728.45 478.7 732.58 477.08C735.67 475.86 738.58 474.72 740.93 472.91C749.24 466.53 753.77 456.12 752.75 445.72C751.12 429.12 740.54 419.99 721.32 418.58C719.58 418.45 717.83 418.39 716.08 418.39L716.07 418.4Z" fill="#3C3C3B"/>
<path d="M756.61 454.02H674.49C665 454.02 657.31 446.33 657.31 436.84V277.94C657.31 258.82 672.81 243.31 691.94 243.31H721.99C741.11 243.31 756.62 258.81 756.62 277.94V316.4V454.02H756.61Z" fill="#006D68"/>
<path d="M540.25 385.19C538.48 385.4 536.71 385.58 535.11 385.95C533.77 386.26 524.35 390.04 517.81 393.07C513.85 394.91 509.24 394.24 505.85 391.5C501.92 388.32 497.53 385.71 492.86 383.79C492.19 383.52 491.48 383.22 491.09 382.61C490.76 382.08 490.75 381.42 490.74 380.79C490.74 378.15 493.42 376.34 495.86 377.35C499.65 378.92 503.44 380.48 507.22 382.05C509.15 382.85 510.68 383.73 512.77 382.65C515.67 381.16 518.4 377.16 519.45 374.19C520.59 370.97 520.34 366.38 517.49 364.08C515.2 362.23 513.54 359.6 512.86 356.73C512.8 356.48 512.75 356.22 512.81 355.97C512.88 355.71 513.06 355.49 513.26 355.31C514.83 353.85 517.32 353.89 519.34 354.62C521.36 355.35 523.12 356.65 525.09 357.52C528.41 358.99 531.97 359.01 535.32 360.01C538.67 361.02 541.72 364.41 543.34 367.38" fill="white"/>
<path d="M513.11 395.84C510.15 395.84 507.21 394.82 504.77 392.84C500.95 389.75 496.72 387.24 492.21 385.39C491.41 385.06 490.32 384.62 489.64 383.53C489.04 382.57 489.03 381.51 489.03 380.81C489.03 378.99 489.92 377.3 491.43 376.29C492.94 375.28 494.84 375.09 496.52 375.78L508.49 380.73C510.16 381.44 510.88 381.71 511.99 381.14C514.4 379.9 516.9 376.28 517.84 373.63C518.78 370.97 518.6 367.19 516.42 365.43C513.82 363.33 511.97 360.39 511.2 357.14C511.13 356.85 510.99 356.24 511.16 355.56C511.3 355.01 511.61 354.52 512.11 354.06C514.33 352 517.61 352.17 519.94 353.01C521.22 353.47 522.36 354.12 523.47 354.74C524.23 355.17 525 355.6 525.8 355.95C527.58 356.74 529.47 357.07 531.47 357.42C532.89 357.67 534.37 357.93 535.83 358.37C539.87 359.58 543.22 363.54 544.86 366.57C545.31 367.4 545 368.45 544.17 368.9C543.34 369.35 542.29 369.04 541.84 368.21C540.4 365.57 537.68 362.52 534.84 361.66C533.57 361.28 532.26 361.05 530.87 360.81C528.75 360.44 526.57 360.05 524.4 359.1C523.5 358.7 522.64 358.22 521.78 357.74C520.75 357.16 519.78 356.61 518.76 356.25C517.5 355.79 515.67 355.59 514.56 356.47C515.22 359.02 516.62 361.2 518.56 362.76C522 365.54 522.42 370.91 521.06 374.78C519.87 378.15 516.9 382.47 513.55 384.2C510.96 385.53 508.92 384.66 507.13 383.9L495.2 378.96C494.57 378.7 493.89 378.77 493.33 379.15C492.77 379.53 492.45 380.13 492.45 380.81C492.45 381.04 492.45 381.59 492.53 381.72C492.62 381.87 493.19 382.1 493.49 382.22C498.32 384.2 502.83 386.88 506.91 390.18C509.85 392.56 513.74 393.08 517.07 391.53C523.35 388.61 533.09 384.67 534.7 384.29C536.24 383.93 537.91 383.74 539.51 383.55L540.03 383.49C540.96 383.38 541.82 384.05 541.93 385C542.04 385.94 541.37 386.79 540.42 386.9L539.9 386.96C538.32 387.14 536.82 387.32 535.47 387.63C534.45 387.87 525.3 391.49 518.5 394.64C516.76 395.45 514.92 395.84 513.08 395.84H513.11Z" fill="#3C3C3B"/>
<path d="M493.91 377.7C493.53 377.7 493.14 377.57 492.82 377.31C492.09 376.71 491.98 375.63 492.58 374.89C495.7 371.1 500.07 369.09 505.59 368.93C508.09 368.85 510.21 369.6 512.27 370.32C514.38 371.06 516.38 371.77 518.63 371.49C519.57 371.38 520.43 372.04 520.54 372.98C520.66 373.92 519.99 374.78 519.05 374.89C516 375.27 513.41 374.36 511.13 373.55C509.29 372.9 507.57 372.29 505.7 372.35C501.15 372.49 497.73 374.03 495.23 377.06C494.89 377.47 494.4 377.69 493.9 377.69L493.91 377.7Z" fill="#3C3C3B"/>
<path d="M708.54 246.45C731.278 246.45 749.71 228.017 749.71 205.28C749.71 182.542 731.278 164.11 708.54 164.11C685.803 164.11 667.37 182.542 667.37 205.28C667.37 228.017 685.803 246.45 708.54 246.45Z" fill="#3C3C3B"/>
<path d="M708.53 248.19C702.8 248.19 697.08 247.03 691.66 244.71C669.92 235.4 659.8 210.14 669.11 188.4C678.42 166.66 703.67 156.54 725.42 165.85C735.95 170.36 744.1 178.7 748.36 189.33C752.62 199.97 752.48 211.62 747.97 222.16C743.46 232.69 735.12 240.84 724.49 245.1C719.33 247.17 713.93 248.2 708.54 248.2L708.53 248.19ZM708.59 165.82C693.27 165.82 678.66 174.79 672.26 189.75C663.7 209.75 673.01 232.99 693.01 241.55C702.7 245.7 713.42 245.82 723.21 241.91C732.99 237.99 740.67 230.5 744.81 220.81C748.96 211.12 749.08 200.4 745.17 190.61C741.25 180.83 733.76 173.15 724.07 169.01C719.02 166.85 713.77 165.83 708.6 165.83L708.59 165.82Z" fill="#3C3C3B"/>
<g style="mix-blend-mode:multiply">
<path d="M551.36 401.51C536.75 401.51 536.42 348.36 551.13 348.23L621.82 347.61C629.72 347.54 636.14 341.07 636.14 333.17V280.42C636.14 265.71 648.07 253.78 662.78 253.78C677.49 253.78 689.42 265.71 689.42 280.42V333.17C689.42 370.19 659.3 400.57 622.29 400.89L551.6 401.51H551.36Z" fill="#A7C553"/>
</g>
<path d="M739.93 243.24C746.45 240.28 752.64 236.57 756.49 234.17C768.12 226.92 778.22 217.18 785.73 205.71C785.93 205.27 796 206.79 797.2 206.76C821.25 206.2 829.48 172 803.24 167.36C799.04 166.62 794.62 166.91 790.56 168.19C789.63 168.48 779.98 173.66 780.58 174.11C769.65 169.43 760.16 161.27 748.63 158.25C736.59 155.1 723.87 155.98 711.59 156.88C692.39 158.3 685.86 178.88 702.31 190.19C707.81 185.41 716.53 183.53 717.83 192.93C719.03 201.61 711.56 209.35 703.39 210.84C699.83 223.05 706.83 236.02 715.96 244.87C717.08 245.95 718.29 247.03 719.79 247.44C725.06 248.87 732.69 246.52 739.92 243.25L739.93 243.24Z" fill="white"/>
<path d="M723.28 249.29C721.87 249.29 720.58 249.13 719.42 248.82C717.58 248.32 716.16 247.05 714.96 245.9C703.58 234.89 698.74 221.63 702.01 210.44C702.16 209.92 702.6 209.53 703.13 209.43C710.29 208.13 717.51 201.12 716.4 193.13C716.02 190.37 714.94 188.64 713.2 187.99C710.67 187.04 706.57 188.39 703.24 191.28C702.75 191.71 702.02 191.75 701.49 191.38C693.57 185.93 689.97 177.65 692.1 169.78C694.3 161.67 701.72 156.18 711.48 155.46C723.22 154.59 736.54 153.61 748.99 156.87C756.04 158.71 762.36 162.44 768.48 166.04C772.29 168.28 776.22 170.6 780.27 172.41C783.06 170.1 790.05 166.85 790.14 166.82C794.45 165.47 799.07 165.17 803.5 165.95C817.24 168.38 821.46 178.09 820.83 186.36C820.04 196.7 811.51 207.87 797.24 208.2C796.7 208.24 795.36 208.05 792.85 207.74C790.89 207.5 787.79 207.12 786.54 207.07C778.98 218.41 768.91 228.13 757.26 235.39C751.04 239.27 745.56 242.27 740.53 244.55C733.57 247.71 727.79 249.29 723.29 249.29H723.28ZM704.54 212.06C702.05 222.04 706.64 233.85 716.96 243.83C717.94 244.77 718.99 245.72 720.17 246.04C724.36 247.17 730.81 245.79 739.34 241.92C744.25 239.69 749.62 236.75 755.73 232.94C767.29 225.73 777.25 216.03 784.53 204.91C784.97 203.87 785.59 203.94 793.2 204.87C794.8 205.07 796.74 205.32 797.18 205.31C809.76 205.02 817.28 195.21 817.98 186.13C818.51 179.11 814.86 170.86 803.01 168.77C799.03 168.07 794.88 168.34 791.01 169.55C790.08 169.89 783.32 173.55 781.91 174.68C781.89 174.73 781.86 174.78 781.83 174.83C781.47 175.45 780.69 175.71 780.02 175.43C775.5 173.5 771.19 170.96 767.03 168.51C761.08 165.01 754.93 161.38 748.27 159.64C736.28 156.5 723.22 157.47 711.7 158.32C703.19 158.95 696.75 163.63 694.88 170.53C693.13 177.01 695.88 183.62 702.26 188.39C705.49 185.9 710.25 183.8 714.22 185.3C716.15 186.02 718.59 187.9 719.26 192.74C720.56 202.14 712.84 210.12 704.55 212.07L704.54 212.06Z" fill="#3C3C3B"/>
<path d="M644.77 698.64H717.61V732.55H637.68V705.73C637.68 701.82 640.86 698.64 644.77 698.64Z" fill="#006D68"/>
</svg>
