<svg width="952" height="952" viewBox="0 0 952 952" fill="none" xmlns="http://www.w3.org/2000/svg">
<path d="M639.83 111.81C603.83 98.3101 566.26 87.0101 527.81 87.1801C476 87.4101 426.75 108.32 379.62 129.83C292.85 169.44 224.43 231.5 153.3 294.53C95.7299 345.55 86.2699 451.35 88.0099 523.23C88.2199 531.9 88.4399 540.62 88.8299 549.33C90.0399 576.13 92.9099 602.85 102.31 627.83C117.37 667.89 152.31 701.71 178.69 734.68C207.25 770.37 235.24 800.15 273.69 825.64C317.22 854.49 379.47 904.04 433.17 908.59C500.77 914.31 552.53 917.06 617.5 896.81C686.7 875.24 762.55 843.76 812.35 788.58C838.46 759.65 855.51 718.36 874.95 684.72C912.87 619.1 928.59 548.33 918.83 472.89C908.62 393.93 877.6 333.41 844.88 262.83C802.86 172.19 729.03 145.26 639.82 111.82L639.83 111.81Z" fill="#EBF2D4"/>
<path d="M832.28 302.74C832.28 356.99 788.3 400.97 734.05 400.97C679.8 400.97 635.82 356.99 635.82 302.74C635.82 266.12 680.57 185.26 709.67 136.56C720.7 118.1 747.41 118.1 758.44 136.56C787.53 185.26 832.29 266.12 832.29 302.74H832.28Z" fill="#006D68"/>
<path d="M734.05 401.71C679.48 401.71 635.08 357.31 635.08 302.74C635.08 265.53 681.41 182.41 709.03 136.18C714.35 127.28 723.7 121.97 734.05 121.97C744.4 121.97 753.75 127.28 759.07 136.18C786.69 182.41 833.02 265.52 833.02 302.74C833.02 357.31 788.62 401.71 734.05 401.71ZM734.05 123.45C724.22 123.45 715.34 128.49 710.3 136.94C682.76 183.04 636.56 265.88 636.56 302.74C636.56 356.5 680.29 400.23 734.05 400.23C753.58 400.23 771.79 394.46 787.05 384.53C813.81 367.13 831.54 336.97 831.54 302.74C831.54 265.87 785.34 183.04 757.8 136.94C752.75 128.49 743.88 123.45 734.05 123.45Z" fill="#006D68"/>
<path d="M734.05 691.25C732.22 691.25 730.74 689.77 730.74 687.94V253.2C730.74 251.37 732.22 249.89 734.05 249.89C735.88 249.89 737.36 251.37 737.36 253.2V687.94C737.36 689.77 735.88 691.25 734.05 691.25Z" fill="white"/>
<path d="M734.05 266.27C740.926 266.27 746.5 260.696 746.5 253.82C746.5 246.944 740.926 241.37 734.05 241.37C727.174 241.37 721.6 246.944 721.6 253.82C721.6 260.696 727.174 266.27 734.05 266.27Z" fill="white"/>
<path d="M653.36 646.8C655.07 637.58 695.05 522.7 718.35 514.23C740.99 506.01 757.83 534.08 766.91 552.83C777.54 574.79 786.1 597.89 794.53 621.19C807.16 656.08 817.99 677.96 798.73 685.32C779.18 692.8 762.73 691.56 747.17 692.77C739.29 693.38 725.01 692.77 703.06 692.77C681.11 692.77 660.17 677.23 653.58 659.08C652.35 655.69 652.48 651.39 653.34 646.79L653.36 646.8Z" fill="#006D68"/>
<g style="mix-blend-mode:multiply">
<path d="M803.43 555.6C820.61 549.6 833.4 570.09 840.29 583.77C848.36 599.79 855.38 616.48 861.26 633.65C862.21 636.42 864.36 643.22 866.69 650.67C871.05 664.6 867.23 681.67 852.73 683.35L781.61 687.94C765.15 687.94 759.22 668.67 762.01 658.42C772.2 621.07 790.29 560.19 803.42 555.6H803.43Z" fill="#A8C653"/>
</g>
<path d="M605.15 314.58H259.83L169.99 460.57H697.8L605.15 314.58Z" fill="#C7C7C7"/>
<mask id="mask0_68_829" style="mask-type:luminance" maskUnits="userSpaceOnUse" x="169" y="314" width="529" height="147">
<path d="M605.15 314.58H259.83L169.99 460.57H697.8L605.15 314.58Z" fill="white"/>
</mask>
<g mask="url(#mask0_68_829)">
<path d="M587.31 389.8C583.76 389.8 580.21 389.23 576.68 387.81C566.05 383.54 557.96 370.91 557.02 357.09C556.81 353.96 557.2 350.63 557.58 347.41C558.16 342.48 558.71 337.82 557.19 334.27C555.39 330.07 552.06 327.3 547.01 325.83C545.94 325.52 544.86 325.26 543.78 325C540.27 324.15 536.65 323.28 533.27 320.75C527.01 316.05 523.34 304.93 527.84 295.86C528.36 294.82 529.62 294.4 530.66 294.91C531.7 295.43 532.13 296.69 531.61 297.73C528.19 304.61 531 313.78 535.79 317.37C538.47 319.38 541.53 320.12 544.76 320.9C545.91 321.18 547.06 321.45 548.19 321.79C554.43 323.62 558.76 327.26 561.05 332.62C563.01 337.2 562.37 342.64 561.75 347.91C561.38 351.08 561.02 354.08 561.21 356.82C562.19 371.14 570.72 380.9 578.24 383.92C586.7 387.32 595.83 384.97 604.43 381.92C605.53 381.54 606.73 382.1 607.12 383.2C607.51 384.3 606.93 385.5 605.84 385.89C599.84 388.01 593.58 389.81 587.29 389.81L587.31 389.8Z" fill="#3C3C3B"/>
<path d="M594.56 425.44C572.49 425.44 549.09 419.92 539.45 392.45C537.69 387.45 536.87 381.89 536.08 376.52C535.36 371.65 534.61 366.61 533.18 362.18C528.91 349.02 519.38 342.65 510.16 336.49C508.86 335.62 507.58 334.76 506.31 333.89C495.39 326.35 484.96 317.34 487.68 297.63C487.84 296.48 488.93 295.69 490.05 295.83C491.2 295.99 492.01 297.05 491.85 298.2C489.46 315.56 498.46 323.35 508.7 330.42C509.95 331.28 511.22 332.13 512.5 332.98C521.86 339.23 532.46 346.32 537.19 360.87C538.73 365.64 539.51 370.85 540.25 375.9C541.02 381.07 541.81 386.43 543.43 391.05C553.69 420.29 581.62 422.35 604.84 420.86C606 420.81 607 421.67 607.07 422.83C607.14 423.99 606.26 424.99 605.1 425.07C601.66 425.29 598.13 425.43 594.56 425.43V425.44Z" fill="#3C3C3B"/>
<path d="M548.19 465.41C548.07 465.41 547.95 465.41 547.83 465.38C525.1 461.52 510.51 457.72 497.65 429.26C495.01 423.42 492 414.36 492.64 404.36C492.74 402.78 492.93 401.21 493.13 399.64C493.5 396.65 493.84 393.82 493.55 391.05C493.08 386.7 491.07 383.05 488.96 379.74C481.93 368.74 473.75 359.93 464.64 353.56C460.91 350.95 456.94 348.72 453.11 346.55C447.59 343.43 441.87 340.21 436.56 335.75C425.73 326.64 418.88 313.34 417.78 299.28C417.69 298.12 418.55 297.11 419.71 297.02C420.92 296.94 421.89 297.8 421.97 298.95C422.99 311.9 429.29 324.14 439.27 332.53C444.28 336.75 449.58 339.73 455.18 342.89C459.1 345.1 463.16 347.39 467.05 350.11C476.62 356.8 485.18 366 492.51 377.48C494.9 381.22 497.18 385.39 497.74 390.6C498.09 393.86 497.69 397.06 497.32 400.16C497.13 401.65 496.95 403.14 496.85 404.64C496.26 413.78 499.06 422.13 501.5 427.54C513.53 454.16 525.91 457.4 548.55 461.24C549.7 461.43 550.47 462.52 550.27 463.67C550.1 464.7 549.2 465.42 548.2 465.42L548.19 465.41Z" fill="#3C3C3B"/>
<path d="M435.83 465.41C435.39 465.41 434.94 465.27 434.56 464.98C425.97 458.49 422.27 440.4 424.32 428.21C425.83 419.25 430.28 412.77 434.58 406.5C441.92 395.81 448.25 386.58 439.02 366.87C432.24 352.39 419.8 348.05 410.42 348.79C408.69 348.93 406.96 349.21 405.23 349.48C402.21 349.96 399.08 350.45 395.89 350.27C379.13 349.31 357.42 323.75 357.33 297.91C357.33 296.75 358.26 295.8 359.43 295.8C360.59 295.8 361.53 296.74 361.53 297.9C361.61 321.26 381.41 345.23 396.12 346.07C398.88 346.23 401.63 345.79 404.56 345.32C406.39 345.03 408.23 344.74 410.07 344.59C423.84 343.48 436.38 351.33 442.82 365.08C453.08 386.98 445.44 398.11 438.04 408.88C433.99 414.77 429.81 420.87 428.46 428.91C426.42 441.07 430.53 456.66 437.09 461.62C438.02 462.32 438.2 463.64 437.5 464.57C437.09 465.12 436.45 465.41 435.82 465.41H435.83Z" fill="#3C3C3B"/>
<path d="M216.39 465.53C215.43 465.53 214.57 464.87 214.34 463.89C214.08 462.76 214.79 461.63 215.92 461.37C225.35 459.21 230.17 448.63 231.53 439.46C233.28 427.71 230.28 413.11 219.63 407C216.53 405.22 212.81 404.51 208.86 403.76C200.28 402.13 190.55 400.28 186.28 386.33C184.93 381.91 184.97 375.56 185.01 369.43C185.04 364.69 185.07 359.8 184.45 356.13C180.89 335.16 176.21 320.2 171.28 314.02C166.81 308.42 161.18 305.34 155.74 302.36C154.72 301.8 154.35 300.52 154.9 299.5C155.45 298.48 156.74 298.1 157.76 298.66C163.3 301.69 169.58 305.13 174.57 311.38C181.46 320 186 340.08 188.6 355.41C189.29 359.44 189.25 364.53 189.22 369.45C189.18 375.27 189.14 381.29 190.3 385.09C193.82 396.61 201.15 398 209.64 399.61C213.75 400.39 218 401.2 221.72 403.33C234.09 410.43 237.64 426.9 235.68 440.06C233.68 453.52 226.46 463.25 216.85 465.45C216.69 465.49 216.53 465.5 216.37 465.5L216.39 465.53Z" fill="#3C3C3B"/>
<path d="M258.861 465.92C258.291 465.92 257.721 465.69 257.311 465.24C254.101 461.74 254.221 454.67 256.201 449.86C257.431 446.88 259.131 444.59 260.781 442.37C261.551 441.33 262.321 440.29 263.041 439.18C270.211 428.05 271.151 408.02 265.191 393.6C259.841 380.67 249.641 372.27 238.551 371.67L237.511 371.63C235.491 371.56 233.211 371.48 231.001 370.22C223.841 366.15 222.701 353.71 221.691 342.73L221.501 340.69C219.071 314.91 212.961 304.25 198.151 299.93C197.031 299.6 196.391 298.44 196.721 297.32C197.051 296.2 198.211 295.56 199.331 295.89C215.951 300.73 223.101 312.77 225.701 340.3L225.891 342.35C226.761 351.81 227.831 363.58 233.081 366.56C234.391 367.3 235.901 367.36 237.661 367.42L238.781 367.47C251.501 368.16 263.111 377.56 269.081 391.99C275.621 407.82 274.551 429.09 266.581 441.46C265.811 442.65 264.981 443.77 264.161 444.88C262.601 446.98 261.131 448.96 260.101 451.45C258.521 455.28 258.671 460.49 260.411 462.38C261.201 463.24 261.141 464.57 260.281 465.36C259.881 465.73 259.361 465.91 258.861 465.91V465.92Z" fill="#3C3C3B"/>
<path d="M307.211 467.34C306.101 467.34 305.161 466.46 305.111 465.34C304.581 454.66 310.011 447.25 315.251 440.08C317.331 437.23 319.491 434.28 321.191 431.2C327.471 419.81 328.651 401.87 324.061 387.58C319.831 374.43 310.991 364.49 300.981 361.63L299.911 361.34C297.831 360.79 295.471 360.17 293.421 358.22C288.701 353.75 288.081 345.27 287.491 337.07C287.391 335.65 287.281 334.25 287.161 332.9C284.801 306.78 276.711 301.19 262.631 300.01C261.471 299.91 260.611 298.89 260.711 297.74C260.811 296.58 261.851 295.72 262.981 295.82C281.381 297.36 289.071 307.31 291.361 332.53C291.481 333.91 291.591 335.33 291.691 336.78C292.201 343.83 292.781 351.83 296.321 355.17C297.601 356.38 299.181 356.8 301.001 357.28L302.151 357.59C313.491 360.83 323.431 371.83 328.081 386.3C333.001 401.61 331.701 420.91 324.891 433.24C323.061 436.55 320.831 439.61 318.661 442.57C313.631 449.45 308.871 455.95 309.331 465.14C309.391 466.3 308.491 467.29 307.331 467.35C307.291 467.35 307.261 467.35 307.221 467.35L307.211 467.34Z" fill="#3C3C3B"/>
<path d="M362.21 464.08C361.54 464.08 360.88 463.76 360.47 463.17C351.5 450.15 359.25 440.63 366.1 432.23C369.53 428.02 372.77 424.05 373.95 419.85C381.08 394.37 357.77 369.76 343.7 362.25C341.06 360.84 338.24 360.01 335.26 359.13C328.59 357.17 321.68 355.13 316.72 346.52C309.24 333.54 308.66 309.17 315.52 296.36C316.07 295.34 317.34 294.95 318.37 295.5C319.4 296.05 319.78 297.32 319.23 298.35C313.05 309.88 313.62 332.7 320.37 344.42C324.49 351.57 330.3 353.28 336.45 355.09C339.51 355.99 342.67 356.92 345.69 358.53C360.79 366.6 385.78 393.2 378 420.98C376.59 426.02 372.91 430.53 369.36 434.89C362.59 443.19 356.75 450.36 363.93 460.78C364.59 461.74 364.35 463.05 363.39 463.71C363.03 463.96 362.61 464.08 362.2 464.08H362.21Z" fill="#3C3C3B"/>
</g>
<path d="M697.8 749.74H509.7V460.57L603.75 314.58L697.8 460.57V749.74Z" fill="#A9C753"/>
<path d="M509.69 460.57H169.99V750.2H509.69V460.57Z" fill="white"/>
<path d="M509.69 751.88H169.99C169.06 751.88 168.31 751.13 168.31 750.2V460.57C168.31 459.64 169.07 458.89 169.99 458.89H509.69C510.62 458.89 511.37 459.64 511.37 460.57V750.2C511.37 751.13 510.61 751.88 509.69 751.88ZM171.67 748.51H508.01V462.25H171.67V748.51Z" fill="#3C3C3B"/>
<path d="M463.5 749.21H396.12V611.64C396.12 593.03 411.2 577.95 429.81 577.95C448.42 577.95 463.5 593.03 463.5 611.64V659.59V749.21Z" fill="white"/>
<path d="M463.5 750.91H396.12C395.18 750.91 394.42 750.15 394.42 749.21V611.64C394.42 592.13 410.3 576.25 429.81 576.25C449.32 576.25 465.2 592.13 465.2 611.64V749.21C465.2 750.15 464.44 750.91 463.5 750.91ZM397.82 747.52H461.81V611.65C461.81 594.01 447.46 579.66 429.82 579.66C412.18 579.66 397.82 594.01 397.82 611.65V747.52Z" fill="#3C3C3B"/>
<path d="M362.43 749.21H295.05V611.64C295.05 602.34 298.82 593.91 304.92 587.82C311.02 581.72 319.44 577.95 328.74 577.95C347.35 577.95 362.43 593.03 362.43 611.64V749.21Z" fill="white"/>
<path d="M362.43 750.91H295.05C294.11 750.91 293.35 750.15 293.35 749.21V611.64C293.35 602.19 297.03 593.3 303.71 586.62C310.39 579.94 319.28 576.25 328.73 576.25C348.24 576.25 364.12 592.13 364.12 611.64V749.21C364.12 750.15 363.36 750.91 362.42 750.91H362.43ZM296.75 747.52H360.73V611.65C360.73 594.01 346.38 579.66 328.74 579.66C320.19 579.66 312.16 582.99 306.12 589.03C300.07 595.07 296.75 603.11 296.75 611.65V747.52Z" fill="#3C3C3B"/>
<path d="M630.42 466.18H585.5V586.9H630.42V466.18Z" fill="white"/>
<path d="M509.69 461.31C509.38 461.31 509.07 461.22 508.79 461.05C508.01 460.55 507.77 459.51 508.27 458.73L600.92 312.74C601.42 311.96 602.46 311.73 603.24 312.22C604.02 312.72 604.26 313.76 603.76 314.54L511.11 460.53C510.79 461.03 510.25 461.31 509.69 461.31Z" fill="#3C3C3B"/>
<g style="mix-blend-mode:multiply">
<path d="M872.92 360.27H832.49C789.1 360.27 753.61 324.77 753.61 281.39V138.1C753.6 83.6 798.2 39 852.7 39C907.21 39 951.8 83.6 951.8 138.1V281.39C951.8 316.76 928.21 346.89 895.98 356.81C888.68 359.06 880.93 360.27 872.91 360.27H872.92Z" fill="#A8C653"/>
</g>
<path d="M852.7 212.14C826.89 212.14 805.33 192.79 802.55 167.14C802.41 165.81 803.37 164.62 804.69 164.48C805.99 164.34 807.21 165.29 807.35 166.62C809.86 189.82 829.36 207.31 852.69 207.31C876.02 207.31 895.52 189.82 898.03 166.62C898.17 165.29 899.39 164.33 900.69 164.48C902.02 164.62 902.98 165.82 902.83 167.14C900.05 192.8 878.49 212.14 852.68 212.14H852.7Z" fill="white"/>
<path d="M894.95 166.81C895.13 163.8 897.72 161.52 900.73 161.7C903.74 161.88 906.02 164.47 905.84 167.48C905.66 170.49 903.07 172.77 900.06 172.59C897.05 172.41 894.77 169.82 894.95 166.81Z" fill="white"/>
<path d="M810.45 166.81C810.27 163.8 807.68 161.52 804.67 161.7C801.66 161.88 799.38 164.47 799.56 167.48C799.74 170.49 802.33 172.77 805.34 172.59C808.35 172.41 810.63 169.82 810.45 166.81Z" fill="white"/>
<path d="M852.7 294.82C814.2 294.82 781.87 264.75 779.08 226.36C778.98 225.03 779.99 223.87 781.31 223.77C782.71 223.68 783.8 224.68 783.9 226.01C786.5 261.88 816.72 289.98 852.7 289.98C888.68 289.98 918.9 261.88 921.5 226C921.59 224.67 922.67 223.64 924.09 223.76C925.42 223.86 926.42 225.01 926.32 226.35C923.53 264.74 891.19 294.81 852.7 294.81V294.82Z" fill="white"/>
<path d="M918.38 226.18C918.53 223.17 921.1 220.86 924.1 221.01C927.11 221.16 929.42 223.73 929.27 226.73C929.12 229.74 926.55 232.05 923.55 231.9C920.54 231.75 918.23 229.18 918.38 226.18Z" fill="white"/>
<path d="M787.03 226.18C786.88 223.17 784.31 220.86 781.31 221.01C778.3 221.16 775.99 223.73 776.14 226.73C776.29 229.74 778.86 232.05 781.86 231.9C784.87 231.75 787.18 229.18 787.03 226.18Z" fill="white"/>
<path d="M852.73 685.77C851.39 685.77 850.31 684.69 850.31 683.35V122.43C850.31 121.1 851.39 120.01 852.73 120.01C854.07 120.01 855.15 121.09 855.15 122.43V683.35C855.15 684.68 854.07 685.77 852.73 685.77Z" fill="white"/>
<path d="M852.73 128.15C855.74 128.15 858.18 125.71 858.18 122.7C858.18 119.69 855.74 117.25 852.73 117.25C849.72 117.25 847.28 119.69 847.28 122.7C847.28 125.71 849.72 128.15 852.73 128.15Z" fill="white"/>
<path d="M67.4302 786.73C134.48 786.74 231.58 804.77 290.19 754.11C295.59 749.44 300.62 742.89 301.16 734.83C301.57 728.56 299.19 722.56 296.73 717.03C282.37 684.74 261.96 657.38 243.78 628.28C219.96 590.15 185.2 550.56 143.43 550.56C65.4202 550.56 15.6502 676.97 2.1802 731.1C-7.2498 768.99 40.7402 786.73 67.4302 786.74V786.73Z" fill="#006D68"/>
<path d="M162.34 790.85C144.81 790.85 127.27 789.99 110.33 789.16C95.1001 788.41 80.7201 787.7 67.4301 787.7C48.0901 787.7 20.5901 778.8 7.7201 762.33C0.520103 753.12 -1.6599 742.53 1.2401 730.86C13.7901 680.44 63.7801 549.59 143.42 549.59C186.69 549.59 222.32 592.1 244.59 627.76C249.44 635.52 254.53 643.29 259.45 650.8C273.02 671.49 287.05 692.89 297.6 716.64C300.11 722.3 302.54 728.37 302.11 734.9C301.52 743.83 295.64 750.68 290.81 754.85C256.36 784.63 209.42 790.86 162.33 790.86L162.34 790.85ZM143.43 551.52C65.0301 551.52 15.5701 681.31 3.1201 731.33C0.360103 742.39 2.4301 752.42 9.2401 761.14C21.7401 777.13 48.5501 785.77 67.4301 785.77C80.7701 785.77 95.1701 786.48 110.42 787.23C172.51 790.28 242.87 793.74 289.56 753.38C294.11 749.45 299.65 743.02 300.19 734.76C300.59 728.67 298.26 722.85 295.84 717.41C285.35 693.81 271.37 672.48 257.84 651.85C252.91 644.33 247.81 636.55 242.95 628.78C220.93 593.53 185.8 551.52 143.42 551.52H143.43Z" fill="#006D68"/>
<path d="M111.19 790.24C110.08 790.24 109.18 789.34 109.18 788.23V611.37C109.18 610.26 110.08 609.36 111.19 609.36C112.3 609.36 113.2 610.26 113.2 611.37V788.23C113.2 789.34 112.3 790.24 111.19 790.24Z" fill="#A8C653"/>
<path d="M123.26 611.98C123.26 605.31 117.85 599.91 111.19 599.91C104.53 599.91 99.1201 605.32 99.1201 611.98C99.1201 618.64 104.53 624.05 111.19 624.05C117.85 624.05 123.26 618.64 123.26 611.98Z" fill="#A8C653"/>
<path d="M134.17 789.31C133.06 789.31 132.16 788.41 132.16 787.3V646.75C132.16 645.64 133.06 644.74 134.17 644.74C135.28 644.74 136.18 645.64 136.18 646.75V787.3C136.18 788.41 135.28 789.31 134.17 789.31Z" fill="#A8C653"/>
<path d="M146.24 647.36C146.24 640.69 140.83 635.29 134.17 635.29C127.51 635.29 122.1 640.7 122.1 647.36C122.1 654.02 127.51 659.43 134.17 659.43C140.83 659.43 146.24 654.02 146.24 647.36Z" fill="#A8C653"/>
<path d="M87.8201 789.31C86.7101 789.31 85.8101 788.41 85.8101 787.3V646.75C85.8101 645.64 86.7101 644.74 87.8201 644.74C88.9301 644.74 89.8301 645.64 89.8301 646.75V787.3C89.8301 788.41 88.9301 789.31 87.8201 789.31Z" fill="#A8C653"/>
<path d="M99.89 647.36C99.89 640.69 94.48 635.29 87.82 635.29C81.16 635.29 75.75 640.7 75.75 647.36C75.75 654.02 81.16 659.43 87.82 659.43C94.48 659.43 99.89 654.02 99.89 647.36Z" fill="#A8C653"/>
<path d="M163.32 772.68C160.99 748.14 208.6 655.46 228.19 635.35C234.95 628.41 241.88 621.34 250.53 616.97C265.5 609.4 282.36 613.32 294.3 624.12C317.24 644.86 330.78 674.34 341.12 702.92C349.29 725.49 369.42 766.18 354.84 788.76C341.62 811.89 299.88 816.04 276.75 817.59C248.46 819.49 182.31 813.72 166.9 784.82C164.84 780.95 163.71 776.89 163.31 772.69L163.32 772.68Z" fill="#3C3C3C"/>
<path d="M230.9 815.77C230.9 815.77 230.8 815.77 230.75 815.77C229.65 815.69 228.81 814.73 228.89 813.63C230.12 796.37 225.57 769.48 220.65 754.47C218.58 748.16 207.48 716.84 190.43 719.79C186.81 720.42 183.25 723.82 181.12 726.79C180.47 727.69 179.22 727.9 178.32 727.25C177.42 726.6 177.21 725.35 177.86 724.45C179.12 722.7 183.69 716.89 189.75 715.83C209.54 712.4 221.31 743.58 224.47 753.22C229.62 768.94 234.19 795.94 232.9 813.92C232.82 814.98 231.94 815.78 230.9 815.78V815.77Z" fill="#A8C653"/>
<path d="M264.06 819.91C262.95 819.91 262.06 819 262.06 817.89C262.21 790.93 256.76 763.66 246.29 739.01C240.42 725.18 234.39 711.87 225.33 700.97C220.98 695.73 212.29 690.38 204.86 690.73C200.88 690.92 197.69 692.74 195.4 696.12C194.77 697.04 193.53 697.28 192.61 696.65C191.69 696.03 191.45 694.78 192.08 693.86C195.08 689.44 199.44 686.97 204.67 686.72C213.56 686.29 223.32 692.27 228.42 698.4C237.83 709.71 243.99 723.32 249.99 737.43C260.67 762.58 266.23 790.41 266.08 817.91C266.08 819.01 265.18 819.91 264.07 819.91H264.06Z" fill="#A8C653"/>
<path d="M298.42 816.84C297.36 816.84 296.48 816.01 296.42 814.94C293.54 762.51 275.46 713.2 244.14 672.33C241.03 668.27 231.45 660.53 222.37 660.13C217.57 659.91 213.5 661.7 210.08 665.42C209.33 666.24 208.06 666.29 207.24 665.54C206.43 664.79 206.37 663.52 207.12 662.7C211.38 658.07 216.6 655.85 222.55 656.12C233.67 656.62 244.04 665.61 247.32 669.89C279.14 711.4 297.5 761.49 300.42 814.72C300.48 815.83 299.64 816.77 298.53 816.83C298.49 816.83 298.46 816.83 298.42 816.83V816.84Z" fill="#A8C653"/>
<path d="M597.33 217.29C579.92 217.29 565.76 203.13 565.76 185.72C565.76 168.31 579.92 154.15 597.33 154.15C614.74 154.15 628.9 168.31 628.9 185.72C628.9 203.13 614.74 217.29 597.33 217.29ZM597.33 172.47C590.03 172.47 584.09 178.41 584.09 185.71C584.09 193.01 590.03 198.95 597.33 198.95C604.63 198.95 610.57 193.01 610.57 185.71C610.57 178.41 604.63 172.47 597.33 172.47Z" fill="#A8C653"/>
</svg>
