<svg width="910" height="1062" viewBox="0 0 910 1062" fill="none" xmlns="http://www.w3.org/2000/svg">
<g clip-path="url(#clip0_377_303)">
<path d="M552 260.6C516 247.1 478.4 235.8 440 236C388.2 236.2 338.9 257.1 291.8 278.7C205 318.2 136.6 380.3 65.5 443.3C7.89998 494.4 -1.50003 600.2 0.199974 672C0.399974 680.7 0.599974 689.4 0.999974 698.1C2.19997 724.9 5.09997 751.6 14.5 776.6C29.6 816.7 64.5 850.5 90.9 883.4C119.5 919.1 147.5 948.9 185.9 974.4C229.4 1003.3 291.7 1052.8 345.4 1057.3C413 1063 464.8 1065.8 529.7 1045.5C598.9 1023.9 674.7 992.4 724.6 937.3C750.7 908.4 767.8 867.1 787.2 833.4C825.1 767.8 840.8 697 831.1 621.6C820.9 542.6 789.9 482.1 757.1 411.5C715 321 641.2 294 552 260.6Z" fill="#EBF2D4"/>
<path d="M735.2 734.8H714.7V612.1L599.9 726.9V612.1L598.8 613.2V612.1L484 726.9V612.1L361.3 734.8V999.8H477.3H735.2H851.1V734.8H735.2Z" fill="#006D68"/>
<path d="M851.1 738.3H714.7C712.8 738.3 711.2 736.7 711.2 734.8V620.6L602.4 729.4C601.4 730.4 599.9 730.7 598.6 730.2C597.3 729.7 596.4 728.4 596.4 726.9V619.5L486.5 729.4C485.5 730.4 484 730.7 482.7 730.2C481.4 729.7 480.5 728.4 480.5 726.9V620.6L363.8 737.3C362.4 738.7 360.2 738.7 358.8 737.3C357.4 735.9 357.4 733.7 358.8 732.3L481.4 609.7C482.4 608.7 483.9 608.4 485.2 608.9C486.5 609.4 487.4 610.7 487.4 612.2V718.5L596.2 609.7C597 608.9 598.1 608.5 599.2 608.7C599.8 608.6 600.5 608.7 601.1 608.9C602.4 609.4 603.3 610.7 603.3 612.2V718.5L712.1 609.7C713.1 608.7 714.6 608.4 715.9 608.9C717.2 609.4 718.1 610.7 718.1 612.2V731.3H851C852.9 731.3 854.5 732.9 854.5 734.8C854.5 736.7 853.1 738.3 851.1 738.3Z" fill="white"/>
<path d="M545 371.9C561.513 371.9 574.9 358.513 574.9 342C574.9 325.487 561.513 312.1 545 312.1C528.487 312.1 515.1 325.487 515.1 342C515.1 358.513 528.487 371.9 545 371.9Z" fill="#828282"/>
<path d="M717.7 360.2C691.8 357.3 668.4 375.9 665.5 401.8C665.3 403.6 665.2 405.4 665.2 407.1C648.9 407.1 634.8 419.3 632.9 435.9C630.9 453.7 643.7 469.8 661.5 471.8C676.5 473.5 690.3 464.6 695.4 451.1C699.1 452.5 702.9 453.5 707 454C732.9 456.9 756.3 438.3 759.2 412.4C762.2 386.6 743.6 363.2 717.7 360.2Z" fill="#828282"/>
<path d="M800.3 1.70001C776.5 1.70001 754.4 9.30001 736.5 22.2C726.3 17.7 715 15.1 703.2 15.1C657.9 15.1 621.1 51.9 621.1 97.2C621.1 102.5 621.6 107.8 622.6 112.8C618.1 111.8 613.5 111.2 608.7 111.2C574.7 111.2 547.2 138.7 547.2 172.7C547.2 189.2 553.7 204.2 564.3 215.2C554.4 222.9 548 235 548 248.5C548 271.8 566.9 290.8 590.3 290.8C607.1 290.8 621.5 281 628.4 266.8C643.5 284.5 665.9 295.7 690.9 295.7C735 295.7 771 260.9 772.9 217.2C781.7 219.5 790.9 220.7 800.5 220.7C861 220.7 910.1 171.6 910.1 111.1C909.8 50.7 860.8 1.70001 800.3 1.70001Z" fill="#828282"/>
<path d="M419.8 1007.9V1007.8C419.8 1007.4 419.7 1007 419.6 1006.6L332.8 408.3H331.2C329 399.3 283.6 392 227.9 392C172.2 392 126.8 399.2 124.6 408.3H124L37.2 1006.6C37.1 1007 37 1007.4 37 1007.8V1007.9V1008.1H37.1C38.3 1022.4 123.5 1032.7 228.5 1032.7C333.5 1032.7 418.7 1022.4 419.9 1008.1H420L419.8 1007.9Z" fill="#B5B5B5"/>
<path d="M228.3 1035.1C139.8 1035.1 44.1 1027.4 35.2 1010.5H34.2L34.5 1008V1007.9C34.5 1007.2 34.5999 1006.7 34.7999 1006.2L121.9 406H123.1C131.2 394.1 189.1 389.7 227.9 389.7C266.7 389.7 324.6 394.1 332.7 406H334.9L335.2 408L422 1006.1C422.1 1006.5 422.3 1007.1 422.3 1007.8V1007.9L422.7 1010.4H421.6C412.6 1027.3 316.9 1035.1 228.3 1035.1ZM39.2 1007.6V1007.9C40 1017.3 106.2 1030.4 228.3 1030.4C350.4 1030.4 416.6 1017.3 417.4 1007.9V1007.6C417.4 1007.5 417.4 1007.4 417.3 1007.3L417.2 1006.9L330.7 410.6H329.3L328.9 408.8C327.4 402.9 290.6 394.3 227.9 394.3C165.2 394.3 128.3 402.9 126.9 408.8L126.5 410.6H126.1L39.5 1007.1L39.4 1007.3C39.3 1007.4 39.2 1007.5 39.2 1007.6Z" fill="white"/>
<path d="M327.3 1028.6C317.6 1014.2 312 995.1 310.7 971.6C310.6 969.6 310.5 967.6 310.3 965.5C308.7 940.3 306.5 905.7 330.1 890.5C350.4 877.5 385.9 882.1 403 894.8L400.2 898.6C384.3 886.8 351.4 882.4 332.7 894.5C311.4 908.2 313.5 941.2 315.1 965.2C315.2 967.3 315.4 969.4 315.5 971.3C316.8 993.9 322.1 1012.3 331.3 1025.9L327.3 1028.6Z" fill="white"/>
<path d="M295.3 1028.7C272.2 984.8 258.4 918.2 279.9 868.5C289.6 845.9 307.4 828.3 328.5 820.3C351.9 811.4 379.3 815.5 396.6 830.3L393.5 833.9C377.5 820.2 352 816.5 330.1 824.7C310.1 832.3 293.4 848.9 284.2 870.4C263.4 918.7 276.9 983.7 299.5 1026.6L295.3 1028.7Z" fill="white"/>
<path d="M230.8 1033.6C210.1 1012.2 210.7 981.7 212.9 965.4C215 950.1 219.6 935.2 224.1 920.8C226 914.8 227.9 908.6 229.6 902.4C232.8 891 230.8 877.8 228.9 865.1C228.2 860.3 227.4 855.4 227 850.7C223.8 816.3 224 776.8 249.5 744.7C276 711.8 328.2 682.3 373 693L371.9 697.6C329 687.4 278.8 715.8 253.2 747.8C228.7 778.5 228.6 816.9 231.7 850.4C232.1 854.9 232.8 859.6 233.6 864.5C235.6 877.7 237.7 891.4 234.2 903.7C232.5 909.9 230.5 916.2 228.6 922.2C224.2 936.4 219.6 951.1 217.6 966.1C214.1 992.3 220.1 1015.8 234.2 1030.4L230.8 1033.6Z" fill="white"/>
<path d="M135.9 1030.2C116.5 1016.7 109 992.2 116.5 966.4C120.7 951.9 128.6 938.9 136.3 926.9C144.6 913.8 149.7 904.4 144 892.6C138.2 880.7 123.3 871.6 110.6 872.5C103.6 873 96.9 876.2 92.6 878.6C72.6 889.5 58.8001 904.8 52.7001 922.7L48.3 921.2C54.8 902.2 69.3001 886.1 90.4001 874.5C95.2001 871.9 102.4 868.4 110.4 867.9C125 866.9 141.7 876.9 148.3 890.7C155.5 905.7 147.8 917.8 140.3 929.5C132.8 941.3 125.1 953.9 121.1 967.8C115.7 986.5 117.5 1011.6 138.7 1026.4L135.9 1030.2Z" fill="white"/>
<path d="M184.6 1033.4C177.3 1025.6 173.1 1018.2 168.3 1008.2C160.4 991.5 162.3 970.3 174.1 945.2C176.6 939.9 179.3 934.6 182 929.5C189 916.1 196.2 902.3 198.9 887.5C200.7 878 200.1 869.7 197.2 862.9C194.4 856.3 189.2 850.7 184.5 846.1C166 827.9 145.5 816.5 125.1 813C111.9 810.7 98.0999 812.1 86.0999 816.7C74.8999 821.1 71.8999 826.5 66.9999 835.5C66.0999 837.1 65.1999 838.8 64.1999 840.5L60.0999 838.2C61.0999 836.5 61.9999 834.8 62.8999 833.2C67.9999 823.9 71.5999 817.3 84.3999 812.3C97.0999 807.3 111.9 805.9 125.9 808.3C147.2 811.9 168.6 823.8 187.8 842.7C192.8 847.6 198.4 853.7 201.5 861.1C204.7 868.7 205.4 877.9 203.5 888.4C200.7 903.8 193.3 918 186.2 931.7C183.6 936.8 180.8 942.1 178.4 947.3C167.3 971.1 165.3 990.9 172.6 1006.3C177.2 1015.9 181.2 1023 188.1 1030.3L184.6 1033.4Z" fill="white"/>
<path d="M261.8 531.9C251.3 531.9 240.7 528.5 232.4 521.9C220.1 512.3 213.3 496.6 214.7 481C215.1 477 215.9 473.2 216.8 469.4C217.6 465.7 218.4 462.1 218.8 458.5C221.5 430 202.9 407.7 191.7 397L194.9 393.6C215.4 413.2 225.6 436.4 223.5 459C223.1 462.9 222.3 466.8 221.5 470.5C220.7 474.3 219.9 477.8 219.5 481.5C218.2 495.5 224.3 509.6 235.4 518.3C246.8 527.2 262.8 529.7 276.2 524.8C290.2 519.6 298.5 508.2 307.3 496.1C315.9 484.2 324.9 471.9 339.8 465.5L341.7 469.8C328 475.7 319.4 487.5 311.2 498.8C302.4 510.9 293.3 523.5 277.9 529.2C272.7 530.9 267.3 531.9 261.8 531.9Z" fill="white"/>
<path d="M255 587.7C246.3 587.7 237.5 586.4 229.1 583.9C204.6 576.5 184.3 558.4 174.8 535.5C169.8 523.5 167.9 510.6 166 498.1C164.4 487.7 162.8 477 159.5 467C153.1 447.9 140.2 431.1 123.1 419.5L125.7 415.6C143.6 427.8 157.2 445.5 163.9 465.5C167.4 475.9 169 486.8 170.6 497.3C172.4 509.5 174.3 522.1 179.1 533.6C188.1 555.2 207.2 572.3 230.4 579.3C253.6 586.3 279.6 582.9 299.9 570.2C304.7 567.2 309.4 563.5 314 560C323.8 552.5 333.8 544.7 346.4 542L347.4 546.6C335.9 549.1 326.7 556.2 316.9 563.8C312.3 567.4 307.5 571.1 302.4 574.2C288.3 583.2 271.7 587.7 255 587.7Z" fill="white"/>
<path d="M237.7 677.3C228.1 677.3 218.4 675.8 209.2 672.9C183.7 664.7 162.8 645.5 153.3 621.4C149.7 612.4 147.8 602.8 145.9 593.6C144.4 586.2 142.8 578.5 140.4 571.3C134.2 552.5 121.9 539.5 107.6 536.5L108.6 531.9C124.6 535.2 138.1 549.4 144.9 569.8C147.4 577.3 149 585.1 150.5 592.6C152.4 601.6 154.3 611 157.7 619.6C166.7 642.4 186.5 660.6 210.7 668.4C234.9 676.2 262.2 673 283.8 660C290.9 655.7 297.5 650.3 303.9 645.1C308.7 641.2 313.6 637.1 318.8 633.5C329.4 626.1 345.5 617.9 362.2 620.9L361.4 625.5C346.3 622.8 331.4 630.4 321.5 637.3C316.5 640.8 311.6 644.8 306.9 648.7C300.4 654 293.7 659.5 286.3 664C271.7 672.7 254.7 677.3 237.7 677.3Z" fill="white"/>
<path d="M149.7 778.5C145.7 778.5 141.8 777.9 138.1 776.7C134.9 775.7 132 774.2 129.1 772.9C126.8 771.8 124.6 770.7 122.3 769.9C106.1 763.8 87.2 767.7 72 770.9L71 766.3C86.8 763 106.5 758.9 123.9 765.5C126.4 766.4 128.8 767.6 131.1 768.7C134 770.1 136.7 771.4 139.5 772.3C148.2 775.2 158 774.2 167.2 769.5C176.8 764.6 184.2 756.2 187.1 746.9C192.8 728.9 184.7 707.5 167.4 694.8C160.3 689.6 151.8 685.8 143.7 682.2C137.9 679.6 131.9 676.9 126.3 673.7C109.5 664.1 91.5 642.4 91.6 624.3H96.3C96.2 640.2 113 660.6 128.7 669.6C134.1 672.7 140 675.3 145.7 677.9C154.1 681.6 162.7 685.5 170.3 691C189.2 704.9 198 728.4 191.7 748.3C188.3 758.9 180.2 768.1 169.4 773.6C163 776.8 156.3 778.5 149.7 778.5Z" fill="white"/>
<path d="M606.2 414.6C606.2 402.3 579.9 392.4 547.4 392.4C516.5 392.4 491.2 401.4 488.8 412.8H488.6V1014.1C488.6 1021.9 514.6 1028.3 546.6 1028.3C578.6 1028.3 604.6 1021.9 604.6 1014.1V419.8C605.7 418.1 606.2 416.4 606.2 414.6Z" fill="#A8C653"/>
<path d="M546.6 985.3C514.6 985.3 488.6 978.9 488.6 971.1V1014.1C488.6 1021.9 514.6 1028.3 546.6 1028.3C578.6 1028.3 604.6 1021.9 604.6 1014.1V971.1C604.6 979 578.7 985.3 546.6 985.3Z" fill="white"/>
<path d="M546.6 1030C517.7 1030 487 1024.4 487 1014.1V971.1C487 970.2 487.7 969.4 488.7 969.4C489.7 969.4 490.4 970.1 490.4 971.1C490.4 976.3 511.8 983.6 546.7 983.6C581.6 983.6 603 976.3 603 971.1C603 970.2 603.7 969.4 604.7 969.4C605.6 969.4 606.4 970.1 606.4 971.1V1014.1C606.3 1024.4 575.5 1030 546.6 1030ZM490.3 976.7V1014.1C490.3 1019.3 511.7 1026.6 546.6 1026.6C581.5 1026.6 602.9 1019.3 602.9 1014.1V976.7C594.2 983.4 569.8 987 546.6 987C523.4 987 499.1 983.4 490.3 976.7Z" fill="#3C3C3B"/>
<path d="M228.3 242.7C188.4 242.7 152.6 216.4 140.7 178.4C130.9 181.9 120.6 183.6 110.2 183.6C59.5999 183.6 18.3999 142.4 18.3999 91.8C18.3999 41.2 59.5999 0 110.2 0C131.8 0 152.7 7.6 169.3 21.6C185.8 7.6 206.7 0 228.3 0C249.9 0 270.8 7.6 287.4 21.6C303.9 7.6 324.8 0 346.5 0C397.1 0 438.3 41.2 438.3 91.8C438.3 142.4 397.1 183.6 346.5 183.6C336 183.6 325.8 181.8 316 178.4C304 216.4 268.2 242.7 228.3 242.7ZM142.9 174.1L143.4 175.8C154.4 213.2 189.3 239.4 228.3 239.4C267.3 239.4 302.2 213.3 313.2 175.8L313.7 174.1L315.4 174.7C325.3 178.4 335.8 180.3 346.4 180.3C395.2 180.3 434.9 140.6 434.9 91.8C434.9 43 395.3 3.3 346.5 3.3C325.2 3.3 304.6 11 288.5 25L287.4 25.9L286.3 25C270.2 11 249.6 3.3 228.3 3.3C207 3.3 186.4 11 170.3 25L169.2 25.9L168.1 25C152 11 131.4 3.3 110.1 3.3C61.3999 3.3 21.6999 43 21.6999 91.8C21.6999 140.6 61.3999 180.3 110.2 180.3C120.9 180.3 131.3 178.4 141.2 174.7L142.9 174.1Z" fill="#C7C7C7"/>
<path d="M131.2 300.3C140.3 300.3 149.1 298.6 157.2 295.6C166.2 326.4 194.6 348.8 228.3 348.8C262 348.8 290.4 326.3 299.4 295.6C307.5 298.6 316.2 300.3 325.4 300.3C366.3 300.3 399.5 267.1 399.5 226.2C399.5 185.3 366.3 152.1 325.4 152.1C306.8 152.1 289.9 159 276.9 170.2C263.9 158.9 246.9 152.1 228.4 152.1C209.9 152.1 192.9 159 179.9 170.2C166.9 158.9 149.9 152.1 131.4 152.1C90.5 152.1 57.3 185.3 57.3 226.2C57.1 267.1 90.3 300.3 131.2 300.3Z" fill="white"/>
<path d="M228.3 350.5C195.5 350.5 166 328.9 156.1 297.7C148.1 300.5 139.7 301.9 131.2 301.9C89.3999 301.9 55.3999 267.9 55.3999 226.1C55.3999 184.3 89.3999 150.3 131.2 150.3C149 150.3 166.1 156.5 179.7 167.9C193.3 156.5 210.5 150.3 228.2 150.3C246 150.3 263.1 156.5 276.7 167.9C290.3 156.5 307.5 150.3 325.2 150.3C367 150.3 401 184.3 401 226.1C401 267.9 367 301.9 325.2 301.9C316.7 301.9 308.3 300.5 300.3 297.7C290.6 328.9 261.2 350.5 228.3 350.5ZM158.3 293.4L158.8 295.1C167.8 325.7 196.4 347.1 228.3 347.1C260.2 347.1 288.8 325.7 297.8 295.1L298.3 293.4L300 294C308.1 297 316.7 298.6 325.4 298.6C365.3 298.6 397.8 266.1 397.8 226.2C397.8 186.3 365.3 153.8 325.4 153.8C308 153.8 291.1 160.1 277.9 171.5L276.8 172.4L275.7 171.5C262.5 160.1 245.7 153.8 228.2 153.8C210.7 153.8 193.9 160.1 180.7 171.5L179.6 172.4L178.5 171.5C165.3 160.1 148.5 153.8 131 153.8C91.0999 153.8 58.5999 186.3 58.5999 226.2C58.5999 266.1 91.0999 298.6 131 298.6C139.7 298.6 148.3 297.1 156.4 294L158.3 293.4Z" fill="#C7C7C7"/>
<path d="M775.5 828.1H716V999.7H775.5V828.1Z" fill="#3C3C3C"/>
</g>
<defs>
<clipPath id="clip0_377_303">
<rect width="909.8" height="1061.5" fill="white"/>
</clipPath>
</defs>
</svg>
