<svg width="924" height="924" viewBox="0 0 924 924" fill="none" xmlns="http://www.w3.org/2000/svg">
<path d="M597.01 122.74C561.01 109.24 523.44 97.94 484.99 98.11C433.18 98.34 383.93 119.25 336.8 140.76C250.03 180.37 181.61 242.43 110.48 305.46C52.9101 356.49 43.4501 462.28 45.1901 534.16C45.4001 542.83 45.6201 551.55 46.0101 560.26C47.2201 587.06 50.0901 613.78 59.4901 638.76C74.5501 678.82 109.49 712.64 135.87 745.61C164.43 781.3 192.42 811.08 230.87 836.57C274.4 865.42 336.65 914.97 390.35 919.52C457.95 925.24 509.71 927.99 574.68 907.74C643.88 886.17 719.73 854.69 769.53 799.51C795.64 770.58 812.69 729.29 832.13 695.65C870.05 630.03 885.77 559.26 876.01 483.82C865.8 404.86 834.78 344.34 802.06 273.76C760.04 183.12 686.21 156.19 597 122.75L597.01 122.74Z" fill="#EBF2D4"/>
<path d="M669.72 300.34H322.57V301.98H669.72V300.34Z" fill="#3C3C3C"/>
<path d="M669.72 400.65H322.57V402.29H669.72V400.65Z" fill="#3C3C3C"/>
<path d="M669.72 199.61H322.57V201.25H669.72V199.61Z" fill="#3C3C3C"/>
<path d="M632.8 357.53H593.85C589.244 357.53 585.51 361.264 585.51 365.87V437.48C585.51 442.086 589.244 445.82 593.85 445.82H632.8C637.406 445.82 641.14 442.086 641.14 437.48V365.87C641.14 361.264 637.406 357.53 632.8 357.53Z" fill="#006D68"/>
<path d="M634.4 402.32C634.49 413.96 625.14 423.47 613.5 423.56C601.86 423.65 592.35 414.3 592.26 402.66C592.17 391.02 613.08 371.22 613.08 371.22C613.08 371.22 634.31 390.68 634.41 402.32H634.4Z" fill="#A9C753"/>
<path d="M613.33 424.25C601.42 424.25 591.68 414.61 591.58 402.67C591.49 390.87 611.75 371.55 612.61 370.73C612.87 370.48 613.27 370.48 613.54 370.73C614.42 371.53 634.99 390.52 635.09 402.32C635.19 414.31 625.51 424.15 613.51 424.25C613.45 424.25 613.39 424.25 613.33 424.25ZM613.08 372.16C610.03 375.14 592.85 392.39 592.94 402.66C593.03 413.85 602.16 422.89 613.33 422.89C613.39 422.89 613.44 422.89 613.5 422.89C624.75 422.8 633.82 413.58 633.73 402.33C633.65 392.06 616.19 375.1 613.09 372.17L613.08 372.16Z" fill="#A9C753"/>
<path d="M613.58 434.17C612.45 434.17 611.54 433.26 611.53 432.14L611.23 397.08C611.23 395.95 612.13 395.02 613.27 395.01H613.29C614.42 395.01 615.33 395.92 615.34 397.04L615.64 432.1C615.64 433.23 614.74 434.16 613.6 434.17H613.58Z" fill="white"/>
<path d="M494.93 357.53H455.98C451.374 357.53 447.64 361.264 447.64 365.87V437.48C447.64 442.086 451.374 445.82 455.98 445.82H494.93C499.536 445.82 503.27 442.086 503.27 437.48V365.87C503.27 361.264 499.536 357.53 494.93 357.53Z" fill="#006D68"/>
<path d="M496.53 402.32C496.62 413.96 487.27 423.47 475.63 423.56C463.99 423.65 454.48 414.3 454.39 402.66C454.3 391.02 475.21 371.22 475.21 371.22C475.21 371.22 496.44 390.68 496.54 402.32H496.53Z" fill="#A9C753"/>
<path d="M475.46 424.25C463.55 424.25 453.81 414.61 453.71 402.67C453.62 390.87 473.88 371.55 474.74 370.73C475 370.48 475.4 370.48 475.67 370.73C476.55 371.53 497.12 390.52 497.22 402.32C497.32 414.31 487.64 424.15 475.64 424.25C475.58 424.25 475.52 424.25 475.46 424.25ZM475.21 372.16C472.16 375.14 454.98 392.39 455.07 402.66C455.16 413.85 464.29 422.89 475.46 422.89C475.52 422.89 475.57 422.89 475.63 422.89C486.88 422.8 495.95 413.58 495.86 402.33C495.78 392.06 478.32 375.1 475.22 372.17L475.21 372.16Z" fill="#A9C753"/>
<path d="M475.71 434.17C474.58 434.17 473.67 433.26 473.66 432.14L473.36 397.08C473.36 395.95 474.26 395.02 475.4 395.01H475.42C476.55 395.01 477.46 395.92 477.47 397.04L477.77 432.1C477.77 433.23 476.87 434.16 475.73 434.17H475.71Z" fill="white"/>
<path d="M572.2 385.35C572.2 369.985 559.747 357.53 544.385 357.53C529.023 357.53 516.57 369.985 516.57 385.35V418C516.57 433.364 529.023 445.82 544.385 445.82C559.747 445.82 572.2 433.364 572.2 418V385.35Z" fill="#A9C753"/>
<path d="M544.38 446.5C528.67 446.5 515.88 433.72 515.88 418V385.35C515.88 369.64 528.66 356.85 544.38 356.85C560.1 356.85 572.88 369.63 572.88 385.35V418C572.88 433.71 560.1 446.5 544.38 446.5ZM544.38 358.21C529.42 358.21 517.24 370.38 517.24 385.35V418C517.24 432.96 529.41 445.14 544.38 445.14C559.35 445.14 571.52 432.97 571.52 418V385.35C571.52 370.39 559.35 358.21 544.38 358.21Z" fill="#A9C753"/>
<path d="M550.33 373.99L538.5 402.53L534.4 397.85L553.53 395.19L558.9 394.44C558.26 395.38 536.27 428.87 534.78 431.13L551.93 396.34L554.48 399.88L535.82 404.87L529.99 406.43C531.03 402.69 538.71 374.84 539.94 370.41L550.33 373.98V373.99Z" fill="#006D68"/>
<path d="M564.73 256.44H525.78C521.174 256.44 517.44 260.174 517.44 264.78V336.39C517.44 340.996 521.174 344.73 525.78 344.73H564.73C569.336 344.73 573.07 340.996 573.07 336.39V264.78C573.07 260.174 569.336 256.44 564.73 256.44Z" fill="#006D68"/>
<path d="M566.33 301.23C566.42 312.87 557.07 322.38 545.43 322.47C533.79 322.56 524.28 313.21 524.19 301.57C524.1 289.93 545.01 270.13 545.01 270.13C545.01 270.13 566.24 289.59 566.34 301.23H566.33Z" fill="#A9C753"/>
<path d="M545.26 323.16C533.35 323.16 523.61 313.52 523.51 301.59C523.42 289.79 543.68 270.47 544.54 269.65C544.8 269.4 545.2 269.4 545.47 269.65C546.35 270.45 566.92 289.44 567.02 301.24C567.07 307.05 564.85 312.53 560.78 316.67C556.71 320.81 551.26 323.12 545.45 323.17C545.39 323.17 545.33 323.17 545.27 323.17L545.26 323.16ZM545.01 271.08C541.96 274.06 524.78 291.31 524.87 301.58C524.96 312.77 534.09 321.81 545.26 321.81C545.32 321.81 545.37 321.81 545.43 321.81C550.88 321.77 555.98 319.6 559.8 315.72C563.62 311.84 565.7 306.7 565.65 301.25C565.57 290.98 548.11 274.02 545.01 271.09V271.08Z" fill="#A9C753"/>
<path d="M545.51 333.08C544.38 333.08 543.47 332.17 543.46 331.05L543.16 295.99C543.16 294.86 544.06 293.93 545.2 293.92H545.22C546.35 293.92 547.26 294.83 547.27 295.95L547.57 331.01C547.57 332.14 546.67 333.07 545.53 333.08H545.51Z" fill="white"/>
<path d="M426.86 256.44H387.91C383.304 256.44 379.57 260.174 379.57 264.78V336.39C379.57 340.996 383.304 344.73 387.91 344.73H426.86C431.466 344.73 435.2 340.996 435.2 336.39V264.78C435.2 260.174 431.466 256.44 426.86 256.44Z" fill="#006D68"/>
<path d="M428.46 301.23C428.55 312.87 419.2 322.38 407.56 322.47C395.92 322.56 386.41 313.21 386.32 301.57C386.23 289.93 407.14 270.13 407.14 270.13C407.14 270.13 428.37 289.59 428.47 301.23H428.46Z" fill="#A9C753"/>
<path d="M407.38 323.16C401.64 323.16 396.23 320.95 392.13 316.91C387.99 312.83 385.68 307.39 385.63 301.58C385.54 289.78 405.8 270.46 406.66 269.64C406.92 269.39 407.32 269.39 407.59 269.64C408.47 270.44 429.04 289.43 429.14 301.23C429.19 307.04 426.97 312.52 422.9 316.66C418.83 320.8 413.38 323.11 407.57 323.16C407.51 323.16 407.45 323.16 407.38 323.16ZM407.14 271.08C404.09 274.06 386.91 291.31 387 301.58C387.04 307.03 389.21 312.13 393.09 315.95C396.97 319.77 402.15 321.85 407.56 321.8C413.01 321.76 418.11 319.59 421.93 315.71C425.75 311.83 427.83 306.69 427.78 301.24C427.7 290.98 410.25 274.01 407.14 271.08Z" fill="#A9C753"/>
<path d="M407.64 333.08C406.51 333.08 405.6 332.17 405.59 331.05L405.29 295.99C405.29 294.86 406.19 293.93 407.33 293.92H407.35C408.48 293.92 409.39 294.83 409.4 295.95L409.7 331.01C409.7 332.14 408.8 333.07 407.66 333.08H407.64Z" fill="white"/>
<path d="M504.13 284.26C504.13 268.895 491.677 256.44 476.315 256.44C460.953 256.44 448.5 268.895 448.5 284.26V316.91C448.5 332.275 460.953 344.73 476.315 344.73C491.677 344.73 504.13 332.275 504.13 316.91V284.26Z" fill="#A9C753"/>
<path d="M476.32 345.41C460.61 345.41 447.82 332.63 447.82 316.91V284.26C447.82 268.55 460.6 255.76 476.32 255.76C492.04 255.76 504.82 268.54 504.82 284.26V316.91C504.82 332.62 492.04 345.41 476.32 345.41ZM476.32 257.12C461.36 257.12 449.18 269.29 449.18 284.26V316.91C449.18 331.87 461.35 344.05 476.32 344.05C491.29 344.05 503.46 331.88 503.46 316.91V284.26C503.46 269.3 491.29 257.12 476.32 257.12Z" fill="#A9C753"/>
<path d="M482.27 272.91L470.44 301.45L466.34 296.77L485.47 294.11L490.84 293.36C490.2 294.3 468.21 327.79 466.72 330.05L483.87 295.26L486.42 298.8L467.76 303.79L461.93 305.35C462.97 301.61 470.65 273.76 471.88 269.33L482.27 272.9V272.91Z" fill="#006D68"/>
<path d="M633.68 256.44H594.73C590.124 256.44 586.39 260.174 586.39 264.78V336.39C586.39 340.996 590.124 344.73 594.73 344.73H633.68C638.286 344.73 642.02 340.996 642.02 336.39V264.78C642.02 260.174 638.286 256.44 633.68 256.44Z" fill="#006D68"/>
<path d="M635.27 301.23C635.36 312.87 626.01 322.38 614.37 322.47C602.73 322.56 593.22 313.21 593.13 301.57C593.04 289.93 613.95 270.13 613.95 270.13C613.95 270.13 635.18 289.59 635.28 301.23H635.27Z" fill="#A9C753"/>
<path d="M614.2 323.16C608.46 323.16 603.05 320.95 598.95 316.91C594.81 312.83 592.5 307.39 592.45 301.58C592.35 289.78 612.62 270.46 613.48 269.64C613.74 269.39 614.14 269.39 614.41 269.64C615.29 270.44 635.86 289.43 635.96 301.23C636.01 307.04 633.79 312.52 629.72 316.66C625.65 320.8 620.2 323.11 614.39 323.16C614.33 323.16 614.27 323.16 614.2 323.16ZM613.96 271.08C610.91 274.06 593.73 291.31 593.82 301.58C593.86 307.03 596.03 312.13 599.91 315.95C603.79 319.77 608.86 321.85 614.38 321.8C619.83 321.76 624.93 319.59 628.75 315.71C632.57 311.83 634.65 306.69 634.6 301.24C634.52 290.97 617.06 274.01 613.96 271.08Z" fill="#A9C753"/>
<path d="M614.46 333.08C613.33 333.08 612.42 332.17 612.41 331.05L612.11 295.99C612.11 294.86 613.01 293.93 614.15 293.92H614.17C615.3 293.92 616.21 294.83 616.22 295.95L616.52 331.01C616.52 332.14 615.62 333.07 614.48 333.08H614.46Z" fill="white"/>
<path d="M669.72 98.2H322.57V99.84H669.72V98.2Z" fill="#3C3C3C"/>
<path d="M669.72 199.34H322.57V200.98H669.72V199.34Z" fill="#3C3C3C"/>
<path d="M564.73 55.0801H525.78C521.174 55.0801 517.44 58.814 517.44 63.4201V135.03C517.44 139.636 521.174 143.37 525.78 143.37H564.73C569.336 143.37 573.07 139.636 573.07 135.03V63.4201C573.07 58.814 569.336 55.0801 564.73 55.0801Z" fill="#006D68"/>
<path d="M566.33 99.87C566.42 111.51 557.07 121.02 545.43 121.11C533.79 121.2 524.28 111.85 524.19 100.21C524.1 88.57 545.01 68.77 545.01 68.77C545.01 68.77 566.24 88.23 566.34 99.87H566.33Z" fill="#A9C753"/>
<path d="M545.26 121.8C533.35 121.8 523.61 112.16 523.51 100.23C523.42 88.43 543.68 69.11 544.54 68.29C544.8 68.04 545.2 68.04 545.47 68.29C546.35 69.09 566.92 88.08 567.02 99.88C567.12 111.87 557.44 121.71 545.45 121.81C545.39 121.81 545.33 121.81 545.27 121.81L545.26 121.8ZM545.01 69.72C541.96 72.7 524.78 89.95 524.87 100.22C524.96 111.41 534.09 120.45 545.26 120.45C545.32 120.45 545.37 120.45 545.43 120.45C556.67 120.36 565.75 111.14 565.65 99.89C565.57 89.62 548.11 72.66 545.01 69.73V69.72Z" fill="#A9C753"/>
<path d="M545.51 131.72C544.38 131.72 543.47 130.81 543.46 129.69L543.16 94.6301C543.16 93.5001 544.06 92.5701 545.2 92.5601H545.22C546.35 92.5601 547.26 93.4701 547.27 94.5901L547.57 129.65C547.57 130.78 546.67 131.71 545.53 131.72H545.51Z" fill="white"/>
<path d="M426.86 55.0801H387.91C383.304 55.0801 379.57 58.814 379.57 63.4201V135.03C379.57 139.636 383.304 143.37 387.91 143.37H426.86C431.466 143.37 435.2 139.636 435.2 135.03V63.4201C435.2 58.814 431.466 55.0801 426.86 55.0801Z" fill="#006D68"/>
<path d="M428.46 99.87C428.55 111.51 419.2 121.02 407.56 121.11C395.92 121.2 386.41 111.85 386.32 100.21C386.23 88.57 407.14 68.77 407.14 68.77C407.14 68.77 428.37 88.23 428.47 99.87H428.46Z" fill="#A9C753"/>
<path d="M407.39 121.8C401.65 121.8 396.24 119.59 392.14 115.55C388 111.48 385.69 106.03 385.64 100.22C385.55 88.42 405.81 69.1 406.67 68.28C406.93 68.03 407.33 68.03 407.6 68.28C408.48 69.08 429.05 88.07 429.15 99.87C429.2 105.68 426.98 111.16 422.91 115.3C418.84 119.44 413.39 121.75 407.58 121.8C407.52 121.8 407.46 121.8 407.4 121.8H407.39ZM407.14 69.72C404.09 72.7 386.91 89.95 387 100.22C387.04 105.67 389.21 110.77 393.09 114.59C396.97 118.41 402.15 120.5 407.56 120.44C413.01 120.4 418.11 118.23 421.93 114.35C425.75 110.47 427.83 105.33 427.78 99.88C427.7 89.62 410.25 72.65 407.14 69.72Z" fill="#A9C753"/>
<path d="M407.64 131.72C406.51 131.72 405.6 130.81 405.59 129.69L405.29 94.6301C405.29 93.5001 406.19 92.5701 407.33 92.5601H407.35C408.48 92.5601 409.39 93.4701 409.4 94.5901L409.7 129.65C409.7 130.78 408.8 131.71 407.66 131.72H407.64Z" fill="white"/>
<path d="M504.13 82.9001C504.13 67.5355 491.677 55.0801 476.315 55.0801C460.953 55.0801 448.5 67.5355 448.5 82.9001V115.55C448.5 130.915 460.953 143.37 476.315 143.37C491.677 143.37 504.13 130.915 504.13 115.55V82.9001Z" fill="#A9C753"/>
<path d="M476.32 144.05C460.61 144.05 447.82 131.27 447.82 115.55V82.8899C447.82 67.1799 460.6 54.3899 476.32 54.3899C492.04 54.3899 504.82 67.1699 504.82 82.8899V115.55C504.82 131.26 492.04 144.05 476.32 144.05ZM476.32 55.7599C461.36 55.7599 449.18 67.9299 449.18 82.8999V115.56C449.18 130.52 461.35 142.7 476.32 142.7C491.29 142.7 503.46 130.53 503.46 115.56V82.8999C503.46 67.9399 491.29 55.7599 476.32 55.7599Z" fill="#A9C753"/>
<path d="M482.27 71.55L470.44 100.09L466.34 95.41L485.47 92.75L490.84 92C490.2 92.94 468.21 126.43 466.72 128.69L483.87 93.9L486.42 97.44L467.76 102.43L461.93 103.99C462.97 100.25 470.65 72.4 471.88 67.97L482.27 71.54V71.55Z" fill="#006D68"/>
<path d="M633.68 55.0801H594.73C590.124 55.0801 586.39 58.814 586.39 63.4201V135.03C586.39 139.636 590.124 143.37 594.73 143.37H633.68C638.286 143.37 642.02 139.636 642.02 135.03V63.4201C642.02 58.814 638.286 55.0801 633.68 55.0801Z" fill="#006D68"/>
<path d="M635.27 99.87C635.36 111.51 626.01 121.02 614.37 121.11C602.73 121.2 593.22 111.85 593.13 100.21C593.04 88.57 613.95 68.77 613.95 68.77C613.95 68.77 635.18 88.23 635.28 99.87H635.27Z" fill="#A9C753"/>
<path d="M614.2 121.8C608.46 121.8 603.05 119.59 598.95 115.55C594.81 111.48 592.5 106.03 592.45 100.22C592.35 88.42 612.62 69.1 613.48 68.28C613.74 68.03 614.14 68.03 614.41 68.28C615.29 69.08 635.86 88.07 635.96 99.87C636.06 111.86 626.38 121.7 614.39 121.8C614.33 121.8 614.27 121.8 614.21 121.8H614.2ZM613.96 69.72C610.91 72.7 593.73 89.95 593.82 100.22C593.86 105.67 596.03 110.77 599.91 114.59C603.79 118.41 608.86 120.5 614.38 120.44C625.62 120.35 634.7 111.13 634.6 99.88C634.52 89.61 617.06 72.65 613.96 69.72Z" fill="#A9C753"/>
<path d="M614.46 131.72C613.33 131.72 612.42 130.81 612.41 129.69L612.11 94.6301C612.11 93.5001 613.01 92.5701 614.15 92.5601H614.17C615.3 92.5601 616.21 93.4701 616.22 94.5901L616.52 129.65C616.52 130.78 615.62 131.71 614.48 131.72H614.46Z" fill="white"/>
<path d="M436.06 183.83C436.06 168.465 423.607 156.01 408.245 156.01C392.883 156.01 380.43 168.465 380.43 183.83V216.48C380.43 231.845 392.883 244.3 408.245 244.3C423.607 244.3 436.06 231.845 436.06 216.48V183.83Z" fill="#A9C753"/>
<path d="M408.25 244.98C392.54 244.98 379.75 232.2 379.75 216.48V183.82C379.75 168.11 392.53 155.32 408.25 155.32C423.97 155.32 436.75 168.1 436.75 183.82V216.48C436.75 232.19 423.97 244.98 408.25 244.98ZM408.25 156.69C393.29 156.69 381.11 168.86 381.11 183.83V216.49C381.11 231.45 393.28 243.63 408.25 243.63C423.22 243.63 435.39 231.46 435.39 216.49V183.83C435.39 168.87 423.22 156.69 408.25 156.69Z" fill="#A9C753"/>
<path d="M414.19 172.48L402.36 201.02L398.26 196.34L417.39 193.68L422.76 192.93C422.12 193.87 400.13 227.36 398.64 229.62L415.79 194.83L418.34 198.37L399.68 203.36L393.85 204.92C394.89 201.18 402.57 173.33 403.8 168.9L414.19 172.47V172.48Z" fill="#006D68"/>
<path d="M633.68 156.01H594.73C590.124 156.01 586.39 159.744 586.39 164.35V235.96C586.39 240.566 590.124 244.3 594.73 244.3H633.68C638.286 244.3 642.02 240.566 642.02 235.96V164.35C642.02 159.744 638.286 156.01 633.68 156.01Z" fill="#006D68"/>
<path d="M635.27 200.81C635.36 212.45 626.01 221.96 614.37 222.05C602.73 222.14 593.22 212.79 593.13 201.15C593.04 189.51 613.95 169.71 613.95 169.71C613.95 169.71 635.18 189.17 635.28 200.81H635.27Z" fill="#A9C753"/>
<path d="M614.2 222.73C602.29 222.73 592.55 213.09 592.45 201.15C592.35 189.35 612.62 170.03 613.48 169.21C613.74 168.96 614.14 168.96 614.41 169.21C615.29 170.01 635.86 189 635.96 200.8C636.06 212.79 626.38 222.63 614.39 222.73C614.33 222.73 614.27 222.73 614.21 222.73H614.2ZM613.96 170.65C610.91 173.63 593.73 190.88 593.82 201.15C593.91 212.34 603.04 221.38 614.21 221.38C614.27 221.38 614.32 221.38 614.38 221.38C625.62 221.29 634.7 212.07 634.6 200.82C634.52 190.55 617.06 173.59 613.96 170.66V170.65Z" fill="#A9C753"/>
<path d="M614.46 232.66C613.33 232.66 612.42 231.75 612.41 230.63L612.11 195.57C612.11 194.44 613.01 193.51 614.15 193.5H614.17C615.3 193.5 616.21 194.41 616.22 195.53L616.52 230.59C616.52 231.72 615.62 232.65 614.48 232.66H614.46Z" fill="white"/>
<path d="M669.72 510.87H322.57C316.62 510.87 311.79 506.04 311.79 500.09V10.78C311.79 4.82 316.62 0 322.57 0H669.72C675.67 0 680.5 4.83 680.5 10.78V500.09C680.5 506.05 675.67 510.87 669.72 510.87ZM333.35 489.31H658.93V21.57H333.35V489.31Z" fill="#006D68"/>
<path d="M328.2 655.44C328.2 678.96 342.96 898.06 342.96 898.06C384.13 937.61 551.99 926.33 572.63 898.06C572.63 898.06 588.8 701.24 588.8 655.44C588.8 609.64 530.46 595.65 458.5 595.65C386.54 595.65 328.2 609.64 328.2 655.44Z" fill="white"/>
<path d="M572.63 898.07C572.63 898.07 588.8 701.25 588.8 655.45C588.8 609.65 530.46 595.66 458.5 595.66C386.54 595.66 328.2 609.65 328.2 655.45C328.2 678.97 342.96 898.07 342.96 898.07" fill="white"/>
<path d="M572.64 900.14C572.58 900.14 572.53 900.14 572.47 900.14C571.33 900.05 570.48 899.04 570.57 897.9C570.73 895.93 586.74 700.64 586.74 655.45C586.74 617.15 543.6 597.73 458.51 597.73C373.42 597.73 330.28 617.15 330.28 655.45C330.28 678.63 344.89 895.74 345.04 897.93C345.11 899.07 344.25 900.06 343.11 900.14C341.99 900.21 340.98 899.35 340.9 898.21C340.3 889.26 326.14 678.77 326.14 655.45C326.14 614.4 370.68 593.58 458.52 593.58C546.36 593.58 590.9 614.4 590.9 655.45C590.9 700.81 574.88 896.27 574.72 898.24C574.63 899.32 573.72 900.15 572.65 900.15L572.64 900.14Z" fill="#848484"/>
<path d="M554.39 608.14C580.96 618.68 595.6 633.32 595.6 649.38C595.6 665.43 580.97 680.08 554.39 690.62C529.2 700.61 495.78 706.12 460.31 706.12C424.83 706.12 391.42 700.62 366.23 690.62C339.66 680.08 325.02 665.44 325.02 649.38C325.02 633.33 339.65 618.68 366.23 608.14C391.42 598.15 424.84 592.64 460.31 592.64C495.79 592.64 529.2 598.14 554.39 608.14ZM551.57 681.66C574.17 672.69 587.14 660.93 587.14 649.38C587.14 637.83 574.18 626.06 551.57 617.1C527.26 607.46 494.84 602.14 460.3 602.14C425.76 602.14 393.35 607.45 369.03 617.1C346.43 626.07 333.46 637.83 333.46 649.38C333.46 660.93 346.42 672.7 369.03 681.66C393.34 691.3 425.76 696.62 460.3 696.62C494.84 696.62 527.25 691.31 551.57 681.66Z" fill="#A9C753"/>
<path d="M460.3 706.79C424.74 706.79 391.24 701.27 365.97 691.24C339.12 680.59 324.33 665.72 324.33 649.37C324.33 633.02 339.12 618.15 365.97 607.5C391.24 597.48 424.74 591.95 460.3 591.95C495.86 591.95 529.36 597.47 554.64 607.5C581.49 618.15 596.28 633.02 596.28 649.37C596.28 665.72 581.49 680.59 554.64 691.24C529.36 701.26 495.86 706.79 460.3 706.79ZM460.3 593.33C424.91 593.33 391.59 598.82 366.47 608.78C340.17 619.21 325.69 633.63 325.69 649.38C325.69 665.13 340.17 679.55 366.47 689.99C391.59 699.95 424.91 705.44 460.3 705.44C495.69 705.44 529.01 699.95 554.13 689.99C580.43 679.56 594.91 665.14 594.91 649.38C594.91 633.62 580.43 619.21 554.13 608.78C529.01 598.82 495.69 593.33 460.3 593.33ZM460.3 697.3C425.68 697.3 393.18 691.97 368.79 682.3C345.91 673.23 332.79 661.23 332.79 649.39C332.79 637.55 345.91 625.55 368.79 616.48C393.18 606.81 425.68 601.48 460.3 601.48C494.92 601.48 527.42 606.81 551.82 616.48C574.7 625.55 587.82 637.55 587.82 649.39C587.82 661.23 574.7 673.23 551.82 682.3C527.43 691.98 494.92 697.3 460.3 697.3ZM460.3 602.82C425.84 602.82 393.52 608.11 369.29 617.73C346.96 626.59 334.15 638.12 334.15 649.38C334.15 660.64 346.96 672.17 369.29 681.03C393.52 690.64 425.85 695.94 460.3 695.94C494.75 695.94 527.08 690.65 551.32 681.03C573.65 672.17 586.46 660.64 586.46 649.38C586.46 638.12 573.65 626.59 551.32 617.73C527.08 608.12 494.76 602.82 460.3 602.82Z" fill="#A9C753"/>
<path d="M551.57 681.66C574.17 672.69 587.14 660.93 587.14 649.38C587.14 637.83 574.18 626.06 551.57 617.1C527.26 607.46 494.84 602.14 460.3 602.14C425.76 602.14 393.35 607.45 369.03 617.1C346.43 626.07 333.46 637.83 333.46 649.38C333.46 660.93 346.42 672.7 369.03 681.66C393.34 691.3 425.76 696.62 460.3 696.62C494.84 696.62 527.25 691.31 551.57 681.66Z" fill="#3C3C3C"/>
<path d="M540.91 685.71C518.15 692.16 490.01 697.27 460.3 697.27C435.39 697.27 411.59 693.29 391.13 688.7V627.25H540.91V685.71Z" fill="#6D6D6D"/>
<path d="M458.09 617.05C456.36 609.52 450.7 612.49 452.42 604.96C454.46 596.04 458.24 587 465.56 581.5C483.1 568.32 502.8 568.29 513.37 546.16C527.58 516.4 521.77 473.9 505.54 446.09C505 445.16 504.45 444.05 504.89 443.08C510.04 431.96 525.87 418.71 538.6 422.11C561.4 428.21 580.55 460.91 588.89 481.08C605.35 520.93 603.17 582.07 563.55 616.55C558.71 620.76 553.63 626.83 546.3 631.57C513.66 652.71 467.98 660.16 458.09 617.05Z" fill="#6D6D6D"/>
<path d="M548.4 449.25C548.01 449.25 547.69 448.95 547.67 448.56C547.65 448.16 547.96 447.81 548.36 447.79C554 447.48 557.8 441.28 558.63 435.31C558.69 434.91 559.02 434.63 559.46 434.68C559.86 434.74 560.14 435.11 560.09 435.51C559.18 442.07 554.89 448.91 548.45 449.26C548.44 449.26 548.42 449.26 548.41 449.26L548.4 449.25Z" fill="white"/>
<path d="M541.05 441.19C540.92 441.19 540.8 441.16 540.68 441.09C540.33 440.89 540.21 440.44 540.41 440.09C544.14 433.67 547.62 432.06 554 430.88C554.43 430.81 554.78 431.07 554.86 431.47C554.93 431.87 554.67 432.25 554.27 432.33C548.23 433.45 545.15 434.87 541.69 440.83C541.55 441.06 541.31 441.19 541.05 441.19Z" fill="white"/>
<path d="M489.73 539.94C507.65 526.95 518.21 505.83 511.04 483.67C504.79 464.36 486.48 452.88 479.45 434.12C476.82 427.1 476.08 419.07 479.07 412.2C483.58 401.82 495.95 398.87 505.31 403.88C514.21 408.64 520.48 416.89 528.97 422.16C533.92 425.24 539.98 432.08 543.94 436.61C554.96 449.24 555.72 454.57 562.49 465.22C570.89 478.44 574.99 498.83 573.77 514.32C573.32 520.01 574.66 526.17 573.42 531.74C571.49 540.45 570.64 550 573.8 558.54C576.35 565.42 585.41 577.95 593.31 570.08C592.12 575.73 589.87 581.14 586.73 585.99C583.74 590.61 581.34 594.96 578.53 599.65C571.52 611.35 560.94 620.72 550.67 629.47C538.3 640 524.42 648.98 509.1 654.55C484.59 663.47 456.21 665.33 430.89 659.03C415.1 655.1 400.27 647.53 387.7 637.21C375.41 627.12 368.4 614.74 361.74 600.47C356.86 590.02 354 578.45 356.97 567.02C360.7 552.63 371.43 541.54 386.78 540.76C402.36 539.97 413.63 551.36 425.02 560.2C431.15 564.96 448.75 561.09 455.7 559.04C464.58 556.42 472.51 551.33 480.29 546.31C483.45 544.27 486.65 542.17 489.74 539.94H489.73Z" fill="#828282"/>
<path d="M502.99 445.97C493.98 445.97 485.8 438.98 478.35 432.6C475.52 430.18 472.84 427.89 470.21 426.04C469.88 425.81 469.8 425.35 470.03 425.02C470.26 424.69 470.72 424.61 471.05 424.84C473.74 426.73 476.44 429.04 479.3 431.49C489.8 440.47 500.66 449.76 513.27 441.01C517.62 437.99 520.14 434.34 520.77 430.17C521.82 423.26 517.56 416.07 513.79 411.25C513.54 410.93 513.6 410.47 513.92 410.22C514.25 409.97 514.7 410.03 514.95 410.35C520.6 417.59 523.11 424.52 522.22 430.39C521.52 434.98 518.79 438.96 514.1 442.22C510.26 444.89 506.55 445.99 502.98 445.99L502.99 445.97Z" fill="white"/>
<path d="M570.48 547.7C570.48 547.7 570.44 547.7 570.41 547.7C570.01 547.66 569.71 547.31 569.75 546.9C570.11 542.93 570.65 538.9 571.17 535.02C572.08 528.25 573.03 521.24 573.02 514.31C573.02 503.99 571.13 494.54 569.1 485.86C564.89 467.87 556 451.01 543.38 437.1C533.11 425.77 520.28 415.12 505.24 405.42C496.1 399.53 485.81 401.5 476.98 410.82C471.49 416.61 469.57 423.06 471.26 429.98C472.6 435.46 475.63 440.54 478.56 445.45C479.87 447.65 481.23 449.92 482.41 452.19C482.6 452.55 482.46 452.99 482.1 453.18C481.74 453.37 481.3 453.23 481.11 452.87C479.95 450.64 478.61 448.39 477.31 446.21C474.32 441.2 471.24 436.03 469.84 430.34C468.02 422.9 470.06 416 475.91 409.82C485.13 400.08 496.4 397.98 506.03 404.2C521.17 413.96 534.1 424.7 544.46 436.12C557.24 450.21 566.25 467.29 570.52 485.53C572.57 494.3 574.47 503.85 574.48 514.32C574.48 521.35 573.54 528.41 572.62 535.23C572.1 539.1 571.56 543.11 571.2 547.05C571.17 547.43 570.85 547.72 570.47 547.72L570.48 547.7Z" fill="white"/>
<path d="M493.96 442.88C493.61 442.88 493.3 442.63 493.24 442.27C492.22 436.28 494.06 430.16 498.4 425.05C503.17 419.43 510.38 415.96 517.24 415.96C517.68 415.96 518.09 416.25 518.09 416.7C518.09 417.1 517.76 417.43 517.36 417.43H517.24C510.8 417.43 504.02 420.71 499.52 426.01C495.46 430.79 493.74 436.48 494.69 442.03C494.76 442.43 494.49 442.81 494.09 442.88C494.05 442.88 494.01 442.89 493.97 442.89L493.96 442.88Z" fill="white"/>
<path d="M493.9 578.57C496.29 609.85 485.24 648.03 452.44 655.88C433.87 660.32 403.26 649.26 388.87 637.42C384.49 633.82 381.51 629.3 376.54 624.69C369.19 617.86 366.37 612.88 362.78 605.21C358.7 596.5 356.39 586.7 354.35 577.41C350.02 557.73 354.56 538.45 354.77 518.76C354.87 509.16 355.56 498.84 353.26 489.57C351.47 482.38 350.47 475.03 349.69 467.68C349.32 464.23 349.15 449.07 349.15 449.07C354.53 445.54 376.46 449.67 382.39 452.63C392.6 457.72 398.74 470.26 402.4 480.39C408.83 498.16 408.99 517.39 414.47 535.4C416.27 541.29 422.9 549.05 429.91 547.25C432.32 546.63 434.39 544.8 435.29 542.48C437.46 536.92 434.93 531.9 442.09 528.78C445.92 527.12 450.28 527.29 454.42 527.88C460.15 528.69 465.84 530.27 470.87 533.13C481.85 539.39 488.67 551.32 491.6 563.62C492.71 568.29 493.49 573.33 493.89 578.57H493.9Z" fill="#828282"/>
<path d="M462.33 663.6C440.91 663.6 416.8 656.86 399.64 645.87C377.63 631.8 361.41 618.63 352.97 577.19C350.21 563.63 351.6 548.53 352.95 533.93C353.5 527.89 354.03 522.19 354.26 516.68C354.72 505.9 352.95 494.91 351.25 484.29C349.29 472.08 347.44 460.54 348.62 449.17C348.66 448.77 349 448.46 349.42 448.52C349.82 448.56 350.12 448.92 350.07 449.33C348.9 460.51 350.74 471.95 352.69 484.06C354.41 494.76 356.18 505.82 355.72 516.75C355.49 522.3 354.96 528.02 354.4 534.08C353.06 548.58 351.69 563.57 354.4 576.91C362.74 617.88 378.03 630.33 400.42 644.65C418.67 656.32 444.81 663.15 467.12 662.03C467.56 662.01 467.87 662.32 467.89 662.73C467.91 663.13 467.6 663.48 467.19 663.5C465.59 663.58 463.96 663.62 462.32 663.62L462.33 663.6Z" fill="white"/>
<path d="M354.46 500.82C354.06 500.82 353.74 500.5 353.73 500.11C353.73 499.71 354.04 499.37 354.44 499.36C360.41 499.2 367.79 494.92 370.88 489.8C376.61 480.32 376.17 466.35 369.86 457.3C365.22 450.64 358.18 447.84 350.05 449.41C349.63 449.48 349.27 449.23 349.19 448.83C349.11 448.43 349.37 448.05 349.77 447.97C358.52 446.28 366.07 449.3 371.07 456.46C377.69 465.96 378.15 480.62 372.14 490.56C368.82 496.05 360.9 500.66 354.48 500.83H354.46V500.82Z" fill="white"/>
<path d="M371.93 487.99C371.68 487.99 371.44 487.87 371.3 487.64C367.22 480.96 360.59 478.55 352.1 480.68C351.72 480.78 351.31 480.54 351.21 480.15C351.11 479.76 351.35 479.36 351.74 479.26C360.91 476.96 368.1 479.59 372.55 486.87C372.76 487.22 372.65 487.67 372.31 487.88C372.19 487.95 372.06 487.99 371.93 487.99Z" fill="white"/>
<path d="M504.45 566.67C501.79 570.46 498.38 573.92 494.02 576.95C479.57 587.01 454.64 588.72 442.88 573.54C436.04 564.7 435.13 557.69 435.48 547.04C435.77 538.15 436.06 529.26 436.35 520.36C437.01 500.27 437.67 480.17 438.33 460.08C439.25 432.06 440.17 404.04 441.09 376.02C441.5 362.65 452.45 352.03 465.82 352.03C479.19 352.03 490.04 362.54 490.55 375.84C491.15 391.53 495.71 407.78 499.31 422.89C503.23 439.34 506.24 456.01 508.32 472.79C509.46 481.98 511.24 491.97 510.42 501.21C509.4 512.64 513.2 523.48 513.04 534.63C512.88 545.81 511 557.33 504.44 566.67H504.45Z" fill="#828282"/>
<path d="M427.39 548.49C426.52 548.49 425.6 548.39 424.62 548.2C415.79 546.46 413.31 534.92 411.5 526.49C411.2 525.1 410.92 523.81 410.64 522.67C409.44 517.88 408.74 513.06 408.07 508.4C407.46 504.2 406.83 499.85 405.84 495.55C403.16 483.99 400.41 473.69 393.76 464.84C385.28 453.53 368.77 446.98 354.46 449.25C354.02 449.32 353.68 449.04 353.62 448.64C353.55 448.24 353.83 447.86 354.23 447.8C369.03 445.45 386.14 452.25 394.93 463.96C401.75 473.05 404.56 483.49 407.27 495.22C408.28 499.58 408.91 503.95 409.53 508.19C410.2 512.82 410.9 517.6 412.08 522.32C412.37 523.47 412.65 524.78 412.95 526.19C414.67 534.22 417.03 545.21 424.92 546.77C427.89 547.36 430.13 546.98 431.78 545.63C434.42 543.46 435.61 538.82 435.61 530.6C435.61 530.19 435.94 529.87 436.34 529.87C436.74 529.87 437.07 530.2 437.07 530.6C437.07 536.46 436.57 543.58 432.71 546.76C431.3 547.92 429.52 548.5 427.4 548.5L427.39 548.49Z" fill="white"/>
<path d="M529.59 535.65C527.62 535.65 525.52 535.55 523.48 535.01C511.2 531.77 510.55 519.63 510.03 509.88L509.96 508.51C509.34 497.41 508.38 482.82 506.48 468.42C504.85 456.11 502.46 443.7 500.14 431.69C498.55 423.47 496.91 414.98 495.53 406.58C493.11 391.86 490.53 377.52 485.59 363.98C482.34 355.07 474.11 351.01 463.06 352.85C453.86 354.38 445.47 361.95 443.12 370.87C440.62 380.35 440.45 390.72 440.28 400.76C440.22 404.18 440.16 407.71 440.01 411.11C439.33 426.11 438.71 441.17 438.16 455.89C437.53 472.64 437.52 484.88 437.5 497.85C437.49 507.68 437.47 517.85 437.19 530.62C437.19 531.09 436.72 531.49 436.32 531.45C435.85 531.45 435.48 531.05 435.49 530.58C435.77 517.83 435.79 507.67 435.8 497.85C435.82 484.87 435.84 472.62 436.47 455.83C437.02 441.11 437.65 426.03 438.32 411.03C438.47 407.66 438.53 404.13 438.59 400.73C438.76 390.59 438.94 380.12 441.49 370.44C444 360.91 452.97 352.81 462.79 351.18C474.57 349.23 483.69 353.8 487.19 363.4C492.17 377.08 494.77 391.5 497.21 406.31C498.59 414.69 500.23 423.17 501.81 431.38C504.13 443.41 506.54 455.85 508.16 468.21C510.07 482.67 511.03 497.3 511.65 508.43L511.72 509.8C512.24 519.48 512.82 530.46 523.91 533.38C526.39 534.03 529.09 533.99 531.46 533.94H531.48C531.94 533.94 532.32 534.31 532.33 534.77C532.33 535.24 531.97 535.63 531.5 535.63C530.88 535.64 530.25 535.65 529.59 535.65Z" fill="white"/>
<path d="M473.41 394.71C473.08 394.71 472.74 394.71 472.39 394.69C464.18 394.35 457.32 388.75 454.05 379.73C451.86 373.7 450.27 361.72 453.8 355.17C454.02 354.76 454.53 354.6 454.95 354.83C455.36 355.05 455.52 355.57 455.29 355.98C452.15 361.81 453.48 373.19 455.64 379.16C458.67 387.52 464.96 392.69 472.46 393C477.08 393.19 480.74 391.99 483.37 389.43C487.74 385.18 488.56 377.91 488.49 372.56C488.49 372.09 488.85 371.71 489.32 371.7H489.33C489.79 371.7 490.17 372.07 490.18 372.54C490.3 380.69 488.35 386.96 484.55 390.65C481.77 393.35 478.03 394.72 473.41 394.72V394.71Z" fill="white"/>
<path d="M455.52 380.65C455.39 380.65 455.25 380.62 455.13 380.55C454.72 380.33 454.56 379.82 454.77 379.4C457.25 374.67 462.08 371.23 468.37 369.69C475.99 367.83 484.45 369.1 489.92 372.92C490.3 373.19 490.4 373.72 490.13 374.1C489.86 374.49 489.33 374.58 488.95 374.31C483.86 370.75 475.93 369.59 468.77 371.33C462.96 372.75 458.52 375.89 456.27 380.18C456.12 380.47 455.82 380.63 455.52 380.63V380.65Z" fill="white"/>
<path d="M524.93 648.73C524.66 648.73 524.4 648.58 524.27 648.32C524.09 647.96 524.24 647.52 524.6 647.34C540.13 639.64 554.44 628.29 567.1 613.6C583.07 595.09 591.89 578.66 594.87 561.89C602.46 519.09 596.58 486.03 576.37 457.85L575.9 457.2C566.76 444.46 549.7 420.73 532.28 421.73C531.07 421.8 529.77 422.07 528.41 422.53C528.03 422.66 527.61 422.45 527.48 422.07C527.35 421.69 527.55 421.27 527.94 421.14C529.42 420.64 530.86 420.34 532.2 420.27C550.43 419.25 567.8 443.38 577.1 456.35L577.57 457C598.04 485.53 604 518.94 596.33 562.15C593.31 579.19 584.38 595.84 568.23 614.56C555.43 629.4 540.98 640.87 525.26 648.66C525.16 648.71 525.05 648.74 524.93 648.74V648.73Z" fill="white"/>
<path d="M530.6 496.92C530.49 496.92 530.37 496.89 530.26 496.84C529.9 496.65 529.76 496.21 529.94 495.85C533.02 489.89 538.08 485.7 544.58 483.72C552.44 481.33 561.78 482.46 569.55 486.75C569.91 486.95 570.03 487.39 569.84 487.75C569.64 488.11 569.2 488.23 568.84 488.04C561.41 483.94 552.5 482.85 545.01 485.13C538.9 486.99 534.14 490.93 531.24 496.53C531.11 496.78 530.85 496.93 530.59 496.93L530.6 496.92Z" fill="white"/>
<path d="M508.8 485.21C508.5 485.21 508.22 485.02 508.11 484.72C506.04 478.94 495.45 476.76 488.83 476.71C480.99 476.65 473.45 478.53 467.63 482.03C467.29 482.24 466.83 482.13 466.62 481.78C466.41 481.43 466.52 480.98 466.87 480.77C472.81 477.19 480.45 475.24 488.42 475.24C488.56 475.24 488.7 475.24 488.84 475.24C494.89 475.29 506.99 477.24 509.49 484.23C509.63 484.61 509.43 485.03 509.05 485.17C508.97 485.2 508.88 485.21 508.8 485.21Z" fill="white"/>
</svg>
