<svg  viewBox="0 0 458 381" fill="none" xmlns="http://www.w3.org/2000/svg">
<path d="M435 190.5C435 295.71 308.5 381 159.21 381C9.92048 381 54.0001 295.71 54.0001 190.5C54.0001 85.2898 139.29 0 244.5 0C475 0 435 85.2898 435 190.5Z" fill="#03817B"/>
<path d="M314.895 153.114L328.298 143.42" stroke="white" stroke-width="1.94228" stroke-miterlimit="10" stroke-linecap="round"/>
<path d="M306.802 146.783L317.693 135.362" stroke="white" stroke-width="1.94228" stroke-miterlimit="10" stroke-linecap="round"/>
<path d="M318.372 162.782L332.63 156.017" stroke="white" stroke-width="1.94228" stroke-miterlimit="10" stroke-linecap="round"/>
<path d="M329.088 104.18C352.333 104.18 371.178 85.3358 371.178 62.0901C371.178 38.8444 352.333 20 329.088 20C305.842 20 286.998 38.8444 286.998 62.0901C286.998 85.3358 305.842 104.18 329.088 104.18Z" stroke="white" stroke-width="1.41177" stroke-linecap="round" stroke-linejoin="round"/>
<path d="M335.445 78.7508V72.5819C342.482 69.9952 347.502 63.23 347.502 55.2943C347.502 45.1225 339.259 36.8799 329.088 36.8799C318.916 36.8799 310.673 45.1225 310.673 55.2943C310.673 63.23 315.693 69.9908 322.73 72.5819V78.7508" stroke="white" stroke-width="1.75375" stroke-linecap="round" stroke-linejoin="round"/>
<path d="M335.445 79.4084H322.73C321.641 79.4084 320.757 80.2918 320.757 81.3814C320.757 82.4711 321.641 83.3544 322.73 83.3544H335.445C336.535 83.3544 337.418 82.4711 337.418 81.3814C337.418 80.2918 336.535 79.4084 335.445 79.4084Z" stroke="#A9C753" stroke-width="1.75375" stroke-linecap="round" stroke-linejoin="round"/>
<path d="M333.472 83.3544H324.703C323.614 83.3544 322.73 84.2377 322.73 85.3273C322.73 86.417 323.614 87.3003 324.703 87.3003H333.472C334.562 87.3003 335.445 86.417 335.445 85.3273C335.445 84.2377 334.562 83.3544 333.472 83.3544Z" stroke="#A9C753" stroke-width="1.53015" stroke-linecap="round" stroke-linejoin="round"/>
<path d="M329.088 57.1094V78.97" stroke="#A9C753" stroke-width="1.75375" stroke-linecap="round" stroke-linejoin="round"/>
<path d="M329.088 60.5731C330.909 60.5731 332.385 59.097 332.385 57.2761C332.385 55.4551 330.909 53.979 329.088 53.979C327.267 53.979 325.791 55.4551 325.791 57.2761C325.791 59.097 327.267 60.5731 329.088 60.5731Z" fill="#A9C753"/>
<path d="M367.968 108.034C376.443 108.034 383.314 101.164 383.314 92.6887C383.314 84.2137 376.443 77.3434 367.968 77.3434C359.493 77.3434 352.623 84.2137 352.623 92.6887C352.623 101.164 359.493 108.034 367.968 108.034Z" fill="white"/>
<path d="M367.535 96.0178V95.1311C367.535 94.4365 367.661 93.7936 367.912 93.2025C368.178 92.6114 368.622 91.9685 369.242 91.2739C369.715 90.7567 370.04 90.3133 370.218 89.9439C370.41 89.5744 370.506 89.1828 370.506 88.769C370.506 88.2813 370.328 87.8971 369.974 87.6163C369.619 87.3355 369.117 87.1951 368.466 87.1951C367.018 87.1951 365.681 87.7271 364.454 88.7912L363.523 86.6631C364.144 86.1015 364.912 85.6508 365.828 85.3109C366.76 84.971 367.698 84.801 368.644 84.801C369.575 84.801 370.388 84.9562 371.082 85.2665C371.792 85.5769 372.338 86.0055 372.723 86.5523C373.122 87.0991 373.321 87.7419 373.321 88.4808C373.321 89.1606 373.166 89.7961 372.856 90.3872C372.56 90.9784 372.028 91.6212 371.26 92.3158C370.565 92.9513 370.085 93.5054 369.819 93.9784C369.553 94.4513 369.383 94.9242 369.309 95.3971L369.22 96.0178H367.535ZM366.826 100.651V97.5695H369.929V100.651H366.826Z" fill="#3C3C3C"/>
<path d="M201.064 119.526C224.309 119.526 243.154 100.681 243.154 77.4354C243.154 54.1897 224.309 35.3453 201.064 35.3453C177.818 35.3453 158.974 54.1897 158.974 77.4354C158.974 100.681 177.818 119.526 201.064 119.526Z" stroke="white" stroke-width="1.41177" stroke-linecap="round" stroke-linejoin="round"/>
<path d="M201.112 66.5797V79.2287" stroke="white" stroke-width="1.75375" stroke-linecap="round" stroke-linejoin="round"/>
<path d="M201.112 70.0391C202.933 70.0391 204.409 68.5629 204.409 66.742C204.409 64.9211 202.933 63.4449 201.112 63.4449C199.291 63.4449 197.815 64.9211 197.815 66.742C197.815 68.5629 199.291 70.0391 201.112 70.0391Z" fill="white"/>
<path d="M191.326 82.9423L201.112 79.2287" stroke="white" stroke-width="1.75375" stroke-linecap="round" stroke-linejoin="round"/>
<path d="M192.65 85.9675C190.949 86.612 189.046 85.757 188.397 84.0559C187.753 82.3547 188.607 80.4475 190.309 79.803C192.01 79.1585 193.913 80.0135 194.561 81.7146C195.206 83.4157 194.351 85.3186 192.65 85.9675Z" fill="white"/>
<path d="M210.898 82.9423L201.112 79.2287" stroke="white" stroke-width="1.75375" stroke-linecap="round" stroke-linejoin="round"/>
<path d="M211.915 79.803C213.616 80.4475 214.475 82.3547 213.826 84.0559C213.182 85.757 211.275 86.6164 209.574 85.9675C207.872 85.3186 207.013 83.4201 207.662 81.7146C208.306 80.0135 210.214 79.1541 211.915 79.803Z" fill="white"/>
<path d="M201.064 100.677L180.211 90.514V64.3524L201.064 74.5154V100.677Z" stroke="#A9C753" stroke-width="1.75375" stroke-linecap="round" stroke-linejoin="round"/>
<path d="M201.064 100.677L221.92 90.514V64.3524L201.064 74.5154V100.677Z" stroke="#A9C753" stroke-width="1.75375" stroke-linecap="round" stroke-linejoin="round"/>
<path d="M180.211 64.3524L201.064 54.1894L221.92 64.3524L201.064 74.5154L180.211 64.3524Z" stroke="#A9C753" stroke-width="1.75375" stroke-linecap="round" stroke-linejoin="round"/>
<path d="M240.54 123.379C249.015 123.379 255.886 116.509 255.886 108.034C255.886 99.5591 249.015 92.6887 240.54 92.6887C232.065 92.6887 225.195 99.5591 225.195 108.034C225.195 116.509 232.065 123.379 240.54 123.379Z" fill="white"/>
<path d="M234.402 107.135L239.909 113.756L246.679 102.312" stroke="#006D68" stroke-width="3.50751" stroke-linejoin="round"/>
<path d="M396.607 357.159C419.853 357.159 438.697 338.315 438.697 315.069C438.697 291.824 419.853 272.979 396.607 272.979C373.361 272.979 354.517 291.824 354.517 315.069C354.517 338.315 373.361 357.159 396.607 357.159Z" stroke="white" stroke-width="1.41177" stroke-linecap="round" stroke-linejoin="round"/>
<path d="M374.247 301.258H418.968" stroke="#A9C753" stroke-width="1.75375" stroke-linecap="round" stroke-linejoin="round"/>
<path d="M374.247 310.466H418.968" stroke="#A9C753" stroke-width="1.75375" stroke-linecap="round" stroke-linejoin="round"/>
<path d="M374.247 319.673H418.968" stroke="#A9C753" stroke-width="1.75375" stroke-linecap="round" stroke-linejoin="round"/>
<path d="M374.247 328.88H418.968" stroke="#A9C753" stroke-width="1.75375" stroke-linecap="round" stroke-linejoin="round"/>
<path d="M435.106 361C443.581 361 450.452 354.13 450.452 345.655C450.452 337.18 443.581 330.309 435.106 330.309C426.631 330.309 419.761 337.18 419.761 345.655C419.761 354.13 426.631 361 435.106 361Z" fill="white"/>
<path d="M439.307 339.02L428.456 349.871L430.936 352.351L441.787 341.5L439.307 339.02Z" fill="#3C3C3C"/>
<path d="M430.919 338.985L428.438 341.465L439.289 352.316L441.769 349.836L430.919 338.985Z" fill="#3C3C3C"/>
<path d="M402.307 219.928C425.553 219.928 444.397 201.084 444.397 177.838C444.397 154.592 425.553 135.748 402.307 135.748C379.061 135.748 360.217 154.592 360.217 177.838C360.217 201.084 379.061 219.928 402.307 219.928Z" stroke="white" stroke-width="1.41177" stroke-linecap="round" stroke-linejoin="round"/>
<path d="M397.664 187.983C405.589 187.983 412.014 181.559 412.014 173.633C412.014 165.708 405.589 159.283 397.664 159.283C389.738 159.283 383.314 165.708 383.314 173.633C383.314 181.559 389.738 187.983 397.664 187.983Z" stroke="white" stroke-width="1.75375" stroke-linecap="round" stroke-linejoin="round"/>
<path d="M397.664 194.669C409.282 194.669 418.7 185.251 418.7 173.633C418.7 162.015 409.282 152.597 397.664 152.597C386.046 152.597 376.628 162.015 376.628 173.633C376.628 185.251 386.046 194.669 397.664 194.669Z" stroke="#A9C753" stroke-width="1.75375" stroke-linecap="round" stroke-linejoin="round"/>
<path d="M415.596 185.173L424.908 194.485C426.675 196.252 426.675 199.115 424.908 200.878C423.141 202.645 420.278 202.645 418.516 200.878L409.203 191.565" stroke="#A9C753" stroke-width="1.75375" stroke-linecap="round" stroke-linejoin="round"/>
<path d="M441.845 223.769C450.32 223.769 457.191 216.898 457.191 208.423C457.191 199.948 450.32 193.078 441.845 193.078C433.37 193.078 426.5 199.948 426.5 208.423C426.5 216.898 433.37 223.769 441.845 223.769Z" fill="white"/>
<path d="M435.707 207.524L441.214 214.145L447.983 202.702" stroke="#006D68" stroke-width="3.50751" stroke-linejoin="round"/>
<path d="M292.903 202.767C298.73 198.931 303.935 193.858 306.841 187.514C310.568 179.386 309.967 168.249 302.812 162.072C301.251 160.726 299.414 159.722 297.485 158.994C295.74 158.336 293.872 157.889 292.018 158.073C289.374 158.332 284.056 160.958 283.525 163.909C283.109 166.237 285.336 169.792 287.804 167.675C291.82 164.233 290.531 157.617 287.804 153.768C284.941 149.721 280.136 146.748 275.379 145.481C268.031 143.521 257.912 145.179 253.33 151.821C250.791 155.499 249.143 159.336 249.41 163.922C249.621 167.552 253.891 169.762 255.895 165.768C257.811 161.944 251.607 159.362 248.91 158.976C236.016 157.126 228.69 172.401 229.518 183.121C230.141 191.166 235.407 198.602 241.553 203.57" stroke="white" stroke-width="1.94228" stroke-miterlimit="10" stroke-linecap="round"/>
<path d="M317.947 300.175H216.269V280.424C216.269 252.346 239.028 229.587 267.106 229.587C280.877 229.587 293.368 235.063 302.523 243.95C312.037 253.188 317.947 266.117 317.947 280.424V300.175Z" fill="#003834"/>
<path d="M267.11 223.694C281.958 223.694 293.995 211.657 293.995 196.809C293.995 181.961 281.958 169.924 267.11 169.924C252.262 169.924 240.225 181.961 240.225 196.809C240.225 211.657 252.262 223.694 267.11 223.694Z" fill="#A5C352"/>
<path d="M299.538 199.637C300.512 195.389 298.909 191.397 295.959 190.721C293.009 190.044 289.828 192.94 288.854 197.189C287.88 201.437 289.482 205.429 292.433 206.105C295.383 206.782 298.564 203.886 299.538 199.637Z" fill="#A5C352"/>
<path d="M159.109 300.162H0V162.909L159.109 162.51V300.162Z" fill="#003834"/>
<path d="M159.114 144.709H0V163.155H159.114V144.709Z" fill="#A8C653"/>
<path d="M152.922 150.822L150.984 148.885L142.75 157.119L144.688 159.057L152.922 150.822Z" fill="#003834"/>
<path d="M150.984 159.054L152.922 157.117L144.688 148.882L142.75 150.82L150.984 159.054Z" fill="#003834"/>
<path d="M129.918 151.422V156.788H123.885V151.422H129.918ZM132.308 149.155H121.496V159.055H132.308V149.155Z" fill="#003834"/>
<path d="M111.249 159.055V156.315H100.394V159.055H111.249Z" fill="#003834"/>
<path d="M41.2483 248.312H108.018C109.544 248.312 110.785 249.553 110.785 251.079V257.761C110.785 259.287 109.544 260.527 108.018 260.527H44.0148C42.4891 260.527 41.2483 259.287 41.2483 257.761V248.317V248.312Z" fill="#006D68"/>
<path d="M29.6122 249.277H36.522" stroke="#006D68" stroke-width="1.56523" stroke-linecap="round" stroke-linejoin="round"/>
<path d="M20.6856 184.287V281.77" stroke="white" stroke-width="1.15309" stroke-linecap="round" stroke-linejoin="round"/>
<path d="M41.2483 206.051H114.279C115.805 206.051 117.046 207.292 117.046 208.818V215.5C117.046 217.026 115.805 218.266 114.279 218.266H44.0148C42.4891 218.266 41.2483 217.026 41.2483 215.5V206.056V206.051Z" fill="#A9C753"/>
<path d="M41.2483 226.899H135.662C137.187 226.899 138.428 228.14 138.428 229.666V236.348C138.428 237.873 137.187 239.114 135.662 239.114H44.0104C42.4847 239.114 41.2439 237.873 41.2439 236.348V226.904L41.2483 226.899Z" fill="#006D68"/>
<path d="M29.6122 207.012H36.522" stroke="#A9C753" stroke-width="1.56523" stroke-linecap="round" stroke-linejoin="round"/>
<path d="M29.6122 227.859H36.522" stroke="#006D68" stroke-width="1.56523" stroke-linecap="round" stroke-linejoin="round"/>
<path d="M41.2483 269.555H126.801C128.327 269.555 129.567 270.796 129.567 272.321V279.003C129.567 280.529 128.327 281.77 126.801 281.77H44.0148C42.4891 281.77 41.2483 280.529 41.2483 279.003V269.559V269.555Z" fill="#006D68"/>
<path d="M29.6122 270.519H36.522" stroke="#006D68" stroke-width="1.56523" stroke-linecap="round" stroke-linejoin="round"/>
<path d="M78.9863 193.183V183.725H85.2785V185.093H80.6365V187.696H84.9833V189.065H80.6365V191.815H85.2785V193.183H78.9863Z" fill="white"/>
<path d="M68.9503 193.183V183.725H70.2382L75.323 190.326V183.725H76.9195V193.183H75.645L70.5468 186.556V193.183H68.9503Z" fill="white"/>
<path d="M65.1769 193.183V183.725H66.8942V193.183H65.1769Z" fill="white"/>
<path d="M57.6434 193.183V183.725H59.3607V191.721H63.8954V193.183H57.6434Z" fill="white"/>
<path d="M49.6383 193.183V183.725H55.9305V185.093H51.2885V187.696H55.6354V189.065H51.2885V191.815H55.9305V193.183H49.6383Z" fill="white"/>
<path d="M40.8862 193.183V183.725H44.9916C46.0291 183.725 46.8296 183.984 47.3931 184.503C47.9566 185.022 48.2383 185.746 48.2383 186.676C48.2383 187.607 47.9566 188.336 47.3931 188.863C46.8296 189.382 46.0291 189.641 44.9916 189.641H42.6035V193.183H40.8862ZM42.6035 188.286H44.7233C45.9576 188.286 46.5747 187.75 46.5747 186.676C46.5747 185.612 45.9576 185.08 44.7233 185.08H42.6035V188.286Z" fill="white"/>
<path d="M37.1129 193.183V183.725H38.8302V193.183H37.1129Z" fill="white"/>
<path d="M28.361 193.183V183.725H32.4663C33.5038 183.725 34.3043 183.984 34.8678 184.503C35.4313 185.022 35.7131 185.746 35.7131 186.676C35.7131 187.607 35.4313 188.336 34.8678 188.863C34.3043 189.382 33.5038 189.641 32.4663 189.641H30.0782V193.183H28.361ZM30.0782 188.286H32.198C33.4323 188.286 34.0494 187.75 34.0494 186.676C34.0494 185.612 33.4323 185.08 32.198 185.08H30.0782V188.286Z" fill="white"/>
<path d="M182.211 306.923L174.692 299.439L179.427 294.726L151.871 283.085L163.568 310.509L168.303 305.796L175.823 313.276L182.211 306.923Z" fill="white"/>
</svg>
