<svg width="64" height="64" viewBox="0 0 64 64" fill="none" xmlns="http://www.w3.org/2000/svg">
<path d="M36.4262 15.1951C36.4262 13.4126 37.8742 11.9645 39.6567 11.9645C40.5537 11.9645 41.367 12.3332 41.9523 12.9223L47.5773 7.29733C38.9536 -1.32633 24.9748 -1.32633 16.355 7.29733L21.9799 12.9223C22.5652 12.3294 23.3786 11.9645 24.2755 11.9645C26.058 11.9645 27.5061 13.4088 27.5061 15.1951C27.5061 16.092 27.1374 16.9054 26.5483 17.4907L31.968 22.9104L37.3877 17.4907C36.7948 16.9054 36.43 16.092 36.43 15.1951H36.4262Z" fill="#3C3C3C"/>
<path d="M51.5566 15.9438L44.514 22.9864C43.7995 22.3517 42.8607 21.9641 41.8307 21.9641C39.5922 21.9641 37.7754 23.7808 37.7754 26.0194C37.7754 27.266 38.3379 28.3795 39.2235 29.1245C39.0601 29.0067 38.9042 28.8774 38.7636 28.7368L12.3719 55.1285C23.1924 65.9489 40.7361 65.9489 51.5528 55.1285C62.3694 44.308 62.3732 26.7643 51.5528 15.9476L51.5566 15.9438Z" fill="#ACCA53"/>
<path d="M31.968 35.5361L25.1687 28.7367C25.8224 28.0184 26.2214 27.0644 26.2214 26.0192C26.2214 23.7807 24.4047 21.964 22.1662 21.964C21.0488 21.964 20.0378 22.4162 19.3043 23.146C19.3461 23.0966 19.3879 23.0471 19.4335 23.0015L12.3757 15.9399C1.55527 26.7604 1.55527 44.3041 12.3757 55.1246L19.5741 47.9262C20.2772 48.5115 21.1818 48.8649 22.1662 48.8649C24.4047 48.8649 26.2214 47.0482 26.2214 44.8096C26.2214 43.8253 25.868 42.9207 25.2827 42.2176L31.968 35.5323V35.5361Z" fill="#006D68"/>
</svg>
