<svg width="834" height="826" viewBox="0 0 834 826" fill="none" xmlns="http://www.w3.org/2000/svg">
<g clip-path="url(#clip0_377_2401)">
<path d="M552 24.6C527.4 15.4 502 7.2 476.1 3C464.2 1.1 452.1 0 440 0C388.2 0.2 338.9 21.1 291.8 42.7C205 82.3 136.6 144.3 65.5002 207.4C7.90022 258.4 -1.49978 364.2 0.200218 436C0.400218 444.7 0.600218 453.4 1.00022 462.1C2.20022 488.9 5.10022 515.6 14.5002 540.6C29.6002 580.7 64.5002 614.5 90.9002 647.4C119.5 683.1 147.5 712.9 185.9 738.4C229.4 767.3 291.7 816.8 345.4 821.3C413 827 464.8 829.8 529.7 809.5C598.9 787.9 674.7 756.4 724.6 701.3C750.7 672.4 767.8 631.1 787.2 597.4C825.1 531.8 840.8 461 831.1 385.6C820.9 306.6 789.9 246.1 757.1 175.5C715 85 641.2 58.1 552 24.6Z" fill="#EBF2D4"/>
<path d="M782.1 760.1H61.3C60.6 760.1 60 759.5 60 758.8V651.6C60 650.9 60.6 650.3 61.3 650.3H782.1C782.8 650.3 783.4 650.9 783.4 651.6V758.8C783.4 759.5 782.8 760.1 782.1 760.1ZM62.7 757.5H780.8V653H62.7V757.5Z" fill="#A7C553"/>
<path d="M61.7998 706.5C61.3998 706.5 60.8998 706.3 60.6998 705.9C60.2998 705.3 60.4998 704.4 61.0998 704.1C65.5998 701.2 72.2998 700.6 78.0998 700.1C80.8998 699.8 83.4998 699.6 85.6998 699.2C92.3998 697.8 94.8998 694.2 97.7998 690C99.9998 686.8 102.3 683.4 106.6 681.1C108.3 680.2 110 679.5 111.7 678.8C113.2 678.2 114.8 677.5 116.2 676.8C124.4 672.5 131.6 663.3 128.5 654.7C128.3 654 128.6 653.2 129.3 653C130 652.8 130.8 653.1 131 653.8C134.5 663.8 126.6 674.4 117.4 679.2C115.8 680 114.2 680.7 112.7 681.3C111 682 109.4 682.7 107.8 683.5C104.1 685.5 102.1 688.4 99.9998 691.5C97.0998 695.8 93.9998 700.3 86.1998 701.9C83.7998 702.4 81.1998 702.6 78.2998 702.9C72.4998 703.4 66.4998 704 62.4998 706.5C62.2998 706.4 61.9998 706.5 61.7998 706.5Z" fill="#A7C553"/>
<path d="M69.9002 681.9C66.7002 681.9 63.6002 681.2 60.7002 679.5C60.1002 679.1 59.8002 678.3 60.2002 677.7C60.6002 677.1 61.4002 676.8 62.0002 677.2C70.4002 682 81.2002 677.7 87.0002 671.2C91.2002 666.5 94.0002 660.6 95.2002 653.7C95.3002 653 96.0002 652.5 96.8002 652.6C97.5002 652.7 98.0002 653.4 97.9002 654.2C96.6002 661.6 93.6002 667.9 89.1002 673C84.5002 678.1 77.2002 681.9 69.9002 681.9Z" fill="#A7C553"/>
<path d="M108.3 759.3C107.5 759.3 106.9 758.7 107 757.9C107.3 748.1 102.8 737.9 95.0998 730.5C88.0998 723.8 78.2998 719.2 67.3998 717.6C65.4998 717.3 63.6998 717.1 61.7998 717C61.0998 716.9 60.4998 716.3 60.5998 715.6C60.6998 714.9 61.2998 714.3 61.9998 714.4C63.8998 714.6 65.8998 714.8 67.7998 715C79.1998 716.7 89.4998 721.5 96.8998 728.6C105.1 736.5 109.9 747.5 109.6 758C109.6 758.8 109 759.3 108.3 759.3Z" fill="#A7C553"/>
<path d="M137.1 759.2C137 759.2 136.9 759.2 136.8 759.2C136.1 759.1 135.6 758.4 135.7 757.6C136.8 752.2 133.6 747.2 130.3 742C128.6 739.3 126.8 736.6 125.6 733.7C124.1 730.2 123.4 726.2 123.4 721.9C123.4 715.1 125.1 708.7 128.4 703.4C131.9 697.7 137.1 693.3 142.1 689.1L143.2 688.1C148.3 683.7 153.6 678.9 156.4 672.8C158.9 667.3 159.4 659.6 154.8 654.6C154.3 654.1 154.3 653.2 154.9 652.7C155.4 652.2 156.3 652.2 156.8 652.8C162.3 658.7 161.8 667.6 158.9 673.9C155.8 680.5 150.3 685.5 145 690.1L143.9 691.1C139.1 695.2 134.1 699.4 130.8 704.8C127.8 709.7 126.2 715.7 126.2 721.9C126.2 725.9 126.9 729.5 128.2 732.7C129.3 735.4 131 738 132.6 740.6C136 746 139.6 751.6 138.4 758.1C138.3 758.8 137.8 759.2 137.1 759.2Z" fill="#A7C553"/>
<path d="M171.3 752.4C170.8 752.4 170.3 752.4 169.8 752.3C161.8 751.4 156.4 744 154.7 737.4C151.7 725.5 154.1 705.3 168.5 700C178.3 696.3 184.2 699.2 187.4 702.3C194.5 709.1 195.1 722.8 192 732.3C190.7 736.2 188.6 741.8 184.5 746.2C180.8 750.1 176 752.4 171.3 752.4ZM157.3 736.8C158.7 742.5 163.3 748.9 170.1 749.6C174.4 750.1 179.1 748.1 182.6 744.3C185.4 741.3 187.6 737.2 189.5 731.4C192.3 722.6 191.6 710 185.6 704.2C181.8 700.5 176.3 699.9 169.5 702.5C157.1 707.1 154.4 725.4 157.3 736.8Z" fill="#A7C553"/>
<path d="M217.3 705.2C214.4 705.2 211.6 704.8 209 704C194.9 699.6 187.9 684.7 182.5 671.2L175.8 654.4C175.5 653.7 175.9 652.9 176.5 652.7C177.2 652.4 178 652.8 178.2 653.4L184.9 670.2C190.1 683.2 196.8 697.4 209.7 701.5C217.1 703.8 226 702.5 236.2 697.5C246.1 692.7 253.7 686.5 259 679.2C265 670.8 267.7 660.8 266.2 651.8C266.1 651.1 266.6 650.4 267.3 650.3C268 650.2 268.7 650.7 268.8 651.4C270.3 661.1 267.5 671.9 261.1 680.8C255.6 688.5 247.6 694.9 237.3 699.9C230.2 703.4 223.4 705.2 217.3 705.2Z" fill="#A7C553"/>
<path d="M222.3 677.9C216.8 677.9 211.5 674.7 208.2 670.9C203.9 665.9 201.6 659.4 199.7 653.7C199.5 653 199.8 652.2 200.5 652C201.2 651.8 202 652.1 202.2 652.8C204.1 658.3 206.2 664.5 210.2 669.1C213.7 673.2 219.8 676.5 225.5 674.7C229 673.6 231.7 670.8 233.7 668.5C237.2 664.6 241 658.7 239.6 652.9C239.4 652.2 239.9 651.5 240.6 651.3C241.3 651.1 242 651.6 242.2 652.3C243.6 657.7 241.3 664 235.8 670.3C233.5 672.9 230.4 676 226.3 677.2C225.1 677.7 223.7 677.9 222.3 677.9Z" fill="#A7C553"/>
<path d="M202 760.8H201.9C201.2 760.7 200.6 760.1 200.7 759.3C201.6 749.7 210.2 743 217.9 739.9C222.6 738 227.5 736.9 232.3 735.9C235.8 735.1 239.5 734.3 242.9 733.2C258.1 728.3 271.9 716.6 280.8 701C288.5 687.5 292.9 670.9 294 651.9C294 651.2 294.7 650.6 295.4 650.6C296.1 650.6 296.7 651.3 296.7 652C295.7 671.4 291.1 688.3 283.2 702.3C274 718.5 259.6 730.7 243.8 735.8C240.2 736.9 236.5 737.8 232.9 738.6C228.2 739.6 223.4 740.7 219 742.5C212 745.3 204.3 751.3 203.5 759.7C203.2 760.3 202.6 760.8 202 760.8Z" fill="#A7C553"/>
<path d="M306.1 760C306 760 305.9 760 305.9 760C305.2 759.9 304.7 759.2 304.8 758.4C306 751.9 304 744.9 299.5 740C295.1 735.1 288.3 732.4 281.7 732.9C273.1 733.6 265.7 739.4 260.8 743.7C259.2 745.1 257.7 746.5 256.2 748C251.7 752.2 247.1 756.5 241.6 759.7C241 760.1 240.1 759.8 239.8 759.2C239.4 758.6 239.7 757.7 240.3 757.4C245.5 754.4 250 750.2 254.4 746.1C256 744.6 257.5 743.2 259.1 741.8C264.2 737.2 272.1 731.1 281.5 730.4C288.9 729.8 296.5 732.9 301.5 738.3C306.5 743.8 308.7 751.7 307.4 759C307.3 759.5 306.8 760 306.1 760Z" fill="#A7C553"/>
<path d="M331.4 759.8C331.3 759.8 331.1 759.8 331 759.7C330.3 759.5 329.9 758.7 330.2 758C332.4 751.6 331.7 743.8 328 734.7C326.7 731.5 325.1 728.2 323.6 725.1C321.5 720.9 319.4 716.5 317.9 711.9C311.6 693.3 315.2 673.3 319.9 654.5C320.1 653.8 320.8 653.4 321.5 653.5C322.2 653.7 322.7 654.4 322.5 655.1C317.8 673.5 314.4 693.1 320.4 711C321.9 715.4 324 719.7 326 723.9C327.5 727.1 329.1 730.3 330.5 733.6C334.4 743.3 335.1 751.7 332.7 758.8C332.5 759.4 332 759.8 331.4 759.8Z" fill="#A7C553"/>
<path d="M366.9 722.6C364.5 722.6 362.1 721.9 359.8 720.5C349.9 714.5 343.6 697.3 342.4 689.3C341.3 681.6 341.3 673.7 341.4 666.1C341.4 661.9 341.4 657.6 341.3 653.4C341.3 652.7 341.8 652 342.6 652C343.3 652 344 652.5 344 653.3C344.2 657.6 344.2 661.9 344.1 666.1C344.1 673.6 344 681.4 345.1 688.9C346.2 696.4 352 712.7 361.2 718.1C364.3 719.9 367.4 720.3 370.6 719.1C387.7 712.9 388.3 682.8 388.8 662.8C388.9 659.1 389 655.8 389.1 653.1C389.1 652.4 389.8 651.8 390.5 651.8C391.2 651.8 391.8 652.5 391.8 653.2C391.6 655.9 391.6 659.2 391.5 662.8C391.1 683.5 390.4 714.7 371.6 721.5C370 722.3 368.4 722.6 366.9 722.6Z" fill="#A7C553"/>
<path d="M386.5 759.3C385.9 759.3 385.3 758.9 385.2 758.3C382.8 748.3 383 739.7 386.1 732.8C388.4 727.5 392.3 723.2 396.1 719.1C397.1 718 398 717 399 715.9C413.5 699.2 422.1 677 422.4 654.9C422.4 654.2 423.1 653.6 423.8 653.6C424.5 653.6 425.1 654.2 425.1 655C424.7 677.7 415.9 700.6 401 717.8C400 718.9 399.1 720 398.1 721.1C394.5 725.1 390.7 729.2 388.6 734.1C385.8 740.4 385.6 748.4 387.9 757.9C388.1 758.6 387.6 759.3 386.9 759.5C386.7 759.3 386.6 759.3 386.5 759.3Z" fill="#A7C553"/>
<path d="M422.8 759.8C422.3 759.8 421.9 759.5 421.6 759.1C417.3 751.2 415.3 743 415.6 735.5C416 726.7 419.8 718.5 426 713.5C430.1 710.2 434.8 708.6 439.3 708.9C442.9 709.2 446.5 710.8 450.7 713.8C455.9 717.6 459.3 721.6 461.2 726C463 730.1 463.4 734.5 463.8 738.7L465.4 755.6C465.5 756.3 464.9 757 464.2 757.1C463.5 757.2 462.8 756.6 462.7 755.9L461.1 739C460.7 735 460.3 730.8 458.7 727.1C457 723.1 453.8 719.5 449.1 716C445.3 713.2 442.1 711.8 439 711.6C435.3 711.3 431.2 712.7 427.7 715.6C422.2 720.1 418.7 727.6 418.3 735.6C418 742.6 420 750.3 424 757.8C424.3 758.5 424.1 759.3 423.5 759.6C423.3 759.8 423.1 759.8 422.8 759.8Z" fill="#A7C553"/>
<path d="M476.8 759.2C476.7 759.2 476.6 759.2 476.5 759.2C475.8 759 475.3 758.3 475.5 757.6C480.3 737 471.3 722 460.9 707.3C450.5 692.6 444.5 671.9 445.3 653.3C445.3 652.6 446 652 446.7 652C447.4 652 448 652.7 448 653.4C447.2 671.5 453 691.5 463.1 705.7C473.9 720.9 483.2 736.4 478.2 758.1C477.9 758.7 477.4 759.2 476.8 759.2Z" fill="#A7C553"/>
<path d="M512.7 731.9C510.6 731.9 508.7 731.6 507 731.4C498.8 730 492 727.1 486.8 722.6C480.4 717.1 476.4 709.3 473.7 703.1C466.8 687.3 462.8 670.6 461.8 653.4C461.8 652.7 462.3 652 463.1 652C463.8 651.9 464.5 652.5 464.5 653.3C465.5 670.2 469.4 686.6 476.2 702C478.8 707.9 482.6 715.4 488.6 720.5C493.4 724.6 499.8 727.4 507.5 728.7C510.1 729.1 513.4 729.5 516.6 728.8C520.7 727.8 524.7 724.8 528.4 720C535.4 710.8 539.3 698.5 539.3 685.4C539.3 674.1 539.6 664.7 542.4 653.8C542.6 653.1 543.3 652.7 544 652.8C544.7 653 545.1 653.7 545 654.4C542.3 664.9 542 674.2 542 685.3C542 699 537.9 711.8 530.5 721.5C526.4 726.9 521.9 730.2 517.2 731.3C515.7 731.7 514.1 731.9 512.7 731.9Z" fill="#A7C553"/>
<path d="M505.7 695.8C505.6 695.8 505.5 695.8 505.4 695.8C500.3 695.7 495.3 692.4 491.6 686.7C489.3 683.1 487.6 678.9 486.9 674.7C486.4 671.9 486.2 669.1 486.1 666.3C485.8 661.6 485.6 657.1 483.8 653.1C483.5 652.4 483.8 651.6 484.5 651.3C485.2 651 486 651.3 486.3 652C488.4 656.5 488.6 661.4 488.9 666.1C489 668.8 489.2 671.6 489.7 674.2C490.4 678.1 491.9 681.9 494.1 685.2C495.6 687.5 499.7 693 505.7 693.1C509.4 693.2 513.5 691 516.4 687.1C523.4 678.1 522.7 665.2 521.4 652.8C521.3 652.1 521.9 651.4 522.6 651.3C523.3 651.2 524 651.8 524.1 652.5C525.5 665.4 526.2 678.9 518.6 688.7C514.9 693.2 510.2 695.8 505.7 695.8Z" fill="#A7C553"/>
<path d="M451.7 759.2C451.6 759.2 451.5 759.2 451.4 759.2C450.7 759 450.2 758.3 450.4 757.6C451.1 754.4 450.4 750.8 448.5 747.7C446.5 744.6 443.5 742.5 440.3 741.8C439.8 741.7 439 741.6 438.6 741.8C438.2 742 437.9 742.6 437.7 743.1C435.8 747.6 435.4 752.6 436.7 757.3C436.9 758 436.5 758.8 435.8 758.9C435.1 759.1 434.3 758.7 434.2 758C432.7 752.7 433.2 747 435.3 742C435.7 741.1 436.3 740 437.3 739.4C438.5 738.7 439.9 738.9 440.9 739.1C444.8 739.9 448.4 742.5 450.8 746.2C453.2 749.9 454 754.2 453.1 758.1C452.9 758.8 452.3 759.2 451.7 759.2Z" fill="#A7C553"/>
<path d="M529.6 759.5C529 759.5 528.4 759.1 528.3 758.4C528.1 757.7 528.6 757 529.3 756.8C542.5 753.9 550.8 741.4 554.2 730.7C557.7 719.7 557.7 707.7 557.7 696.1V688.6C557.7 676.9 557.7 660.9 564.7 652.2C565.2 651.6 566 651.5 566.6 652C567.2 652.5 567.3 653.3 566.8 653.9C560.4 661.9 560.4 677.3 560.4 688.6V696.2C560.4 708 560.3 720.1 556.7 731.6C553.1 743 544.2 756.3 529.8 759.5C529.8 759.5 529.7 759.5 529.6 759.5Z" fill="#A7C553"/>
<path d="M757.8 760.8C757.1 760.8 756.5 760.3 756.5 759.5C756 751.6 758.4 741.3 764.8 736.1C768.8 732.9 774 732 779.8 733.7C780.5 733.9 780.9 734.6 780.7 735.4C780.5 736.1 779.8 736.5 779 736.3C774 734.9 769.8 735.5 766.4 738.3C760.7 742.9 758.6 752.2 759.1 759.4C759.2 760.1 758.6 760.7 757.8 760.8Z" fill="#A7C553"/>
<path d="M734.3 760.1C733.6 760.1 733 759.5 733 758.8C733.1 743.9 737.6 729.6 745.7 718.6C754.6 706.6 767.7 698.7 781.5 696.9C782.2 696.8 782.9 697.3 783 698.1C783.1 698.8 782.6 699.5 781.8 699.6C768.6 701.3 756.2 708.8 747.8 720.3C740 730.8 735.7 744.5 735.6 758.9C735.6 759.5 735 760.1 734.3 760.1Z" fill="#A7C553"/>
<path d="M718.8 720.1C711.6 720.1 706 713.1 705.4 706.3C704.8 700.5 706.9 694.2 711.6 687.1C712.8 685.4 714 683.7 715.2 682C717.8 678.5 720.4 674.8 722.2 670.9C725.2 664.4 725.3 657.9 722.4 653.3C722 652.7 722.2 651.8 722.8 651.5C723.4 651.1 724.3 651.3 724.6 651.9C727.9 657.2 727.9 664.7 724.5 672C722.6 676.2 719.8 679.9 717.2 683.5C716 685.2 714.8 686.8 713.6 688.6C709.2 695.2 707.3 700.9 707.8 706.1C708.4 711.7 713.1 717.8 719 717.4C720.8 717.3 722.6 716.7 725 715.4C734.3 710.4 741.1 701.7 747.6 693.2C748.7 691.8 749.8 690.3 750.9 688.9C758.2 679.7 768.3 668.8 781.8 666.9C782.5 666.8 783.2 667.3 783.3 668C783.4 668.7 782.9 669.4 782.2 669.5C769.6 671.3 760 681.7 753 690.5C751.9 691.9 750.8 693.3 749.7 694.7C743 703.4 736 712.4 726.2 717.6C724.4 718.6 721.9 719.7 719.1 719.9C719.3 720.1 719.1 720.1 718.8 720.1Z" fill="#A7C553"/>
<path d="M695.1 758.7C694.5 758.7 693.9 758.2 693.8 757.6C693.1 753.4 691.9 749.3 690.7 745.3C688.8 738.8 686.8 732.1 687.2 724.6C687.7 714.6 690.9 704 697.2 691.4L698.7 688.4C701.4 683.1 704.2 677.7 705.3 671.9C706.4 666 705.7 658.1 700.1 653.5C699.5 653 699.4 652.2 699.9 651.6C700.4 651 701.2 650.9 701.8 651.4C708.2 656.7 709.2 665.7 707.9 672.3C706.7 678.4 703.9 684 701.1 689.5L699.6 692.4C693.5 704.7 690.4 714.9 689.9 724.5C689.5 731.5 691.4 737.8 693.3 744.3C694.5 748.3 695.7 752.5 696.4 756.9C696.5 757.6 696 758.3 695.3 758.4C695.3 758.7 695.2 758.7 695.1 758.7Z" fill="#A7C553"/>
<path d="M657 699.7C656.2 699.7 655.4 699.6 654.6 699.4C652.7 698.9 650.8 697.6 649.3 695.8C644.3 690 644.4 681.9 644.9 674.1C645.4 666.5 645.4 659.3 641.2 654.2C640.7 653.6 640.8 652.8 641.4 652.3C642 651.8 642.8 651.9 643.3 652.5C648.2 658.3 648.1 666.4 647.7 674.3C647.3 681.6 647.2 689.1 651.5 694.1C652.3 695.1 653.7 696.4 655.5 696.8C658.4 697.6 661.3 696.1 662.8 695.2C665.6 693.4 668.2 690.7 670.6 686.8C677.2 676.5 680 663.7 678.2 651.6C678.1 650.9 678.6 650.2 679.3 650.1C680 650 680.7 650.5 680.8 651.2C682.6 663.9 679.7 677.4 672.8 688.2C670.1 692.4 667.3 695.4 664.1 697.4C661.6 698.9 659.2 699.7 657 699.7Z" fill="#A7C553"/>
<path d="M636.4 753.9C631.6 753.9 627.4 752.3 623.8 749C615.4 741.4 612.2 726.6 612.1 716.3C612.1 713.2 612.3 710 612.6 707C612.8 704.9 613 702.8 613.1 700.6C613.7 684.8 607.6 666.2 598 654.1C597.5 653.5 597.6 652.7 598.2 652.2C598.8 651.7 599.6 651.8 600.1 652.4C610.1 664.9 616.4 684.3 615.8 700.7C615.7 702.9 615.5 705 615.3 707.2C615 710.2 614.8 713.2 614.8 716.2C614.9 726 617.8 740 625.6 747C629.1 750.2 633.4 751.6 638.3 751.1C645.7 750.4 653.3 746.3 659.7 739.6C670.5 728.4 679 713.9 684.8 696.6C685.2 695.3 685.7 694 686.2 692.6C690.4 680.6 696.2 664.1 691 653.1C690.7 652.4 691 651.6 691.6 651.3C692.3 651 693.1 651.3 693.4 651.9C699.1 663.9 693.1 681 688.7 693.5C688.2 694.9 687.7 696.2 687.3 697.5C681.3 715.2 672.7 730 661.6 741.5C654.7 748.6 646.5 753 638.5 753.8C637.7 753.9 637 753.9 636.4 753.9Z" fill="#A7C553"/>
<path d="M570.7 758.9C570.5 758.9 570.3 758.9 570.1 758.8C569.4 758.5 569.2 757.7 569.5 757C573.2 749.9 573.7 743 574.3 735.7C574.6 732.2 574.9 728.5 575.5 724.7C577 716.2 582.7 706.5 590.2 705.1C593.5 704.5 598.5 705.3 603.1 713C608.6 722 608.4 733 608.3 743.6C608.2 748.2 608.2 752.5 608.6 756.6C608.7 757.3 608.1 758 607.4 758.1C606.7 758.2 606 757.6 605.9 756.9C605.5 752.7 605.6 748.1 605.6 743.6C605.7 733.4 605.9 722.8 600.8 714.4C598.7 710.9 595.2 706.9 590.6 707.8C585.2 708.8 579.5 716.6 578 725.3C577.4 728.9 577.1 732.5 576.8 736C576.2 743.6 575.6 750.7 571.7 758.3C571.6 758.6 571.2 758.9 570.7 758.9Z" fill="#A7C553"/>
<path d="M425 635.5H399.6C397.7 635.5 396.2 634 396.2 632.1V590H428.4V632.2C428.4 634 426.9 635.5 425 635.5Z" fill="#808080"/>
<path d="M524.1 592H300.5C274.3 592 252.8 570.5 252.8 544.3V62.3C252.8 36.1 274.3 14.6 300.5 14.6H461.7H524.1C550.3 14.6 571.8 36.1 571.8 62.3V544.3C571.8 570.5 550.4 592 524.1 592Z" fill="#A7C553"/>
<path d="M397 38.1V44C397 52.4 403.9 59.3 412.3 59.3C420.7 59.3 427.6 52.4 427.6 44V38.1C427.6 33 431.8 28.8 436.9 28.8H533.5C549.5 28.8 562.6 41.9 562.6 57.9V548.6C562.6 564.6 549.5 577.7 533.5 577.7H291.1C275.1 577.7 262 564.6 262 548.6V57.9C262 41.9 275.1 28.8 291.1 28.8H355.3H387.8C392.9 28.8 397 33 397 38.1Z" fill="white"/>
<path d="M562.7 66.3H262V531.7H562.7V66.3Z" fill="#E6E6E6"/>
<path d="M405.2 112.3V117.6C405.2 122.6 401.2 126.6 396.2 126.6H326C321 126.6 317 130.6 317 135.6V276.7C317 281.7 321 285.7 326 285.7H498.5C503.5 285.7 507.5 281.7 507.5 276.7V129.9V126.6V112.4C507.5 107.4 503.5 103.4 498.5 103.4H414.1C409.2 103.4 405.2 107.4 405.2 112.3Z" fill="#C5C5C5"/>
<path d="M405.2 180.9V186.2C405.2 191.2 401.2 195.2 396.2 195.2H326C321 195.2 317 199.2 317 204.2V345.3C317 350.3 321 354.3 326 354.3H498.5C503.5 354.3 507.5 350.3 507.5 345.3V198.4V195.1V180.9C507.5 175.9 503.5 171.9 498.5 171.9H414.1C409.2 171.9 405.2 175.9 405.2 180.9Z" fill="white"/>
<path d="M373.1 251.7V257C373.1 262 369.1 266 364.1 266H293.9C288.9 266 284.9 270 284.9 275V416.1C284.9 421.1 288.9 425.1 293.9 425.1H466.4C471.4 425.1 475.4 421.1 475.4 416.1V269.2V265.9V251.7C475.4 246.7 471.4 242.7 466.4 242.7H382C377.1 242.7 373.1 246.7 373.1 251.7Z" fill="#006D68"/>
<path d="M405.2 321.3V326.6C405.2 331.6 401.2 335.6 396.2 335.6H326C321 335.6 317 339.6 317 344.6V485.7C317 490.7 321 494.7 326 494.7H498.5C503.5 494.7 507.5 490.7 507.5 485.7V338.9V335.6V321.4C507.5 316.4 503.5 312.4 498.5 312.4H414.1C409.2 312.4 405.2 316.4 405.2 321.3Z" fill="#A7C553"/>
<path d="M396.5 415.5L373.7 424.3L396.5 433.1V442.1L362.9 428.9V419.7L396.5 406.6V415.5Z" fill="white"/>
<path d="M398.9 393.7L407.9 391L425.8 447.1L416.8 449.8L398.9 393.7Z" fill="white"/>
<path d="M461.8 419.7V428.9L428.2 442V433L451 424.2L428.2 415.4V406.4L461.8 419.7Z" fill="white"/>
<path d="M412.3 50.7C416.774 50.7 420.4 47.0735 420.4 42.6C420.4 38.1265 416.774 34.5 412.3 34.5C407.827 34.5 404.2 38.1265 404.2 42.6C404.2 47.0735 407.827 50.7 412.3 50.7Z" fill="#3C3C3B"/>
<path d="M562.7 65.3H262V67.3H562.7V65.3Z" fill="#808080"/>
<path d="M562.7 530.6H262V532.6H562.7V530.6Z" fill="#808080"/>
<path d="M419.5 565.6H405.2C402.1 565.6 399.6 563.1 399.6 560V545.7C399.6 542.6 402.1 540.1 405.2 540.1H419.5C422.6 540.1 425.1 542.6 425.1 545.7V560C425.1 563.1 422.5 565.6 419.5 565.6ZM405.2 543.6C404 543.6 403 544.6 403 545.8V560C403 561.2 404 562.2 405.2 562.2H419.5C420.7 562.2 421.7 561.2 421.7 560V545.7C421.7 544.5 420.7 543.5 419.5 543.5H405.2V543.6Z" fill="#A6C453"/>
<path d="M322.5 565.6C321.6 565.6 320.8 564.8 320.8 563.9V543.8C320.8 542.9 321.6 542.1 322.5 542.1C323.4 542.1 324.2 542.9 324.2 543.8V563.9C324.2 564.9 323.5 565.6 322.5 565.6Z" fill="#A6C453"/>
<path d="M331.4 565.6C330.5 565.6 329.7 564.8 329.7 563.9V543.8C329.7 542.9 330.5 542.1 331.4 542.1C332.3 542.1 333.1 542.9 333.1 543.8V563.9C333.1 564.9 332.4 565.6 331.4 565.6Z" fill="#A6C453"/>
<path d="M340.4 565.6C339.5 565.6 338.7 564.8 338.7 563.9V543.8C338.7 542.9 339.5 542.1 340.4 542.1C341.3 542.1 342.1 542.9 342.1 543.8V563.9C342.1 564.9 341.3 565.6 340.4 565.6Z" fill="#A6C453"/>
<path d="M502.2 565.6C501.8 565.6 501.4 565.5 501.1 565.2L488.6 554.2C488.2 553.9 488 553.4 488 552.9C488 552.4 488.2 551.9 488.6 551.6L501.1 540.6C501.8 540 502.9 540 503.5 540.8C504.1 541.5 504.1 542.6 503.3 543.2L492.3 552.9L503.3 562.6C504 563.2 504.1 564.3 503.5 565C503.1 565.4 502.6 565.6 502.2 565.6Z" fill="#A6C453"/>
<path d="M526.7 578.5H298C277.8 578.5 261.3 562 261.3 541.8V64.8C261.3 44.6 277.8 28.1 298 28.1H387.8C393.3 28.1 397.8 32.6 397.8 38.1V44C397.8 52 404.3 58.6 412.4 58.6C420.5 58.6 426.9 52 426.9 44V38.1C426.9 32.6 431.4 28.1 436.9 28.1H526.7C546.9 28.1 563.4 44.6 563.4 64.8V541.8C563.4 562 546.9 578.5 526.7 578.5ZM298 29.6C278.6 29.6 262.8 45.4 262.8 64.8V541.8C262.8 561.2 278.6 577 298 577H526.7C546.1 577 561.9 561.2 561.9 541.8V64.8C561.9 45.4 546.1 29.6 526.7 29.6H465.3H436.9C432.2 29.6 428.4 33.4 428.4 38.1V44C428.4 52.9 421.2 60.1 412.3 60.1C403.4 60.1 396.2 52.9 396.2 44V38.1C396.2 33.4 392.4 29.6 387.7 29.6H298Z" fill="white"/>
<path d="M755.3 397.1L755.2 298.8C755.2 269.7 731.6 246.2 702.6 246.2H698.5C671.7 246.2 650 267.9 650 294.7V398.6L650.3 404.6C650.7 413.5 651.7 422.3 653.3 431L679.8 590.8C679.9 591.4 680.4 591.8 680.9 591.8H697.9C698.5 591.8 699 591.3 699 590.7V435.5C699 433.5 700.6 431.9 702.6 431.9C704.6 431.9 706.2 433.5 706.2 435.5V591.9C706.2 592.5 706.7 593 707.3 593H724.3C724.9 593 725.3 592.6 725.4 592.1L752.1 435.8C754.2 424.7 755.3 413.4 755.3 402.1V397.1Z" fill="#C1C1C1"/>
<path d="M799.8 346.2C796.7 349.3 792.9 352 788.7 353.9L744.7 365.8C736.3 369.6 726.4 365.9 722.5 357.5C718.7 349.1 722.4 339.2 730.8 335.3L774.8 323.4C776.5 322.6 777.1 321.2 777.2 320.2C777.3 319.2 777.2 317.7 775.7 316.5L733.9 282C726.8 276.1 725.8 265.6 731.6 258.4C737.5 251.3 748 250.3 755.2 256.1L797 290.6C807.1 298.9 812.1 311.6 810.4 324.6C809.3 332.9 805.5 340.4 799.8 346.2Z" fill="#006D68"/>
<path d="M699 592.9C699 594.3 656.3 594.3 656.3 592.9C656.3 581.1 665.9 571.5 677.7 571.5C689.4 571.5 699 581.1 699 592.9Z" fill="#006D68"/>
<path d="M748.9 594.1C748.9 595.5 706.2 595.5 706.2 594.1C706.2 582.3 715.8 572.7 727.6 572.7C739.4 572.7 748.9 582.3 748.9 594.1Z" fill="#006D68"/>
<path d="M633.2 427.8C626 427.8 619.5 423 617.6 415.7C610 386.2 608.4 357.9 612.9 331.7C617 307.9 624.2 280.4 647.4 257C653.6 250.7 663.8 250.6 670.1 256.9C676.4 263.2 676.5 273.3 670.2 279.6C656.6 293.3 649.2 310 644.6 337C640.9 358.7 642.3 382.4 648.8 407.5C651 416.1 645.8 424.9 637.2 427.1C635.9 427.7 634.6 427.8 633.2 427.8Z" fill="#006D68"/>
<path d="M730 279.2L701.7 262.8L673.4 279.2V256.4C673.4 243.8 686.1 233.6 701.7 233.6C717.3 233.6 730 243.8 730 256.4V279.2Z" fill="white"/>
<path d="M702.1 258.1C723.529 258.1 740.9 240.729 740.9 219.3C740.9 197.871 723.529 180.5 702.1 180.5C680.672 180.5 663.3 197.871 663.3 219.3C663.3 240.729 680.672 258.1 702.1 258.1Z" fill="white"/>
<path d="M702.1 259.8C679.8 259.8 661.6 241.6 661.6 219.3C661.6 197 679.8 178.8 702.1 178.8C724.4 178.8 742.6 197 742.6 219.3C742.6 241.6 724.4 259.8 702.1 259.8ZM702.1 182.3C681.7 182.3 665.1 198.9 665.1 219.3C665.1 239.7 681.7 256.3 702.1 256.3C722.5 256.3 739.1 239.7 739.1 219.3C739.1 198.9 722.5 182.3 702.1 182.3Z" fill="#3C3C3B"/>
<path d="M740.8 218.3C740.8 216.4 740.6 214.6 740.3 212.8C737.2 194.5 721.3 180.6 702.1 180.6C688.8 180.6 677.1 187.3 670.1 197.5C669.8 197.9 669.2 198.2 669.3 198.7C669.6 199.5 740.8 218.6 740.8 218.3Z" fill="#006D68"/>
<path d="M741 219.6C740 219.6 668.7 201.2 668 199C667.7 197.9 668.5 197.2 668.8 196.8C676.5 185.7 688.8 179.2 702 179.2C721.6 179.2 738.2 193.2 741.5 212.5C741.8 214.4 742 216.3 742.1 218.2C742.2 218.9 741.7 219.5 741 219.6ZM671.3 198C680.3 201 729.7 214.3 739.4 216.6C739.3 215.4 739.2 214.2 739 213C735.9 195 720.4 181.9 702.1 181.9C689.8 181.9 678.4 187.9 671.3 198Z" fill="#006D68"/>
<path d="M740.8 219.3L667 197.9L648.8 192.7" fill="white"/>
<path d="M740.8 222C740.6 222 740.3 222 740.1 221.9L648.1 195.3C646.7 194.9 645.9 193.4 646.3 192C646.7 190.6 648.2 189.8 649.6 190.2L741.6 216.8C743 217.2 743.8 218.7 743.4 220.1C743.1 221.2 742 222 740.8 222Z" fill="#006D68"/>
<path d="M691.7 381H717.1C719 381 720.5 382.5 720.5 384.4V426.6H688.3V384.4C688.3 382.5 689.8 381 691.7 381Z" fill="#808080"/>
<path d="M556.5 706.6H455.7C431 706.6 411 686.5 411 661.9V630H416.4V661.9C416.4 683.6 434.1 701.3 455.8 701.3H556.6C578.3 701.3 596 683.6 596 661.9V373.5C596 348.8 616.1 328.8 640.7 328.8H662.5C687.2 328.8 707.2 348.9 707.2 373.5V386.4H701.8V373.5C701.8 351.8 684.1 334.1 662.4 334.1H640.6C618.9 334.1 601.2 351.8 601.2 373.5V661.9C601.2 686.5 581.2 706.6 556.5 706.6Z" fill="#808080"/>
<path d="M194 402C193.9 407.8 194.1 413.7 194.9 419.7C198.3 445.6 213.9 531.9 213.4 548.9C213.4 550 109.5 571.3 66.7002 541.8C71.6002 530.1 84.8002 310.4 133.6 279.7C153.5 267.1 180 269.1 192.6 290.4C202.1 306.6 204.3 327.8 201.8 346.2C199.1 364.7 194.5 383.1 194 402Z" fill="#006D68"/>
<path d="M270.8 389.6C270.7 389.6 270.6 389.7 270.6 389.7L240.8 405.2C223.9 414 204.4 414.3 187.2 406.1C170 397.9 158 382.5 154.2 363.8L147.4 330.3C145 318.7 152.5 307.3 164.2 305C175.8 302.6 187.2 310.1 189.5 321.8L196.3 355.3C197.4 360.6 200.8 365 205.7 367.4C210.6 369.7 216.2 369.6 221 367.1L250.8 351.6C261.3 346.1 274.3 350.2 279.8 360.7C285.1 371.2 281.1 384.1 270.8 389.6Z" fill="#A7C553"/>
<path d="M174.1 277.9C195.971 277.9 213.7 260.17 213.7 238.3C213.7 216.429 195.971 198.7 174.1 198.7C152.23 198.7 134.5 216.429 134.5 238.3C134.5 260.17 152.23 277.9 174.1 277.9Z" fill="white"/>
<path d="M174.2 279.6C171.9 279.6 169.7 279.4 167.4 279C156.5 277.2 147 271.3 140.6 262.3C127.3 243.8 131.6 217.9 150.1 204.7C159.1 198.3 170 195.7 180.9 197.5C191.8 199.3 201.3 205.2 207.7 214.2C214.1 223.2 216.7 234.1 214.9 245C213.1 255.9 207.2 265.4 198.2 271.8C191.1 276.9 182.8 279.6 174.2 279.6ZM174.1 200.4C166.3 200.4 158.6 202.8 152.1 207.5C135.1 219.7 131.2 243.4 143.4 260.3C149.3 268.5 158 274 168 275.6C178 277.3 188 274.9 196.2 269C204.4 263.1 209.9 254.4 211.5 244.4C213.1 234.4 210.8 224.4 204.9 216.2C199 208 190.3 202.5 180.3 200.9C178.2 200.6 176.1 200.4 174.1 200.4Z" fill="#3C3C3B"/>
<path d="M183.1 208.9C190 207.2 197.5 206.8 201.6 210.5C201.7 196.2 188.2 186.8 175.6 183.1C162.4 179.3 147.6 181.6 136.4 189.4C132.6 192.1 127.7 194.4 123.4 192.6C117 190 115.9 181.7 109.5 178.8C103 175.8 93.7001 177.1 88.2001 181.6C80.2001 188.2 76.7001 202.9 81.6001 212.2C84.2001 217.1 88.1001 220.6 93.9001 221.5C100.8 222.7 107.9 216.2 113.8 221.4C119 226 116.4 231.5 116 237C115.5 243.7 117.1 249.4 120.9 255.1C128 265.6 140.6 270.8 152.8 272.4C151.1 268.1 155.4 263.4 153.5 259.8C152.5 257.8 149.1 256.7 147.6 255C145.8 253.1 144.2 250.3 143.4 247.8C140.3 238.6 147.9 223.8 158.2 231.6C158.8 223.8 164.6 217 171.3 213.4C174.2 211.8 178.5 210 183.1 208.9Z" fill="#3C3C3B"/>
<path d="M152.7 273.7C152.6 273.7 152.6 273.7 152.5 273.7C144 272.6 128.4 268.8 119.7 255.8C115.7 249.9 114.1 243.9 114.6 236.8C114.7 235.5 114.9 234.2 115.1 233C115.7 228.9 116.3 225.4 112.8 222.3C109.8 219.7 106.4 220.6 102.5 221.6C99.6002 222.4 96.7002 223.2 93.7002 222.7C87.9002 221.7 83.4002 218.3 80.4002 212.6C75.3002 202.9 78.6003 187.5 87.3003 180.3C93.2003 175.4 103 174.2 110 177.4C113.5 179 115.5 182 117.5 184.8C119.3 187.5 121.1 190 123.9 191.2C126.9 192.4 130.9 191.4 135.6 188.1C147.2 180.1 162.3 177.7 176 181.6C188.5 185.2 203 194.9 203 210.3C203 210.8 202.7 211.3 202.2 211.6C201.7 211.8 201.1 211.7 200.7 211.4C196.5 207.6 188.1 209 183.5 210.2C179.5 211.2 175.2 212.9 172 214.6C166.5 217.6 160.3 223.7 159.6 231.7C159.6 232.2 159.2 232.6 158.8 232.8C158.3 233 157.8 232.9 157.4 232.6C154.4 230.3 151.6 230.1 149.1 231.9C145.1 234.8 143 242.1 144.7 247.3C145.5 249.7 147 252.3 148.6 253.9C149.1 254.4 150 255 150.9 255.5C152.4 256.5 154 257.4 154.7 258.9C155.9 261.2 155.2 263.6 154.5 265.9C153.9 267.9 153.4 269.9 154 271.6C154.2 272.1 154.1 272.6 153.8 272.9C153.5 273.5 153.1 273.7 152.7 273.7ZM108.2 217.9C110.4 217.9 112.6 218.5 114.6 220.3C119.2 224.4 118.4 229.2 117.7 233.4C117.5 234.6 117.3 235.8 117.2 237C116.8 243.5 118.2 248.8 121.9 254.2C127.6 262.6 138.1 268.5 150.9 270.6C150.8 268.7 151.3 266.9 151.8 265.3C152.4 263.3 152.9 261.6 152.2 260.3C151.8 259.5 150.6 258.7 149.4 258C148.4 257.4 147.3 256.7 146.6 255.9C144.8 253.9 143 251 142.1 248.2C140 241.9 142.5 233.2 147.5 229.7C149.3 228.4 152.8 226.8 157.2 229.2C158.6 222.4 163.6 216 170.7 212.1C174.1 210.3 178.6 208.6 182.9 207.5C188.2 206.1 195.2 205.2 200.2 207.7C198.6 195.4 186.2 187.5 175.4 184.3C162.5 180.5 148.3 182.8 137.3 190.4C131.7 194.2 126.9 195.4 123 193.7C119.4 192.2 117.3 189.2 115.4 186.3C113.6 183.6 111.9 181.1 109.1 179.8C103.1 177.1 94.4003 178.2 89.3003 182.4C81.6003 188.7 78.6002 202.8 83.1002 211.3C85.7002 216.3 89.4002 219.1 94.4002 219.9C96.8002 220.3 99.4002 219.6 102.1 218.9C103.8 218.5 106 217.9 108.2 217.9Z" fill="#3C3C3B"/>
<path d="M113.3 226.8C111.7 226.8 110.1 226.1 109 224.7C107.2 222.3 107.7 219 110.1 217.2C119.2 210.4 120.8 199.1 118.9 193.7C118 190.9 119.5 187.9 122.3 186.9C125.1 186 128.1 187.5 129.1 190.3C132.5 200.4 129.2 216.2 116.5 225.8C115.5 226.5 114.4 226.8 113.3 226.8Z" fill="white"/>
<path d="M217.6 435.5H61.5V723.9H217.6V435.5Z" fill="white"/>
<path d="M217.6 725.2H61.4998C60.7998 725.2 60.2998 724.6 60.2998 724V435.5C60.2998 434.8 60.8998 434.3 61.4998 434.3H217.6C218.3 434.3 218.8 434.9 218.8 435.5V724C218.9 724.7 218.3 725.2 217.6 725.2ZM62.6998 722.7H216.3V436.8H62.6998V722.7Z" fill="#3C3C3B"/>
<path d="M204.8 523.8H74.2998V598.1H204.8V523.8Z" fill="#C5C5C5"/>
<path d="M204.8 456.4H74.2998V506.2H204.8V456.4Z" fill="#C5C5C5"/>
<path d="M204.8 591.2H74.2998V641H204.8V591.2Z" fill="#C5C5C5"/>
<path d="M204.8 658.6H74.2998V708.4H204.8V658.6Z" fill="#C5C5C5"/>
<path d="M170.8 407.8H106.6V435.6H170.8V407.8Z" fill="white"/>
<path d="M170.8 436.8H106.6C105.9 436.8 105.4 436.2 105.4 435.6V407.8C105.4 407.1 106 406.6 106.6 406.6H170.8C171.5 406.6 172 407.2 172 407.8V435.6C172 436.2 171.5 436.8 170.8 436.8ZM107.8 434.3H169.5V409H107.8V434.3Z" fill="#3C3C3B"/>
<path d="M783 435.5H626.9V723.9H783V435.5Z" fill="white"/>
<path d="M783 725.2H626.9C626.2 725.2 625.7 724.6 625.7 724V435.5C625.7 434.8 626.3 434.3 626.9 434.3H783C783.7 434.3 784.2 434.9 784.2 435.5V724C784.2 724.7 783.7 725.2 783 725.2ZM628.1 722.7H781.7V436.8H628.1V722.7Z" fill="#3C3C3B"/>
<path d="M770.2 523.8H639.7V602.1H770.2V523.8Z" fill="#A7C553"/>
<path d="M771.3 603.1H638.6V522.6H771.3V603.1ZM640.8 601H769.1V524.9H640.8V601Z" fill="#A7C553"/>
<path d="M770.2 456.4H639.7V506.2H770.2V456.4Z" fill="#A7C553"/>
<path d="M771.3 507.2H638.6V455.3H771.3V507.2ZM640.8 505H769.1V457.4H640.8V505Z" fill="#A7C553"/>
<path d="M770.2 591.2H639.7V641H770.2V591.2Z" fill="#A7C553"/>
<path d="M771.3 642H638.6V590.1H771.3V642ZM640.8 639.8H769.1V592.2H640.8V639.8Z" fill="#A7C553"/>
<path d="M770.2 658.6H639.7V708.4H770.2V658.6Z" fill="#A7C553"/>
<path d="M771.3 709.4H638.6V657.5H771.3V709.4ZM640.8 707.3H769.1V659.7H640.8V707.3Z" fill="#A7C553"/>
<path d="M736.201 407.8H672V435.6H736.201V407.8Z" fill="white"/>
<path d="M736.2 436.8H672C671.3 436.8 670.8 436.2 670.8 435.6V407.8C670.8 407.1 671.4 406.6 672 406.6H736.2C736.9 406.6 737.4 407.2 737.4 407.8V435.6C737.4 436.2 736.8 436.8 736.2 436.8ZM673.2 434.3H734.9V409H673.2V434.3Z" fill="#3C3C3B"/>
<path d="M726.9 351.9C727.6 355.2 727.4 359 726.2 362.1C725.2 364.7 723 366 720.8 367.5C715.6 371.3 709.9 372.5 703.8 374.1C699 375.3 695.1 373.1 693 368.3C692.4 367 692.1 365.6 691.5 364.3C689.9 360.5 685.7 357.3 685.2 353.1C684.8 350.1 686 345.8 689.4 345.3C691.1 345.1 693 345.3 694.8 345.1C695.9 344.9 699.7 345 700.1 343.7C700.3 343.1 700.1 342.4 699.9 341.8C698.8 339 697.6 336.1 698.2 333.2C698.3 332.5 698.6 331.8 699.2 331.5C699.8 331.1 700.6 331.2 701.2 331.6C701.8 331.9 702.3 332.5 702.8 332.9C710.4 340.4 724.3 340.3 726.9 351.9Z" fill="white"/>
<path d="M701.3 375.9C697.2 375.9 693.8 373.4 691.8 369C691.5 368.3 691.2 367.6 691 366.8C690.8 366.2 690.6 365.6 690.3 365C689.7 363.6 688.7 362.2 687.6 360.8C685.9 358.6 684.2 356.3 683.8 353.5C683.2 349.5 685.1 344.8 689.2 344.2C690.1 344.1 691 344.1 692 344.1C692.9 344.1 693.7 344.1 694.6 344C694.8 344 695.2 343.9 695.6 343.9C696.3 343.8 698.4 343.7 698.9 343.3C698.8 343.3 698.7 343 698.6 342.6L698.4 342.1C697.4 339.4 696.2 336.3 696.9 333.2C697.2 332 697.7 331.1 698.6 330.6C699.6 330 700.8 330 702 330.6C702.8 331 703.3 331.6 703.8 332C706.6 334.7 710.3 336.4 713.8 338C720 340.8 726.4 343.7 728.2 351.6C729 355.2 728.7 359.3 727.5 362.6C726.5 365.2 724.4 366.7 722.4 368.1L721.6 368.7C716.5 372.4 711.1 373.8 705.3 375.2L704.2 375.5C703.2 375.8 702.2 375.9 701.3 375.9ZM691.4 346.8C690.8 346.8 690.2 346.8 689.7 346.9C687.2 347.3 686.3 350.7 686.6 353.1C686.9 355.2 688.3 357.2 689.8 359.2C690.9 360.7 692.1 362.2 692.8 364C693.1 364.7 693.3 365.3 693.5 366C693.7 366.7 693.9 367.3 694.2 367.9C696.1 372.2 699.4 374 703.4 372.9L704.5 372.6C710 371.2 715.2 369.9 719.9 366.5L720.8 365.9C722.6 364.6 724.2 363.6 724.9 361.7C726 358.9 726.2 355.3 725.5 352.2C724 345.7 718.5 343.2 712.6 340.5C708.8 338.8 704.9 337 701.9 334.1C701.4 333.6 701 333.2 700.6 333C700.3 332.8 700 332.8 699.9 332.9C699.8 333 699.6 333.2 699.5 333.7C699 336 700 338.6 700.9 341L701.1 341.5C701.3 342.1 701.7 343.2 701.3 344.3C700.7 346 698.4 346.3 695.7 346.5C695.4 346.5 695.1 346.5 694.9 346.6C693.9 346.8 692.9 346.7 691.9 346.7C691.8 346.8 691.6 346.8 691.4 346.8Z" fill="#3C3C3B"/>
<path d="M643.1 408.9C637.7 406 629 406.1 624.7 411.1C622.2 414 621.6 417.9 621.7 421.6C621.8 425.6 623 429.5 624.4 433.2C625.8 436.8 626.7 440.4 627.9 444.1C629.8 450.1 632.4 456.4 637.1 460.7C637.3 460.9 637.6 461.1 637.9 461.1C638.7 461.2 638.9 460 638.8 459.2C638.3 455.5 636.7 452.2 636.3 448.5C636.2 447.6 636.2 446.5 636.7 445.7C639.3 441.8 642.1 447.1 643.2 448.9C645 451.7 646.9 454.4 648.9 457C650.4 458.9 652.1 462.1 654.8 462.4C655.8 462.5 656.6 461.4 656.6 460.4C656.5 457.9 654.2 454.7 653.1 452.5C652.1 450.5 646 441 649.5 439.3C652.1 438 657.8 446 659.2 447.5C659.9 448.2 665.9 454.7 666.3 450.2C666.5 447.9 663.1 442.6 661.8 440.5C659.2 436.1 655.8 432.2 653.2 427.7C652.8 427 652.4 426.3 652.5 425.6C652.7 424.2 654 422.6 655.4 422.2C656.5 421.9 657.7 422 658.9 421.9C660.6 421.8 664.4 420.8 665.2 419C666.1 417 663.7 415.1 661.9 414.8C660.3 414.5 658.6 414.8 657 414.8C654.1 414.9 651.1 414.1 648.6 412.6C646.9 411.6 645.3 410.3 643.6 409.2C643.4 409 643.2 409 643.1 408.9Z" fill="white"/>
<path d="M655 463.8C654.9 463.8 654.8 463.8 654.7 463.8C651.9 463.5 650.1 461 648.7 459C648.4 458.6 648.2 458.2 647.9 457.9C645.8 455.2 643.8 452.4 642.1 449.7L641.8 449.2C641.3 448.4 639.7 445.8 638.8 445.8C638.6 445.7 638.3 446.1 637.9 446.6C637.6 447 637.7 447.8 637.7 448.5C637.9 450.3 638.4 452.1 638.9 453.9C639.4 455.6 639.9 457.3 640.1 459.1C640.2 460 640.1 461.2 639.4 461.9C639 462.4 638.4 462.6 637.7 462.6C636.9 462.6 636.3 462 636.1 461.8C630.9 457 628.2 450.1 626.5 444.6C626.1 443.4 625.8 442.2 625.4 441C624.7 438.5 624 436.2 623 433.8C621.8 430.9 620.3 426.4 620.2 421.7C620.1 416.9 621.2 413 623.6 410.3C628.4 404.7 637.8 404.6 643.6 407.7L644 407.9C644.9 408.4 645.8 409 646.6 409.6C647.4 410.2 648.2 410.7 649 411.2C651.3 412.5 654 413.2 656.7 413.2C657.2 413.2 657.6 413.2 658.1 413.1C659.3 413 660.6 412.9 662 413.2C663.4 413.5 665.3 414.5 666.1 416.2C666.6 417.2 666.7 418.3 666.2 419.3C665 421.9 660.5 422.8 658.8 423C658.4 423 658 423 657.6 423.1C656.9 423.1 656.2 423.1 655.6 423.3C654.8 423.5 653.8 424.7 653.7 425.6C653.7 425.9 654 426.5 654.2 426.9C655.5 429.1 657 431.3 658.5 433.4C660 435.4 661.5 437.5 662.8 439.7L663.4 440.6C665.7 444.4 667.7 447.9 667.5 450.2C667.4 452 666.5 452.7 665.8 452.9C664.6 453.3 662.7 453.2 658.2 448.4C657.8 448 657.4 447.5 656.8 446.8C652 441 650.4 440.3 649.9 440.4C649.8 440.5 649.7 440.5 649.7 440.7C649.1 442.7 652.2 448.2 653.3 450.3C653.7 450.9 653.9 451.5 654.1 451.8C654.4 452.4 654.8 453 655.2 453.7C656.4 455.8 657.7 458.1 657.8 460.2C657.8 461.2 657.4 462.2 656.7 462.8C656.3 463.5 655.6 463.8 655 463.8ZM638.8 443.1C641.3 443.1 643 446.1 644.1 447.8L644.4 448.3C646.1 451 648 453.7 650 456.3C650.3 456.7 650.6 457.1 650.9 457.5C652 459.1 653.4 461 655 461.2C655.1 461.2 655.3 460.9 655.3 460.6C655.3 459.1 654.1 457 653.1 455.4C652.7 454.6 652.3 453.9 651.9 453.3C651.8 453 651.5 452.5 651.2 452C648.9 447.8 646.5 443.2 647.3 440.3C647.6 439.4 648.1 438.7 648.9 438.3C651.7 436.9 655.3 440.8 659.1 445.4C659.6 446 660 446.5 660.2 446.7C663.1 449.7 664.4 450.4 664.9 450.5C664.9 450.4 664.9 450.3 664.9 450.2C665 448.6 662.3 444.2 661.2 442.2L660.6 441.2C659.4 439.1 657.9 437.1 656.5 435.1C655 433 653.4 430.7 652 428.4C651.6 427.7 651 426.6 651.2 425.4C651.5 423.4 653.2 421.4 655 420.9C655.9 420.6 656.8 420.6 657.7 420.6C658 420.6 658.4 420.6 658.7 420.5C660.7 420.3 663.4 419.4 663.8 418.4C663.9 418.2 663.9 418 663.8 417.6C663.4 416.9 662.3 416.2 661.6 416C660.6 415.8 659.6 415.9 658.5 416C658 416 657.5 416.1 657 416.1C653.8 416.2 650.6 415.4 647.8 413.8C646.9 413.3 646 412.7 645.2 412.1C644.4 411.5 643.6 411 642.8 410.5L642.4 410.3C637.4 407.6 629.5 407.8 625.7 412.2C623.8 414.4 622.9 417.6 623 421.8C623.1 425.1 623.9 428.6 625.6 433C626.6 435.5 627.3 438 628 440.5C628.3 441.7 628.7 442.8 629.1 444C630.7 449 633 455.1 637.4 459.5C637.2 458 636.7 456.5 636.3 454.9C635.8 453 635.2 451.1 635 449C634.9 447.8 634.9 446.5 635.6 445.3C636.5 443.7 637.6 443.1 638.8 443.1Z" fill="#3C3C3B"/>
<path d="M313 361C313.2 360.2 313.4 359.4 313.6 358.6C314.6 354.4 316.1 350.3 316.8 346.1C317 344.7 317.2 343.3 316.7 342C316.2 340.7 315 339.5 313.6 339.6C312.7 339.6 311.8 340.2 311.1 340.7C306.6 343.7 302.2 346.9 297.8 350C296.2 351.1 294.5 352.3 292.5 352.6C287.6 353.3 286 349.1 285.2 345.7C284.3 341.7 283.9 338.8 280.1 336.5C279.2 336 277.8 335.7 277.4 336.6C277.2 337 277.3 337.5 277.4 337.9C278.6 342.8 277 348 273.9 352.1C272.7 353.7 271.2 355.1 270 356.7C269.9 356.8 269.8 356.9 269.7 357.1C266.2 362.1 265.3 370.7 269.8 375.6C272.4 378.4 276.2 379.5 279.9 379.9C292 381 299.9 373.3 308.9 366.7C309.9 366 310.9 365.2 311.6 364.2C312.3 363 312.7 362 313 361Z" fill="white"/>
<path d="M282.3 381.1C281.5 381.1 280.7 381.1 279.8 381C275 380.5 271.3 379 268.9 376.3C263.9 370.8 264.9 361.5 268.7 356.1L269 355.7C269.6 354.9 270.3 354.1 271 353.3C271.6 352.6 272.3 351.9 272.9 351.1C276 347 277.2 342.2 276.1 338.1C276 337.6 275.8 336.8 276.2 335.9C276.5 335.3 277 334.8 277.7 334.6C278.8 334.3 280.1 334.7 280.9 335.2C284.9 337.7 285.6 340.8 286.4 344.4L286.6 345.3C287.7 349.9 289.3 351.6 292.4 351.2C294 351 295.6 349.9 297 348.9C298.9 347.6 300.8 346.2 302.7 344.9C305.2 343.1 307.8 341.3 310.4 339.6C311.2 339.1 312.3 338.3 313.6 338.3C315.5 338.2 317.3 339.6 318 341.6C318.6 343.2 318.4 344.9 318.1 346.4C317.7 349 316.9 351.6 316.2 354.1C315.7 355.7 315.3 357.3 314.9 359L314.8 359.5C314.7 360.1 314.5 360.8 314.3 361.4C313.9 362.8 313.4 363.8 312.8 364.7C312 365.8 310.9 366.7 309.8 367.5C308.5 368.4 307.3 369.4 306.1 370.3C299.1 375.6 292 381.1 282.3 381.1ZM278.8 337.2C278.8 337.3 278.8 337.3 278.8 337.4C280.1 342.4 278.7 348 275.1 352.7C274.5 353.5 273.8 354.3 273.1 355.1C272.4 355.8 271.8 356.5 271.2 357.3L271 357.6C267.8 362.2 267 370.1 270.9 374.4C272.9 376.6 276 377.8 280.1 378.2C290 379.1 297 373.8 304.4 368.1C305.6 367.2 306.9 366.2 308.1 365.3C309.1 364.6 309.9 363.9 310.5 363.1C310.9 362.5 311.3 361.7 311.6 360.7C311.8 360.1 311.9 359.5 312 358.9L312.1 358.4C312.5 356.7 313 355.1 313.4 353.4C314.1 351 314.8 348.5 315.2 346C315.4 344.8 315.5 343.6 315.2 342.5C314.9 341.7 314.2 341 313.5 341C313 341 312.4 341.4 311.7 341.9C309.1 343.6 306.6 345.4 304.1 347.2C302.2 348.5 300.3 349.8 298.4 351.2C296.7 352.4 294.8 353.7 292.5 354C285.8 354.9 284.2 348.2 283.7 346L283.5 345.1C282.7 341.6 282.2 339.5 279.2 337.6C279.2 337.3 279 337.2 278.8 337.2Z" fill="#3C3C3B"/>
<path d="M139.4 543.1C140.6 548.2 150.1 590.9 150.9 594.6C146.4 594 127.2 591.6 122.3 591L125.5 586L141.5 624.2C139.8 621.4 117.4 585.7 116.5 584.3C120.5 584.2 140.2 583.6 144.6 583.5L139.5 590L124.4 547.3L139.4 543.1Z" fill="white"/>
<path d="M710.1 543.1C711.3 548.2 720.8 590.9 721.6 594.6C717.1 594 697.9 591.6 693 591L696.2 586L712.2 624.2C710.5 621.4 688.1 585.7 687.2 584.3C691.2 584.2 710.9 583.6 715.3 583.5L710.2 590L695.1 547.3L710.1 543.1Z" fill="white"/>
</g>
<defs>
<clipPath id="clip0_377_2401">
<rect width="833.8" height="825.6" fill="white"/>
</clipPath>
</defs>
</svg>
