<svg width="1045" height="957" viewBox="0 0 1045 957" fill="none" xmlns="http://www.w3.org/2000/svg">
<path d="M602.8 155.2C566.8 141.7 529.2 130.4 490.8 130.6C439 130.8 389.7 151.7 342.6 173.3C255.8 212.9 187.4 275 116.3 338C58.7 389 49.3 494.8 51 566.7C51.2 575.4 51.4 584.1 51.8 592.8C53 619.6 55.9 646.3 65.3 671.3C80.4 711.4 115.3 745.2 141.7 778.1C170.3 813.8 198.3 843.6 236.7 869.1C280.2 898 342.5 947.5 396.2 952C463.8 957.7 515.6 960.5 580.5 940.2C649.7 918.6 725.5 887.1 775.4 832C801.5 803.1 818.6 761.8 838 728.1C875.9 662.5 891.6 591.7 881.9 516.3C871.7 437.3 840.7 376.8 807.9 306.2C765.9 215.5 692 188.6 602.8 155.2Z" fill="#EBF2D4"/>
<path d="M125.2 580.9C118.8 580.9 113.6 575.7 113.6 569.3C113.6 562.9 118.8 557.7 125.2 557.7H184.8C185.8 552.3 186.3 546.8 186.3 541.2C186.3 537 185.7 532.1 184.5 526.6H125.2C118.8 526.6 113.6 521.4 113.6 515C113.6 508.6 118.8 503.4 125.2 503.4H177.7C174.2 493.7 169.9 483.2 165.1 472.4H125.3C118.9 472.4 113.7 467.2 113.7 460.8C113.7 454.4 118.9 449.2 125.3 449.2H154C148.9 438.7 143.5 428.3 138.1 418.2H125.2C118.8 418.2 113.6 413 113.6 406.6C113.6 400.2 118.8 395 125.2 395H125.5C107.8 363.3 93.2 339.7 93.2 339.7C93.2 339.7 78.6 363.3 60.9 395H61.2C67.6 395 72.8 400.2 72.8 406.6C72.8 413 67.6 418.2 61.2 418.2H48.2C42.8 428.3 37.4 438.8 32.3 449.2H61.2C67.6 449.2 72.8 454.4 72.8 460.8C72.8 467.2 67.6 472.4 61.2 472.4H21.3C16.4 483.2 12.1 493.7 8.7 503.4H61.2C67.6 503.4 72.8 508.6 72.8 515C72.8 521.4 67.6 526.6 61.2 526.6H1.8C0.6 532 0 536.9 0 541.1C0 546.7 0.5 552.2 1.5 557.6H61.1C67.5 557.6 72.7 562.8 72.7 569.2C72.7 575.6 67.5 580.8 61.1 580.8H8.9C23.8 612.3 55.9 634.2 93.1 634.2C130.3 634.2 162.4 612.4 177.3 580.8H125.2V580.9Z" fill="#A9C753"/>
<path d="M92.2001 724.9C90.7001 724.9 89.6001 723.7 89.6001 722.3V360.7C89.6001 359.2 90.8001 358.1 92.2001 358.1C93.6001 358.1 94.8001 359.3 94.8001 360.7V722.3C94.8001 723.8 93.6001 724.9 92.2001 724.9Z" fill="white"/>
<path d="M92.1998 719.6C90.8998 719.6 89.7998 718.5 89.7998 717.2V633.8C89.7998 632.5 90.8998 631.4 92.1998 631.4C93.4998 631.4 94.5998 632.5 94.5998 633.8V717.2C94.5998 718.6 93.4998 719.6 92.1998 719.6Z" fill="#A9C753"/>
<path d="M923.5 466.7H875C824.6 466.7 778.4 435 760.2 387.7C752.5 367.8 751.6 344.9 757.6 323.3L833.6 49.8C841.9 19.6 867.7 0 899.1 0C930.5 0 956.2 19.5 964.7 49.8C995.3 159.5 1028.2 277.5 1041 323.2C1047 344.8 1046.1 367.8 1038.4 387.7C1020.1 435 973.9 466.7 923.5 466.7ZM899.1 6.7C870.7 6.7 847.5 24.4 839.9 51.7L763.9 325.2C758.3 345.4 759.1 366.8 766.3 385.4C783.7 430 827.3 460 875 460H923.5C971.2 460 1014.8 430 1032.1 385.3C1039.3 366.7 1040.2 345.2 1034.5 325C1021.7 279.3 988.8 161.3 958.2 51.6C950.6 24.3 927.4 6.7 899.1 6.7Z" fill="#A9C753"/>
<path d="M899.201 258.8C873.101 258.8 850.601 239.3 846.901 213.6C846.601 211.8 847.901 210.1 849.701 209.8C851.501 209.5 853.201 210.8 853.501 212.6C856.801 235.1 876.401 252.1 899.201 252.1C922.001 252.1 941.601 235.1 944.901 212.6C945.201 210.8 946.801 209.5 948.701 209.8C950.501 210.1 951.801 211.8 951.501 213.6C947.801 239.4 925.301 258.8 899.201 258.8Z" fill="#A9C753"/>
<path d="M940.6 212.8C941 208.7 944.6 205.6 948.7 205.9C952.8 206.3 955.9 209.9 955.6 214C955.2 218.1 951.6 221.2 947.5 220.9C943.4 220.6 940.3 217 940.6 212.8Z" fill="#A9C753"/>
<path d="M857.8 212.8C857.5 208.7 853.8 205.6 849.7 205.9C845.6 206.3 842.5 209.9 842.8 214C843.1 218.1 846.8 221.2 850.9 220.9C855.1 220.6 858.2 217 857.8 212.8Z" fill="#A9C753"/>
<path d="M899.2 355.1C860 355.1 826.4 324.6 822.6 285.6C822.4 283.8 823.8 282.1 825.6 282C827.4 281.8 829.1 283.2 829.2 285C832.7 320.6 863.4 348.5 899.2 348.5C935 348.5 965.7 320.6 969.2 285C969.4 283.2 971 281.8 972.8 282C974.6 282.2 976 283.8 975.8 285.6C972.1 324.6 938.4 355.1 899.2 355.1Z" fill="#A9C753"/>
<path d="M965 285.3C965.2 281.2 968.7 278 972.9 278.2C977 278.4 980.2 281.9 980 286.1C979.8 290.2 976.3 293.4 972.1 293.2C968 293 964.8 289.4 965 285.3Z" fill="#A9C753"/>
<path d="M833.5 285.3C833.3 281.2 829.8 278 825.6 278.2C821.5 278.4 818.3 281.9 818.5 286.1C818.7 290.2 822.2 293.4 826.4 293.2C830.5 293 833.7 289.4 833.5 285.3Z" fill="#A9C753"/>
<path d="M899.3 643.3C897.5 643.3 896 641.8 896 640V148.9C896 147.1 897.5 145.6 899.3 145.6C901.1 145.6 902.6 147.1 902.6 148.9V640C902.6 641.8 901.1 643.3 899.3 643.3Z" fill="#A9C753"/>
<path d="M891.8 149.2C891.8 145 895.2 141.7 899.3 141.7C903.5 141.7 906.8 145.1 906.8 149.2C906.8 153.4 903.4 156.7 899.3 156.7C895.1 156.8 891.8 153.4 891.8 149.2Z" fill="#A9C753"/>
<path d="M714.2 711.1C713.7 711.1 713.2 711 712.8 710.8C711.1 710 710.4 708 711.2 706.4L779.2 564.1C787.4 546.9 804.3 536.2 823.3 536.2C842.3 536.2 859.3 546.9 867.4 564.1L902.4 637.6C903.2 639.3 902.5 641.3 900.8 642C899.1 642.8 897.1 642.1 896.4 640.4L861.4 566.9C854.3 552.1 839.7 542.8 823.3 542.8C806.9 542.8 792.2 552 785.2 566.9L717.2 709.2C716.6 710.4 715.4 711.1 714.2 711.1Z" fill="#A9C753"/>
<path d="M886.1 667.6C884.8 667.6 883.6 666.9 883 665.6C874.3 646 865 626.5 855.5 607.6C854.6 605.9 853.8 604.1 852.9 602.4C846.3 589 839.4 575.2 827.5 566.8C821.1 562.3 813.5 560.3 806 561.1C799.2 561.8 789.2 565.4 785.2 569.5C783.9 570.8 781.8 570.9 780.5 569.6C779.2 568.3 779.1 566.2 780.4 564.9C786.5 558.6 798.9 555.2 805.2 554.5C814.3 553.5 823.5 556 831.3 561.4C844.6 570.8 851.9 585.4 858.9 599.5C859.8 601.2 860.6 603 861.5 604.7C871.1 623.7 880.4 643.3 889.1 663C889.8 664.7 889.1 666.7 887.4 667.4C887 667.5 886.6 667.6 886.1 667.6Z" fill="#A9C753"/>
<path d="M871.7 696.7C870.4 696.7 869.2 696 868.7 694.8L836.3 624.3C832.2 615.4 828 606.2 821.4 599C812.7 589.4 799.9 586.4 787.2 591C783.5 592.4 779.8 594.4 776.3 596.4L767.9 601.1C766.3 602 764.3 601.4 763.4 599.8C762.5 598.2 763.1 596.2 764.7 595.3L773.1 590.6C776.8 588.5 780.7 586.3 785 584.7C800.3 579.1 815.8 582.8 826.4 594.5C833.7 602.5 838.1 612.1 842.4 621.5L874.8 692C875.6 693.7 874.8 695.7 873.2 696.4C872.7 696.6 872.2 696.7 871.7 696.7Z" fill="#A9C753"/>
<path d="M863.3 716.9C862.8 716.9 862.3 716.8 861.9 716.6C860.2 715.8 859.5 713.8 860.3 712.2L893.1 643.4C897.2 634.8 905.7 629.4 915.3 629.4C924.9 629.4 933.3 634.8 937.5 643.4L969.4 711.2C970.2 712.9 969.5 714.9 967.8 715.6C966.1 716.4 964.1 715.7 963.4 714L931.5 646.2C928.5 639.8 922.4 636 915.4 636C908.4 636 902.3 639.8 899.3 646.2L866.3 715C865.7 716.2 864.5 716.9 863.3 716.9Z" fill="#A9C753"/>
<path d="M925.9 716.4C925.8 716.4 925.6 716.4 925.5 716.4C923.7 716.2 922.4 714.5 922.6 712.7C923.9 702.9 926.5 693.3 930.5 684.2C932.1 680.5 934.8 675.4 939.7 673.5C942.7 672.3 946.1 672.5 949.7 674.1C951.4 674.8 952.1 676.8 951.4 678.5C950.7 680.2 948.7 680.9 947 680.2C945 679.3 943.5 679.2 942.1 679.7C940.2 680.5 938.4 682.8 936.6 686.8C932.9 695.3 930.4 704.3 929.2 713.5C929 715.1 927.5 716.4 925.9 716.4Z" fill="#A9C753"/>
<path d="M898.5 715.9C898.4 715.9 898.2 715.9 898.1 715.9C896.3 715.7 895 714 895.2 712.1C896.5 702.3 900.3 694.2 905.1 683.9L906.5 681C909.5 674.6 912.9 667.3 919 662.3C924.3 658 931.4 655.5 940.7 654.8C942.5 654.7 944.1 656 944.3 657.9C944.4 659.7 943.1 661.3 941.2 661.5C933.3 662.1 927.5 664.1 923.3 667.5C918.3 671.6 915.4 677.8 912.6 683.9L911.2 686.8C906.4 696.9 903 704.3 901.8 713.1C901.5 714.7 900.1 715.9 898.5 715.9Z" fill="#A9C753"/>
<path d="M817.7 713.5C816.4 713.5 815.2 712.8 814.6 711.5C813.3 708.6 812.1 705.8 810.9 702.9C804.7 688.3 798.9 674.5 787.2 663.4C779.9 656.5 771.3 652.6 763.1 652.4C748.2 652.1 738.5 666.3 730.2 681.6C729.3 683.2 727.3 683.8 725.7 682.9C724.1 682 723.5 680 724.4 678.4C730.2 667.7 742.2 645.3 763.3 645.7C773.2 645.9 783.4 650.4 791.9 658.5C804.6 670.6 810.7 685 817.2 700.2C818.4 703 819.6 705.8 820.8 708.7C821.5 710.4 820.8 712.4 819.1 713.1C818.6 713.4 818.2 713.5 817.7 713.5Z" fill="#A9C753"/>
<path d="M966.2 715.9H50.8C49 715.9 47.5 714.4 47.5 712.6C47.5 710.8 49 709.3 50.8 709.3H966.2C968 709.3 969.5 710.8 969.5 712.6C969.6 714.4 968.1 715.9 966.2 715.9Z" fill="#A9C753"/>
<path d="M594.5 851.2H328.5C326.7 851.2 325.2 849.7 325.2 847.9C325.2 846.1 326.7 844.6 328.5 844.6H594.6C596.4 844.6 597.9 846.1 597.9 847.9C597.9 849.7 596.4 851.2 594.5 851.2Z" fill="#A9C753"/>
<path d="M518.9 875.3H385.2C383.4 875.3 381.9 873.8 381.9 872C381.9 870.2 383.4 868.7 385.2 868.7H519C520.8 868.7 522.3 870.2 522.3 872C522.3 873.8 520.8 875.3 518.9 875.3Z" fill="#A9C753"/>
<path d="M776.2 268.2H159.3V286.5H776.2V268.2Z" fill="#3C3C3B"/>
<path d="M776.2 287.5H159.3C158.7 287.5 158.2 287 158.2 286.4V268.1C158.2 267.5 158.7 267 159.3 267H776.2C776.8 267 777.3 267.5 777.3 268.1V286.4C777.2 287.1 776.8 287.5 776.2 287.5ZM160.3 285.4H775.1V269.2H160.3V285.4Z" fill="#3C3C3B"/>
<path d="M779.2 701.1C571.9 701.1 364.6 701.1 157.3 701.1C150.2 738.1 141.5 771.4 135.3 808.5V818.5C356.9 818.5 578.5 818.5 800 818.5C799.7 816.8 800 808.5 800 808.5C793.3 771.1 787.2 738.3 779.2 701.1Z" fill="#848484"/>
<path d="M800.1 820.2H135.4C134.5 820.2 133.7 819.5 133.7 818.5V808.6C137.3 786.7 141.9 766 146.2 746C149.4 731.4 152.7 716.4 155.7 700.9C155.8 700.1 156.5 699.5 157.3 699.5H779.2C780 699.5 780.7 700 780.8 700.8C788.8 738.1 794.9 770.7 801.7 808.3C801.7 808.4 801.7 808.5 801.7 808.7C801.6 812.1 801.5 817.3 801.7 818.3C801.8 818.8 801.7 819.3 801.3 819.7C801.1 819.9 800.6 820.2 800.1 820.2ZM137 816.8H798.3C798.2 814.1 798.4 810 798.4 808.6C791.7 771.6 785.6 739.3 777.8 702.7H158.7C155.8 717.8 152.6 732.4 149.5 746.6C145.1 766.6 140.6 787.2 137 808.8V816.8Z" fill="#848484"/>
<path d="M779.2 691.2C571.9 691.2 364.6 691.2 157.3 691.2C149.8 730.3 141.7 769.3 135.3 808.6C356.9 808.6 578.5 808.6 800 808.6C792.9 769.5 787.5 730 779.2 691.2Z" fill="white"/>
<path d="M800.1 810.2H135.4C134.9 810.2 134.4 810 134.1 809.6C133.8 809.2 133.6 808.7 133.7 808.3C138.4 779.2 144.2 749.9 149.7 721.5C151.7 711.3 153.7 701.1 155.7 690.8C155.8 690 156.5 689.4 157.3 689.4H779.2C780 689.4 780.7 689.9 780.8 690.7C785.9 714.6 790 739.1 793.9 762.8C796.4 777.7 798.9 793.1 801.7 808.1C801.8 808.6 801.7 809.1 801.3 809.5C801.1 810 800.6 810.2 800.1 810.2ZM137.3 806.9H798.1C795.5 792.4 793 777.7 790.6 763.5C786.7 740.3 782.8 716.3 777.8 692.9H158.7C156.8 702.7 154.9 712.4 153 722.2C147.6 749.9 142 778.5 137.3 806.9Z" fill="#848484"/>
<path d="M374.1 721.3C361.3 721.3 354.8 721.3 342 721.3C342.8 714.5 343.2 711.2 343.9 704.6C356.6 704.6 362.9 704.6 375.6 704.6C375 711.2 374.7 714.5 374.1 721.3Z" fill="#A9C753"/>
<path d="M413.2 721.3C400.4 721.3 394 721.3 381.1 721.3C381.7 714.5 382 711.2 382.5 704.6C395.1 704.6 401.5 704.6 414.1 704.6C413.8 711.2 413.6 714.5 413.2 721.3Z" fill="#A9C753"/>
<path d="M452.4 721.3C439.6 721.3 433.2 721.3 420.4 721.3C420.8 714.5 420.9 711.2 421.2 704.6C433.8 704.6 440.1 704.6 452.7 704.6C452.6 711.2 452.6 714.5 452.4 721.3Z" fill="#A9C753"/>
<path d="M491.5 721.3C478.7 721.3 472.3 721.3 459.5 721.3C459.6 714.5 459.7 711.2 459.7 704.6C472.3 704.6 478.6 704.6 491.2 704.6C491.3 711.2 491.4 714.5 491.5 721.3Z" fill="#A9C753"/>
<path d="M530.9 721.3C518.1 721.3 511.7 721.3 498.9 721.3C498.8 714.5 498.7 711.2 498.5 704.6C511.1 704.6 517.4 704.6 530 704.6C530.5 711.2 530.6 714.6 530.9 721.3Z" fill="#A9C753"/>
<path d="M570.2 721.4C557.4 721.4 550.9 721.4 538.1 721.4C537.7 714.6 537.6 711.3 537.1 704.7C549.7 704.7 556.1 704.7 568.7 704.7C569.4 711.2 569.7 714.6 570.2 721.4Z" fill="#A9C753"/>
<path d="M609.4 721.4C596.5 721.4 590.1 721.4 577.3 721.4C576.7 714.6 576.4 711.2 575.8 704.7C588.5 704.7 594.8 704.7 607.5 704.7C608.3 711.2 608.7 714.6 609.4 721.4Z" fill="#A9C753"/>
<path d="M674.2 721.4C661.3 721.4 654.8 721.4 641.9 721.4C641 714.6 640.6 711.2 639.6 704.7C652.4 704.7 658.8 704.7 671.6 704.7C672.6 711.2 673.2 714.6 674.2 721.4Z" fill="#A9C753"/>
<path d="M713.9 721.4C700.9 721.4 694.4 721.4 681.4 721.4C680.4 714.6 679.8 711.2 678.7 704.7C691.6 704.7 698 704.7 710.9 704.7C712.2 711.2 712.8 714.6 713.9 721.4Z" fill="#A9C753"/>
<path d="M753.7 721.4C740.6 721.4 734.1 721.4 721.1 721.4C720 714.6 719.4 711.2 718.2 704.7C731.2 704.7 737.7 704.7 750.7 704.7C751.9 711.2 752.5 714.6 753.7 721.4Z" fill="#A9C753"/>
<path d="M677.5 744.7C664.4 744.7 657.9 744.7 644.8 744.7C644 737.7 643.5 734.2 642.7 727.3C655.7 727.3 662.1 727.3 675.1 727.3C676 734.2 676.5 737.7 677.5 744.7Z" fill="#A9C753"/>
<path d="M717.6 744.8C704.5 744.8 697.9 744.8 684.8 744.8C683.8 737.8 683.3 734.3 682.3 727.4C695.3 727.4 701.8 727.4 714.8 727.4C716 734.2 716.5 737.7 717.6 744.8Z" fill="#A9C753"/>
<path d="M757.6 744.8C744.5 744.8 737.9 744.8 724.8 744.8C723.7 737.7 723.1 734.3 722 727.4C735 727.4 741.6 727.4 754.7 727.4C755.9 734.2 756.5 737.7 757.6 744.8Z" fill="#A9C753"/>
<path d="M680.8 768.8C667.5 768.8 660.9 768.8 647.6 768.8C646.7 761.6 646.3 758 645.4 750.9C658.5 750.9 665.1 750.9 678.2 750.9C679.3 758 679.8 761.6 680.8 768.8Z" fill="#A9C753"/>
<path d="M721.3 768.8C708.1 768.8 701.5 768.8 688.2 768.8C687.2 761.6 686.7 758 685.7 750.9C698.8 750.9 705.4 750.9 718.6 750.9C719.6 758 720.2 761.6 721.3 768.8Z" fill="#A9C753"/>
<path d="M761.6 768.9C748.4 768.9 741.8 768.9 728.6 768.9C727.5 761.7 726.9 758.1 725.8 751C738.9 751 745.5 751 758.7 751C759.8 758.1 760.4 761.7 761.6 768.9Z" fill="#A9C753"/>
<path d="M684.3 793.3C670.9 793.3 664.2 793.3 650.7 793.3C649.7 786 649.3 782.4 648.4 775.1C661.7 775.1 668.4 775.1 681.7 775.1C682.7 782.4 683.2 786 684.3 793.3Z" fill="#A9C753"/>
<path d="M725.2 793.3C711.9 793.3 705.2 793.3 691.8 793.3C690.7 786 690.1 782.4 689.1 775.1C702.4 775.1 709 775.1 722.3 775.1C723.4 782.4 724 786 725.2 793.3Z" fill="#A9C753"/>
<path d="M765.7 793.3C752.5 793.3 745.8 793.3 732.5 793.3C731.3 786 730.7 782.4 729.5 775.1C742.7 775.1 749.3 775.1 762.5 775.1C763.8 782.4 764.4 786 765.7 793.3Z" fill="#A9C753"/>
<path d="M215.4 721.3C202.4 721.3 195.9 721.3 182.8 721.3C184.1 714.5 184.8 711.2 186.1 704.6C199.1 704.6 205.6 704.6 218.6 704.6C217.3 711.2 216.7 714.5 215.4 721.3Z" fill="#A9C753"/>
<path d="M255.1 721.3C242.1 721.3 235.6 721.3 222.6 721.3C223.9 714.5 224.5 711.2 225.7 704.6C238.6 704.6 245.1 704.6 257.9 704.6C256.8 711.2 256.2 714.5 255.1 721.3Z" fill="#A9C753"/>
<path d="M294.7 721.3C281.8 721.3 275.3 721.3 262.4 721.3C263.5 714.5 264.1 711.2 265.2 704.6C278 704.6 284.4 704.6 297.2 704.6C296.2 711.2 295.7 714.5 294.7 721.3Z" fill="#A9C753"/>
<path d="M334 721.3C321.1 721.3 314.7 721.3 301.8 721.3C302.8 714.5 303.3 711.2 304.2 704.6C317 704.6 323.3 704.6 336 704.6C335.2 711.2 334.8 714.5 334 721.3Z" fill="#A9C753"/>
<path d="M457.8 744.7C443.8 744.7 429.8 744.7 415.8 744.7C416.2 737.7 416.4 734.2 416.8 727.3C430.6 727.3 444.4 727.3 458.2 727.3C458.1 734.1 458 737.6 457.8 744.7Z" fill="#A9C753"/>
<path d="M509.1 744.7C495.1 744.7 481.1 744.7 467.1 744.7C467.2 737.7 467.3 734.2 467.4 727.3C481.2 727.3 495 727.3 508.8 727.3C508.9 734.2 509 737.6 509.1 744.7Z" fill="#A9C753"/>
<path d="M560.5 744.7C546.5 744.7 532.5 744.7 518.5 744.7C518.3 737.7 518.2 734.2 518 727.3C531.8 727.3 545.6 727.3 559.4 727.3C559.9 734.2 560.1 737.7 560.5 744.7Z" fill="#A9C753"/>
<path d="M611.8 744.7C597.8 744.7 583.8 744.7 569.8 744.7C569.3 737.7 569.1 734.2 568.6 727.3C582.4 727.3 596.3 727.3 610.1 727.3C610.8 734.2 611.1 737.7 611.8 744.7Z" fill="#A9C753"/>
<path d="M251.3 744.6C226.9 744.6 202.6 744.6 178.2 744.6C179.6 737.6 180.2 734.1 181.6 727.3C205.8 727.3 230 727.3 254.2 727.3C253.1 734.1 252.5 737.6 251.3 744.6Z" fill="#A9C753"/>
<path d="M302.7 744.6C288.7 744.6 274.6 744.6 260.6 744.6C261.8 737.6 262.4 734.1 263.5 727.2C277.4 727.2 291.3 727.2 305.2 727.2C304.2 734.1 303.7 737.6 302.7 744.6Z" fill="#A9C753"/>
<path d="M354.1 744.6C340.1 744.6 326.1 744.6 312.1 744.6C313.1 737.6 313.5 734.1 314.5 727.2C328.3 727.2 342.2 727.2 356 727.2C355.3 734.1 354.9 737.6 354.1 744.6Z" fill="#A9C753"/>
<path d="M405.4 744.6C391.4 744.6 377.4 744.6 363.4 744.6C364.1 737.6 364.5 734.1 365.1 727.2C378.9 727.2 392.7 727.2 406.5 727.2C406.1 734.1 405.9 737.6 405.4 744.6Z" fill="#A9C753"/>
<path d="M426 768.7C411.7 768.7 397.5 768.7 383.2 768.7C383.8 761.5 384 757.9 384.6 750.8C398.7 750.8 412.7 750.8 426.8 750.8C426.4 757.9 426.3 761.5 426 768.7Z" fill="#A9C753"/>
<path d="M478.2 768.7C463.9 768.7 449.6 768.7 435.4 768.7C435.7 761.5 435.8 757.9 436.1 750.8C450.2 750.8 464.2 750.8 478.3 750.8C478.3 757.9 478.2 761.5 478.2 768.7Z" fill="#A9C753"/>
<path d="M530.7 768.8C516.4 768.8 502.1 768.8 487.9 768.8C487.8 761.6 487.8 758 487.8 750.9C501.9 750.9 515.9 750.9 530 750.9C530.2 758 530.4 761.5 530.7 768.8Z" fill="#A9C753"/>
<path d="M614.2 768.8C589.5 768.8 564.8 768.8 540.1 768.8C539.8 761.6 539.6 758 539.3 750.9C563.7 750.9 588.1 750.9 612.5 750.9C613.1 758 613.5 761.6 614.2 768.8Z" fill="#A9C753"/>
<path d="M216.1 768.6C202 768.6 187.8 768.6 173.7 768.6C175 761.4 175.7 757.8 177.1 750.7C191.2 750.7 205.3 750.7 219.3 750.7C218 757.8 217.4 761.4 216.1 768.6Z" fill="#A9C753"/>
<path d="M268.1 768.6C253.9 768.6 239.7 768.6 225.5 768.6C226.7 761.4 227.4 757.8 228.6 750.7C242.7 750.7 256.799 750.7 270.799 750.7C269.699 757.8 269.2 761.4 268.1 768.6Z" fill="#A9C753"/>
<path d="M320.3 768.7C306.1 768.7 291.8 768.7 277.6 768.7C278.7 761.5 279.2 757.9 280.3 750.8C294.4 750.8 308.4 750.8 322.5 750.8C321.6 757.9 321.2 761.4 320.3 768.7Z" fill="#A9C753"/>
<path d="M372.5 768.7C358.2 768.7 344 768.7 329.7 768.7C330.5 761.5 331 757.9 331.8 750.8C345.9 750.8 359.9 750.8 374 750.8C373.4 757.9 373.1 761.5 372.5 768.7Z" fill="#A9C753"/>
<path d="M457.1 793.2C442.5 793.2 428 793.2 413.4 793.2C413.7 785.9 413.8 782.2 414.2 775C428.5 775 442.9 775 457.2 775C457.1 782.3 457.1 785.9 457.1 793.2Z" fill="#A9C753"/>
<path d="M510.4 793.3C495.8 793.3 481.3 793.3 466.7 793.3C466.7 786 466.7 782.3 466.7 775.1C481.1 775.1 495.4 775.1 509.8 775.1C510 782.3 510.1 785.9 510.4 793.3Z" fill="#A9C753"/>
<path d="M563.8 793.3C549.3 793.3 534.7 793.3 520.2 793.3C519.9 786 519.7 782.3 519.5 775.1C533.8 775.1 548.2 775.1 562.5 775.1C562.9 782.3 563.2 786 563.8 793.3Z" fill="#A9C753"/>
<path d="M616.8 793.3C602.3 793.3 587.8 793.3 573.3 793.3C572.7 786 572.4 782.3 571.9 775.1C586.2 775.1 600.5 775.1 614.8 775.1C615.6 782.3 616 786 616.8 793.3Z" fill="#A9C753"/>
<path d="M243.5 793.2C218.8 793.2 194.1 793.2 169.4 793.2C170.6 785.8 171.3 782.2 172.6 774.9C197.2 774.9 221.8 774.9 246.3 774.9C245.2 782.2 244.6 785.8 243.5 793.2Z" fill="#A9C753"/>
<path d="M296.2 793.2C281.8 793.2 267.4 793.2 253 793.2C254 785.9 254.6 782.2 255.7 774.9C270 774.9 284.2 774.9 298.5 774.9C297.6 782.2 297.1 785.9 296.2 793.2Z" fill="#A9C753"/>
<path d="M349.4 793.2C334.9 793.2 320.4 793.2 306 793.2C306.8 785.9 307.3 782.2 308.2 775C322.5 775 336.8 775 351.1 775C350.3 782.2 350 785.9 349.4 793.2Z" fill="#A9C753"/>
<path d="M402.6 793.2C388.1 793.2 373.5 793.2 359 793.2C359.6 785.9 359.9 782.2 360.5 775C374.8 775 389.2 775 403.5 775C403.1 782.2 402.9 785.9 402.6 793.2Z" fill="#A9C753"/>
<path d="M776.2 286.5H159.3V690.3H776.2V286.5Z" fill="#3C3C3C"/>
<path d="M773.3 289.3V687.4H162.1V289.3H773.3ZM776.2 286.5H159.3V690.3H776.2V286.5Z" fill="#828282"/>
<path d="M776.2 286.5H159.3V690.3H776.2V286.5Z" fill="white"/>
<path d="M776.2 692H159.3C158.4 692 157.6 691.3 157.6 690.3V286.5C157.6 285.6 158.3 284.8 159.3 284.8H776.2C777.1 284.8 777.9 285.5 777.9 286.5V690.3C777.9 691.2 777.1 692 776.2 692ZM160.9 688.6H774.5V288.1H160.9V688.6Z" fill="#848484"/>
<path d="M776.2 286.5H159.3V690.3H776.2V286.5Z" fill="white"/>
<path d="M776.2 692H159.3C158.4 692 157.6 691.3 157.6 690.3V286.5C157.6 285.6 158.3 284.8 159.3 284.8H776.2C777.1 284.8 777.9 285.5 777.9 286.5V690.3C777.9 691.2 777.1 692 776.2 692ZM160.9 688.6H774.5V288.1H160.9V688.6Z" fill="#848484"/>
<path d="M745.9 331.1H391.3V621.9H745.9V331.1Z" fill="#C7C7C7"/>
<path d="M718.799 403.5H433.899V404.9H718.799V403.5Z" fill="white"/>
<path d="M718.799 429.1H433.899V430.5H718.799V429.1Z" fill="white"/>
<path d="M718.799 454.5H433.899V455.9H718.799V454.5Z" fill="white"/>
<path d="M718.799 480.1H433.899V481.5H718.799V480.1Z" fill="white"/>
<path d="M718.799 505.8H433.899V507.2H718.799V505.8Z" fill="white"/>
<path d="M718.799 531.4H433.899V532.8H718.799V531.4Z" fill="white"/>
<path d="M718.799 556.8H433.899V558.2H718.799V556.8Z" fill="white"/>
<path d="M497.7 478.5C498.859 478.5 499.8 477.56 499.8 476.4C499.8 475.24 498.859 474.3 497.7 474.3C496.54 474.3 495.6 475.24 495.6 476.4C495.6 477.56 496.54 478.5 497.7 478.5Z" fill="#006D68"/>
<path d="M605.3 415.1C606.459 415.1 607.4 414.16 607.4 413C607.4 411.84 606.459 410.9 605.3 410.9C604.14 410.9 603.2 411.84 603.2 413C603.2 414.16 604.14 415.1 605.3 415.1Z" fill="#006D68"/>
<path d="M548.9 495.8C550.06 495.8 551 494.86 551 493.7C551 492.54 550.06 491.6 548.9 491.6C547.74 491.6 546.8 492.54 546.8 493.7C546.8 494.86 547.74 495.8 548.9 495.8Z" fill="#006D68"/>
<path d="M505 421.4C506.16 421.4 507.1 420.46 507.1 419.3C507.1 418.14 506.16 417.2 505 417.2C503.84 417.2 502.9 418.14 502.9 419.3C502.9 420.46 503.84 421.4 505 421.4Z" fill="#006D68"/>
<path d="M584.7 515.6C585.859 515.6 586.8 514.66 586.8 513.5C586.8 512.34 585.859 511.4 584.7 511.4C583.54 511.4 582.6 512.34 582.6 513.5C582.6 514.66 583.54 515.6 584.7 515.6Z" fill="#006D68"/>
<path d="M613.2 427.7C614.359 427.7 615.3 426.76 615.3 425.6C615.3 424.44 614.359 423.5 613.2 423.5C612.04 423.5 611.1 424.44 611.1 425.6C611.1 426.76 612.04 427.7 613.2 427.7Z" fill="#006D68"/>
<path d="M576.7 470.5C577.859 470.5 578.8 469.56 578.8 468.4C578.8 467.24 577.859 466.3 576.7 466.3C575.54 466.3 574.6 467.24 574.6 468.4C574.6 469.56 575.54 470.5 576.7 470.5Z" fill="#006D68"/>
<path d="M514.099 479.1C515.259 479.1 516.2 478.16 516.2 477C516.2 475.84 515.259 474.9 514.099 474.9C512.94 474.9 512 475.84 512 477C512 478.16 512.94 479.1 514.099 479.1Z" fill="#006D68"/>
<path d="M604.099 444.8C605.259 444.8 606.2 443.86 606.2 442.7C606.2 441.54 605.259 440.6 604.099 440.6C602.94 440.6 602 441.54 602 442.7C602 443.86 602.94 444.8 604.099 444.8Z" fill="#006D68"/>
<path d="M565.3 496.4C566.459 496.4 567.4 495.46 567.4 494.3C567.4 493.14 566.459 492.2 565.3 492.2C564.14 492.2 563.2 493.14 563.2 494.3C563.2 495.46 564.14 496.4 565.3 496.4Z" fill="#006D68"/>
<path d="M521.4 422C522.56 422 523.5 421.06 523.5 419.9C523.5 418.74 522.56 417.8 521.4 417.8C520.24 417.8 519.3 418.74 519.3 419.9C519.3 421.06 520.24 422 521.4 422Z" fill="#006D68"/>
<path d="M617.5 510.8C618.66 510.8 619.6 509.86 619.6 508.7C619.6 507.54 618.66 506.6 617.5 506.6C616.34 506.6 615.4 507.54 615.4 508.7C615.4 509.86 616.34 510.8 617.5 510.8Z" fill="#006D68"/>
<path d="M641.2 425.6C642.359 425.6 643.3 424.66 643.3 423.5C643.3 422.34 642.359 421.4 641.2 421.4C640.04 421.4 639.1 422.34 639.1 423.5C639.1 424.66 640.04 425.6 641.2 425.6Z" fill="#006D68"/>
<path d="M593.099 471.1C594.259 471.1 595.2 470.16 595.2 469C595.2 467.84 594.259 466.9 593.099 466.9C591.94 466.9 591 467.84 591 469C591 470.16 591.94 471.1 593.099 471.1Z" fill="#006D68"/>
<path d="M567.4 522.9C568.56 522.9 569.5 521.96 569.5 520.8C569.5 519.64 568.56 518.7 567.4 518.7C566.24 518.7 565.3 519.64 565.3 520.8C565.3 521.96 566.24 522.9 567.4 522.9Z" fill="#006D68"/>
<path d="M505.7 491.4C506.859 491.4 507.8 490.46 507.8 489.3C507.8 488.14 506.859 487.2 505.7 487.2C504.54 487.2 503.6 488.14 503.6 489.3C503.6 490.46 504.54 491.4 505.7 491.4Z" fill="#006D68"/>
<path d="M594.599 442.7C595.759 442.7 596.7 441.76 596.7 440.6C596.7 439.44 595.759 438.5 594.599 438.5C593.44 438.5 592.5 439.44 592.5 440.6C592.5 441.76 593.44 442.7 594.599 442.7Z" fill="#006D68"/>
<path d="M556.9 508.7C558.06 508.7 559 507.76 559 506.6C559 505.44 558.06 504.5 556.9 504.5C555.74 504.5 554.8 505.44 554.8 506.6C554.8 507.76 555.74 508.7 556.9 508.7Z" fill="#006D68"/>
<path d="M513 434.3C514.16 434.3 515.1 433.36 515.1 432.2C515.1 431.04 514.16 430.1 513 430.1C511.84 430.1 510.9 431.04 510.9 432.2C510.9 433.36 511.84 434.3 513 434.3Z" fill="#006D68"/>
<path d="M596.7 535.8C597.859 535.8 598.8 534.86 598.8 533.7C598.8 532.54 597.859 531.6 596.7 531.6C595.54 531.6 594.6 532.54 594.6 533.7C594.6 534.86 595.54 535.8 596.7 535.8Z" fill="#006D68"/>
<path d="M630.7 442.7C631.859 442.7 632.8 441.76 632.8 440.6C632.8 439.44 631.859 438.5 630.7 438.5C629.54 438.5 628.6 439.44 628.6 440.6C628.6 441.76 629.54 442.7 630.7 442.7Z" fill="#006D68"/>
<path d="M584.7 483.4C585.859 483.4 586.8 482.46 586.8 481.3C586.8 480.14 585.859 479.2 584.7 479.2C583.54 479.2 582.6 480.14 582.6 481.3C582.6 482.46 583.54 483.4 584.7 483.4Z" fill="#006D68"/>
<path d="M564.2 463.4C565.359 463.4 566.3 462.46 566.3 461.3C566.3 460.14 565.359 459.2 564.2 459.2C563.04 459.2 562.1 460.14 562.1 461.3C562.1 462.46 563.04 463.4 564.2 463.4Z" fill="#006D68"/>
<path d="M563.2 475.2C564.359 475.2 565.3 474.26 565.3 473.1C565.3 471.94 564.359 471 563.2 471C562.04 471 561.1 471.94 561.1 473.1C561.1 474.26 562.04 475.2 563.2 475.2Z" fill="#006D68"/>
<path d="M554.8 487.5C555.959 487.5 556.9 486.56 556.9 485.4C556.9 484.24 555.959 483.3 554.8 483.3C553.64 483.3 552.7 484.24 552.7 485.4C552.7 486.56 553.64 487.5 554.8 487.5Z" fill="#006D68"/>
<path d="M566.3 487.9C567.459 487.9 568.4 486.96 568.4 485.8C568.4 484.64 567.459 483.7 566.3 483.7C565.14 483.7 564.2 484.64 564.2 485.8C564.2 486.96 565.14 487.9 566.3 487.9Z" fill="#006D68"/>
<path d="M572.099 480.6C573.259 480.6 574.2 479.66 574.2 478.5C574.2 477.34 573.259 476.4 572.099 476.4C570.94 476.4 570 477.34 570 478.5C570 479.66 570.94 480.6 572.099 480.6Z" fill="#006D68"/>
<path d="M557.8 500.2C558.959 500.2 559.9 499.26 559.9 498.1C559.9 496.94 558.959 496 557.8 496C556.64 496 555.7 496.94 555.7 498.1C555.7 499.26 556.64 500.2 557.8 500.2Z" fill="#006D68"/>
<path d="M574.2 500.8C575.359 500.8 576.3 499.86 576.3 498.7C576.3 497.54 575.359 496.6 574.2 496.6C573.04 496.6 572.1 497.54 572.1 498.7C572.1 499.86 573.04 500.8 574.2 500.8Z" fill="#006D68"/>
<path d="M649 406.3C650.16 406.3 651.1 405.36 651.1 404.2C651.1 403.04 650.16 402.1 649 402.1C647.84 402.1 646.9 403.04 646.9 404.2C646.9 405.36 647.84 406.3 649 406.3Z" fill="#006D68"/>
<path d="M641.2 461.9C642.359 461.9 643.3 460.96 643.3 459.8C643.3 458.64 642.359 457.7 641.2 457.7C640.04 457.7 639.1 458.64 639.1 459.8C639.1 460.96 640.04 461.9 641.2 461.9Z" fill="#006D68"/>
<path d="M619.599 448.6C620.759 448.6 621.7 447.66 621.7 446.5C621.7 445.34 620.759 444.4 619.599 444.4C618.44 444.4 617.5 445.34 617.5 446.5C617.5 447.66 618.44 448.6 619.599 448.6Z" fill="#006D68"/>
<path d="M574.3 444.8C575.459 444.8 576.4 443.86 576.4 442.7C576.4 441.54 575.459 440.6 574.3 440.6C573.14 440.6 572.2 441.54 572.2 442.7C572.2 443.86 573.14 444.8 574.3 444.8Z" fill="#006D68"/>
<path d="M630.7 419.3C631.859 419.3 632.8 418.36 632.8 417.2C632.8 416.04 631.859 415.1 630.7 415.1C629.54 415.1 628.6 416.04 628.6 417.2C628.6 418.36 629.54 419.3 630.7 419.3Z" fill="#006D68"/>
<path d="M655.3 421.4C656.459 421.4 657.4 420.46 657.4 419.3C657.4 418.14 656.459 417.2 655.3 417.2C654.14 417.2 653.2 418.14 653.2 419.3C653.2 420.46 654.14 421.4 655.3 421.4Z" fill="#006D68"/>
<path d="M572.5 494.3C573.66 494.3 574.6 493.36 574.6 492.2C574.6 491.04 573.66 490.1 572.5 490.1C571.34 490.1 570.4 491.04 570.4 492.2C570.4 493.36 571.34 494.3 572.5 494.3Z" fill="#006D68"/>
<path d="M598.2 469C599.359 469 600.3 468.06 600.3 466.9C600.3 465.74 599.359 464.8 598.2 464.8C597.04 464.8 596.1 465.74 596.1 466.9C596.1 468.06 597.04 469 598.2 469Z" fill="#006D68"/>
<path d="M586.8 494.9C587.959 494.9 588.9 493.96 588.9 492.8C588.9 491.64 587.959 490.7 586.8 490.7C585.64 490.7 584.7 491.64 584.7 492.8C584.7 493.96 585.64 494.9 586.8 494.9Z" fill="#006D68"/>
<path d="M614.599 469.6C615.759 469.6 616.7 468.66 616.7 467.5C616.7 466.34 615.759 465.4 614.599 465.4C613.44 465.4 612.5 466.34 612.5 467.5C612.5 468.66 613.44 469.6 614.599 469.6Z" fill="#006D68"/>
<path d="M606.2 481.9C607.359 481.9 608.3 480.96 608.3 479.8C608.3 478.64 607.359 477.7 606.2 477.7C605.04 477.7 604.1 478.64 604.1 479.8C604.1 480.96 605.04 481.9 606.2 481.9Z" fill="#006D68"/>
<path d="M585.7 461.9C586.859 461.9 587.8 460.96 587.8 459.8C587.8 458.64 586.859 457.7 585.7 457.7C584.54 457.7 583.6 458.64 583.6 459.8C583.6 460.96 584.54 461.9 585.7 461.9Z" fill="#006D68"/>
<path d="M584.7 473.7C585.859 473.7 586.8 472.76 586.8 471.6C586.8 470.44 585.859 469.5 584.7 469.5C583.54 469.5 582.6 470.44 582.6 471.6C582.6 472.76 583.54 473.7 584.7 473.7Z" fill="#006D68"/>
<path d="M576.3 486C577.459 486 578.4 485.06 578.4 483.9C578.4 482.74 577.459 481.8 576.3 481.8C575.14 481.8 574.2 482.74 574.2 483.9C574.2 485.06 575.14 486 576.3 486Z" fill="#006D68"/>
<path d="M591 490.9C592.16 490.9 593.1 489.96 593.1 488.8C593.1 487.64 592.16 486.7 591 486.7C589.84 486.7 588.9 487.64 588.9 488.8C588.9 489.96 589.84 490.9 591 490.9Z" fill="#006D68"/>
<path d="M593.7 479.1C594.859 479.1 595.8 478.16 595.8 477C595.8 475.84 594.859 474.9 593.7 474.9C592.54 474.9 591.6 475.84 591.6 477C591.6 478.16 592.54 479.1 593.7 479.1Z" fill="#006D68"/>
<path d="M582.599 504.2C583.759 504.2 584.7 503.26 584.7 502.1C584.7 500.94 583.759 500 582.599 500C581.44 500 580.5 500.94 580.5 502.1C580.5 503.26 581.44 504.2 582.599 504.2Z" fill="#006D68"/>
<path d="M595.8 499.3C596.959 499.3 597.9 498.36 597.9 497.2C597.9 496.04 596.959 495.1 595.8 495.1C594.64 495.1 593.7 496.04 593.7 497.2C593.7 498.36 594.64 499.3 595.8 499.3Z" fill="#006D68"/>
<path d="M475.3 507.9C476.459 507.9 477.4 506.96 477.4 505.8C477.4 504.64 476.459 503.7 475.3 503.7C474.14 503.7 473.2 504.64 473.2 505.8C473.2 506.96 474.14 507.9 475.3 507.9Z" fill="#006D68"/>
<path d="M482.6 450.7C483.759 450.7 484.7 449.76 484.7 448.6C484.7 447.44 483.759 446.5 482.6 446.5C481.44 446.5 480.5 447.44 480.5 448.6C480.5 449.76 481.44 450.7 482.6 450.7Z" fill="#006D68"/>
<path d="M489.6 492.2C490.759 492.2 491.7 491.26 491.7 490.1C491.7 488.94 490.759 488 489.6 488C488.44 488 487.5 488.94 487.5 490.1C487.5 491.26 488.44 492.2 489.6 492.2Z" fill="#006D68"/>
<path d="M504.6 465.5C505.759 465.5 506.7 464.56 506.7 463.4C506.7 462.24 505.759 461.3 504.6 461.3C503.44 461.3 502.5 462.24 502.5 463.4C502.5 464.56 503.44 465.5 504.6 465.5Z" fill="#006D68"/>
<path d="M483.3 520.8C484.459 520.8 485.4 519.86 485.4 518.7C485.4 517.54 484.459 516.6 483.3 516.6C482.14 516.6 481.2 517.54 481.2 518.7C481.2 519.86 482.14 520.8 483.3 520.8Z" fill="#006D68"/>
<path d="M490.6 463.6C491.759 463.6 492.7 462.66 492.7 461.5C492.7 460.34 491.759 459.4 490.6 459.4C489.44 459.4 488.5 460.34 488.5 461.5C488.5 462.66 489.44 463.6 490.6 463.6Z" fill="#006D68"/>
<path d="M540.599 486.7C541.759 486.7 542.7 485.76 542.7 484.6C542.7 483.44 541.759 482.5 540.599 482.5C539.44 482.5 538.5 483.44 538.5 484.6C538.5 485.76 539.44 486.7 540.599 486.7Z" fill="#006D68"/>
<path d="M548.5 499.3C549.66 499.3 550.6 498.36 550.6 497.2C550.6 496.04 549.66 495.1 548.5 495.1C547.34 495.1 546.4 496.04 546.4 497.2C546.4 498.36 547.34 499.3 548.5 499.3Z" fill="#006D68"/>
<path d="M552.7 473.8C553.859 473.8 554.8 472.86 554.8 471.7C554.8 470.54 553.859 469.6 552.7 469.6C551.54 469.6 550.6 470.54 550.6 471.7C550.6 472.86 551.54 473.8 552.7 473.8Z" fill="#006D68"/>
<path d="M576.4 497.2C577.56 497.2 578.5 496.26 578.5 495.1C578.5 493.94 577.56 493 576.4 493C575.24 493 574.3 493.94 574.3 495.1C574.3 496.26 575.24 497.2 576.4 497.2Z" fill="#006D68"/>
<path d="M565.9 514.3C567.06 514.3 568 513.36 568 512.2C568 511.04 567.06 510.1 565.9 510.1C564.74 510.1 563.8 511.04 563.8 512.2C563.8 513.36 564.74 514.3 565.9 514.3Z" fill="#006D68"/>
<path d="M584.2 477.9C585.359 477.9 586.3 476.96 586.3 475.8C586.3 474.64 585.359 473.7 584.2 473.7C583.04 473.7 582.1 474.64 582.1 475.8C582.1 476.96 583.04 477.9 584.2 477.9Z" fill="#006D68"/>
<path d="M608.099 473.8C609.259 473.8 610.2 472.86 610.2 471.7C610.2 470.54 609.259 469.6 608.099 469.6C606.94 469.6 606 470.54 606 471.7C606 472.86 606.94 473.8 608.099 473.8Z" fill="#006D68"/>
<path d="M600.3 459.6C601.459 459.6 602.4 458.66 602.4 457.5C602.4 456.34 601.459 455.4 600.3 455.4C599.14 455.4 598.2 456.34 598.2 457.5C598.2 458.66 599.14 459.6 600.3 459.6Z" fill="#006D68"/>
<path d="M622.4 461.7C623.56 461.7 624.5 460.76 624.5 459.6C624.5 458.44 623.56 457.5 622.4 457.5C621.24 457.5 620.3 458.44 620.3 459.6C620.3 460.76 621.24 461.7 622.4 461.7Z" fill="#006D68"/>
<path d="M565.9 490.9C567.06 490.9 568 489.96 568 488.8C568 487.64 567.06 486.7 565.9 486.7C564.74 486.7 563.8 487.64 563.8 488.8C563.8 489.96 564.74 490.9 565.9 490.9Z" fill="#006D68"/>
<path d="M598.2 489.3C599.359 489.3 600.3 488.36 600.3 487.2C600.3 486.04 599.359 485.1 598.2 485.1C597.04 485.1 596.1 486.04 596.1 487.2C596.1 488.36 597.04 489.3 598.2 489.3Z" fill="#006D68"/>
<path d="M549.8 541.2C550.959 541.2 551.9 540.26 551.9 539.1C551.9 537.94 550.959 537 549.8 537C548.64 537 547.7 537.94 547.7 539.1C547.7 540.26 548.64 541.2 549.8 541.2Z" fill="#006D68"/>
<path d="M650.4 505.9C651.56 505.9 652.5 504.96 652.5 503.8C652.5 502.64 651.56 501.7 650.4 501.7C649.24 501.7 648.3 502.64 648.3 503.8C648.3 504.96 649.24 505.9 650.4 505.9Z" fill="#006D68"/>
<path d="M657.7 448.8C658.859 448.8 659.8 447.86 659.8 446.7C659.8 445.54 658.859 444.6 657.7 444.6C656.54 444.6 655.6 445.54 655.6 446.7C655.6 447.86 656.54 448.8 657.7 448.8Z" fill="#006D68"/>
<path d="M689.3 471.1C690.459 471.1 691.4 470.16 691.4 469C691.4 467.84 690.459 466.9 689.3 466.9C688.14 466.9 687.2 467.84 687.2 469C687.2 470.16 688.14 471.1 689.3 471.1Z" fill="#006D68"/>
<path d="M674.099 449.3C675.259 449.3 676.2 448.36 676.2 447.2C676.2 446.04 675.259 445.1 674.099 445.1C672.94 445.1 672 446.04 672 447.2C672 448.36 672.94 449.3 674.099 449.3Z" fill="#006D68"/>
<path d="M658.4 518.8C659.56 518.8 660.5 517.86 660.5 516.7C660.5 515.54 659.56 514.6 658.4 514.6C657.24 514.6 656.3 515.54 656.3 516.7C656.3 517.86 657.24 518.8 658.4 518.8Z" fill="#006D68"/>
<path d="M665.7 461.7C666.859 461.7 667.8 460.76 667.8 459.6C667.8 458.44 666.859 457.5 665.7 457.5C664.54 457.5 663.6 458.44 663.6 459.6C663.6 460.76 664.54 461.7 665.7 461.7Z" fill="#006D68"/>
<path d="M628 535.2C629.16 535.2 630.1 534.26 630.1 533.1C630.1 531.94 629.16 531 628 531C626.84 531 625.9 531.94 625.9 533.1C625.9 534.26 626.84 535.2 628 535.2Z" fill="#006D68"/>
<path d="M635.3 478.1C636.459 478.1 637.4 477.16 637.4 476C637.4 474.84 636.459 473.9 635.3 473.9C634.14 473.9 633.2 474.84 633.2 476C633.2 477.16 634.14 478.1 635.3 478.1Z" fill="#006D68"/>
<path d="M642.3 519.6C643.459 519.6 644.4 518.66 644.4 517.5C644.4 516.34 643.459 515.4 642.3 515.4C641.14 515.4 640.2 516.34 640.2 517.5C640.2 518.66 641.14 519.6 642.3 519.6Z" fill="#006D68"/>
<path d="M657.3 492.9C658.459 492.9 659.4 491.96 659.4 490.8C659.4 489.64 658.459 488.7 657.3 488.7C656.14 488.7 655.2 489.64 655.2 490.8C655.2 491.96 656.14 492.9 657.3 492.9Z" fill="#006D68"/>
<path d="M636 548.1C637.16 548.1 638.1 547.16 638.1 546C638.1 544.84 637.16 543.9 636 543.9C634.84 543.9 633.9 544.84 633.9 546C633.9 547.16 634.84 548.1 636 548.1Z" fill="#006D68"/>
<path d="M643.3 491C644.459 491 645.4 490.06 645.4 488.9C645.4 487.74 644.459 486.8 643.3 486.8C642.14 486.8 641.2 487.74 641.2 488.9C641.2 490.06 642.14 491 643.3 491Z" fill="#006D68"/>
<path d="M534.5 511.1C535.66 511.1 536.6 510.16 536.6 509C536.6 507.84 535.66 506.9 534.5 506.9C533.34 506.9 532.4 507.84 532.4 509C532.4 510.16 533.34 511.1 534.5 511.1Z" fill="#006D68"/>
<path d="M550.9 511.6C552.06 511.6 553 510.66 553 509.5C553 508.34 552.06 507.4 550.9 507.4C549.74 507.4 548.8 508.34 548.8 509.5C548.8 510.66 549.74 511.6 550.9 511.6Z" fill="#006D68"/>
<path d="M515.5 529.5C516.66 529.5 517.6 528.56 517.6 527.4C517.6 526.24 516.66 525.3 515.5 525.3C514.34 525.3 513.4 526.24 513.4 527.4C513.4 528.56 514.34 529.5 515.5 529.5Z" fill="#006D68"/>
<path d="M543.2 504.2C544.359 504.2 545.3 503.26 545.3 502.1C545.3 500.94 544.359 500 543.2 500C542.04 500 541.1 500.94 541.1 502.1C541.1 503.26 542.04 504.2 543.2 504.2Z" fill="#006D68"/>
<path d="M531.9 530.1C533.06 530.1 534 529.16 534 528C534 526.84 533.06 525.9 531.9 525.9C530.74 525.9 529.8 526.84 529.8 528C529.8 529.16 530.74 530.1 531.9 530.1Z" fill="#006D68"/>
<path d="M559.599 504.8C560.759 504.8 561.7 503.86 561.7 502.7C561.7 501.54 560.759 500.6 559.599 500.6C558.44 500.6 557.5 501.54 557.5 502.7C557.5 503.86 558.44 504.8 559.599 504.8Z" fill="#006D68"/>
<path d="M561.2 476.4C562.359 476.4 563.3 475.46 563.3 474.3C563.3 473.14 562.359 472.2 561.2 472.2C560.04 472.2 559.1 473.14 559.1 474.3C559.1 475.46 560.04 476.4 561.2 476.4Z" fill="#006D68"/>
<path d="M523.4 542.4C524.56 542.4 525.5 541.46 525.5 540.3C525.5 539.14 524.56 538.2 523.4 538.2C522.24 538.2 521.3 539.14 521.3 540.3C521.3 541.46 522.24 542.4 523.4 542.4Z" fill="#006D68"/>
<path d="M551.2 517.1C552.359 517.1 553.3 516.16 553.3 515C553.3 513.84 552.359 512.9 551.2 512.9C550.04 512.9 549.1 513.84 549.1 515C549.1 516.16 550.04 517.1 551.2 517.1Z" fill="#006D68"/>
<path d="M539.099 498.5C540.259 498.5 541.2 497.56 541.2 496.4C541.2 495.24 540.259 494.3 539.099 494.3C537.94 494.3 537 495.24 537 496.4C537 497.56 537.94 498.5 539.099 498.5Z" fill="#006D68"/>
<path d="M534.9 502.1C536.06 502.1 537 501.16 537 500C537 498.84 536.06 497.9 534.9 497.9C533.74 497.9 532.8 498.84 532.8 500C532.8 501.16 533.74 502.1 534.9 502.1Z" fill="#006D68"/>
<path d="M521.3 521.2C522.459 521.2 523.4 520.26 523.4 519.1C523.4 517.94 522.459 517 521.3 517C520.14 517 519.2 517.94 519.2 519.1C519.2 520.26 520.14 521.2 521.3 521.2Z" fill="#006D68"/>
<path d="M532.8 521.5C533.959 521.5 534.9 520.56 534.9 519.4C534.9 518.24 533.959 517.3 532.8 517.3C531.64 517.3 530.7 518.24 530.7 519.4C530.7 520.56 531.64 521.5 532.8 521.5Z" fill="#006D68"/>
<path d="M538.7 514.3C539.859 514.3 540.8 513.36 540.8 512.2C540.8 511.04 539.859 510.1 538.7 510.1C537.54 510.1 536.6 511.04 536.6 512.2C536.6 513.36 537.54 514.3 538.7 514.3Z" fill="#006D68"/>
<path d="M524.4 533.9C525.56 533.9 526.5 532.96 526.5 531.8C526.5 530.64 525.56 529.7 524.4 529.7C523.24 529.7 522.3 530.64 522.3 531.8C522.3 532.96 523.24 533.9 524.4 533.9Z" fill="#006D68"/>
<path d="M540.8 534.4C541.959 534.4 542.9 533.46 542.9 532.3C542.9 531.14 541.959 530.2 540.8 530.2C539.64 530.2 538.7 531.14 538.7 532.3C538.7 533.46 539.64 534.4 540.8 534.4Z" fill="#006D68"/>
<path d="M539.099 528C540.259 528 541.2 527.06 541.2 525.9C541.2 524.74 540.259 523.8 539.099 523.8C537.94 523.8 537 524.74 537 525.9C537 527.06 537.94 528 539.099 528Z" fill="#006D68"/>
<path d="M564.8 502.7C565.959 502.7 566.9 501.76 566.9 500.6C566.9 499.44 565.959 498.5 564.8 498.5C563.64 498.5 562.7 499.44 562.7 500.6C562.7 501.76 563.64 502.7 564.8 502.7Z" fill="#006D68"/>
<path d="M553.4 528.6C554.56 528.6 555.5 527.66 555.5 526.5C555.5 525.34 554.56 524.4 553.4 524.4C552.24 524.4 551.3 525.34 551.3 526.5C551.3 527.66 552.24 528.6 553.4 528.6Z" fill="#006D68"/>
<path d="M572.7 515.6C573.859 515.6 574.8 514.66 574.8 513.5C574.8 512.34 573.859 511.4 572.7 511.4C571.54 511.4 570.6 512.34 570.6 513.5C570.6 514.66 571.54 515.6 572.7 515.6Z" fill="#006D68"/>
<path d="M552.2 495.6C553.359 495.6 554.3 494.66 554.3 493.5C554.3 492.34 553.359 491.4 552.2 491.4C551.04 491.4 550.1 492.34 550.1 493.5C550.1 494.66 551.04 495.6 552.2 495.6Z" fill="#006D68"/>
<path d="M551.3 507.4C552.459 507.4 553.4 506.46 553.4 505.3C553.4 504.14 552.459 503.2 551.3 503.2C550.14 503.2 549.2 504.14 549.2 505.3C549.2 506.46 550.14 507.4 551.3 507.4Z" fill="#006D68"/>
<path d="M542.9 519.7C544.06 519.7 545 518.76 545 517.6C545 516.44 544.06 515.5 542.9 515.5C541.74 515.5 540.8 516.44 540.8 517.6C540.8 518.76 541.74 519.7 542.9 519.7Z" fill="#006D68"/>
<path d="M554.3 520.1C555.459 520.1 556.4 519.16 556.4 518C556.4 516.84 555.459 515.9 554.3 515.9C553.14 515.9 552.2 516.84 552.2 518C552.2 519.16 553.14 520.1 554.3 520.1Z" fill="#006D68"/>
<path d="M560.2 512.8C561.359 512.8 562.3 511.86 562.3 510.7C562.3 509.54 561.359 508.6 560.2 508.6C559.04 508.6 558.1 509.54 558.1 510.7C558.1 511.86 559.04 512.8 560.2 512.8Z" fill="#006D68"/>
<path d="M545.9 532.4C547.06 532.4 548 531.46 548 530.3C548 529.14 547.06 528.2 545.9 528.2C544.74 528.2 543.8 529.14 543.8 530.3C543.8 531.46 544.74 532.4 545.9 532.4Z" fill="#006D68"/>
<path d="M562.3 533C563.459 533 564.4 532.06 564.4 530.9C564.4 529.74 563.459 528.8 562.3 528.8C561.14 528.8 560.2 529.74 560.2 530.9C560.2 532.06 561.14 533 562.3 533Z" fill="#006D68"/>
<path d="M534.9 490.9C536.06 490.9 537 489.96 537 488.8C537 487.64 536.06 486.7 534.9 486.7C533.74 486.7 532.8 487.64 532.8 488.8C532.8 489.96 533.74 490.9 534.9 490.9Z" fill="#006D68"/>
<path d="M515 533C516.16 533 517.1 532.06 517.1 530.9C517.1 529.74 516.16 528.8 515 528.8C513.84 528.8 512.9 529.74 512.9 530.9C512.9 532.06 513.84 533 515 533Z" fill="#006D68"/>
<path d="M529.8 496.6C530.959 496.6 531.9 495.66 531.9 494.5C531.9 493.34 530.959 492.4 529.8 492.4C528.64 492.4 527.7 493.34 527.7 494.5C527.7 495.66 528.64 496.6 529.8 496.6Z" fill="#006D68"/>
<path d="M554.3 463.4C555.459 463.4 556.4 462.46 556.4 461.3C556.4 460.14 555.459 459.2 554.3 459.2C553.14 459.2 552.2 460.14 552.2 461.3C552.2 462.46 553.14 463.4 554.3 463.4Z" fill="#006D68"/>
<path d="M532.5 548C533.66 548 534.6 547.06 534.6 545.9C534.6 544.74 533.66 543.8 532.5 543.8C531.34 543.8 530.4 544.74 530.4 545.9C530.4 547.06 531.34 548 532.5 548Z" fill="#006D68"/>
<path d="M547.7 484.6C548.859 484.6 549.8 483.66 549.8 482.5C549.8 481.34 548.859 480.4 547.7 480.4C546.54 480.4 545.6 481.34 545.6 482.5C545.6 483.66 546.54 484.6 547.7 484.6Z" fill="#006D68"/>
<path d="M574.599 507.5C575.759 507.5 576.7 506.56 576.7 505.4C576.7 504.24 575.759 503.3 574.599 503.3C573.44 503.3 572.5 504.24 572.5 505.4C572.5 506.56 573.44 507.5 574.599 507.5Z" fill="#006D68"/>
<path d="M572.099 470.5C573.259 470.5 574.2 469.56 574.2 468.4C574.2 467.24 573.259 466.3 572.099 466.3C570.94 466.3 570 467.24 570 468.4C570 469.56 570.94 470.5 572.099 470.5Z" fill="#006D68"/>
<path d="M532.5 524.6C533.66 524.6 534.6 523.66 534.6 522.5C534.6 521.34 533.66 520.4 532.5 520.4C531.34 520.4 530.4 521.34 530.4 522.5C530.4 523.66 531.34 524.6 532.5 524.6Z" fill="#006D68"/>
<path d="M557.099 526.7C558.259 526.7 559.2 525.76 559.2 524.6C559.2 523.44 558.259 522.5 557.099 522.5C555.94 522.5 555 523.44 555 524.6C555 525.76 555.94 526.7 557.099 526.7Z" fill="#006D68"/>
<path d="M517.4 545.3C518.56 545.3 519.5 544.36 519.5 543.2C519.5 542.04 518.56 541.1 517.4 541.1C516.24 541.1 515.3 542.04 515.3 543.2C515.3 544.36 516.24 545.3 517.4 545.3Z" fill="#006D68"/>
<path d="M542.4 524C543.56 524 544.5 523.06 544.5 521.9C544.5 520.74 543.56 519.8 542.4 519.8C541.24 519.8 540.3 520.74 540.3 521.9C540.3 523.06 541.24 524 542.4 524Z" fill="#006D68"/>
<path d="M578.2 491.4C579.359 491.4 580.3 490.46 580.3 489.3C580.3 488.14 579.359 487.2 578.2 487.2C577.04 487.2 576.1 488.14 576.1 489.3C576.1 490.46 577.04 491.4 578.2 491.4Z" fill="#006D68"/>
<path d="M590.7 507.7C591.859 507.7 592.8 506.76 592.8 505.6C592.8 504.44 591.859 503.5 590.7 503.5C589.54 503.5 588.6 504.44 588.6 505.6C588.6 506.76 589.54 507.7 590.7 507.7Z" fill="#006D68"/>
<path d="M608.3 461.7C609.459 461.7 610.4 460.76 610.4 459.6C610.4 458.44 609.459 457.5 608.3 457.5C607.14 457.5 606.2 458.44 606.2 459.6C606.2 460.76 607.14 461.7 608.3 461.7Z" fill="#006D68"/>
<path d="M577.2 512.4C578.359 512.4 579.3 511.46 579.3 510.3C579.3 509.14 578.359 508.2 577.2 508.2C576.04 508.2 575.1 509.14 575.1 510.3C575.1 511.46 576.04 512.4 577.2 512.4Z" fill="#006D68"/>
<path d="M566.7 511C567.859 511 568.8 510.06 568.8 508.9C568.8 507.74 567.859 506.8 566.7 506.8C565.54 506.8 564.6 507.74 564.6 508.9C564.6 510.06 565.54 511 566.7 511Z" fill="#006D68"/>
<path d="M688.3 521.3C689.459 521.3 690.4 520.36 690.4 519.2C690.4 518.04 689.459 517.1 688.3 517.1C687.14 517.1 686.2 518.04 686.2 519.2C686.2 520.36 687.14 521.3 688.3 521.3Z" fill="#006D68"/>
<path d="M696.2 534.2C697.359 534.2 698.3 533.26 698.3 532.1C698.3 530.94 697.359 530 696.2 530C695.04 530 694.1 530.94 694.1 532.1C694.1 533.26 695.04 534.2 696.2 534.2Z" fill="#006D68"/>
<path d="M680.2 535C681.359 535 682.3 534.06 682.3 532.9C682.3 531.74 681.359 530.8 680.2 530.8C679.04 530.8 678.1 531.74 678.1 532.9C678.1 534.06 679.04 535 680.2 535Z" fill="#006D68"/>
<path d="M434.6 407.4H433.2V554.2H434.6V407.4Z" fill="white"/>
<path d="M433.9 559.3C436.827 559.3 439.2 556.927 439.2 554C439.2 551.073 436.827 548.7 433.9 548.7C430.972 548.7 428.6 551.073 428.6 554C428.6 556.927 430.972 559.3 433.9 559.3Z" fill="white"/>
<path d="M433.9 413C436.827 413 439.2 410.627 439.2 407.7C439.2 404.773 436.827 402.4 433.9 402.4C430.972 402.4 428.6 404.773 428.6 407.7C428.6 410.627 430.972 413 433.9 413Z" fill="white"/>
<path d="M745.9 315.6H391.3V346.4H745.9V315.6Z" fill="black"/>
<path d="M732.285 322.555L718.496 336.343L721.749 339.596L735.537 325.808L732.285 322.555Z" fill="#A8C653"/>
<path d="M721.749 322.626L718.496 325.878L732.285 339.667L735.537 336.414L721.749 322.626Z" fill="#A8C653"/>
<path d="M698.9 325.2V337.5H685.1V325.2H698.9ZM701 323.1H683V339.6H701V323.1Z" fill="#A8C653"/>
<path d="M665.4 336H647.4V339.6H665.4V336Z" fill="#A8C653"/>
<path d="M601.6 642.7H224.4V399.9L601.6 399.6V642.7Z" fill="white"/>
<path d="M225.9 641.2V401.5L600.1 401.1V641.2H225.9Z" fill="#A8C653"/>
<path d="M598.6 402.6V639.7H227.4V403L598.6 402.6ZM601.6 399.6L224.4 399.9V642.7H601.6V399.6Z" fill="#A8C653"/>
<path d="M601.6 365.3H224.4V402H601.6V365.3Z" fill="white"/>
<path d="M601.6 402.7H224.4C224 402.7 223.7 402.4 223.7 402V365.3C223.7 364.9 224 364.6 224.4 364.6H601.6C602 364.6 602.3 364.9 602.3 365.3V402C602.3 402.4 602 402.7 601.6 402.7ZM225.1 401.3H600.9V366H225.1V401.3Z" fill="#A9C753"/>
<path d="M595.721 379.033L592.822 376.134L580.589 388.367L583.489 391.266L595.721 379.033Z" fill="#A8C653"/>
<path d="M592.739 391.324L595.638 388.424L583.405 376.192L580.506 379.091L592.739 391.324Z" fill="#A8C653"/>
<path d="M562 379.6V388.2H552V379.6H562ZM565 376.5H549V391.2H565V376.5Z" fill="#A8C653"/>
<path d="M533.4 388H517.4V391.2H533.4V388Z" fill="#A8C653"/>
<path d="M575.2 519.1C575.2 519.1 502.4 622.9 412.7 622.9C323 622.9 250.2 519.1 250.2 519.1C250.2 519.1 323 415.3 412.7 415.3C502.4 415.3 575.2 519.1 575.2 519.1Z" fill="#006D68"/>
<path d="M575.2 519.1C575.2 519.1 502.4 622.9 412.7 622.9C323 622.9 250.2 519.1 250.2 519.1C250.2 519.1 323 415.3 412.7 415.3C502.4 415.3 575.2 519.1 575.2 519.1Z" fill="#006D68"/>
<path d="M412.7 623.3C366.2 623.3 324.4 595 297.5 571.3C268.4 545.6 250 519.6 249.8 519.3C249.7 519.1 249.7 518.9 249.9 518.7C250.1 518.6 250.3 518.6 250.5 518.8C250.7 519.1 269 545 298.1 570.6C324.9 594.2 366.5 622.4 412.7 622.4C458.9 622.4 500.6 594.2 527.4 570.6C556.4 545 574.8 519 574.9 518.8C575 518.6 575.3 518.6 575.5 518.7C575.7 518.8 575.7 519.1 575.6 519.3C575.4 519.6 557 545.6 527.9 571.3C501 595 459.2 623.3 412.7 623.3Z" fill="#A9C753"/>
<path d="M575.2 519.5C575.1 519.5 574.9 519.4 574.9 519.3C574.7 519 556.4 493.1 527.3 467.5C500.5 443.9 458.9 415.7 412.7 415.7C366.5 415.7 324.8 443.9 298.1 467.5C269.1 493.1 250.7 519.1 250.5 519.3C250.4 519.5 250.1 519.5 249.9 519.4C249.7 519.3 249.7 519 249.8 518.8C250 518.5 268.4 492.5 297.5 466.8C324.4 443.1 366.2 414.8 412.7 414.8C459.2 414.8 501 443.1 527.9 466.8C557 492.5 575.4 518.5 575.6 518.8C575.7 519 575.7 519.2 575.5 519.4C575.4 519.5 575.3 519.5 575.2 519.5Z" fill="#A9C753"/>
<path d="M412.7 535.6C422.365 535.6 430.2 527.765 430.2 518.1C430.2 508.435 422.365 500.6 412.7 500.6C403.035 500.6 395.2 508.435 395.2 518.1C395.2 527.765 403.035 535.6 412.7 535.6Z" fill="white"/>
<path d="M412.699 543.5C398.699 543.5 387.399 532.1 387.399 518.2C387.399 504.2 398.799 492.9 412.699 492.9C426.599 492.9 437.999 504.3 437.999 518.2C437.999 532.1 426.699 543.5 412.699 543.5ZM412.699 493.7C399.299 493.7 388.299 504.6 388.299 518.1C388.299 531.6 399.199 542.5 412.699 542.5C426.199 542.5 437.099 531.6 437.099 518.1C437.099 504.7 426.199 493.7 412.699 493.7Z" fill="#A9C753"/>
<path d="M412.7 599.1C368 599.1 331.7 562.8 331.7 518.1C331.7 473.4 368 437.1 412.7 437.1C457.4 437.1 493.7 473.4 493.7 518.1C493.7 562.8 457.4 599.1 412.7 599.1ZM412.7 438.4C368.8 438.4 333 474.1 333 518.1C333 562 368.8 597.8 412.7 597.8C456.6 597.8 492.4 562.1 492.4 518.1C492.4 474.2 456.6 438.4 412.7 438.4Z" fill="black"/>
<path d="M474.9 524.8C473.4 524.8 471.8 524.6 470.7 523.4C469 521.7 469.9 519.1 470.6 517C470.8 516.3 471 515.7 471.1 515.2C471.6 512.7 471.7 510 471.4 506.7C471 501.5 469.9 496.9 468 492.7C463 481.3 454.5 473.3 442.5 469.1C441.6 468.8 440.5 468.5 439.4 468.1C434.3 466.6 428.1 464.7 426.1 460.5C425.4 459 425.5 457.2 425.6 455.8C425.8 453.2 426.1 450.7 426.4 448.2C426.7 445.5 427.1 442.8 427.2 440L428.5 440.1C428.3 442.9 428 445.6 427.6 448.3C427.3 450.8 427 453.3 426.8 455.9C426.7 457.2 426.6 458.7 427.2 460C428.9 463.7 435.1 465.5 439.7 466.9C440.9 467.3 442 467.6 442.9 467.9C455.2 472.3 464.1 480.4 469.2 492.2C471.1 496.5 472.2 501.2 472.7 506.6C473 510 472.9 512.8 472.4 515.4C472.3 516 472.099 516.7 471.799 517.4C471.199 519.3 470.5 521.4 471.6 522.5C472.7 523.6 474.7 523.5 476.4 523.4C476.8 523.4 477.2 523.4 477.6 523.3C478.9 523.3 480.4 523.3 481.6 522.6C484 521.3 483.5 516.1 483.2 513C483.1 512.4 483.1 511.8 483.1 511.3C482.8 506 481.899 500.6 480.299 495.1C477.999 487.2 474.1 480.2 468.6 474.2C462 467 452.7 460.7 443.1 457L443.6 455.8C453.4 459.6 462.9 466 469.6 473.3C475.2 479.5 479.3 486.7 481.6 494.7C483.2 500.3 484.2 505.8 484.5 511.2C484.5 511.7 484.6 512.2 484.6 512.8C484.9 516.5 485.399 522 482.299 523.7C480.799 524.5 479.1 524.5 477.7 524.5C477.3 524.5 477 524.5 476.6 524.5C476 524.7 475.4 524.8 474.9 524.8Z" fill="black"/>
<path d="M444.2 454.3C442.9 453.8 441.499 454.4 440.899 455.6C440.399 456.9 441 458.3 442.2 458.9C443.5 459.4 444.899 458.8 445.499 457.6C446.099 456.3 445.5 454.8 444.2 454.3Z" fill="black"/>
<path d="M417.2 598.1L415.9 597.9C416.7 592.4 417.4 586.5 416.4 580.9C414.4 570.6 406.9 567.6 399 564.4C394.4 562.5 389.6 560.5 385.6 557.1C382.1 554 378.8 550.2 375.8 545.9C375.1 544.8 374.4 543.5 373.7 542.1C371.9 538.5 369.9 534.7 366.3 534.3C364.6 534.1 362.7 534.5 360.6 535.5C359.3 536.1 358.4 536.6 357.7 537.3C352.6 542.2 358 549 361.9 554C362.4 554.7 362.9 555.3 363.3 555.8C367 560.8 371.5 565.5 377.1 570.2C379.4 572.1 382.1 573.8 384.8 575.5C388.9 578.1 393.2 580.8 396.1 584.4C398.9 587.9 400.3 593.8 397.1 597.7L396.1 596.9C398.8 593.5 397.6 588.4 395.1 585.3C392.3 581.8 388.1 579.2 384.1 576.7C381.4 575 378.6 573.3 376.3 571.3C370.7 566.5 366.1 561.8 362.3 556.7C361.9 556.1 361.4 555.5 360.9 554.9C356.9 549.8 350.9 542.1 356.9 536.4C357.7 535.6 358.7 535 360.1 534.4C362.5 533.4 364.5 532.9 366.5 533.1C370.9 533.5 373 537.8 374.9 541.6C375.6 542.9 376.2 544.2 376.9 545.2C379.8 549.4 383 553.1 386.5 556.2C390.3 559.5 395 561.5 399.5 563.3C407.7 566.7 415.5 569.9 417.7 580.8C418.8 586.4 418.1 592.4 417.2 598.1Z" fill="black"/>
<path d="M443.4 592.8C441.6 587.1 439.2 583.2 435.7 578.3C431.5 572.5 431 567.7 434.3 564C439 558.6 443.9 553.4 448.9 548.6L449.8 547.7C453.3 544.2 456.7 540.8 462.4 543.2C469.2 545.9 474.4 552.1 479 557.6C479.5 558.2 480.1 558.9 480.6 559.5L479.6 560.4C479.1 559.8 478.5 559.1 478 558.5C473.5 553.2 468.5 547.1 461.9 544.5C456.9 542.5 454.2 545.3 450.7 548.7L449.8 549.6C444.9 554.5 440 559.6 435.3 565C432.4 568.3 432.9 572.4 436.7 577.7C440.2 582.5 442.8 586.7 444.6 592.6L443.4 592.8Z" fill="black"/>
<path d="M354.5 498.9C351.6 498.9 348.4 497.8 345.3 495.7C343.8 494.7 342.6 493.4 341.3 492.2C340.3 491.2 339.2 490.1 338.1 489.2L338.9 488.1C340.1 489 341.2 490.1 342.2 491.2C343.4 492.5 344.6 493.7 346 494.6C349.6 497.1 353.5 498.1 356.6 497.3C358.8 496.7 360.6 495.3 361.8 493C373.9 470.4 388.6 465.5 399.3 462C401.7 461.2 404 460.4 406 459.6C411.1 457.4 410.1 454.9 408.1 449.9L407.9 449.3C407.7 448.7 407.5 448.2 407.1 447.9C406.7 447.5 406.1 447.4 405.5 447.3C394.3 445.8 379.7 454.5 372 459.8C364.1 465.2 358.8 471.6 355.8 479.1L354.6 478.6C357.7 470.8 363.1 464.3 371.3 458.7C380.9 452.1 394.7 444.5 405.8 446C406.5 446.1 407.4 446.3 408.1 446.9C408.7 447.5 409 448.2 409.3 448.8L409.5 449.4C411.4 454.3 412.9 458.1 406.7 460.8C404.6 461.7 402.3 462.5 399.8 463.3C388.7 467 375 471.5 363.1 493.7C361.7 496.3 359.6 498 357 498.6C356.2 498.8 355.4 498.9 354.5 498.9Z" fill="black"/>
<path d="M353 477.9C352.5 479.2 353.2 480.6 354.4 481.1C355.7 481.6 357.1 480.9 357.6 479.7C358.1 478.4 357.4 477 356.2 476.5C354.9 475.9 353.5 476.6 353 477.9Z" fill="black"/>
<path d="M377.7 582.5C369.4 578.3 361.7 571.4 355.1 562C352 557.6 349.2 552.8 346.5 547.3L346.2 546.6C343.4 540.9 339.5 533 346.4 527.9C351.2 524.4 356.6 520.4 362.5 518.1C365.4 517 369.8 517 372.5 519.3C374 520.6 375.2 522.2 376.2 523.8L376.8 524.7C380.9 530.8 386.4 536.8 391.2 541.9C396.1 547.1 401.5 551.3 407.2 554.4L406.6 555.6C400.8 552.5 395.2 548.2 390.2 542.9C385.4 537.8 379.9 531.7 375.7 525.6L375.1 524.7C374.1 523.2 373 521.6 371.6 520.5C369.2 518.6 365.3 518.5 362.9 519.5C357.1 521.8 351.8 525.7 347.1 529.2C341.1 533.6 344.4 540.3 347.3 546.2L347.6 546.9C350.3 552.4 353 557.1 356.1 561.4C362.6 570.7 370.1 577.5 378.2 581.5L377.7 582.5Z" fill="black"/>
<path d="M379 579.6C380.2 580.2 380.7 581.7 380.1 582.9C379.5 584.1 378 584.6 376.8 584C375.6 583.4 375.1 581.9 375.7 580.7C376.3 579.5 377.8 579 379 579.6Z" fill="black"/>
<path d="M405.699 557C406.899 557.7 408.399 557.2 409.099 556C409.799 554.8 409.299 553.3 408.099 552.6C406.899 551.9 405.399 552.4 404.699 553.6C404.099 554.9 404.499 556.4 405.699 557Z" fill="black"/>
<path d="M431.6 596.1C431.1 591.8 428.9 586.7 427 582.1C426.4 580.6 425.7 579.1 425.2 577.8C424.8 576.7 424.3 575.6 423.8 574.5C422.3 571.1 420.8 568 421.1 563.9C421.6 556.6 426.8 553.2 431.9 549.9C433.5 548.9 435.1 547.8 436.5 546.7C438.9 544.8 441.2 542.5 443.4 540.2C444.7 538.8 446.1 537.4 447.6 536L448.5 537C447.1 538.3 445.7 539.8 444.4 541.1C442.2 543.4 439.9 545.7 437.4 547.7C435.9 548.9 434.3 549.9 432.7 551C427.7 554.3 422.9 557.4 422.5 564C422.3 567.7 423.6 570.8 425.1 574C425.6 575.1 426.1 576.2 426.5 577.4C427 578.7 427.6 580.2 428.3 581.7C430.3 586.3 432.5 591.5 433 596.1H431.6Z" fill="black"/>
<path d="M446.2 535C447.2 534 448.8 534.1 449.7 535C450.7 536 450.6 537.6 449.7 538.5C448.7 539.5 447.1 539.4 446.2 538.5C445.2 537.5 445.3 535.9 446.2 535Z" fill="black"/>
<path d="M455.2 585.3L447.5 574.3C446.8 573.3 445.9 572 445.7 570.5C445.2 567.3 447.4 564.2 449.7 561.7C450 561.3 450.4 560.9 450.8 560.4C452.5 558.4 454.8 555.7 456.6 554.8C461.5 552.4 465.9 558.9 468.5 562.7L467.4 563.4C464.9 559.7 461.1 554 457.2 555.9C455.7 556.6 453.5 559.3 451.9 561.2C451.5 561.7 451.1 562.2 450.8 562.5C448.8 564.8 446.8 567.5 447.1 570.2C447.3 571.4 448 572.5 448.7 573.4L456.4 584.4L455.2 585.3Z" fill="black"/>
<path d="M465.699 564.4C466.499 565.5 467.999 565.8 469.199 565C470.399 564.2 470.599 562.7 469.799 561.5C468.999 560.4 467.499 560.1 466.299 560.9C465.199 561.8 464.999 563.3 465.699 564.4Z" fill="black"/>
<path d="M450.2 526.2C447.2 526.2 444.3 525.3 442.4 523.7C441.8 523.2 441.4 522.7 441.2 522.1C441 521.4 440.9 520.8 440.9 520.2C440.8 513.5 439.5 501.4 433 494.1C426 486.4 414.2 485.6 405.6 488.3C400.7 489.8 397.2 491.9 394.1 495C391 498.2 388.6 502.1 386.3 505.8C386 506.3 385.7 507 385.3 507.7C384.2 510 382.7 512.9 380.3 513.2C375.6 513.9 370.1 507.3 369 505.9C366.2 502.3 367.5 498.4 369.2 494.9C372.8 487.7 379.4 481.8 386 476.6C392.5 471.5 402.8 465.2 414.3 464.7C414.9 464.7 415.4 464.4 415.8 464C418.3 461.1 417.6 451.3 417.1 444.7C416.9 441.6 416.7 439.2 416.8 437.9L418.1 438C418 439.2 418.2 441.7 418.4 444.6C418.9 451.8 419.7 461.6 416.8 464.9C416.1 465.6 415.3 466 414.4 466.1C403.2 466.6 393.2 472.7 386.8 477.7C380.3 482.8 373.8 488.5 370.3 495.5C368.8 498.5 367.6 502.1 369.9 505.1C372.6 508.5 376.9 512.3 379.9 511.9C381.7 511.6 382.9 509.1 383.9 507.1C384.3 506.4 384.6 505.7 384.9 505.1C387.2 501.3 389.6 497.4 392.9 494C396.1 490.7 399.9 488.5 404.9 486.9C413.9 484.1 426.3 484.9 433.7 493.1C440.5 500.7 441.8 513.2 441.9 520C441.9 520.6 441.9 521.1 442.1 521.6C442.2 522 442.5 522.3 442.9 522.7C445.4 524.8 449.9 525.5 453.9 524.3C455.7 523.7 458.9 522.3 459.8 519C460.8 515.3 458.6 509.4 457.1 505.5L456.8 504.7C454.8 499.4 452 494.7 448.6 490.8C444.1 485.7 437.2 478.6 429.5 475.6L430 474.4C438 477.5 445.1 484.8 449.6 489.9C453.2 493.9 456 498.7 458.1 504.2L458.4 505C459.9 509.1 462.2 515.2 461.1 519.3C460.3 522.2 457.8 524.4 454.3 525.5C453.2 526 451.7 526.2 450.2 526.2Z" fill="black"/>
<path d="M431 472.7C429.7 472.2 428.3 472.9 427.8 474.2C427.3 475.5 428 476.9 429.3 477.4C430.6 477.9 432 477.2 432.5 475.9C433 474.6 432.3 473.2 431 472.7Z" fill="black"/>
<path d="M408.6 598.1H407.3C407.3 597.3 407.3 596.6 407.3 595.8C407.4 589.8 407.4 584.7 403.5 579.4C401 576 397.4 572.9 392.2 569.8C382.9 564.1 375.5 558.6 369.4 550.3L370.5 549.5C376.5 557.7 383.8 563.1 393 568.7C398.3 572 402 575.1 404.7 578.7C408.9 584.3 408.9 589.7 408.8 595.9C408.6 596.6 408.6 597.3 408.6 598.1Z" fill="black"/>
<path d="M368 551.5C367.1 550.4 367.3 548.9 368.4 548C369.5 547.1 371 547.3 371.9 548.4C372.8 549.5 372.6 551 371.5 551.9C370.4 552.7 368.9 552.6 368 551.5Z" fill="black"/>
<path d="M333.4 529L332.6 527.9C334.4 526.6 337.7 525.1 341.5 523.3C349 519.8 359.2 514.9 359.2 511.1C359.2 508.7 348.2 502.9 342.2 499.8C339.5 498.4 337.1 497.1 335.8 496.3L336.5 495.2C337.7 496 340 497.2 342.7 498.6C352.7 503.9 360.4 508.1 360.4 511.1C360.4 515.8 350.6 520.4 341.9 524.5C338.5 526.2 335.1 527.8 333.4 529Z" fill="black"/>
<path d="M347.3 511.8C342.9 510.8 335.8 509.6 332.8 509.3L332.9 508C335.9 508.4 343.1 509.6 347.5 510.5L347.3 511.8Z" fill="black"/>
<path d="M346.8 513.6C348.1 513.9 349.5 513 349.8 511.7C350.1 510.4 349.2 509 347.9 508.7C346.6 508.4 345.2 509.3 344.9 510.6C344.6 512 345.5 513.3 346.8 513.6Z" fill="black"/>
<path d="M488.9 541C485.9 540.7 478.7 539.4 474.3 538.5L474.6 537.2C479 538.2 486.1 539.4 489.1 539.7L488.9 541Z" fill="black"/>
<path d="M475.1 535.3C473.8 535 472.4 535.9 472.1 537.2C471.8 538.5 472.7 539.9 474 540.2C475.3 540.5 476.7 539.6 477 538.3C477.3 536.9 476.4 535.6 475.1 535.3Z" fill="black"/>
<path d="M484.5 554.4C484.3 554.2 483.9 553.9 483.3 553.6C474.8 547.6 463.6 539 464.7 534C465 532.4 466.5 531.4 469 531C476.5 529.6 484.1 528.9 491.7 528.7L491.8 530L490.5 530.1V530C483.4 530.2 476.3 531 469.3 532.3C467.4 532.7 466.3 533.3 466 534.3C465.5 536.4 468.3 541.3 484.1 552.5C484.6 552.9 485 553.2 485.3 553.4L484.5 554.4Z" fill="black"/>
<path d="M378.6 500.6L377.4 500.1C384.4 483.6 405.5 476.4 414.2 474L414.5 475.3C406 477.6 385.4 484.6 378.6 500.6Z" fill="black"/>
<path d="M414.9 477.1C416.2 476.7 417 475.4 416.6 474C416.2 472.7 414.9 471.9 413.5 472.3C412.2 472.7 411.4 474 411.8 475.4C412.2 476.7 413.6 477.5 414.9 477.1Z" fill="black"/>
<path d="M358.3 499.6C359.791 499.6 361 498.391 361 496.9C361 495.409 359.791 494.2 358.3 494.2C356.808 494.2 355.6 495.409 355.6 496.9C355.6 498.391 356.808 499.6 358.3 499.6Z" fill="#A9C753"/>
<path d="M410.2 454.9C411.691 454.9 412.9 453.691 412.9 452.2C412.9 450.709 411.691 449.5 410.2 449.5C408.708 449.5 407.5 450.709 407.5 452.2C407.5 453.691 408.708 454.9 410.2 454.9Z" fill="#A9C753"/>
<path d="M378.8 502.3C380.291 502.3 381.5 501.091 381.5 499.6C381.5 498.109 380.291 496.9 378.8 496.9C377.308 496.9 376.1 498.109 376.1 499.6C376.1 501.091 377.308 502.3 378.8 502.3Z" fill="#A9C753"/>
<path d="M377.2 528.5C378.691 528.5 379.9 527.291 379.9 525.8C379.9 524.309 378.691 523.1 377.2 523.1C375.708 523.1 374.5 524.309 374.5 525.8C374.5 527.291 375.708 528.5 377.2 528.5Z" fill="#A9C753"/>
<path d="M432.8 553.2C434.291 553.2 435.5 551.991 435.5 550.5C435.5 549.009 434.291 547.8 432.8 547.8C431.308 547.8 430.1 549.009 430.1 550.5C430.1 551.991 431.308 553.2 432.8 553.2Z" fill="#A9C753"/>
<path d="M469.2 498.4C470.691 498.4 471.9 497.191 471.9 495.7C471.9 494.209 470.691 493 469.2 493C467.708 493 466.5 494.209 466.5 495.7C466.5 497.191 467.708 498.4 469.2 498.4Z" fill="#A9C753"/>
<path d="M392.499 571.9C393.99 571.9 395.199 570.691 395.199 569.2C395.199 567.709 393.99 566.5 392.499 566.5C391.008 566.5 389.799 567.709 389.799 569.2C389.799 570.691 391.008 571.9 392.499 571.9Z" fill="#A9C753"/>
<path d="M412.7 607.3C363.5 607.3 323.5 567.3 323.5 518.1C323.5 468.9 363.5 428.9 412.7 428.9C461.9 428.9 501.9 468.9 501.9 518.1C501.9 567.3 461.9 607.3 412.7 607.3ZM412.7 432C365.2 432 326.6 470.6 326.6 518.1C326.6 565.6 365.2 604.2 412.7 604.2C460.2 604.2 498.799 565.6 498.799 518.1C498.799 470.6 460.2 432 412.7 432Z" fill="#A9C753"/>
<path d="M362.099 562.6C361.999 562.6 361.799 562.5 361.699 562.4C356.599 555.4 352.499 548.2 349.599 541C347.399 535.4 354.999 530.8 360.099 527.8C361.099 527.2 361.899 526.7 362.599 526.2C362.799 526.1 363.099 526.1 363.299 526.3C363.399 526.5 363.399 526.8 363.199 527C362.499 527.5 361.599 528 360.699 528.6C355.899 531.5 348.699 535.9 350.599 540.7C353.499 547.9 357.499 555 362.599 561.9C362.799 562.1 362.699 562.4 362.499 562.6C362.299 562.5 362.199 562.6 362.099 562.6Z" fill="#A9C753"/>
<path d="M379.4 578.2C379.3 578.2 379.2 578.2 379.1 578.1C374.7 575 370.6 571.4 367.1 567.3C366.9 567.1 366.9 566.8 367.1 566.6C367.3 566.4 367.6 566.4 367.8 566.6C371.3 570.6 375.3 574.2 379.7 577.2C379.9 577.3 380 577.6 379.8 577.9C379.7 578.1 379.5 578.2 379.4 578.2Z" fill="#A9C753"/>
<path d="M437.3 593.8C437.1 593.8 436.9 593.6 436.8 593.4C435.9 588.3 433.6 583.6 431.3 579.1L430.4 577.2C430 576.5 429.6 575.7 429.2 575C427.7 572.4 426.2 569.8 426.8 566.8C427.4 563.7 430.6 560.9 433.4 558.4C434.5 557.4 435.5 556.5 436.3 555.7C436.5 555.5 436.8 555.5 437 555.7C437.2 555.9 437.2 556.2 437 556.4C436.2 557.3 435.1 558.2 434 559.2C431.3 561.6 428.3 564.3 427.7 567.1C427.2 569.8 428.6 572.3 430 574.7C430.4 575.5 430.9 576.2 431.3 577L432.2 578.9C434.5 583.5 436.8 588.3 437.8 593.5C437.8 593.6 437.7 593.8 437.3 593.8C437.4 593.8 437.4 593.8 437.3 593.8Z" fill="#A9C753"/>
<path d="M439.599 554C439.499 554 439.399 554 439.299 553.9C439.099 553.7 439.099 553.4 439.299 553.2C442.799 549.3 446.399 545.4 450.099 541.8C451.999 539.9 455.499 537.9 458.799 537.9C458.899 537.9 458.899 537.9 458.999 537.9C460.799 537.9 462.299 538.6 463.399 539.8C463.599 540 463.599 540.3 463.399 540.5C463.199 540.7 462.899 540.7 462.699 540.5C461.799 539.5 460.499 538.9 458.999 538.9C456.099 538.8 452.699 540.6 450.799 542.5C447.099 546.2 443.499 550 439.999 553.9C439.799 554 439.699 554 439.599 554Z" fill="#A9C753"/>
<path d="M450.3 517.8C450 517.8 449.8 517.6 449.8 517.3C449.5 510.6 447.8 504.2 444.9 498.2C441.9 492.1 437.1 487.5 432 483C431.8 482.8 431.8 482.5 432 482.3C432.2 482.1 432.5 482.1 432.7 482.3C437.8 486.9 442.7 491.5 445.8 497.8C448.8 503.9 450.5 510.4 450.8 517.2C450.8 517.6 450.6 517.8 450.3 517.8Z" fill="#A9C753"/>
<path d="M365.499 475.1C365.399 475.1 365.299 475.1 365.199 475C364.999 474.8 364.999 474.5 365.199 474.3C374.199 464 386.199 457 397.899 455C398.199 455 398.399 455.1 398.399 455.4C398.399 455.7 398.299 455.9 397.999 455.9C386.499 457.9 374.699 464.8 365.799 474.9C365.799 475.1 365.599 475.1 365.499 475.1Z" fill="#A9C753"/>
<path d="M452.799 467C452.699 467 452.599 467 452.499 466.9C449.999 465.2 447.399 464.6 444.599 463.9C442.599 463.4 440.599 462.9 438.599 462C436.199 460.9 434.799 459.6 434.099 458C433.199 455.9 433.599 453.7 433.999 451.5L434.099 450.9C434.399 449.2 434.599 447.4 434.799 445.7C434.899 444.6 434.999 443.6 435.199 442.5C435.199 442.2 435.499 442.1 435.699 442.1C435.999 442.1 436.099 442.4 436.099 442.6C435.999 443.6 435.799 444.7 435.699 445.8C435.499 447.5 435.299 449.3 434.999 451.1L434.899 451.7C434.499 453.7 434.199 455.7 434.999 457.6C435.599 459 436.899 460.2 439.099 461.1C440.999 462 442.999 462.5 444.999 463C447.699 463.7 450.499 464.4 453.199 466.2C453.399 466.3 453.499 466.6 453.299 466.9C453.099 466.9 452.999 467 452.799 467Z" fill="#A9C753"/>
<path d="M470.8 485.6C470.6 485.6 470.4 485.5 470.4 485.3C467.5 478.4 461.6 473.4 455.7 469C455.5 468.8 455.4 468.5 455.6 468.3C455.8 468.1 456.1 468 456.3 468.2C462.3 472.6 468.3 477.7 471.3 484.9C471.4 485.1 471.3 485.4 471 485.5C471 485.5 470.9 485.6 470.8 485.6Z" fill="#A9C753"/>
<path d="M477.399 518.8C477.099 518.8 476.899 518.5 476.899 518.3C477.399 514 477.399 509.7 477.099 505.4C477.099 505.1 477.299 504.9 477.499 504.9C477.699 504.9 477.999 505.1 477.999 505.3C478.299 509.6 478.299 514 477.799 518.3C477.899 518.6 477.699 518.8 477.399 518.8Z" fill="#A9C753"/>
</svg>
