<svg width="916" height="916" viewBox="0 0 916 916" fill="none" xmlns="http://www.w3.org/2000/svg">
<path d="M582.29 69.6299C546.29 56.1299 508.72 44.8299 470.27 44.9999C418.46 45.2299 369.21 66.1399 322.08 87.6499C235.31 127.26 166.89 189.32 95.76 252.35C38.19 303.37 28.73 409.17 30.47 481.05C30.68 489.72 30.9 498.44 31.29 507.15C32.5 533.95 35.37 560.67 44.77 585.65C59.83 625.71 94.77 659.53 121.15 692.5C149.71 728.19 177.7 757.97 216.15 783.46C259.68 812.31 321.93 861.86 375.63 866.41C443.23 872.13 494.99 874.88 559.96 854.63C629.16 833.06 705.01 801.58 754.81 746.4C780.92 717.47 797.97 676.18 817.41 642.54C855.33 576.92 871.05 506.15 861.29 430.71C851.08 351.75 820.06 291.23 787.34 220.65C745.32 130.01 671.49 103.08 582.28 69.6399L582.29 69.6299Z" fill="#EBF2D4"/>
<path d="M817.42 539.46C816.37 539.46 815.51 538.61 815.51 537.55V318.1C815.51 317.05 816.37 316.19 817.42 316.19C818.47 316.19 819.33 317.04 819.33 318.1V537.55C819.33 538.6 818.47 539.46 817.42 539.46Z" fill="#A9C753"/>
<path d="M828.89 318.68C828.89 312.34 823.75 307.21 817.42 307.21C811.09 307.21 805.95 312.35 805.95 318.68C805.95 325.01 811.09 330.15 817.42 330.15C823.75 330.15 828.89 325.01 828.89 318.68Z" fill="#A9C753"/>
<path d="M842.47 549.52C841.42 549.52 840.56 548.67 840.56 547.61V364.37C840.56 363.32 841.42 362.46 842.47 362.46C843.52 362.46 844.38 363.31 844.38 364.37V547.61C844.38 548.66 843.52 549.52 842.47 549.52Z" fill="#A9C753"/>
<path d="M853.94 364.95C853.94 358.61 848.8 353.48 842.47 353.48C836.14 353.48 831 358.62 831 364.95C831 371.28 836.14 376.42 842.47 376.42C848.8 376.42 853.94 371.28 853.94 364.95Z" fill="#A9C753"/>
<path d="M791.45 543.87C790.4 543.87 789.54 543.02 789.54 541.96V383.82C789.54 382.77 790.4 381.91 791.45 381.91C792.5 381.91 793.36 382.76 793.36 383.82V541.96C793.36 543.01 792.5 543.87 791.45 543.87Z" fill="#A9C753"/>
<path d="M802.92 384.4C802.92 378.06 797.78 372.93 791.45 372.93C785.12 372.93 779.98 378.07 779.98 384.4C779.98 390.73 785.12 395.87 791.45 395.87C797.78 395.87 802.92 390.73 802.92 384.4Z" fill="#A9C753"/>
<path d="M718.89 638.35C716.62 614.43 736.12 585.53 744.21 566.62C754.83 541.79 763.04 524.09 782.12 504.48C788.71 497.71 795.46 490.82 803.9 486.56C818.49 479.18 833.21 485.3 846.57 493.53C882.75 515.81 917.42 607.06 915.48 646.77C915.09 654.65 912.7 664.02 892.74 666.44C874.04 668.71 844.7 669.73 829.47 670.75C801.9 672.6 737.41 678.35 722.39 650.18C720.38 646.41 719.28 642.45 718.89 638.36V638.35Z" fill="#006D68"/>
<g style="mix-blend-mode:multiply">
<path d="M635.17 659.01C637.68 640.33 649.15 617.31 663.88 605.38C683.18 589.74 700.06 602.92 713.02 618.45C720.38 604.21 730.48 591.02 741.99 582.29C773.89 558.07 802.32 583.05 817.42 610.01C824.98 623.5 842.17 665.39 823.17 671.17C792.89 680.38 758.68 676.75 727.36 672.14C723.13 671.52 719.02 670.74 715.34 669.75C695.27 675.5 674.2 676.04 653.59 672.8C645.41 671.51 637.79 669.35 635.77 665.52C634.74 663.56 634.87 661.2 635.16 659.01H635.17Z" fill="#A8C653"/>
</g>
<path d="M91.6599 265.54C63.0799 265.54 38.7599 245.09 33.8299 216.92C33.5099 215.1 34.7299 213.38 36.5399 213.06C38.3399 212.74 40.0799 213.96 40.3999 215.77C44.7599 240.74 66.3199 258.87 91.6499 258.87C116.98 258.87 138.54 240.75 142.91 215.77C143.23 213.96 144.96 212.73 146.77 213.06C148.58 213.38 149.8 215.11 149.48 216.92C144.55 245.09 120.23 265.54 91.6499 265.54H91.6599Z" fill="#A9C753"/>
<path d="M136.08 215.87C136.61 210.36 141.51 206.31 147.02 206.84C152.53 207.37 156.58 212.27 156.05 217.78C155.52 223.29 150.62 227.34 145.11 226.81C139.6 226.28 135.55 221.38 136.08 215.87Z" fill="#A9C753"/>
<path d="M47.24 215.87C46.71 210.36 41.81 206.31 36.3 206.84C30.79 207.37 26.74 212.27 27.27 217.78C27.8 223.29 32.7 227.34 38.21 226.81C43.72 226.28 47.77 221.38 47.24 215.87Z" fill="#A9C753"/>
<path d="M91.66 368.03C48.2 368.03 11.63 335.47 6.58998 292.3C6.37998 290.47 7.68998 288.81 9.50998 288.6C11.42 288.39 13 289.7 13.21 291.53C17.85 331.34 51.58 361.36 91.65 361.36C131.72 361.36 165.45 331.34 170.09 291.53C170.3 289.7 171.9 288.39 173.79 288.6C175.62 288.81 176.93 290.47 176.71 292.3C171.68 335.47 135.11 368.03 91.64 368.03H91.66Z" fill="#A9C753"/>
<path d="M163.28 291.72C163.65 286.19 168.44 282.01 173.97 282.39C179.5 282.76 183.68 287.55 183.3 293.08C182.93 298.61 178.14 302.79 172.61 302.41C167.08 302.04 162.9 297.25 163.28 291.72Z" fill="#A9C753"/>
<path d="M20.04 291.72C19.67 286.19 14.88 282.01 9.34996 282.39C3.81996 282.76 -0.360041 287.55 0.0199591 293.08C0.389959 298.61 5.17996 302.79 10.71 302.41C16.24 302.04 20.42 297.25 20.04 291.72Z" fill="#A9C753"/>
<path d="M91.69 553.32C89.85 553.32 88.35 551.83 88.35 549.98V154.88C88.35 153.04 89.84 151.54 91.69 151.54C93.54 151.54 95.03 153.03 95.03 154.88V549.98C95.03 551.82 93.54 553.32 91.69 553.32Z" fill="#A9C753"/>
<path d="M91.6899 165.41C97.2293 165.41 101.72 160.919 101.72 155.38C101.72 149.84 97.2293 145.35 91.6899 145.35C86.1505 145.35 81.6599 149.84 81.6599 155.38C81.6599 160.919 86.1505 165.41 91.6899 165.41Z" fill="#A9C753"/>
<path d="M24.0499 648.04C22.1599 628.15 38.3799 604.11 45.0999 588.39C53.9299 567.74 60.7599 553.02 76.6299 536.72C82.1099 531.09 87.7299 525.36 94.7399 521.82C106.88 515.69 120.54 518.86 130.23 527.61C148.82 544.42 159.8 568.32 168.18 591.49C174.8 609.78 198.63 653.94 180.83 668.39C177.24 671.3 134.75 673.73 116 674.99C93.0699 676.53 39.4499 681.31 26.9599 657.88C25.2899 654.75 24.3699 651.45 24.0499 648.05V648.04Z" fill="#006D68"/>
<path d="M91.8899 676.47H91.8599C91.0999 676.46 90.4999 675.83 90.5099 675.07C90.7699 660.62 88.0499 651.06 82.2299 636.3C78.9699 628.03 66.8799 601.24 47.7599 603.99C43.6199 604.59 38.4499 608.07 35.8599 611.08C35.3599 611.66 34.4899 611.72 33.9199 611.22C33.3499 610.72 33.2799 609.86 33.7799 609.28C36.6699 605.93 42.4099 601.99 47.3699 601.27C68.4699 598.24 81.3499 626.54 84.7999 635.29C90.6299 650.07 93.5399 660.29 93.2699 675.12C93.2599 675.87 92.6399 676.47 91.8999 676.47H91.8899Z" fill="#A8C653"/>
<path d="M115.65 676.36C115.01 676.36 114.44 675.89 114.34 675.23C107.22 628.09 91.05 606.08 79.51 593.62C73.67 587.32 65.4399 583.34 58.2999 583.57C53.4099 583.7 49.34 585.68 46.2 589.46C45.73 590.02 44.89 590.1 44.33 589.63C43.77 589.16 43.6899 588.32 44.1599 587.76C47.7599 583.43 52.6299 581.07 58.2299 580.92C66.0299 580.69 75.0199 584.89 81.4499 591.82C93.2299 604.53 109.74 626.97 116.96 674.83C117.07 675.56 116.57 676.23 115.85 676.34C115.78 676.34 115.72 676.35 115.65 676.35V676.36Z" fill="#A8C653"/>
<path d="M135.51 674.03C134.9 674.03 134.36 673.6 134.25 672.98C127.73 638.32 121.87 617.72 96.36 578.68C90.87 570.28 84.28 565.44 76.78 564.32C67.3 562.89 58.3 567.88 54.47 571.05C53.94 571.5 53.12 571.43 52.66 570.88C52.21 570.33 52.28 569.52 52.83 569.07C53.97 568.12 64.38 559.85 77.16 561.78C85.41 563.02 92.6 568.24 98.51 577.28C124.28 616.71 130.2 637.51 136.78 672.52C136.91 673.22 136.45 673.89 135.75 674.02C135.67 674.04 135.59 674.04 135.51 674.04V674.03Z" fill="#A8C653"/>
<g style="mix-blend-mode:multiply">
<path d="M144.91 582.94C175.4 548.17 213.2 586.88 235.45 614.78C243.22 624.52 249.81 636.99 253.88 649.44C260.7 670.3 258.11 673.4 236.17 680.07C221.17 684.63 205.39 686.56 189.78 687.49C175.1 688.37 160.36 688.26 145.69 687.42C136.89 687.01 128.81 686.85 120.75 683.35C119.19 682.67 117.62 681.99 116.25 680.98C115 680.06 113.96 678.89 112.95 677.71C109.67 673.83 109.06 672.12 109.25 667.01C109.4 662.85 109.87 658.7 110.52 654.58C114.71 628.05 127.27 603.07 144.92 582.95L144.91 582.94Z" fill="#A8C653"/>
</g>
<path d="M694.65 679.51H198.29C192.83 711.82 180.12 779.72 180.12 779.72L180.77 786.4H711.35L712.08 776.22C712.08 776.22 700.72 712.79 694.66 679.52L694.65 679.51Z" fill="#848484"/>
<path d="M711.34 788.06H180.77C179.91 788.06 179.19 787.41 179.11 786.55L178.46 779.87C178.45 779.71 178.46 779.56 178.48 779.4C178.61 778.72 191.25 711.15 196.65 679.22C196.79 678.42 197.48 677.83 198.29 677.83H694.65C695.45 677.83 696.15 678.41 696.29 679.2C702.35 712.47 713.71 775.9 713.71 775.9C713.73 776.04 713.74 776.18 713.73 776.31L713 786.49C712.94 787.36 712.21 788.04 711.34 788.04V788.06ZM182.28 784.72H709.78L710.39 776.29C709.69 772.39 699.17 713.64 693.26 681.17H199.7C194.34 712.68 182.61 775.44 181.8 779.78L182.28 784.71V784.72Z" fill="#848484"/>
<path d="M695.38 669.32H199.02C193 704.93 186.51 740.43 181.5 776.2H712.08C706.24 740.61 701.86 704.8 695.39 669.32H695.38Z" fill="white"/>
<path d="M712.07 777.87H181.49C181.01 777.87 180.55 777.66 180.23 777.3C179.91 776.94 179.77 776.45 179.84 775.97C183.61 749.03 188.31 721.81 192.85 695.48C194.37 686.67 195.89 677.86 197.37 669.05C197.51 668.25 198.2 667.66 199.01 667.66H695.37C696.17 667.66 696.87 668.24 697.01 669.03C700.82 689.96 703.96 711.35 707 732.04C709.12 746.44 711.31 761.34 713.7 775.95C713.78 776.43 713.64 776.93 713.33 777.3C713.01 777.67 712.55 777.89 712.06 777.89L712.07 777.87ZM183.41 774.54H710.11C707.83 760.53 705.74 746.3 703.72 732.52C700.75 712.32 697.68 691.44 693.99 671H200.43C199.02 679.36 197.58 687.71 196.14 696.06C191.71 721.75 187.14 748.29 183.42 774.55L183.41 774.54Z" fill="#848484"/>
<path d="M372.03 696.78C363.49 696.78 354.94 696.78 346.4 696.78C347.04 690.6 347.35 687.56 347.93 681.58C356.36 681.58 364.79 681.58 373.22 681.58C372.77 687.56 372.53 690.6 372.03 696.79V696.78Z" fill="#A9C753"/>
<path d="M403.26 696.79C394.73 696.79 386.21 696.79 377.68 696.79C378.15 690.61 378.38 687.56 378.79 681.58C387.19 681.58 395.6 681.58 404 681.58C403.73 687.56 403.58 690.61 403.26 696.79Z" fill="#A9C753"/>
<path d="M434.54 696.8C426.02 696.8 417.5 696.8 408.99 696.8C409.28 690.62 409.41 687.57 409.64 681.59C418.03 681.59 426.42 681.59 434.81 681.59C434.73 687.57 434.67 690.62 434.54 696.8Z" fill="#A9C753"/>
<path d="M465.73 696.8C457.21 696.8 448.7 696.8 440.18 696.8C440.28 690.61 440.32 687.57 440.36 681.58C448.75 681.58 457.13 681.58 465.52 681.58C465.63 687.56 465.67 690.61 465.73 696.8Z" fill="#A9C753"/>
<path d="M497.24 696.81C488.72 696.81 480.2 696.81 471.68 696.81C471.59 690.62 471.53 687.57 471.38 681.59C479.77 681.59 488.17 681.59 496.56 681.59C496.86 687.57 496.99 690.62 497.24 696.81Z" fill="#A9C753"/>
<path d="M528.57 696.82C520.04 696.82 511.5 696.82 502.97 696.82C502.69 690.63 502.54 687.58 502.21 681.59C510.62 681.59 519.03 681.59 527.45 681.59C527.93 687.58 528.15 690.63 528.58 696.82H528.57Z" fill="#A9C753"/>
<path d="M559.88 696.82C551.33 696.82 542.78 696.82 534.22 696.82C533.76 690.63 533.53 687.58 533.02 681.59C541.46 681.59 549.9 681.59 558.35 681.59C558.99 687.58 559.29 690.63 559.88 696.82Z" fill="#A9C753"/>
<path d="M611.54 696.83C602.94 696.83 594.34 696.83 585.74 696.83C585.04 690.63 584.68 687.58 583.91 681.59C592.43 681.59 600.94 681.59 609.46 681.59C610.32 687.58 610.73 690.63 611.54 696.83Z" fill="#A9C753"/>
<path d="M643.25 696.84C634.61 696.84 625.98 696.84 617.34 696.84C616.52 690.64 616.1 687.59 615.22 681.6C623.8 681.6 632.37 681.6 640.95 681.6C641.91 687.59 642.36 690.65 643.26 696.85L643.25 696.84Z" fill="#A9C753"/>
<path d="M675.03 696.85C666.35 696.85 657.67 696.85 648.98 696.85C648.07 690.65 647.61 687.59 646.64 681.6C655.29 681.6 663.93 681.6 672.58 681.6C673.59 687.59 674.08 690.65 675.03 696.85Z" fill="#A9C753"/>
<path d="M614.19 718.11C605.48 718.11 596.77 718.11 588.06 718.1C587.38 711.68 587.05 708.51 586.36 702.25C594.99 702.25 603.62 702.25 612.24 702.25C613.03 708.51 613.42 711.69 614.19 718.11Z" fill="#A9C753"/>
<path d="M646.21 718.13C637.49 718.13 628.77 718.13 620.05 718.12C619.26 711.7 618.86 708.52 618.05 702.26C626.71 702.26 635.37 702.26 644.02 702.26C644.9 708.52 645.34 711.7 646.2 718.12L646.21 718.13Z" fill="#A9C753"/>
<path d="M678.17 718.14C669.44 718.14 660.71 718.14 651.98 718.13C651.1 711.71 650.66 708.53 649.77 702.27C658.46 702.27 667.16 702.27 675.85 702.27C676.79 708.54 677.25 711.72 678.17 718.14Z" fill="#A9C753"/>
<path d="M616.83 740.05C608.01 740.05 599.19 740.05 590.37 740.04C589.67 733.47 589.33 730.21 588.65 723.74C597.39 723.74 606.13 723.74 614.87 723.75C615.65 730.21 616.03 733.48 616.83 740.05Z" fill="#A9C753"/>
<path d="M649.16 740.06C640.36 740.06 631.56 740.06 622.76 740.05C621.94 733.48 621.54 730.22 620.75 723.75C629.49 723.75 638.23 723.75 646.97 723.76C647.84 730.23 648.27 733.49 649.17 740.06H649.16Z" fill="#A9C753"/>
<path d="M681.31 740.08C672.53 740.08 663.75 740.08 654.98 740.07C654.07 733.5 653.63 730.24 652.75 723.77C661.49 723.77 670.23 723.77 678.98 723.78C679.9 730.25 680.37 733.51 681.31 740.08Z" fill="#A9C753"/>
<path d="M619.65 762.34C610.72 762.34 601.79 762.34 592.85 762.34C592.07 755.69 591.7 752.37 590.98 745.77C599.83 745.77 608.68 745.77 617.53 745.78C618.35 752.38 618.76 755.69 619.65 762.34Z" fill="#A9C753"/>
<path d="M652.3 762.35C643.42 762.35 634.53 762.35 625.65 762.35C624.75 755.7 624.32 752.38 623.48 745.79C632.3 745.79 641.13 745.79 649.95 745.8C650.86 752.39 651.32 755.71 652.3 762.36V762.35Z" fill="#A9C753"/>
<path d="M684.63 762.36C675.8 762.36 666.98 762.36 658.15 762.36C657.16 755.72 656.69 752.4 655.77 745.8C664.56 745.8 673.35 745.8 682.14 745.81C683.1 752.4 683.6 755.72 684.63 762.36Z" fill="#A9C753"/>
<path d="M245.4 696.76C236.72 696.76 228.04 696.76 219.35 696.76C220.41 690.59 220.94 687.55 221.95 681.58C230.6 681.58 239.24 681.58 247.89 681.58C246.92 687.55 246.42 690.59 245.4 696.77V696.76Z" fill="#A9C753"/>
<path d="M277.04 696.77C268.4 696.77 259.77 696.77 251.13 696.77C252.14 690.6 252.63 687.56 253.59 681.58C262.17 681.58 270.74 681.58 279.32 681.58C278.44 687.55 277.98 690.6 277.05 696.77H277.04Z" fill="#A9C753"/>
<path d="M308.63 696.77C300.03 696.77 291.43 696.77 282.83 696.77C283.74 690.6 284.19 687.55 285.05 681.58C293.57 681.58 302.08 681.58 310.6 681.58C309.84 687.56 309.44 690.6 308.63 696.78V696.77Z" fill="#A9C753"/>
<path d="M340.02 696.78C331.45 696.78 322.88 696.78 314.32 696.78C315.11 690.6 315.5 687.56 316.23 681.58C324.7 681.58 333.16 681.58 341.63 681.58C341.01 687.56 340.69 690.6 340.02 696.78Z" fill="#A9C753"/>
<path d="M438.89 718.04C427.72 718.04 416.54 718.04 405.37 718.03C405.7 711.62 405.86 708.46 406.18 702.21C417.19 702.21 428.2 702.21 439.2 702.21C439.09 708.46 439.02 711.63 438.89 718.04Z" fill="#A9C753"/>
<path d="M479.8 718.06C468.63 718.06 457.46 718.06 446.28 718.05C446.36 711.64 446.41 708.47 446.48 702.22C457.49 702.22 468.49 702.22 479.5 702.22C479.63 708.47 479.68 711.64 479.8 718.05V718.06Z" fill="#A9C753"/>
<path d="M520.85 718.07C509.67 718.07 498.5 718.07 487.32 718.06C487.16 711.65 487.09 708.48 486.91 702.22C497.93 702.22 508.94 702.22 519.96 702.22C520.32 708.47 520.49 711.65 520.84 718.06L520.85 718.07Z" fill="#A9C753"/>
<path d="M561.79 718.09C550.61 718.09 539.42 718.09 528.24 718.08C527.85 711.67 527.66 708.49 527.26 702.24C538.3 702.24 549.34 702.24 560.38 702.24C560.95 708.5 561.23 711.67 561.79 718.09Z" fill="#A9C753"/>
<path d="M274.03 717.97C254.59 717.97 235.16 717.95 215.72 717.94C216.8 711.55 217.35 708.38 218.42 702.15C237.75 702.15 257.08 702.16 276.4 702.17C275.46 708.41 274.98 711.57 274.02 717.97H274.03Z" fill="#A9C753"/>
<path d="M315.03 717.98C303.83 717.98 292.64 717.98 281.44 717.97C282.37 711.57 282.84 708.41 283.76 702.17C294.85 702.17 305.93 702.17 317.02 702.17C316.23 708.41 315.83 711.58 315.03 717.98Z" fill="#A9C753"/>
<path d="M356.11 718C344.93 718 333.74 718 322.56 717.99C323.32 711.59 323.71 708.42 324.46 702.18C335.51 702.18 346.56 702.18 357.6 702.18C357.01 708.42 356.71 711.59 356.11 717.99V718Z" fill="#A9C753"/>
<path d="M397.04 718.02C385.86 718.02 374.69 718.02 363.51 718.01C364.07 711.61 364.35 708.44 364.9 702.2C375.92 702.2 386.94 702.2 397.96 702.2C397.6 708.45 397.41 711.61 397.03 718.02H397.04Z" fill="#A9C753"/>
<path d="M413.43 739.94C402.04 739.94 390.65 739.93 379.26 739.92C379.7 733.35 379.93 730.09 380.4 723.64C391.63 723.64 402.86 723.65 414.09 723.66C413.82 730.11 413.68 733.38 413.43 739.95V739.94Z" fill="#A9C753"/>
<path d="M455.16 739.96C443.76 739.96 432.37 739.95 420.97 739.94C421.17 733.37 421.29 730.11 421.52 723.65C432.75 723.65 443.98 723.66 455.21 723.67C455.18 730.13 455.17 733.39 455.16 739.96Z" fill="#A9C753"/>
<path d="M497.02 739.98C485.63 739.98 474.23 739.97 462.84 739.96C462.8 733.39 462.79 730.13 462.78 723.67C474.01 723.67 485.24 723.68 496.47 723.69C496.68 730.15 496.79 733.41 497.02 739.98Z" fill="#A9C753"/>
<path d="M563.71 740.02C543.99 740.01 524.27 740 504.56 739.99C504.28 733.42 504.15 730.16 503.9 723.7C523.36 723.7 542.83 723.72 562.29 723.73C562.85 730.19 563.13 733.46 563.71 740.02Z" fill="#A9C753"/>
<path d="M245.96 739.85C234.67 739.85 223.38 739.84 212.1 739.83C213.16 733.26 213.7 730 214.78 723.56C226.02 723.56 237.26 723.57 248.5 723.58C247.48 730.03 246.97 733.29 245.97 739.85H245.96Z" fill="#A9C753"/>
<path d="M287.42 739.87C276.09 739.87 264.77 739.86 253.44 739.85C254.42 733.28 254.92 730.02 255.92 723.57C267.16 723.57 278.39 723.58 289.63 723.59C288.73 730.04 288.29 733.3 287.42 739.87Z" fill="#A9C753"/>
<path d="M329.12 739.89C317.76 739.89 306.41 739.88 295.05 739.87C295.89 733.3 296.32 730.04 297.19 723.59C308.42 723.59 319.66 723.6 330.89 723.61C330.17 730.06 329.81 733.32 329.11 739.89H329.12Z" fill="#A9C753"/>
<path d="M370.77 739.92C359.39 739.92 348.02 739.91 336.64 739.9C337.3 733.33 337.64 730.07 338.33 723.62C349.56 723.62 360.79 723.63 372.03 723.64C371.52 730.09 371.26 733.35 370.78 739.92H370.77Z" fill="#A9C753"/>
<path d="M438.27 762.28C426.65 762.28 415.04 762.28 403.42 762.27C403.64 755.6 403.77 752.27 404.05 745.67C415.5 745.67 426.96 745.68 438.41 745.69C438.32 752.29 438.29 755.61 438.27 762.28Z" fill="#A9C753"/>
<path d="M480.82 762.29C469.2 762.29 457.58 762.29 445.96 762.28C445.94 755.61 445.95 752.29 445.99 745.69C457.44 745.69 468.9 745.7 480.35 745.71C480.51 752.31 480.6 755.63 480.82 762.3V762.29Z" fill="#A9C753"/>
<path d="M523.44 762.31C511.84 762.31 500.24 762.31 488.63 762.3C488.36 755.64 488.25 752.31 488.05 745.71C499.49 745.71 510.94 745.72 522.38 745.73C522.77 752.33 522.98 755.65 523.43 762.31H523.44Z" fill="#A9C753"/>
<path d="M565.8 762.32C554.23 762.32 542.67 762.32 531.1 762.31C530.6 755.65 530.38 752.33 529.95 745.73C541.37 745.73 552.8 745.74 564.22 745.75C564.82 752.35 565.13 755.67 565.8 762.32Z" fill="#A9C753"/>
<path d="M267.84 762.22C248.11 762.22 228.39 762.21 208.66 762.2C209.63 755.5 210.14 752.17 211.18 745.57C230.8 745.58 250.42 745.59 270.03 745.6C269.12 752.21 268.67 755.53 267.83 762.22H267.84Z" fill="#A9C753"/>
<path d="M309.9 762.23C298.41 762.23 286.91 762.23 275.42 762.22C276.24 755.53 276.67 752.2 277.56 745.6C288.94 745.6 300.33 745.61 311.71 745.62C310.96 752.22 310.59 755.55 309.9 762.24V762.23Z" fill="#A9C753"/>
<path d="M352.31 762.25C340.76 762.25 329.2 762.25 317.65 762.24C318.31 755.56 318.66 752.23 319.38 745.63C330.8 745.63 342.21 745.64 353.63 745.65C353.07 752.25 352.81 755.58 352.31 762.26V762.25Z" fill="#A9C753"/>
<path d="M394.76 762.26C383.16 762.26 371.57 762.26 359.97 762.25C360.42 755.57 360.67 752.25 361.19 745.64C372.63 745.64 384.07 745.65 395.51 745.66C395.18 752.26 395.02 755.59 394.76 762.26Z" fill="#A9C753"/>
<path d="M761.11 151.32H133.28V562.28H761.11V151.32Z" fill="white"/>
<path d="M761.12 563.95H133.28C132.36 563.95 131.61 563.2 131.61 562.28V151.32C131.61 150.4 132.36 149.65 133.28 149.65H761.11C762.03 149.65 762.78 150.4 762.78 151.32V562.28C762.78 563.2 762.03 563.95 761.11 563.95H761.12ZM134.95 560.62H759.45V152.99H134.95V560.62Z" fill="#848484"/>
<path d="M761.12 563.95H133.28C132.36 563.95 131.61 563.2 131.61 562.28C131.61 561.36 132.36 560.61 133.28 560.61H761.11C762.03 560.61 762.78 561.36 762.78 562.28C762.78 563.2 762.03 563.95 761.11 563.95H761.12Z" fill="#848484"/>
<path d="M761.11 132.68H133.28V151.33H761.11V132.68Z" fill="#848484"/>
<path d="M761.12 152.99H133.28C132.36 152.99 131.61 152.24 131.61 151.32V132.67C131.61 131.75 132.36 131 133.28 131H761.11C762.03 131 762.78 131.75 762.78 132.67V151.32C762.78 152.24 762.03 152.99 761.11 152.99H761.12ZM134.95 149.66H759.45V134.35H134.95V149.66Z" fill="#848484"/>
<path d="M513.67 562.29H380.74V613.3H513.67V562.29Z" fill="#848484"/>
<path d="M513.66 614.96H380.73C379.81 614.96 379.06 614.21 379.06 613.29V562.28C379.06 561.36 379.81 560.61 380.73 560.61H513.66C514.58 560.61 515.33 561.36 515.33 562.28V613.29C515.33 614.21 514.58 614.96 513.66 614.96ZM382.4 611.63H511.99V563.96H382.4V611.63Z" fill="#848484"/>
<path d="M554.97 611.76H339.42V642.1H554.97V611.76Z" fill="white"/>
<path d="M554.97 643.77H339.42C338.5 643.77 337.75 643.02 337.75 642.1V611.76C337.75 610.84 338.5 610.09 339.42 610.09H554.97C555.89 610.09 556.64 610.84 556.64 611.76V642.1C556.64 643.02 555.89 643.77 554.97 643.77ZM341.09 640.44H553.3V613.43H341.09V640.44Z" fill="#848484"/>
<path d="M639.35 488.29H255.63V241.29L639.35 240.93V488.29Z" fill="white"/>
<g opacity="0.2">
<path d="M639.35 488.29H255.63V241.29L639.35 240.93V488.29Z" fill="#A9C753"/>
</g>
<path d="M639.35 225.32H255.63V243.42H639.35V225.32Z" fill="black"/>
<path d="M633.284 231.321L631.382 229.419L623.3 237.501L625.202 239.403L633.284 231.321Z" fill="#A8C653"/>
<path d="M631.379 239.404L633.281 237.502L625.199 229.42L623.296 231.322L631.379 239.404Z" fill="#A8C653"/>
<path d="M611.05 231.69V237.4H604.45V231.69H611.05ZM613.05 229.68H602.44V239.39H613.05V229.68Z" fill="#A8C653"/>
<path d="M592.15 237.26H581.54V239.4H592.15V237.26Z" fill="#A8C653"/>
<path d="M612.54 362.51C612.54 362.51 538.52 468.07 447.2 468.07C355.88 468.07 281.86 362.51 281.86 362.51C281.86 362.51 355.88 256.95 447.2 256.95C538.52 256.95 612.54 362.51 612.54 362.51Z" fill="#006D68"/>
<path d="M612.54 362.51C612.54 362.51 538.52 468.07 447.2 468.07C355.88 468.07 281.86 362.51 281.86 362.51C281.86 362.51 355.88 256.95 447.2 256.95C538.52 256.95 612.54 362.51 612.54 362.51Z" fill="#006D68"/>
<path d="M447.2 468.48C399.9 468.48 357.37 439.72 330.02 415.6C300.41 389.48 281.71 363.01 281.53 362.75C281.4 362.56 281.45 362.31 281.63 362.18C281.82 362.05 282.07 362.09 282.21 362.28C282.4 362.54 301.04 388.94 330.59 415C357.83 439.02 400.18 467.66 447.21 467.66C494.24 467.66 536.6 439.02 563.85 414.99C593.39 388.93 612.03 362.55 612.21 362.28C612.34 362.09 612.6 362.05 612.79 362.18C612.98 362.31 613.02 362.57 612.89 362.75C612.7 363.01 594.01 389.48 564.4 415.6C537.05 439.72 494.51 468.48 447.22 468.48H447.2Z" fill="#A9C753"/>
<path d="M612.54 362.92C612.41 362.92 612.28 362.86 612.2 362.74C612.01 362.48 593.37 336.08 563.83 310.02C536.59 286 494.24 257.36 447.21 257.36C400.18 257.36 357.83 286 330.59 310.02C301.04 336.07 282.4 362.47 282.21 362.74C282.08 362.93 281.82 362.97 281.63 362.84C281.44 362.71 281.4 362.45 281.53 362.27C281.72 362.01 300.41 335.54 330.02 309.42C357.37 285.3 399.91 256.54 447.2 256.54C494.49 256.54 537.03 285.3 564.38 309.42C593.99 335.54 612.68 362.01 612.87 362.27C613 362.46 612.95 362.71 612.77 362.84C612.7 362.89 612.61 362.91 612.53 362.91L612.54 362.92Z" fill="#A9C753"/>
<path d="M447.2 379.27C457.009 379.27 464.96 371.319 464.96 361.51C464.96 351.701 457.009 343.75 447.2 343.75C437.391 343.75 429.44 351.701 429.44 361.51C429.44 371.319 437.391 379.27 447.2 379.27Z" fill="black"/>
<path d="M447.2 382.89C435.41 382.89 425.82 373.3 425.82 361.51C425.82 349.72 435.41 340.13 447.2 340.13C458.99 340.13 468.58 349.72 468.58 361.51C468.58 373.3 458.99 382.89 447.2 382.89ZM447.2 340.7C435.73 340.7 426.4 350.03 426.4 361.5C426.4 372.97 435.73 382.3 447.2 382.3C458.67 382.3 468 372.97 468 361.5C468 350.03 458.67 340.7 447.2 340.7Z" fill="white"/>
<path d="M447.2 387.28C432.99 387.28 421.42 375.72 421.42 361.5C421.42 347.28 432.98 335.72 447.2 335.72C461.42 335.72 472.98 347.28 472.98 361.5C472.98 375.72 461.41 387.28 447.2 387.28ZM447.2 336.69C433.52 336.69 422.39 347.82 422.39 361.51C422.39 375.2 433.52 386.33 447.2 386.33C460.88 386.33 472.02 375.2 472.02 361.51C472.02 347.82 460.89 336.69 447.2 336.69Z" fill="#A9C753"/>
<path d="M447.2 443.92C401.76 443.92 364.79 406.95 364.79 361.5C364.79 316.05 401.76 279.08 447.2 279.08C492.64 279.08 529.62 316.05 529.62 361.5C529.62 406.95 492.65 443.92 447.2 443.92ZM447.2 280.44C402.5 280.44 366.13 316.81 366.13 361.51C366.13 406.21 402.5 442.58 447.2 442.58C491.9 442.58 528.27 406.21 528.27 361.51C528.27 316.81 491.9 280.44 447.2 280.44Z" fill="black"/>
<path d="M510.44 368.26C508.9 368.26 507.29 368.02 506.16 366.84C504.47 365.09 505.33 362.43 506.02 360.3C506.24 359.62 506.45 358.97 506.55 358.44C507.02 355.92 507.11 353.19 506.83 349.84C506.38 344.63 505.23 339.85 503.4 335.64C498.35 324 489.63 315.92 477.47 311.62C476.55 311.3 475.46 310.97 474.27 310.62C469.13 309.1 462.74 307.2 460.76 302.9C460.04 301.33 460.17 299.54 460.27 298.09C460.46 295.48 460.78 292.85 461.1 290.31C461.44 287.59 461.78 284.78 461.96 282.02L463.31 282.11C463.13 284.91 462.78 287.74 462.44 290.48C462.13 293.01 461.8 295.62 461.62 298.19C461.52 299.54 461.41 301.08 461.99 302.33C463.71 306.07 470.04 307.95 474.66 309.32C475.87 309.68 476.99 310.01 477.93 310.34C490.46 314.77 499.45 323.09 504.65 335.09C506.53 339.44 507.72 344.36 508.18 349.71C508.48 353.18 508.38 356.03 507.88 358.68C507.77 359.3 507.54 359.98 507.31 360.71C506.7 362.59 506.01 364.73 507.14 365.9C508.26 367.06 510.23 366.95 512 366.85C512.41 366.83 512.81 366.8 513.19 366.8C514.53 366.78 516.04 366.75 517.24 366.11C519.64 364.83 519.16 359.51 518.87 356.32C518.81 355.67 518.76 355.09 518.73 354.61C518.45 349.25 517.49 343.72 515.87 338.16C513.55 330.16 509.54 323.01 503.95 316.9C497.24 309.57 487.77 303.19 477.98 299.39L478.47 298.13C488.45 302 498.1 308.51 504.95 315.98C510.68 322.24 514.79 329.57 517.17 337.77C518.81 343.43 519.79 349.06 520.08 354.52C520.1 354.98 520.15 355.55 520.21 356.18C520.55 359.92 521.06 365.58 517.87 367.28C516.38 368.07 514.7 368.1 513.21 368.13C512.85 368.13 512.46 368.16 512.07 368.18C511.56 368.21 511.01 368.24 510.45 368.24L510.44 368.26Z" fill="black"/>
<path d="M479.27 296.59C477.98 296.05 476.49 296.66 475.95 297.95C475.41 299.24 476.02 300.73 477.31 301.27C478.6 301.81 480.09 301.2 480.63 299.91C481.17 298.62 480.56 297.13 479.27 296.59Z" fill="black"/>
<path d="M451.78 442.83L450.44 442.63C451.28 436.99 452.01 431.01 450.91 425.34C448.88 414.91 441.28 411.8 433.24 408.51C428.53 406.58 423.65 404.59 419.63 401.04C416.03 397.87 412.69 394.02 409.69 389.61C408.94 388.51 408.27 387.18 407.56 385.79C405.68 382.08 403.74 378.24 400.05 377.89C398.33 377.73 396.42 378.12 394.23 379.09C392.91 379.67 392.02 380.23 391.32 380.9C386.14 385.88 391.58 392.83 395.55 397.9C396.07 398.57 396.56 399.19 396.99 399.77C400.76 404.83 405.34 409.61 411.01 414.39C413.32 416.34 416.1 418.08 418.8 419.76C423.01 422.39 427.36 425.11 430.33 428.82C433.21 432.41 434.55 438.37 431.38 442.32L430.33 441.48C433.06 438.07 431.83 432.85 429.27 429.66C426.45 426.13 422.19 423.47 418.07 420.9C415.34 419.19 412.51 417.42 410.13 415.42C404.38 410.57 399.73 405.72 395.9 400.58C395.48 400.01 394.99 399.39 394.48 398.73C390.44 393.56 384.33 385.75 390.38 379.93C391.2 379.14 392.21 378.5 393.68 377.85C396.09 376.79 398.21 376.35 400.17 376.54C404.6 376.95 406.81 381.32 408.76 385.17C409.45 386.53 410.1 387.81 410.8 388.85C413.74 393.17 417.01 396.93 420.52 400.03C424.37 403.42 429.14 405.38 433.75 407.26C442.14 410.69 450.06 413.94 452.23 425.08C453.38 430.96 452.63 437.07 451.78 442.83Z" fill="black"/>
<path d="M478.41 437.51C476.61 431.7 474.17 427.7 470.55 422.77C466.26 416.92 465.79 412.01 469.18 408.18C473.97 402.75 478.96 397.46 484.01 392.47L484.91 391.57C488.49 387.98 491.88 384.59 497.77 386.96C504.73 389.75 509.99 396.03 514.65 401.57C515.2 402.22 515.74 402.87 516.28 403.51L515.25 404.38C514.71 403.74 514.17 403.09 513.61 402.44C509.06 397.02 503.91 390.88 497.27 388.21C492.19 386.17 489.4 388.98 485.87 392.52L484.96 393.43C479.93 398.4 474.96 403.66 470.19 409.07C467.25 412.4 467.72 416.62 471.64 421.97C475.25 426.89 477.86 431.14 479.7 437.11L478.41 437.51Z" fill="black"/>
<path d="M388 342C385.05 342 381.76 340.88 378.65 338.77C377.17 337.77 375.87 336.44 374.62 335.16C373.59 334.11 372.53 333.02 371.4 332.15L372.22 331.08C373.43 332.01 374.53 333.13 375.59 334.22C376.85 335.51 378.05 336.73 379.41 337.66C383.13 340.18 387.07 341.18 390.18 340.41C392.46 339.85 394.25 338.38 395.5 336.05C407.84 313.01 422.73 308.1 433.61 304.51C436.08 303.7 438.4 302.93 440.47 302.03C445.63 299.8 444.63 297.24 442.64 292.12L442.4 291.49C442.16 290.88 441.95 290.38 441.59 290.06C441.17 289.7 440.54 289.57 439.97 289.49C428.63 287.96 413.71 296.78 405.86 302.17C397.81 307.7 392.43 314.12 389.39 321.82L388.13 321.32C391.27 313.37 396.82 306.74 405.1 301.06C414.88 294.34 428.91 286.64 440.15 288.16C440.91 288.26 441.79 288.45 442.47 289.05C443.11 289.61 443.41 290.38 443.66 291L443.9 291.63C445.83 296.6 447.36 300.52 441.01 303.26C438.89 304.18 436.53 304.96 434.04 305.78C422.79 309.49 408.78 314.12 396.69 336.68C395.25 339.36 393.17 341.06 390.51 341.71C389.72 341.91 388.88 342 388.01 342H388Z" fill="black"/>
<path d="M386.46 320.56C385.96 321.87 386.62 323.33 387.93 323.83C389.24 324.33 390.7 323.67 391.2 322.36C391.7 321.05 391.04 319.59 389.73 319.09C388.42 318.59 386.96 319.25 386.46 320.56Z" fill="black"/>
<path d="M411.58 426.99C403.08 422.76 395.34 415.73 388.58 406.1C385.44 401.64 382.58 396.74 379.83 391.13L379.5 390.46C376.63 384.63 372.7 376.64 379.73 371.44C384.57 367.86 390.06 363.81 396.16 361.45C399.1 360.31 403.54 360.38 406.37 362.7C407.94 363.99 409.07 365.69 410.16 367.32L410.78 368.25C415.02 374.45 420.55 380.55 425.41 385.71C430.42 391.03 435.91 395.31 441.73 398.41L441.1 399.6C435.15 396.43 429.55 392.06 424.43 386.63C419.54 381.43 413.96 375.28 409.67 369.01L409.04 368.07C408 366.51 406.93 364.91 405.51 363.74C403.13 361.77 399.16 361.74 396.65 362.71C390.73 365.01 385.31 369 380.54 372.53C374.41 377.06 377.76 383.86 380.72 389.87L381.05 390.55C383.77 396.1 386.59 400.94 389.69 405.34C396.33 414.78 403.9 421.67 412.19 425.8L411.59 427.01L411.58 426.99Z" fill="black"/>
<path d="M412.91 424.02C414.17 424.64 414.69 426.15 414.07 427.41C413.45 428.67 411.94 429.19 410.68 428.57C409.42 427.95 408.9 426.44 409.52 425.18C410.14 423.92 411.65 423.4 412.91 424.02Z" fill="black"/>
<path d="M440.11 401.09C441.34 401.76 442.88 401.31 443.55 400.08C444.22 398.85 443.77 397.31 442.54 396.64C441.31 395.97 439.77 396.42 439.1 397.65C438.43 398.88 438.88 400.42 440.11 401.09Z" fill="black"/>
<path d="M466.44 440.87C465.98 436.48 463.74 431.27 461.76 426.67C461.1 425.14 460.47 423.66 459.93 422.29C459.47 421.12 458.98 420.02 458.48 418.93C456.93 415.5 455.47 412.27 455.73 408.14C456.19 400.75 461.54 397.27 466.72 393.91C468.31 392.88 469.95 391.81 471.43 390.65C473.91 388.7 476.19 386.34 478.39 384.06C479.76 382.64 481.17 381.18 482.64 379.81L483.57 380.79C482.12 382.14 480.72 383.59 479.36 385C477.12 387.31 474.81 389.71 472.26 391.71C470.73 392.91 469.06 394 467.45 395.04C462.33 398.36 457.49 401.5 457.08 408.22C456.84 412.01 458.24 415.1 459.72 418.37C460.22 419.48 460.73 420.6 461.19 421.79C461.72 423.15 462.35 424.61 463 426.13C465.01 430.82 467.3 436.13 467.78 440.72L466.44 440.86V440.87Z" fill="black"/>
<path d="M481.32 378.65C482.32 377.67 483.93 377.69 484.9 378.7C485.87 379.71 485.86 381.31 484.85 382.28C483.84 383.25 482.24 383.24 481.27 382.23C480.29 381.23 480.31 379.62 481.32 378.65Z" fill="black"/>
<path d="M490.38 429.87L482.6 418.69C481.83 417.58 480.95 416.32 480.74 414.8C480.27 411.49 482.52 408.44 484.79 405.89C485.12 405.53 485.5 405.07 485.92 404.57C487.63 402.54 489.98 399.75 491.79 398.87C496.78 396.44 501.04 402.76 503.87 406.93L502.76 407.69C500.2 403.9 496.31 398.17 492.39 400.08C490.83 400.84 488.5 403.61 486.96 405.44C486.53 405.95 486.14 406.42 485.81 406.79C483.75 409.11 481.7 411.85 482.09 414.62C482.26 415.82 483.04 416.94 483.73 417.93L491.51 429.11L490.4 429.88L490.38 429.87Z" fill="black"/>
<path d="M501.15 408.64C501.95 409.79 503.53 410.08 504.68 409.28C505.83 408.48 506.12 406.9 505.32 405.75C504.52 404.6 502.94 404.31 501.79 405.11C500.64 405.91 500.35 407.49 501.15 408.64Z" fill="black"/>
<path d="M485.32 369.71C482.26 369.71 479.34 368.82 477.42 367.18C476.83 366.67 476.41 366.11 476.19 365.52C475.94 364.87 475.93 364.2 475.91 363.59C475.76 356.75 474.52 344.38 467.86 336.98C460.77 329.1 448.76 328.32 439.98 331.05C435.01 332.6 431.41 334.71 428.31 337.89C425.11 341.17 422.7 345.1 420.38 348.9C420.05 349.43 419.73 350.09 419.38 350.79C418.22 353.13 416.76 356.03 414.29 356.42C409.51 357.16 403.89 350.39 402.81 349.02C399.94 345.39 401.31 341.35 403.02 337.87C406.65 330.51 413.4 324.58 420.17 319.27C426.81 314.05 437.21 307.72 448.99 307.18C449.58 307.15 450.07 306.91 450.5 306.43C453.07 303.52 452.31 293.46 451.81 286.81C451.57 283.69 451.39 281.22 451.53 279.89L452.87 280.03C452.74 281.24 452.93 283.77 453.16 286.7C453.71 293.99 454.47 303.98 451.52 307.32C450.85 308.08 450.02 308.48 449.06 308.53C437.64 309.05 427.5 315.23 421.02 320.33C414.38 325.54 407.76 331.34 404.25 338.46C402.72 341.56 401.48 345.14 403.88 348.18C406.64 351.67 410.98 355.56 414.09 355.08C415.87 354.8 417.16 352.24 418.18 350.18C418.55 349.44 418.9 348.75 419.24 348.19C421.49 344.51 424.05 340.34 427.36 336.95C430.58 333.64 434.47 331.36 439.6 329.76C448.78 326.9 461.39 327.75 468.88 336.07C475.83 343.8 477.12 356.52 477.27 363.42C477.29 364.09 477.3 364.6 477.46 365.02C477.61 365.4 477.89 365.78 478.32 366.14C480.86 368.31 485.46 368.96 489.51 367.73C491.34 367.17 494.56 365.73 495.49 362.37C496.53 358.58 494.28 352.61 492.79 348.66L492.46 347.78C490.44 342.38 487.63 337.63 484.09 333.65C479.51 328.5 472.51 321.29 464.62 318.22L465.11 316.96C473.27 320.13 480.43 327.49 485.1 332.75C488.74 336.85 491.64 341.75 493.72 347.3L494.05 348.18C495.6 352.29 497.95 358.51 496.79 362.72C495.99 365.63 493.48 367.93 489.91 369.02C488.42 369.47 486.87 369.69 485.35 369.69L485.32 369.71Z" fill="black"/>
<path d="M465.8 315.31C464.48 314.84 463.03 315.53 462.56 316.85C462.09 318.17 462.78 319.62 464.1 320.09C465.42 320.56 466.87 319.87 467.34 318.55C467.81 317.23 467.12 315.78 465.8 315.31Z" fill="black"/>
<path d="M442.97 442.88H441.62C441.62 442.09 441.62 441.31 441.64 440.54C441.7 434.48 441.75 429.25 437.74 423.88C435.16 420.43 431.51 417.32 426.24 414.09C416.82 408.32 409.26 402.73 402.99 394.24L404.08 393.44C410.22 401.75 417.66 407.25 426.94 412.94C432.36 416.26 436.13 419.48 438.82 423.07C443.1 428.8 443.05 434.24 442.99 440.55C442.99 441.31 442.97 442.09 442.97 442.88Z" fill="black"/>
<path d="M401.73 395.44C400.86 394.34 401.05 392.75 402.15 391.88C403.25 391.01 404.84 391.2 405.71 392.3C406.58 393.4 406.39 394.99 405.29 395.86C404.19 396.73 402.6 396.54 401.73 395.44Z" fill="black"/>
<path d="M366.51 372.56L365.73 371.46C367.58 370.16 370.92 368.57 374.79 366.74C382.39 363.14 392.8 358.21 392.79 354.33C392.79 351.87 381.57 345.97 375.54 342.8C372.75 341.33 370.34 340.06 369.08 339.24L369.82 338.11C371.03 338.9 373.41 340.15 376.17 341.61C386.35 346.96 394.13 351.3 394.14 354.33C394.14 359.07 384.17 363.79 375.37 367.96C371.72 369.69 368.27 371.33 366.51 372.56Z" fill="black"/>
<path d="M380.69 355.04C376.25 354.05 369 352.82 365.95 352.47L366.11 351.13C369.19 351.49 376.52 352.72 380.99 353.72L380.7 355.04H380.69Z" fill="black"/>
<path d="M380.16 356.91C381.53 357.2 382.87 356.32 383.16 354.95C383.45 353.58 382.57 352.24 381.2 351.95C379.83 351.66 378.49 352.54 378.2 353.91C377.91 355.28 378.79 356.62 380.16 356.91Z" fill="black"/>
<path d="M524.73 384.81C521.64 384.45 514.31 383.22 509.85 382.22L510.14 380.9C514.57 381.89 521.83 383.11 524.89 383.47L524.73 384.81Z" fill="black"/>
<path d="M510.67 379.03C509.3 378.74 507.96 379.62 507.67 380.99C507.38 382.36 508.26 383.7 509.63 383.99C511 384.28 512.34 383.4 512.63 382.03C512.92 380.66 512.04 379.32 510.67 379.03Z" fill="black"/>
<path d="M520.19 398.45C519.94 398.27 519.53 397.98 519 397.6C510.35 391.46 498.97 382.71 500.09 377.71C500.44 376.13 501.92 375.09 504.48 374.63C512.09 373.25 519.85 372.46 527.56 372.28L527.62 373.63L526.26 373.72V373.67C519.06 373.91 511.81 374.68 504.72 375.96C502.74 376.32 501.63 377.01 501.4 378.01C500.92 380.16 503.72 385.11 519.78 396.51C520.32 396.9 520.74 397.19 520.99 397.38L520.19 398.46V398.45Z" fill="black"/>
<path d="M412.5 343.69L411.26 343.16C418.37 326.36 439.83 319.01 448.73 316.63L449.08 317.93C440.37 320.26 419.38 327.43 412.5 343.69Z" fill="black"/>
<path d="M449.45 319.81C450.8 319.44 451.59 318.05 451.23 316.7C450.86 315.35 449.47 314.55 448.12 314.92C446.77 315.29 445.97 316.68 446.34 318.03C446.71 319.38 448.1 320.17 449.45 319.81Z" fill="black"/>
<path d="M391.81 342.64C393.312 342.64 394.53 341.422 394.53 339.92C394.53 338.418 393.312 337.2 391.81 337.2C390.308 337.2 389.09 338.418 389.09 339.92C389.09 341.422 390.308 342.64 391.81 342.64Z" fill="#A9C753"/>
<path d="M444.63 297.2C446.132 297.2 447.35 295.982 447.35 294.48C447.35 292.978 446.132 291.76 444.63 291.76C443.128 291.76 441.91 292.978 441.91 294.48C441.91 295.982 443.128 297.2 444.63 297.2Z" fill="#A9C753"/>
<path d="M412.71 345.37C414.212 345.37 415.43 344.152 415.43 342.65C415.43 341.148 414.212 339.93 412.71 339.93C411.208 339.93 409.99 341.148 409.99 342.65C409.99 344.152 411.208 345.37 412.71 345.37Z" fill="#A9C753"/>
<path d="M411.05 372.05C412.552 372.05 413.77 370.832 413.77 369.33C413.77 367.828 412.552 366.61 411.05 366.61C409.548 366.61 408.33 367.828 408.33 369.33C408.33 370.832 409.548 372.05 411.05 372.05Z" fill="#A9C753"/>
<path d="M467.62 397.12C469.122 397.12 470.34 395.902 470.34 394.4C470.34 392.898 469.122 391.68 467.62 391.68C466.118 391.68 464.9 392.898 464.9 394.4C464.9 395.902 466.118 397.12 467.62 397.12Z" fill="#A9C753"/>
<path d="M504.68 341.39C506.182 341.39 507.4 340.172 507.4 338.67C507.4 337.168 506.182 335.95 504.68 335.95C503.178 335.95 501.96 337.168 501.96 338.67C501.96 340.172 503.178 341.39 504.68 341.39Z" fill="#A9C753"/>
<path d="M426.59 416.24C428.092 416.24 429.31 415.022 429.31 413.52C429.31 412.018 428.092 410.8 426.59 410.8C425.088 410.8 423.87 412.018 423.87 413.52C423.87 415.022 425.088 416.24 426.59 416.24Z" fill="#A9C753"/>
<path d="M447.2 452.26C397.16 452.26 356.44 411.55 356.44 361.5C356.44 311.45 397.15 270.74 447.2 270.74C497.25 270.74 537.96 311.45 537.96 361.5C537.96 411.55 497.24 452.26 447.2 452.26ZM447.2 273.9C398.9 273.9 359.6 313.2 359.6 361.5C359.6 409.8 398.9 449.1 447.2 449.1C495.5 449.1 534.81 409.8 534.81 361.5C534.81 313.2 495.51 273.9 447.2 273.9Z" fill="#A9C753"/>
<path d="M395.7 406.73C395.55 406.73 395.41 406.66 395.31 406.53C390.09 399.43 385.93 392.1 382.95 384.73C380.67 379.08 388.44 374.37 393.59 371.25C394.57 370.66 395.45 370.13 396.14 369.66C396.36 369.51 396.66 369.57 396.81 369.79C396.96 370.01 396.9 370.31 396.68 370.46C395.97 370.94 395.08 371.48 394.09 372.08C389.22 375.03 381.86 379.48 383.84 384.37C386.79 391.66 390.91 398.93 396.08 405.96C396.24 406.17 396.19 406.48 395.98 406.63C395.89 406.69 395.79 406.72 395.69 406.72L395.7 406.73Z" fill="#A9C753"/>
<path d="M413.27 422.63C413.18 422.63 413.08 422.6 413 422.54C408.5 419.41 404.38 415.73 400.75 411.6C400.57 411.4 400.59 411.1 400.79 410.92C400.99 410.74 401.29 410.76 401.47 410.96C405.04 415.03 409.1 418.66 413.54 421.74C413.76 421.89 413.81 422.19 413.66 422.41C413.57 422.54 413.42 422.62 413.27 422.62V422.63Z" fill="#A9C753"/>
<path d="M472.25 438.55C472.02 438.55 471.82 438.39 471.77 438.15C470.88 433.02 468.51 428.24 466.22 423.62L465.27 421.69C464.91 420.95 464.48 420.2 464.03 419.42C462.53 416.81 460.96 414.1 461.6 411.03C462.25 407.86 465.48 405 468.33 402.47C469.44 401.49 470.49 400.56 471.29 399.69C471.48 399.49 471.78 399.48 471.97 399.66C472.17 399.84 472.18 400.15 472 400.34C471.17 401.24 470.1 402.18 468.97 403.18C466.24 405.6 463.14 408.35 462.55 411.21C461.99 413.93 463.46 416.47 464.87 418.93C465.31 419.7 465.77 420.49 466.15 421.26L467.1 423.19C469.42 427.87 471.82 432.72 472.73 437.98C472.78 438.24 472.6 438.49 472.34 438.54C472.31 438.54 472.28 438.54 472.26 438.54L472.25 438.55Z" fill="#A9C753"/>
<path d="M474.5 398.06C474.39 398.06 474.27 398.02 474.18 397.94C473.98 397.76 473.96 397.46 474.14 397.26C477.69 393.28 481.39 389.37 485.16 385.62C487.12 383.67 490.77 381.57 494.18 381.71C496 381.76 497.49 382.41 498.61 383.65C498.79 383.85 498.77 384.15 498.57 384.33C498.37 384.51 498.06 384.49 497.89 384.29C496.95 383.25 495.69 382.71 494.15 382.66C494.09 382.66 494.02 382.66 493.96 382.66C491.03 382.66 487.67 384.47 485.83 386.3C482.08 390.03 478.39 393.93 474.85 397.9C474.76 398.01 474.63 398.06 474.49 398.06H474.5Z" fill="#A9C753"/>
<path d="M485.46 361.23C485.2 361.23 484.99 361.03 484.98 360.77C484.69 354.01 483 347.49 479.96 341.39C476.86 335.17 471.99 330.52 466.86 325.91C466.66 325.73 466.65 325.43 466.82 325.23C467 325.03 467.3 325.02 467.5 325.19C472.71 329.86 477.65 334.58 480.82 340.95C483.92 347.17 485.65 353.82 485.95 360.72C485.95 360.99 485.75 361.21 485.49 361.22H485.47L485.46 361.23Z" fill="#A9C753"/>
<path d="M399.17 317.8C399.06 317.8 398.94 317.76 398.85 317.68C398.65 317.5 398.63 317.2 398.81 317C408.01 306.53 420.14 299.36 432.1 297.34C432.41 297.3 432.61 297.47 432.66 297.73C432.7 297.99 432.53 298.24 432.27 298.29C420.53 300.28 408.6 307.33 399.54 317.63C399.45 317.74 399.31 317.79 399.18 317.79L399.17 317.8Z" fill="#A9C753"/>
<path d="M488.02 309.53C487.93 309.53 487.83 309.5 487.75 309.45C485.19 307.74 482.54 307.07 479.74 306.35C477.73 305.84 475.65 305.31 473.61 304.37C471.22 303.26 469.71 301.92 469 300.27C468.06 298.09 468.47 295.85 468.86 293.69L468.97 293.09C469.28 291.34 469.47 289.53 469.67 287.78C469.79 286.7 469.9 285.62 470.04 284.55C470.08 284.29 470.3 284.1 470.58 284.14C470.84 284.18 471.03 284.42 471 284.68C470.86 285.74 470.74 286.81 470.63 287.89C470.44 289.66 470.24 291.48 469.93 293.26L469.82 293.87C469.45 295.89 469.07 297.98 469.9 299.9C470.51 301.32 471.86 302.5 474.03 303.5C475.99 304.41 478.02 304.92 479.99 305.42C482.75 306.12 485.61 306.85 488.3 308.65C488.52 308.8 488.58 309.1 488.43 309.32C488.34 309.46 488.19 309.53 488.03 309.53H488.02Z" fill="#A9C753"/>
<path d="M506.33 328.38C506.14 328.38 505.97 328.27 505.89 328.09C502.91 321.05 496.94 315.97 490.92 311.53C490.71 311.37 490.66 311.07 490.82 310.86C490.98 310.64 491.28 310.6 491.49 310.76C497.61 315.28 503.7 320.46 506.77 327.72C506.87 327.97 506.77 328.25 506.52 328.35C506.46 328.38 506.39 328.39 506.33 328.39V328.38Z" fill="#A9C753"/>
<path d="M513.04 362.22C513.04 362.22 513.01 362.22 512.99 362.22C512.73 362.19 512.53 361.95 512.56 361.69C513.02 357.36 513.08 352.96 512.73 348.6C512.71 348.34 512.91 348.1 513.17 348.08C513.41 348.04 513.67 348.26 513.69 348.52C514.05 352.94 513.99 357.4 513.52 361.79C513.49 362.04 513.29 362.22 513.04 362.22Z" fill="#A9C753"/>
</svg>
